<svg width="60" height="60" viewBox="0 0 60 60" fill="none" xmlns="http://www.w3.org/2000/svg">
<path d="M50.5733 3.5271H8.67803C8.18187 3.5271 7.78027 3.9287 7.78027 4.42486V51.1082C7.78027 51.6037 8.18187 52.0059 8.67803 52.0059H14.9623V57.0932C14.9623 57.5887 15.3639 57.9909 15.8601 57.9909C16.3562 57.9909 16.7578 57.5887 16.7578 57.0932V52.0059H40.698V57.0932C40.698 57.5887 41.1002 57.9909 41.5957 57.9909C42.0913 57.9909 42.4935 57.5887 42.4935 57.0932V52.0059H50.5733C51.0689 52.0059 51.4711 51.6037 51.4711 51.1082V4.42486C51.4711 3.9287 51.0689 3.5271 50.5733 3.5271ZM49.6755 5.32261V21.4822H9.57578V5.32261H49.6755ZM9.57578 50.2104V23.2777H49.6755V50.2104H9.57578Z" fill="#1395DF"/>
<path d="M14.0647 19.0883H26.0348C26.531 19.0883 26.9326 18.6867 26.9326 18.1905V9.21294C26.9326 8.71678 26.531 8.31519 26.0348 8.31519H14.0647C13.5686 8.31519 13.167 8.71678 13.167 9.21294V18.1905C13.167 18.6867 13.5686 19.0883 14.0647 19.0883ZM14.9625 10.1107H25.1371V17.2927H14.9625V10.1107Z" fill="#1395DF"/>
<path d="M33.2171 19.0883H45.1872C45.6827 19.0883 46.0849 18.6867 46.0849 18.1905V9.21294C46.0849 8.71678 45.6827 8.31519 45.1872 8.31519H33.2171C32.7215 8.31519 32.3193 8.71678 32.3193 9.21294V18.1905C32.3193 18.6867 32.7215 19.0883 33.2171 19.0883ZM34.1148 10.1107H44.2894V17.2927H34.1148V10.1107Z" fill="#1395DF"/>
</svg>
