<svg width="60" height="60" viewBox="0 0 60 60" fill="none" xmlns="http://www.w3.org/2000/svg">
<path d="M50.5734 3.14215H9.27666C8.7805 3.14215 8.37891 3.54375 8.37891 4.03991V49.5262C8.37891 50.0218 8.7805 50.424 9.27666 50.424H15.561V56.1097C15.561 56.6053 15.9625 57.0075 16.4587 57.0075C16.9549 57.0075 17.3565 56.6053 17.3565 56.1097V50.424H41.2966V56.1097C41.2966 56.6053 41.6988 57.0075 42.1944 57.0075C42.6899 57.0075 43.0921 56.6053 43.0921 56.1097V50.424H50.5734C51.069 50.424 51.4712 50.0218 51.4712 49.5262V4.03991C51.4712 3.54375 51.069 3.14215 50.5734 3.14215ZM10.1744 4.93766H28.728V48.6284H10.1744V4.93766ZM49.6757 48.6284H30.5235V4.93766H49.6757V48.6284Z" fill="#1395DF"/>
<path d="M24.2396 22.2943C23.7434 22.2943 23.3418 22.6959 23.3418 23.1921V30.3741C23.3418 30.8697 23.7434 31.2719 24.2396 31.2719C24.7357 31.2719 25.1373 30.8697 25.1373 30.3741V23.1921C25.1373 22.6959 24.7357 22.2943 24.2396 22.2943Z" fill="#1395DF"/>
<path d="M35.012 31.2719C35.5076 31.2719 35.9098 30.8697 35.9098 30.3741V23.1921C35.9098 22.6959 35.5076 22.2943 35.012 22.2943C34.5165 22.2943 34.1143 22.6959 34.1143 23.1921V30.3741C34.1143 30.8697 34.5165 31.2719 35.012 31.2719Z" fill="#1395DF"/>
</svg>
