<svg width="60" height="60" viewBox="0 0 60 60" fill="none" xmlns="http://www.w3.org/2000/svg">
<path d="M40.8419 7.31547C40.6341 7.00372 40.2184 6.89981 39.9067 7.10764L33.0482 11.8878C32.8923 11.9917 32.7884 12.1476 32.7364 12.3554L32.2688 15.7847H19.6949C19.4871 15.7847 19.3312 15.8886 19.1754 15.9925C19.0195 16.1484 18.9675 16.3042 19.0195 16.5121L22.137 51.376C22.1889 51.7397 22.4487 51.9995 22.8124 51.9995H35.9579C36.3216 51.9995 36.6333 51.7397 36.6333 51.376L39.7508 16.5121C39.7508 16.3042 39.6988 16.1484 39.5949 15.9925C39.4391 15.8366 39.2832 15.7847 39.0753 15.7847H33.6197L34.0354 12.875L40.6861 8.25072C40.9978 8.04289 41.0498 7.62722 40.8419 7.31547ZM20.4743 17.1875H32.061L30.6062 27.3713H21.3576L20.4743 17.1875ZM35.2824 50.6486H23.4359L21.4615 28.7222H37.2049L35.2824 50.6486ZM38.244 17.1875L37.3607 27.3713H31.9571L33.4119 17.1875H38.244Z" fill="#1395DF"/>
</svg>
