<svg width="60" height="60" viewBox="0 0 60 60" fill="none" xmlns="http://www.w3.org/2000/svg">
<path d="M38.3164 30.297H22.2768C22.0405 30.297 21.8138 30.3909 21.6467 30.558C21.4796 30.7251 21.3857 30.9518 21.3857 31.1881V41.2871C21.3857 41.5234 21.4796 41.7501 21.6467 41.9172C21.8138 42.0843 22.0405 42.1782 22.2768 42.1782H38.3164C38.5528 42.1782 38.7794 42.0843 38.9465 41.9172C39.1136 41.7501 39.2075 41.5234 39.2075 41.2871V31.1881C39.2075 30.9518 39.1136 30.7251 38.9465 30.558C38.7794 30.3909 38.5528 30.297 38.3164 30.297ZM37.4253 40.396H23.1679V32.0792H37.4253V40.396Z" fill="#1395DF"/>
<path d="M46.9012 30.297H44.5547V19.604H46.0398C46.2762 19.604 46.5028 19.5101 46.6699 19.343C46.837 19.1759 46.9309 18.9492 46.9309 18.7129V13.9604C46.9309 12.1506 46.2128 10.4147 44.9342 9.13388C43.6556 7.85303 41.9209 7.13188 40.1111 7.12873H35.0497C35.0497 5.78952 34.5177 4.50516 33.5708 3.55819C32.6238 2.61122 31.3395 2.07922 30.0002 2.07922C28.661 2.07922 27.3767 2.61122 26.4297 3.55819C25.4827 4.50516 24.9507 5.78952 24.9507 7.12873H20.4834C18.6756 7.13187 16.9428 7.85139 15.6646 9.12967C14.3863 10.408 13.6667 12.1408 13.6636 13.9485V18.701C13.662 18.819 13.6839 18.9362 13.728 19.0457C13.7721 19.1551 13.8375 19.2548 13.9204 19.3388C14.0033 19.4228 14.102 19.4895 14.2109 19.535C14.3198 19.5806 14.4367 19.604 14.5547 19.604H16.0398V30.297H13.0993C11.9879 30.2986 10.9227 30.7412 10.1374 31.5276C9.35219 32.3139 8.91113 33.3798 8.91113 34.4911V50.7921C8.91113 51.0284 9.00502 51.2551 9.17213 51.4222C9.33924 51.5893 9.56589 51.6832 9.80222 51.6832H50.1983C50.4346 51.6832 50.6612 51.5893 50.8284 51.4222C50.9955 51.2551 51.0893 51.0284 51.0893 50.7921V34.4911C51.0893 33.3798 50.6483 32.3139 49.863 31.5276C49.0778 30.7412 48.0125 30.2986 46.9012 30.297ZM30.0002 4.15843C30.8173 4.15641 31.6056 4.46004 32.2102 5.00967C32.8148 5.55929 33.1919 6.31516 33.2676 7.12873H26.7329C26.8072 6.31465 27.184 5.55799 27.7889 5.0081C28.3937 4.45822 29.1828 4.15505 30.0002 4.15843ZM15.4458 13.9485C15.4474 12.613 15.9786 11.3325 16.923 10.3881C17.8674 9.44373 19.1478 8.91248 20.4834 8.91091H40.0874C40.7507 8.90856 41.408 9.03709 42.0216 9.28913C42.6351 9.54117 43.193 9.91178 43.6631 10.3797C44.1333 10.8477 44.5065 11.4038 44.7614 12.0161C45.0164 12.6285 45.148 13.2852 45.1488 13.9485V17.8218H39.2082V15.1485C39.2082 14.9122 39.1143 14.6855 38.9472 14.5184C38.7801 14.3513 38.5534 14.2574 38.3171 14.2574C38.0807 14.2574 37.8541 14.3513 37.687 14.5184C37.5199 14.6855 37.426 14.9122 37.426 15.1485V17.8218H22.5745V15.1485C22.5745 14.9122 22.4806 14.6855 22.3135 14.5184C22.1464 14.3513 21.9197 14.2574 21.6834 14.2574C21.4471 14.2574 21.2204 14.3513 21.0533 14.5184C20.8862 14.6855 20.7923 14.9122 20.7923 15.1485V17.8218H15.4458V13.9485ZM10.6933 34.4911C10.6933 33.8525 10.9466 33.2399 11.3976 32.7877C11.8487 32.3356 12.4606 32.0808 13.0993 32.0792H16.0398V49.901H10.6933V34.4911ZM17.822 19.604H20.7923V22.2772C20.7923 22.5136 20.8862 22.7402 21.0533 22.9073C21.2204 23.0745 21.4471 23.1683 21.6834 23.1683C21.9197 23.1683 22.1464 23.0745 22.3135 22.9073C22.4806 22.7402 22.5745 22.5136 22.5745 22.2772V19.604H37.426V22.2772C37.426 22.5136 37.5199 22.7402 37.687 22.9073C37.8541 23.0745 38.0807 23.1683 38.3171 23.1683C38.5534 23.1683 38.7801 23.0745 38.9472 22.9073C39.1143 22.7402 39.2082 22.5136 39.2082 22.2772V19.604H42.7725V49.901H17.822V19.604ZM49.3072 49.901H44.5547V32.0792H46.9012C47.5399 32.0808 48.1518 32.3356 48.6028 32.7877C49.0539 33.2399 49.3072 33.8525 49.3072 34.4911V49.901Z" fill="#1395DF"/>
</svg>
