<svg width="60" height="60" viewBox="0 0 60 60" fill="none" xmlns="http://www.w3.org/2000/svg">
<path d="M53.3004 33.12L36.3228 13.6874V5.55553C36.3228 5.05988 35.921 4.65869 35.4259 4.65869H24.3644C23.8687 4.65869 23.4675 5.05988 23.4675 5.55553V13.6874L6.48988 33.12C6.25849 33.3849 6.20349 33.761 6.34877 34.0808C6.49406 34.4013 6.81334 34.607 7.16549 34.607H52.626C52.9776 34.607 53.2969 34.4013 53.4421 34.0808C53.5874 33.761 53.5318 33.3849 53.3004 33.12ZM9.13913 32.8133L25.0394 14.6141C25.1823 14.4509 25.2612 14.2411 25.2612 14.024V6.45236H34.5291V14.024C34.5291 14.2411 34.608 14.4503 34.7503 14.6141L50.6506 32.8133H9.13913Z" fill="#1395DF"/>
<path d="M13.4847 39.1575C12.9891 39.1575 12.5879 39.5593 12.5879 40.0543V45.0993C12.5879 45.5944 12.9891 45.9961 13.4847 45.9961C13.9804 45.9961 14.3816 45.5944 14.3816 45.0993V40.0543C14.3816 39.5593 13.9798 39.1575 13.4847 39.1575Z" fill="#1395DF"/>
<path d="M13.4847 48.2905C12.9891 48.2905 12.5879 48.6923 12.5879 49.1874V54.233C12.5879 54.728 12.9891 55.1298 13.4847 55.1298C13.9804 55.1298 14.3816 54.728 14.3816 54.233V49.1874C14.3816 48.6923 13.9798 48.2905 13.4847 48.2905Z" fill="#1395DF"/>
<path d="M20.0502 39.1575C19.5545 39.1575 19.1533 39.5593 19.1533 40.0543V45.0993C19.1533 45.5944 19.5545 45.9961 20.0502 45.9961C20.5458 45.9961 20.947 45.5944 20.947 45.0993V40.0543C20.947 39.5593 20.5458 39.1575 20.0502 39.1575Z" fill="#1395DF"/>
<path d="M20.0502 48.2905C19.5545 48.2905 19.1533 48.6923 19.1533 49.1874V54.233C19.1533 54.728 19.5545 55.1298 20.0502 55.1298C20.5458 55.1298 20.947 54.728 20.947 54.233V49.1874C20.947 48.6923 20.5458 48.2905 20.0502 48.2905Z" fill="#1395DF"/>
<path d="M26.6146 39.1575C26.119 39.1575 25.7178 39.5593 25.7178 40.0543V45.0993C25.7178 45.5944 26.119 45.9961 26.6146 45.9961C27.1103 45.9961 27.5114 45.5944 27.5114 45.0993V40.0543C27.5114 39.5593 27.1097 39.1575 26.6146 39.1575Z" fill="#1395DF"/>
<path d="M26.6146 48.2905C26.119 48.2905 25.7178 48.6923 25.7178 49.1874V54.233C25.7178 54.728 26.119 55.1298 26.6146 55.1298C27.1103 55.1298 27.5114 54.728 27.5114 54.233V49.1874C27.5114 48.6923 27.1097 48.2905 26.6146 48.2905Z" fill="#1395DF"/>
<path d="M33.1791 39.1575C32.684 39.1575 32.2822 39.5593 32.2822 40.0543V45.0993C32.2822 45.5944 32.684 45.9961 33.1791 45.9961C33.6741 45.9961 34.0759 45.5944 34.0759 45.0993V40.0543C34.0759 39.5593 33.6741 39.1575 33.1791 39.1575Z" fill="#1395DF"/>
<path d="M33.1791 48.2905C32.684 48.2905 32.2822 48.6923 32.2822 49.1874V54.233C32.2822 54.728 32.684 55.1298 33.1791 55.1298C33.6741 55.1298 34.0759 54.728 34.0759 54.233V49.1874C34.0759 48.6923 33.6741 48.2905 33.1791 48.2905Z" fill="#1395DF"/>
<path d="M39.7416 39.1575C39.2465 39.1575 38.8447 39.5593 38.8447 40.0543V45.0993C38.8447 45.5944 39.2465 45.9961 39.7416 45.9961C40.2366 45.9961 40.6384 45.5944 40.6384 45.0993V40.0543C40.6384 39.5593 40.2366 39.1575 39.7416 39.1575Z" fill="#1395DF"/>
<path d="M39.7416 48.2905C39.2465 48.2905 38.8447 48.6923 38.8447 49.1874V54.233C38.8447 54.728 39.2465 55.1298 39.7416 55.1298C40.2366 55.1298 40.6384 54.728 40.6384 54.233V49.1874C40.6384 48.6923 40.2366 48.2905 39.7416 48.2905Z" fill="#1395DF"/>
<path d="M46.306 39.1575C45.811 39.1575 45.4092 39.5593 45.4092 40.0543V45.0993C45.4092 45.5944 45.811 45.9961 46.306 45.9961C46.8011 45.9961 47.2029 45.5944 47.2029 45.0993V40.0543C47.2029 39.5593 46.8011 39.1575 46.306 39.1575Z" fill="#1395DF"/>
<path d="M46.306 48.2905C45.811 48.2905 45.4092 48.6923 45.4092 49.1874V54.233C45.4092 54.728 45.811 55.1298 46.306 55.1298C46.8011 55.1298 47.2029 54.728 47.2029 54.233V49.1874C47.2029 48.6923 46.8011 48.2905 46.306 48.2905Z" fill="#1395DF"/>
</svg>
