<svg width="60" height="60" viewBox="0 0 60 60" fill="none" xmlns="http://www.w3.org/2000/svg">
<path d="M48.9147 25.7702C48.9318 25.5956 48.8967 25.4199 48.8137 25.2653L42.279 12.9445C42.2032 12.8008 42.0895 12.6805 41.9502 12.5967C41.811 12.513 41.6515 12.4689 41.4889 12.4692H17.7266C17.5573 12.4689 17.3914 12.5167 17.2483 12.6072C17.1052 12.6977 16.9909 12.827 16.9186 12.9801L11.0553 25.3009C10.9816 25.4562 10.9548 25.6296 10.9781 25.7999C9.5316 26.2008 8.25613 27.0641 7.34647 28.2581C6.43682 29.452 5.94299 30.9108 5.94043 32.4118V36.4989C5.94202 37.9502 6.40256 39.3638 7.25617 40.5375C8.10978 41.7113 9.31271 42.5849 10.6929 43.0336C10.6929 43.0336 10.6929 43.0336 10.6929 43.0692V49.6039C10.711 49.8969 10.787 50.1835 10.9165 50.447C11.046 50.7105 11.2265 50.9457 11.4474 51.1391C11.6684 51.3324 11.9255 51.48 12.2038 51.5734C12.4822 51.6668 12.7763 51.7041 13.0691 51.6831H16.0394C16.6271 51.7256 17.2076 51.5329 17.6532 51.1475C18.0988 50.762 18.3731 50.2153 18.4157 49.6277V43.3663H41.584V49.6277C41.6266 50.2153 41.9008 50.762 42.3465 51.1475C42.7921 51.5329 43.3726 51.7256 43.9602 51.6831H46.9305C47.5182 51.7256 48.0987 51.5329 48.5443 51.1475C48.9899 50.762 49.2642 50.2153 49.3068 49.6277V43.093C49.3068 43.093 49.3068 43.093 49.3068 43.0574C50.687 42.6087 51.8899 41.735 52.7435 40.5613C53.5971 39.3876 54.0576 37.974 54.0592 36.5227V32.4118C54.0569 30.8917 53.5506 29.4153 52.6198 28.2136C51.6889 27.0118 50.3859 26.1526 48.9147 25.7702ZM18.2612 14.2574H40.9543L46.9305 25.5445H12.9087L18.2612 14.2574ZM16.6335 49.6277C16.6335 49.7108 16.4196 49.9009 16.0394 49.9009H13.0691C12.7186 49.9009 12.4751 49.7108 12.4751 49.6277V43.3663H12.8078H16.6335V49.6277ZM47.5246 49.6277C47.5246 49.7108 47.3107 49.9009 46.9305 49.9009H43.9602C43.6097 49.9009 43.3662 49.7108 43.3662 49.6277V43.3663H47.1919H47.5246V49.6277ZM52.2771 36.5049C52.2739 37.852 51.737 39.143 50.7838 40.0951C49.8307 41.0471 48.5391 41.5825 47.1919 41.5841H12.8078C11.4596 41.5825 10.1671 41.0463 9.21375 40.093C8.26044 39.1396 7.72418 37.8471 7.72261 36.4989V32.4118C7.72418 31.0636 8.26044 29.7711 9.21375 28.8178C10.1671 27.8645 11.4596 27.3282 12.8078 27.3267H47.1919C48.5401 27.3282 49.8326 27.8645 50.7859 28.8178C51.7392 29.7711 52.2755 31.0636 52.2771 32.4118V36.5049Z" fill="#1395DF"/>
<path d="M14.7153 30.6593C13.9739 30.6593 13.2492 30.8791 12.6327 31.291C12.0163 31.7029 11.5359 32.2884 11.2521 32.9733C10.9684 33.6583 10.8942 34.412 11.0388 35.1391C11.1835 35.8663 11.5405 36.5342 12.0647 37.0584C12.589 37.5827 13.2569 37.9397 13.984 38.0843C14.7112 38.2289 15.4649 38.1547 16.1498 37.871C16.8348 37.5873 17.4202 37.1068 17.8321 36.4904C18.244 35.8739 18.4638 35.1492 18.4638 34.4078C18.4638 33.4136 18.0689 32.4602 17.3659 31.7572C16.6629 31.0542 15.7095 30.6593 14.7153 30.6593ZM14.7153 36.3682C14.3264 36.3682 13.9462 36.2529 13.6229 36.0368C13.2995 35.8208 13.0475 35.5137 12.8987 35.1544C12.7498 34.7951 12.7109 34.3997 12.7868 34.0183C12.8626 33.6368 13.0499 33.2865 13.3249 33.0115C13.5999 32.7365 13.9503 32.5492 14.3317 32.4733C14.7131 32.3975 15.1085 32.4364 15.4678 32.5852C15.8271 32.734 16.1342 32.9861 16.3503 33.3094C16.5663 33.6328 16.6816 34.013 16.6816 34.4019C16.6816 34.6601 16.6308 34.9158 16.532 35.1544C16.4332 35.3929 16.2883 35.6097 16.1057 35.7923C15.9231 35.9749 15.7064 36.1197 15.4678 36.2185C15.2292 36.3174 14.9735 36.3682 14.7153 36.3682Z" fill="#1395DF"/>
<path d="M45.1489 30.4158C44.4075 30.4158 43.6828 30.6356 43.0663 31.0475C42.4499 31.4594 41.9694 32.0448 41.6857 32.7298C41.402 33.4147 41.3278 34.1684 41.4724 34.8956C41.6171 35.6227 41.9741 36.2906 42.4983 36.8149C43.0225 37.3391 43.6905 37.6961 44.4176 37.8408C45.1448 37.9854 45.8985 37.9112 46.5834 37.6275C47.2684 37.3437 47.8538 36.8633 48.2657 36.2468C48.6776 35.6304 48.8974 34.9057 48.8974 34.1643C48.8974 33.1701 48.5025 32.2167 47.7995 31.5137C47.0965 30.8107 46.1431 30.4158 45.1489 30.4158ZM45.1489 36.1247C44.76 36.1247 44.3798 36.0094 44.0565 35.7933C43.7331 35.5772 43.4811 35.2701 43.3322 34.9108C43.1834 34.5515 43.1445 34.1562 43.2204 33.7747C43.2962 33.3933 43.4835 33.0429 43.7585 32.7679C44.0335 32.4929 44.3839 32.3057 44.7653 32.2298C45.1467 32.1539 45.5421 32.1929 45.9014 32.3417C46.2607 32.4905 46.5678 32.7425 46.7839 33.0659C46.9999 33.3893 47.1152 33.7694 47.1152 34.1583C47.1152 34.6798 46.9081 35.18 46.5393 35.5488C46.1706 35.9175 45.6704 36.1247 45.1489 36.1247Z" fill="#1395DF"/>
<path d="M34.1584 35.0496H25.2475C25.0112 35.0496 24.7846 35.1434 24.6174 35.3106C24.4503 35.4777 24.3564 35.7043 24.3564 35.9406C24.3564 36.177 24.4503 36.4036 24.6174 36.5707C24.7846 36.7379 25.0112 36.8317 25.2475 36.8317H34.1584C34.3948 36.8317 34.6214 36.7379 34.7885 36.5707C34.9556 36.4036 35.0495 36.177 35.0495 35.9406C35.0495 35.7043 34.9556 35.4777 34.7885 35.3106C34.6214 35.1434 34.3948 35.0496 34.1584 35.0496Z" fill="#1395DF"/>
<path d="M30.8909 5.34656H28.5146V7.72279H30.8909V5.34656Z" fill="#1395DF"/>
<path d="M23.762 2.97034H21.3857V5.34657H23.762V2.97034Z" fill="#1395DF"/>
<path d="M26.1389 5.34656H23.7627V7.72279H26.1389V5.34656Z" fill="#1395DF"/>
<path d="M28.5149 2.97034H26.1387V5.34657H28.5149V2.97034Z" fill="#1395DF"/>
<path d="M33.2669 2.97034H30.8906V5.34657H33.2669V2.97034Z" fill="#1395DF"/>
<path d="M35.6438 5.34656H33.2676V7.72279H35.6438V5.34656Z" fill="#1395DF"/>
<path d="M38.0198 2.97034H35.6436V5.34657H38.0198V2.97034Z" fill="#1395DF"/>
</svg>
