<svg width="60" height="60" viewBox="0 0 60 60" fill="none" xmlns="http://www.w3.org/2000/svg">
<path d="M48.7387 15.681H41.9425L37.1797 7.06836C37.0219 6.78257 36.7211 6.60559 36.3953 6.60559H23.378C23.0492 6.60559 22.7473 6.78556 22.59 7.07434L17.9115 15.6816H11.0502C10.5545 15.6816 10.1533 16.0827 10.1533 16.5784V41.3185C10.1533 41.8135 10.5545 42.2153 11.0502 42.2153H27.2512L20.1016 51.7486C19.8045 52.145 19.8852 52.7077 20.281 53.0048C20.4424 53.1256 20.6307 53.1842 20.8185 53.1842C21.0911 53.1842 21.3602 53.0604 21.5365 52.8254L29.4938 42.2147H29.7599L37.7172 52.8248C37.8936 53.0598 38.1626 53.1836 38.4353 53.1836C38.6224 53.1836 38.8114 53.125 38.9728 53.0042C39.3686 52.7071 39.4493 52.1445 39.1522 51.748L32.0026 42.2147H48.7387C49.2338 42.2147 49.6355 41.8129 49.6355 41.3179V16.5778C49.6355 16.0821 49.2338 15.681 48.7387 15.681ZM47.8419 40.421H11.947V17.4746H18.4449C18.7737 17.4746 19.0756 17.2947 19.2329 17.0059L23.9114 8.39866H35.8662L40.6289 17.0113C40.7868 17.2971 41.0875 17.474 41.4134 17.474H47.8413V40.421H47.8419Z" fill="#1395DF"/>
<path d="M29.8926 18.8752C25.7713 18.8752 22.4189 22.2294 22.4189 26.3519C22.4189 30.4737 25.7713 33.8267 29.8926 33.8267C34.0102 33.8267 37.3602 30.4737 37.3602 26.3519C37.3602 22.23 34.0108 18.8758 29.8926 18.8752ZM29.8926 32.033C26.7608 32.033 24.2126 29.4842 24.2126 26.3519C24.2126 23.2183 26.7608 20.6689 29.8926 20.6689C33.0207 20.6695 35.5665 23.2189 35.5665 26.3519C35.5665 29.4842 33.0213 32.033 29.8926 32.033Z" fill="#1395DF"/>
</svg>
