<svg width="60" height="60" viewBox="0 0 60 60" fill="none" xmlns="http://www.w3.org/2000/svg">
<path d="M58.4086 49.0833L51.3714 40.8372C51.326 40.7834 51.274 40.7385 51.2196 40.6985C51.1849 40.6004 51.1383 40.506 51.0695 40.4229L30.4627 15.6971V10.1224C30.4627 9.62677 30.0615 9.22559 29.5658 9.22559C29.0702 9.22559 28.669 9.62677 28.669 10.1224V15.6876L8.05794 40.4223C7.97723 40.5191 7.9282 40.6321 7.89412 40.7493L1.36278 48.9123C1.05307 49.2991 1.11585 49.8635 1.50268 50.1726C1.6677 50.3054 1.8656 50.3694 2.06231 50.3694C2.32538 50.3694 2.58606 50.2546 2.76303 50.0333L8.60979 42.7271L12.1069 49.7254C12.2587 50.0292 12.569 50.2211 12.9092 50.2211H46.2147C46.5543 50.2211 46.8646 50.0292 47.017 49.7254L50.5583 42.6458L57.0448 50.2474C57.2218 50.4554 57.4741 50.5619 57.7276 50.5619C57.9333 50.5619 58.1402 50.4913 58.3094 50.3472C58.6854 50.0262 58.7303 49.46 58.4086 49.0833ZM36.5653 48.4274H22.5586L29.5622 30.9236L36.5653 48.4274ZM32.0184 32.2342L40.958 41.1738L37.9811 47.136L32.0184 32.2342ZM21.1428 47.1366L18.1629 41.1738L27.1067 32.2324L21.1428 47.1366ZM9.81155 41.1206L28.6654 18.4947V28.138L16.4374 40.3625C16.1641 40.6351 16.0966 41.0518 16.2694 41.3974L19.7826 48.4274H13.4635L9.81155 41.1206ZM45.6604 48.4274H39.3401L42.8509 41.3968C43.0231 41.0518 42.9556 40.6351 42.6829 40.3625L30.4591 28.138V18.4941L49.3165 41.1194L45.6604 48.4274Z" fill="#1395DF"/>
</svg>
