<svg width="60" height="60" viewBox="0 0 60 60" fill="none" xmlns="http://www.w3.org/2000/svg">
<path d="M58.0988 34.2297C56.5304 28.0277 55.0156 27.4337 49.9958 26.3346L49.2057 26.1386C45.9324 25.4079 40.0453 20.994 38.1087 19.5386C36.0675 18.0307 33.5949 17.2204 31.0572 17.2277H21.1304C18.5938 17.2277 18.0116 17.5544 17.2096 18.3624L17.1146 18.4693L14.0671 22.6931C13.6631 23.103 13.3245 23.5129 13.0215 23.8812C12.2789 24.7841 11.7859 25.3841 10.877 25.5564L6.07103 26.1505C3.78984 26.5841 2.37598 27.9208 2.37598 29.703V38.3168C2.37598 38.5532 2.46986 38.7798 2.63697 38.9469C2.80408 39.114 3.03073 39.2079 3.26707 39.2079H7.77598C8.04761 40.3862 8.71066 41.4377 9.65689 42.1906C10.6031 42.9435 11.7766 43.3535 12.9859 43.3535C14.1951 43.3535 15.3686 42.9435 16.3149 42.1906C17.2611 41.4377 17.9241 40.3862 18.1958 39.2079H38.6671C38.9387 40.3862 39.6017 41.4377 40.548 42.1906C41.4942 42.9435 42.6677 43.3535 43.877 43.3535C45.0862 43.3535 46.2597 42.9435 47.206 42.1906C48.1522 41.4377 48.8152 40.3862 49.0869 39.2079H54.2314C54.8392 39.2066 55.4386 39.0667 55.9842 38.799C56.5298 38.5312 57.0072 38.1426 57.38 37.6626C57.7529 37.1827 58.0114 36.624 58.1359 36.0292C58.2605 35.4343 58.2478 34.8189 58.0988 34.2297ZM14.3997 25.0099C14.7027 24.6416 14.9938 24.2614 15.3799 23.899L15.4453 23.7624L18.4928 19.5386C18.8789 19.1525 19.1344 18.9802 21.1007 18.9802H31.0215C33.1765 18.9789 35.2744 19.6726 37.0037 20.9584C39.5819 22.895 41.7562 24.398 43.6215 25.5148H13.9186L14.3997 25.0099ZM12.9918 41.5841C12.2869 41.5841 11.5977 41.3751 11.0116 40.9834C10.4254 40.5918 9.96856 40.0351 9.69878 39.3838C9.429 38.7325 9.35842 38.0158 9.49595 37.3244C9.63348 36.633 9.97295 35.9979 10.4714 35.4994C10.9699 35.0009 11.605 34.6615 12.2964 34.5239C12.9879 34.3864 13.7045 34.457 14.3558 34.7268C15.0071 34.9965 15.5638 35.4534 15.9555 36.0395C16.3471 36.6257 16.5562 37.3148 16.5562 38.0198C16.5562 38.9651 16.1806 39.8717 15.5122 40.5402C14.8438 41.2086 13.9371 41.5841 12.9918 41.5841ZM43.8829 41.5841C43.1779 41.5841 42.4888 41.3751 41.9027 40.9834C41.3165 40.5918 40.8596 40.0351 40.5899 39.3838C40.3201 38.7325 40.2495 38.0158 40.387 37.3244C40.5246 36.633 40.864 35.9979 41.3625 35.4994C41.861 35.0009 42.4961 34.6615 43.1875 34.5239C43.879 34.3864 44.5956 34.457 45.2469 34.7268C45.8982 34.9965 46.4549 35.4534 46.8466 36.0395C47.2382 36.6257 47.4473 37.3148 47.4473 38.0198C47.4473 38.9651 47.0717 39.8717 46.4033 40.5402C45.7348 41.2086 44.8282 41.5841 43.8829 41.5841ZM55.972 36.5762C55.7663 36.8417 55.5024 37.0564 55.2006 37.2036C54.8988 37.3509 54.5672 37.4269 54.2314 37.4257H49.1879C49.0367 36.1232 48.4122 34.9217 47.433 34.0495C46.4538 33.1774 45.1882 32.6955 43.877 32.6955C42.5657 32.6955 41.3002 33.1774 40.321 34.0495C39.3418 34.9217 38.7172 36.1232 38.5661 37.4257H18.2968C18.1456 36.1232 17.5211 34.9217 16.5419 34.0495C15.5627 33.1774 14.2971 32.6955 12.9859 32.6955C11.6746 32.6955 10.4091 33.1774 9.42988 34.0495C8.4507 34.9217 7.82615 36.1232 7.67499 37.4257H4.15815V29.703C4.15815 28.4495 5.87499 28.0277 6.35023 27.9208L11.0314 27.3267H47.073C47.6351 27.5742 48.2175 27.7729 48.8136 27.9208L49.6156 28.099C54.178 29.097 55.0037 29.2871 56.37 34.6871C56.451 35.0116 56.4572 35.3502 56.3882 35.6774C56.3193 36.0047 56.177 36.312 55.972 36.5762Z" fill="#1395DF"/>
</svg>
