<svg width="60" height="60" viewBox="0 0 60 60" fill="none" xmlns="http://www.w3.org/2000/svg">
<path d="M58.0988 34.2296C56.5304 28.0276 55.0156 27.4335 49.9958 26.3345L49.2057 26.1385C45.9324 25.4078 40.0453 20.9939 38.1087 19.5385C36.0675 18.0306 33.5949 17.2203 31.0572 17.2276H21.1304C18.5938 17.2276 18.0116 17.5543 17.2096 18.3622L17.1146 18.4692L14.0671 22.6929C13.6631 23.1028 13.3245 23.5127 13.0215 23.8811C12.2789 24.784 11.7859 25.384 10.877 25.5563L6.07103 26.1504C3.78984 26.584 2.37598 27.9207 2.37598 29.7028V38.3167C2.37598 38.553 2.46986 38.7797 2.63697 38.9468C2.80408 39.1139 3.03073 39.2078 3.26707 39.2078H7.77598C8.04761 40.3861 8.71066 41.4376 9.65689 42.1905C10.6031 42.9434 11.7766 43.3533 12.9859 43.3533C14.1951 43.3533 15.3686 42.9434 16.3149 42.1905C17.2611 41.4376 17.9241 40.3861 18.1958 39.2078H38.6671C38.9387 40.3861 39.6017 41.4376 40.548 42.1905C41.4942 42.9434 42.6677 43.3533 43.877 43.3533C45.0862 43.3533 46.2597 42.9434 47.206 42.1905C48.1522 41.4376 48.8152 40.3861 49.0869 39.2078H54.2314C54.8392 39.2065 55.4386 39.0666 55.9842 38.7988C56.5298 38.5311 57.0072 38.1424 57.38 37.6625C57.7529 37.1825 58.0114 36.6239 58.1359 36.0291C58.2605 35.4342 58.2478 34.8188 58.0988 34.2296ZM14.3997 25.0098C14.7027 24.6414 14.9938 24.2613 15.3799 23.8989L15.4453 23.7622L18.4928 19.5385C18.8789 19.1523 19.1344 18.9801 21.1007 18.9801H31.0215C33.1765 18.9788 35.2744 19.6725 37.0037 20.9583C39.5819 22.8949 41.7562 24.3979 43.6215 25.5147H13.9186L14.3997 25.0098ZM12.9918 41.584C12.2869 41.584 11.5977 41.375 11.0116 40.9833C10.4254 40.5917 9.96856 40.035 9.69878 39.3837C9.429 38.7324 9.35842 38.0157 9.49595 37.3243C9.63348 36.6329 9.97295 35.9978 10.4714 35.4993C10.9699 35.0008 11.605 34.6613 12.2964 34.5238C12.9879 34.3863 13.7045 34.4569 14.3558 34.7266C15.0071 34.9964 15.5638 35.4533 15.9555 36.0394C16.3471 36.6256 16.5562 37.3147 16.5562 38.0197C16.5562 38.965 16.1806 39.8716 15.5122 40.54C14.8438 41.2085 13.9371 41.584 12.9918 41.584ZM43.8829 41.584C43.1779 41.584 42.4888 41.375 41.9027 40.9833C41.3165 40.5917 40.8596 40.035 40.5899 39.3837C40.3201 38.7324 40.2495 38.0157 40.387 37.3243C40.5246 36.6329 40.864 35.9978 41.3625 35.4993C41.861 35.0008 42.4961 34.6613 43.1875 34.5238C43.879 34.3863 44.5956 34.4569 45.2469 34.7266C45.8982 34.9964 46.4549 35.4533 46.8466 36.0394C47.2382 36.6256 47.4473 37.3147 47.4473 38.0197C47.4473 38.965 47.0717 39.8716 46.4033 40.54C45.7348 41.2085 44.8282 41.584 43.8829 41.584ZM55.972 36.5761C55.7663 36.8416 55.5024 37.0562 55.2006 37.2035C54.8988 37.3508 54.5672 37.4268 54.2314 37.4256H49.1879C49.0367 36.1231 48.4122 34.9215 47.433 34.0494C46.4538 33.1773 45.1882 32.6954 43.877 32.6954C42.5657 32.6954 41.3002 33.1773 40.321 34.0494C39.3418 34.9215 38.7172 36.1231 38.5661 37.4256H18.2968C18.1456 36.1231 17.5211 34.9215 16.5419 34.0494C15.5627 33.1773 14.2971 32.6954 12.9859 32.6954C11.6746 32.6954 10.4091 33.1773 9.42988 34.0494C8.4507 34.9215 7.82615 36.1231 7.67499 37.4256H4.15815V29.7028C4.15815 28.4494 5.87499 28.0276 6.35023 27.9207L11.0314 27.3266H47.073C47.6351 27.5741 48.2175 27.7728 48.8136 27.9207L49.6156 28.0989C54.178 29.0969 55.0037 29.287 56.37 34.687C56.451 35.0115 56.4572 35.3501 56.3882 35.6773C56.3193 36.0045 56.177 36.3119 55.972 36.5761Z" fill="#1395DF"/>
</svg>
