<svg width="60" height="60" viewBox="0 0 60 60" fill="none" xmlns="http://www.w3.org/2000/svg">
<path d="M7.35469 29.6212C8.3551 28.4985 9.46182 27.4753 10.6594 26.5658C11.8049 25.713 12.8662 25.1455 13.8313 24.8666C13.6501 24.4739 13.5707 24.042 13.6003 23.6106C13.63 23.1791 13.7677 22.7621 14.0009 22.3979C14.2341 22.0337 14.5552 21.7341 14.9347 21.5266C15.3141 21.3192 15.7397 21.2106 16.1721 21.2108H27.7737C28.9232 21.2121 30.0253 21.6694 30.8382 22.4822C31.6511 23.2951 32.1083 24.3972 32.1096 25.5468C32.1096 25.6927 32.0707 25.836 31.9967 25.9619C31.9228 26.0877 31.8166 26.1916 31.6891 26.2626C32.4408 27.1098 32.8584 28.2015 32.8641 29.334C32.8641 30.8082 32.1096 32.1639 31.0549 33.0451V36.7968H40.3976L45.2689 29.9605C45.3098 29.9021 45.3363 29.8349 45.3463 29.7643C45.3562 29.6938 45.3494 29.6219 45.3263 29.5544L41.5283 19.2012C41.2315 19.0331 40.964 18.818 40.7361 18.5643C40.3854 18.1766 40.1408 17.7048 40.0262 17.1947L36.5174 18.0252C36.4125 18.05 36.3038 18.0539 36.1974 18.0367C36.0911 18.0196 35.9891 17.9816 35.8974 17.925C35.8057 17.8684 35.7261 17.7943 35.663 17.7069C35.6 17.6195 35.5547 17.5206 35.5299 17.4158C35.5051 17.3109 35.5012 17.2022 35.5183 17.0958C35.5355 16.9894 35.5735 16.8875 35.6301 16.7958C35.6867 16.7041 35.7608 16.6244 35.8482 16.5614C35.9355 16.4983 36.0345 16.4531 36.1393 16.4283L40.1659 15.4746C40.3584 14.9919 40.674 14.568 41.0814 14.2453C41.4314 13.9679 41.8365 13.7681 42.2697 13.6592C42.7029 13.5503 43.1543 13.5348 43.594 13.6138L45.9295 14.0284C46.0962 14.0579 46.2555 14.12 46.3982 14.2111C46.5408 14.3022 46.6642 14.4205 46.7612 14.5593C46.8581 14.6981 46.9268 14.8546 46.9633 15.0199C46.9998 15.1852 47.0034 15.3561 46.9738 15.5228L46.3689 18.9321C46.3362 19.1214 46.2612 19.3008 46.1494 19.4571C46.0377 19.6133 45.8922 19.7423 45.7236 19.8344L50.2015 28.8462C50.4317 29.3102 50.5286 29.8291 50.4814 30.345C53.1823 30.4387 55.8901 31.9218 57.126 34.1055C57.1281 34.1094 57.1303 34.1133 57.1323 34.1173C57.2293 34.297 57.2565 34.5063 57.2086 34.7049C57.1608 34.9035 57.0413 35.0774 56.8731 35.1933C56.8407 35.2185 56.793 35.2548 56.7325 35.3005C56.6202 35.3844 56.4592 35.5031 56.2654 35.6449L56.2025 35.6909C56.8321 36.4232 57.2907 37.2867 57.545 38.2184C57.7992 39.1501 57.8428 40.1268 57.6725 41.0775C57.5022 42.0282 57.1223 42.929 56.5604 43.7145C55.9985 44.5001 55.2687 45.1506 54.424 45.6189C53.5794 46.0872 52.641 46.3615 51.6771 46.4218C50.7131 46.4822 49.7479 46.3271 48.8514 45.9679C47.9548 45.6087 47.1496 45.0543 46.4941 44.345C45.8386 43.6357 45.3492 42.7893 45.0616 41.8673C45.0089 41.8882 44.9597 41.9075 44.9176 41.9237C44.8392 41.9539 44.777 41.9766 44.7342 41.9911C44.6294 42.0278 44.5193 42.0471 44.4082 42.0483C44.2645 42.0456 44.124 42.0058 44.0002 41.9329C43.8764 41.8599 43.7735 41.7562 43.7016 41.6318C43.6012 41.4585 43.51 41.28 43.4284 41.0972C43.2075 41.2673 42.9378 41.3619 42.6591 41.3671H20.8036C20.43 42.8252 19.5818 44.1175 18.3926 45.0404C17.2035 45.9632 15.7411 46.4641 14.2359 46.4641C12.7307 46.4641 11.2682 45.9632 10.0791 45.0404C8.88999 44.1175 8.04177 42.8252 7.66816 41.3671H3.52406C3.34766 41.3637 3.17373 41.3249 3.01265 41.2529C2.85158 41.1809 2.70667 41.0772 2.58656 40.9479C2.46645 40.8187 2.3736 40.6666 2.31356 40.5006C2.25352 40.3347 2.22752 40.1584 2.23711 39.9823C2.31937 38.5102 2.98265 34.5473 7.35469 29.6212ZM15.2346 23.7889C15.2349 24.0375 15.3337 24.2758 15.5095 24.4515C15.6853 24.6273 15.9236 24.7262 16.1721 24.7264H22.0315V22.8514H16.1721C15.9236 22.8517 15.6853 22.9506 15.5095 23.1263C15.3337 23.3021 15.2349 23.5404 15.2346 23.7889ZM27.7737 22.8514H22.0315V24.7264H30.3414C30.1668 24.1825 29.8241 23.7079 29.3627 23.371C28.9013 23.034 28.345 22.8521 27.7737 22.8514ZM43.3078 15.2293C43.097 15.1909 42.8805 15.1979 42.6726 15.2496C42.4648 15.3014 42.2703 15.3969 42.1022 15.5297C41.8469 15.7276 41.674 16.0131 41.6168 16.331C41.5828 16.5336 41.5958 16.7412 41.6547 16.938C41.7137 17.1347 41.8169 17.3153 41.9566 17.4659L41.9578 17.4671C42.1853 17.7192 42.4906 17.8878 42.825 17.9463L44.8148 18.2994L45.297 15.5823L43.3078 15.2293ZM47.0393 42.3312C47.3766 42.9267 47.8358 43.4443 48.3869 43.8502C48.938 44.2561 49.5685 44.5411 50.2373 44.6865C50.9061 44.832 51.598 44.8347 52.2679 44.6944C52.9378 44.5541 53.5705 44.274 54.1247 43.8724C54.6789 43.4707 55.1421 42.9567 55.484 42.3638C55.8259 41.7709 56.0388 41.1125 56.1087 40.4317C56.1787 39.7508 56.1042 39.0629 55.8901 38.4128C55.676 37.7628 55.327 37.1652 54.8661 36.6593L54.8544 36.6682C54.6676 36.8033 53.7323 37.4793 53.1633 37.8879L53.3655 39.301C53.3884 39.4609 53.3636 39.6239 53.2942 39.7696C53.2248 39.9154 53.114 40.0375 52.9755 40.1205L51.1421 41.2208C50.9992 41.3066 50.8336 41.3468 50.6672 41.336C50.5009 41.3253 50.3418 41.2641 50.2111 41.1607L49.008 40.2091C48.4924 40.4303 47.6734 40.7784 47.078 41.0294C46.9045 41.1027 46.74 41.172 46.5845 41.2373C46.6908 41.6192 46.8436 41.9865 47.0393 42.3312ZM45.9456 39.7264C47.1504 39.2327 48.5029 38.6447 48.7882 38.5172C48.9259 38.4535 49.0785 38.4293 49.2292 38.4472C49.3798 38.4651 49.5225 38.5244 49.6414 38.6185L50.7837 39.5224L51.6636 38.9944L51.4679 37.627C51.4463 37.4748 51.4678 37.3195 51.5302 37.1789C51.5925 37.0383 51.6931 36.9181 51.8205 36.8319C51.9987 36.7077 54.2055 35.1177 55.2923 34.3228C54.178 32.9449 52.038 31.8243 49.7838 31.9942L45.9456 39.7264C45.9978 39.971 45.8585 39.492 45.9456 39.7264ZM21.7172 39.7264C21.1805 38.2347 20.1965 36.9449 18.8995 36.0331C17.6025 35.1214 16.0558 34.6321 14.4704 34.6321C12.885 34.6321 11.3382 35.1214 10.0412 36.0331C8.74427 36.9449 7.76026 38.2347 7.22355 39.7264H21.7172ZM14.2361 44.8241C15.3023 44.8148 16.34 44.4782 17.2087 43.86C18.0774 43.2417 18.7352 42.3715 19.0932 41.3671H9.3784C9.73642 42.3715 10.3943 43.2418 11.2632 43.8601C12.132 44.4784 13.1697 44.8149 14.2361 44.8241ZM5.5009 39.7264C6.06486 37.7838 7.24429 36.0767 8.86182 34.862C10.4794 33.6472 12.4476 32.9905 14.4704 32.9905C16.4933 32.9905 18.4615 33.6472 20.079 34.862C21.6966 36.0767 22.876 37.7838 23.44 39.7264H42.4745H43.0002H45.9456L49.7838 31.9942L48.648 30.754C48.7658 30.5831 48.8358 30.3839 48.8506 30.1769C48.8654 29.9699 48.8245 29.7627 48.7323 29.5768L43.8741 19.7995L43.4704 19.7277L46.8681 28.9861C46.982 29.3024 47.0174 29.6416 46.9714 29.9745C46.9254 30.3075 46.7994 30.6244 46.6041 30.898L41.6275 37.8816C41.5089 38.0504 41.352 38.1887 41.1697 38.2853C40.9874 38.382 40.7848 38.434 40.5785 38.4374H30.1863C29.7333 38.4374 29.4143 38.0372 29.4143 37.5841V32.6146C29.4097 32.4765 29.4409 32.3396 29.505 32.2173C29.569 32.0949 29.6637 31.9912 29.7798 31.9164C30.297 31.5961 30.7058 31.1276 30.9531 30.5719C31.2004 30.0161 31.2748 29.3988 31.1665 28.8002C31.0583 28.2016 30.7725 27.6495 30.3462 27.2155C29.9199 26.7816 29.3729 26.4859 28.7763 26.3671H16.1721C15.9768 26.3863 15.7803 26.3454 15.6089 26.2499H15.1526C13.3158 26.2499 10.5287 28.5046 8.58152 30.6976C4.88695 34.8608 4.07191 38.203 3.90598 39.7264H5.5009Z" fill="#1395DF"/>
</svg>
