<svg width="60" height="60" viewBox="0 0 60 60" fill="none" xmlns="http://www.w3.org/2000/svg">
<path d="M55.9642 22.3325L54.652 21.7585C53.4099 21.2151 52.0923 20.9394 50.7361 20.9394H46.4015V20.7325C46.4015 20.5496 46.3872 20.37 46.3604 20.195H56.0607C56.5013 20.195 56.8584 19.8375 56.8584 19.3973C56.8584 18.9567 56.5013 18.5996 56.0607 18.5996H45.6764C45.0344 17.7633 44.0252 17.2224 42.8918 17.2224H42.8272C42.1998 17.2224 41.5813 17.4171 41.0383 17.7851C40.3842 18.2287 39.6184 18.4632 38.824 18.4632H32.6993C31.7115 18.4632 30.7652 18.0969 30.036 17.431C30.0015 17.3995 29.9646 17.3714 29.9256 17.3466C28.8833 16.3278 27.5145 15.7689 26.0521 15.7689H21.0704L21.6952 13.4668H22.1484C23.0984 13.4668 23.9099 12.8693 24.2318 12.0313H28.065C28.5056 12.0313 28.8627 11.6738 28.8627 11.2336C28.8627 10.793 28.5056 10.4359 28.065 10.4359H24.2318C23.9099 9.59754 23.0984 9 22.1484 9H19.1532C18.1171 9 17.246 9.70999 16.9946 10.6684H15.852C14.5638 10.6684 13.4283 11.537 13.0905 12.7803L12.2735 15.7907C12.0381 16.6576 12.2164 17.5644 12.7619 18.2782C12.8505 18.3936 12.9466 18.5002 13.049 18.5992H5.83531C5.39471 18.5992 5.03762 18.9563 5.03762 19.3969C5.03762 19.8375 5.39471 20.1946 5.83531 20.1946H15.3535C15.3036 20.4375 15.2708 20.6864 15.2536 20.9394H10.3013C9.23128 20.9394 8.18979 21.14 7.20494 21.5365C6.79624 21.701 6.59818 22.1651 6.76267 22.5742C6.92674 22.9825 7.39167 23.1806 7.80038 23.0165C8.59472 22.6968 9.43647 22.5344 10.3013 22.5344H17.8993C21.1606 22.5344 24.0073 24.9623 24.5213 28.1816C24.609 28.7304 25.0769 29.1287 25.6342 29.1287H29.1921C29.6327 29.1287 29.9898 28.7712 29.9898 28.331C29.9898 27.8904 29.6327 27.5333 29.1921 27.5333C28.7515 27.5333 26.0231 27.5333 26.0231 27.5333C25.6488 25.7554 24.6917 24.1373 23.299 22.9422C21.7938 21.6502 19.8762 20.939 17.8993 20.939H16.8528C17.0442 18.9361 18.7352 17.3642 20.7871 17.3642H26.0517C27.0416 17.3642 27.9706 17.7247 28.6978 18.3835L28.0331 19.6915C27.7331 20.281 27.6811 20.9524 27.8858 21.5814C28.091 22.2104 28.5287 22.7219 29.1182 23.0215L33.2561 25.1251C32.761 25.9882 32.4211 26.9374 32.2624 27.9298C32.1932 28.365 32.4895 28.7741 32.9246 28.8433C33.3593 28.913 33.7685 28.6163 33.8377 28.1812C34.3517 24.9619 37.1984 22.5344 40.4601 22.5344H50.7357C51.8704 22.5344 52.9731 22.7647 54.0125 23.2196L55.3247 23.7936C55.3922 23.823 55.4229 23.9019 55.3935 23.9695L54.0935 26.9404C54.0755 26.9823 54.0436 27.002 54.0201 27.0113C53.9966 27.0205 53.9596 27.0276 53.9181 27.0092L52.606 26.4351C52.0126 26.1754 51.3832 26.0441 50.7357 26.0441H40.4601C38.7774 26.0441 37.3759 27.3596 37.2697 29.0401L37.01 33.2682C36.8615 35.7284 34.8141 37.6557 32.3493 37.6557H26.011C23.5524 37.6557 21.5055 35.7339 21.3511 33.2804L21.0763 28.9235C21.0754 28.9105 21.0746 28.8979 21.0729 28.8849C20.8916 27.2656 19.527 26.0441 17.8993 26.0441H10.3013C8.53891 26.0441 7.10507 27.4779 7.10507 29.2403V29.952C7.10507 30.0258 7.04549 30.0854 6.97164 30.0854H3.72883C3.65497 30.0854 3.59539 30.0258 3.59539 29.952V29.2403C3.59539 27.7133 4.09515 26.2753 5.04055 25.081C5.31414 24.7357 5.25582 24.2342 4.91047 23.9606C4.56513 23.6871 4.06326 23.7454 3.78967 24.0907C2.61894 25.5703 2 27.3507 2 29.2407V29.9524C2 30.9058 2.77545 31.6812 3.72883 31.6812H6.97164C7.02283 31.6812 7.07318 31.6778 7.12354 31.6737V32.7378C7.12354 33.306 7.19613 33.8653 7.34006 34.4083C5.09133 36.0654 3.62854 38.7304 3.62854 41.7319C3.62854 46.7459 7.70807 50.8254 12.7221 50.8254C17.7361 50.8254 21.8156 46.7459 21.8156 41.7319C21.8156 40.8721 21.6931 40.0404 21.469 39.2515H36.8568C36.6328 40.0404 36.5102 40.8721 36.5102 41.7319C36.5102 42.7276 36.6705 43.7066 36.9861 44.6419C37.1271 45.0595 37.5798 45.2835 37.9974 45.1426C38.4145 45.0016 38.6385 44.5492 38.498 44.1317C38.2378 43.3609 38.1056 42.5535 38.1056 41.7319C38.1056 37.5974 41.4693 34.2337 45.6038 34.2337C49.7383 34.2337 53.1019 37.5974 53.1019 41.7319C53.1019 45.8664 49.7383 49.2296 45.6038 49.2296C43.6727 49.2296 41.8386 48.4974 40.4391 47.1676C40.1198 46.8643 39.615 46.8768 39.3116 47.1962C39.0082 47.5155 39.0208 48.0207 39.3401 48.3241C41.0371 49.9367 43.2619 50.825 45.6038 50.825C50.6178 50.825 54.6973 46.7459 54.6973 41.7319C54.6973 39.5591 53.9307 37.563 52.6546 35.9974C53.2274 35.0092 53.5283 33.8913 53.5283 32.7378V29.5798C53.5283 29.2256 53.4997 28.8765 53.4444 28.5336C53.822 28.6553 54.2269 28.6436 54.6017 28.4971C55.0318 28.3289 55.3704 28.0032 55.5555 27.5803L56.855 24.609C57.2373 23.7357 56.8374 22.7144 55.9642 22.3325ZM19.1532 10.5958H22.1484C22.5 10.5958 22.7862 10.882 22.7862 11.2336C22.7862 11.5857 22.5 11.8719 22.1484 11.8719H19.1532C18.8011 11.8719 18.5149 11.5857 18.5149 11.2336C18.5149 10.882 18.8011 10.5958 19.1532 10.5958ZM16.4949 17.8065H15.035C14.6372 17.8065 14.2709 17.6253 14.0292 17.3097C13.7879 16.9937 13.709 16.5926 13.8131 16.209L14.6301 13.1987C14.7795 12.6486 15.2818 12.2642 15.852 12.2642H17.1734C17.5464 12.9784 18.2929 13.4673 19.1527 13.4673H20.0419L19.3667 15.9543C18.2237 16.2573 17.2242 16.9169 16.4949 17.8065ZM35.06 22.9427C34.747 23.2112 34.4575 23.5024 34.1902 23.8108L29.8412 21.5999C29.6314 21.4933 29.4758 21.3112 29.4027 21.0875C29.3297 20.8634 29.3486 20.6247 29.4552 20.4149L29.9944 19.3541C30.8148 19.8127 31.7425 20.059 32.6993 20.059H38.8236C39.9385 20.059 41.014 19.7292 41.9334 19.1057C42.2112 18.9177 42.52 18.8182 42.8268 18.8182H42.8918C43.9471 18.8182 44.8061 19.6768 44.8061 20.7325V20.9394H40.4601C38.4833 20.9394 36.5656 21.6506 35.06 22.9427ZM12.7221 49.2301C8.58759 49.2301 5.22435 45.8664 5.22435 41.7319C5.22435 37.5974 8.58759 34.2337 12.7221 34.2337C16.8566 34.2337 20.2202 37.5974 20.2202 41.7319C20.2202 45.8664 16.8566 49.2301 12.7221 49.2301ZM20.8472 37.6561C19.35 34.6836 16.2712 32.6384 12.7221 32.6384C11.3122 32.6384 9.9761 32.961 8.78397 33.5363C8.74117 33.2741 8.71893 33.0072 8.71893 32.7382L8.70046 29.2407C8.70046 28.3582 9.41885 27.6399 10.3013 27.6399H17.8993C18.7084 27.6399 19.3873 28.2429 19.4855 29.046L19.7591 33.3815C19.8661 35.0835 20.6533 36.5937 21.8433 37.6561H20.8472ZM45.6038 32.6384C42.0547 32.6384 38.9759 34.6836 37.4787 37.6561H36.5191C37.712 36.5903 38.4992 35.0742 38.6025 33.3655L38.8622 29.14C38.9155 28.2987 39.6171 27.6399 40.4601 27.6399H50.7361C51.0257 27.6399 51.3098 27.681 51.5846 27.7599C51.8154 28.3373 51.9329 28.9478 51.9329 29.5802V32.7382C51.9329 33.4574 51.7776 34.1582 51.4801 34.8006C49.8944 33.4537 47.8429 32.6384 45.6038 32.6384Z" fill="#1395DF"/>
</svg>
