<svg width="60" height="60" viewBox="0 0 60 60" fill="none" xmlns="http://www.w3.org/2000/svg">
<path d="M54.777 33.6482H14.8898V12.3085C14.8898 9.89238 16.854 7.92641 19.2683 7.92641C21.4385 7.92641 23.2403 9.51327 23.5859 11.5861C20.2415 12.0225 17.6576 14.6816 17.6576 17.896C17.6576 18.3909 18.0588 18.7915 18.5531 18.7915H30.5447C31.0391 18.7915 31.4403 18.3909 31.4403 17.896C31.4403 14.6428 28.7949 11.9557 25.3931 11.5688C25.0259 8.51268 22.4218 6.13477 19.2683 6.13477C15.8665 6.13477 13.0988 8.90432 13.0988 12.3079V33.6476H4.92384C4.42951 33.6476 4.02832 34.0482 4.02832 34.5431C4.02832 35.038 4.42951 35.4386 4.92384 35.4386H8.76026L13.1256 52.887C13.2253 53.2852 13.5835 53.5652 13.9943 53.5652H45.7089C46.1197 53.5652 46.4779 53.2858 46.5776 52.887L50.943 35.4386H54.7764C55.2707 35.4386 55.6719 35.038 55.6719 34.5431C55.6719 34.0482 55.2719 33.6482 54.777 33.6482ZM29.5525 17.001H19.5465C20.011 14.8983 22.0779 13.3073 24.5507 13.3073C27.0224 13.3079 29.0886 14.8983 29.5525 17.001ZM45.0104 51.7748H14.694L10.6068 35.4392H49.0976L45.0104 51.7748Z" fill="#1395DF"/>
</svg>
