<svg width="60" height="32" viewBox="0 0 60 32" fill="none" xmlns="http://www.w3.org/2000/svg">
<path d="M53.2415 14.4825C52.7549 14.4825 52.2692 14.5279 51.7923 14.6177C49.8227 13.2824 47.2709 12.5515 44.552 12.5515C42.3468 12.5515 40.2594 13.0256 38.4781 13.9293C36.8589 13.0256 34.9656 12.5515 32.966 12.5515C31.6993 12.5515 30.4924 12.7533 29.384 13.1086C27.7436 11.5252 25.55 10.6205 23.2579 10.6205H23.0561C23.8227 9.52465 24.2765 8.19419 24.2765 6.7585C24.2765 3.03263 21.2439 0 17.518 0C13.7922 0 10.7595 3.03263 10.7595 6.7585C10.7595 10.0016 13.0574 12.7166 16.1094 13.3673C14.8503 14.691 13.9901 16.4116 13.74 18.3445H13.0256L11.4798 11.3272L9.431 11.9423L8.42205 7.90454L0 15.1236L2.77002 24.3576C1.24549 24.8742 0.139032 26.3031 0.139032 27.9995C0.139032 30.1294 1.87114 31.8615 4.00103 31.8615H56.138C58.2679 31.8615 60 30.1294 60 27.9995V20.2755C60 17.0807 56.9674 14.4825 53.2415 14.4825ZM58.069 20.2755V24.6743C57.4984 24.3422 56.8447 24.1375 56.138 24.1375H53.7484C52.8119 22.864 52.276 21.1348 52.276 19.31C52.276 18.3155 52.443 17.3384 52.7472 16.4434C52.9113 16.4299 53.0764 16.4135 53.2415 16.4135C55.9034 16.4135 58.069 18.1456 58.069 20.2755ZM50.7727 16.2706C50.4947 17.238 50.345 18.2692 50.345 19.31C50.345 21.044 50.7544 22.7211 51.4872 24.1375H40.2314C39.2949 22.863 38.759 21.1338 38.759 19.31C38.759 17.9583 39.0554 16.6751 39.5942 15.561C41.0501 14.8745 42.7707 14.4825 44.552 14.4825C46.8866 14.4825 49.1304 15.1352 50.7727 16.2706ZM37.473 15.6073C37.053 16.7572 36.828 18.0133 36.828 19.31C36.828 21.044 37.2374 22.7211 37.9702 24.1375H25.242V20.2755C25.242 17.0807 28.7072 14.4825 32.966 14.4825C34.59 14.4825 36.1599 14.8909 37.473 15.6073ZM17.518 11.586C14.8561 11.586 12.6905 9.42038 12.6905 6.7585C12.6905 4.09661 14.8561 1.931 17.518 1.931C20.1799 1.931 22.3455 4.09661 22.3455 6.7585C22.3455 8.71749 21.1676 10.4004 19.4867 11.1563C19.3901 11.1921 19.2945 11.2288 19.199 11.2674C18.6737 11.4634 18.1108 11.586 17.518 11.586ZM15.6594 18.5559C15.9771 16.0958 17.5875 14.076 19.7483 13.1308C19.9192 13.0709 20.0882 13.0062 20.2533 12.9329C20.9581 12.6896 21.7093 12.5515 22.4894 12.5515H23.2579C24.7718 12.5515 26.2326 13.0574 27.4231 13.9611C24.9408 15.3601 23.311 17.6667 23.311 20.2755V24.1375H19.561C19.8661 23.73 20.1123 23.2705 20.2803 22.7674L21.3308 19.6151L19.5002 19.0039L18.4497 22.1563C18.0529 23.3419 16.9484 24.1375 15.7 24.1375H14.6215H12.6905H9.79403C8.72908 24.1375 7.86303 23.2714 7.86303 22.2065C7.86303 21.1415 8.72908 20.2755 9.79403 20.2755H13.74C14.7451 20.2755 15.5716 19.5205 15.6594 18.5559ZM11.0482 18.3445H9.79403C7.66413 18.3445 5.93203 20.0766 5.93203 22.2065C5.93203 22.9132 6.13671 23.5669 6.46885 24.1375H4.71936L2.30658 16.0958L10.0402 13.7757L11.0482 18.3445ZM7.57821 12.4974L5.19632 13.2119L7.30497 11.4045L7.57821 12.4974ZM56.138 29.9305H4.00103C2.93608 29.9305 2.07003 29.0644 2.07003 27.9995C2.07003 26.9345 2.93608 26.0685 4.00103 26.0685H9.79403H12.6905H14.6215H15.7H56.138C57.2029 26.0685 58.069 26.9345 58.069 27.9995C58.069 29.0644 57.2029 29.9305 56.138 29.9305Z" fill="#1395DF"/>
</svg>
