<svg width="60" height="60" viewBox="0 0 60 60" fill="none" xmlns="http://www.w3.org/2000/svg">
<path d="M54.763 13.3167C54.2675 13.3167 53.8653 13.7183 53.8653 14.2145V30.0748H31.1221V15.1122H38.0049C38.5005 15.1122 38.9027 14.7106 38.9027 14.2145C38.9027 13.7183 38.5005 13.3167 38.0049 13.3167H5.08721C4.59105 13.3167 4.18945 13.7183 4.18945 14.2145V51.9202C4.18945 52.4158 4.59105 52.818 5.08721 52.818H54.763C55.2586 52.818 55.6608 52.4158 55.6608 51.9202V14.2145C55.6608 13.7183 55.2586 13.3167 54.763 13.3167ZM29.3266 15.1122V30.0748H5.98496V15.1122H29.3266ZM5.98496 31.8703H29.3266V51.0224H5.98496V31.8703ZM31.1221 51.0224V31.8703H53.8653V51.0224H31.1221Z" fill="#1395DF"/>
<path d="M37.4067 18.7032C34.9313 18.7032 32.918 20.7165 32.918 23.1919C32.918 25.6673 34.9313 27.6807 37.4067 27.6807H46.3843C48.8597 27.6807 50.8731 25.6673 50.8731 23.1919C50.8731 20.7165 48.8597 18.7032 46.3843 18.7032H43.691V12.2064C43.691 10.4635 45.1406 9.04569 46.9218 9.04569C48.7029 9.04569 50.1525 10.4635 50.1525 12.2064C50.1525 12.7026 50.5547 13.1041 51.0502 13.1041C51.5458 13.1041 51.948 12.7026 51.948 12.2064C51.948 9.47362 49.6928 7.25018 46.9218 7.25018C44.1507 7.25018 41.8955 9.47303 41.8955 12.2064V18.7032H37.4067ZM49.0776 23.1919C49.0776 24.6768 47.8692 25.8852 46.3843 25.8852H37.4067C35.9219 25.8852 34.7135 24.6768 34.7135 23.1919C34.7135 21.707 35.9219 20.4987 37.4067 20.4987H46.3843C47.8692 20.4987 49.0776 21.707 49.0776 23.1919Z" fill="#1395DF"/>
<path d="M9.87529 20.4988H14.0648C14.561 20.4988 14.9626 20.0972 14.9626 19.601C14.9626 19.1048 14.561 18.7032 14.0648 18.7032H9.87529C9.37914 18.7032 8.97754 19.1048 8.97754 19.601C8.97754 20.0972 9.37914 20.4988 9.87529 20.4988Z" fill="#1395DF"/>
<path d="M9.87529 27.0823H14.0648C14.561 27.0823 14.9626 26.6807 14.9626 26.1846C14.9626 25.6884 14.561 25.2868 14.0648 25.2868H9.87529C9.37914 25.2868 8.97754 25.6884 8.97754 26.1846C8.97754 26.6807 9.37914 27.0823 9.87529 27.0823Z" fill="#1395DF"/>
<path d="M20.6487 20.4988H24.8383C25.3344 20.4988 25.736 20.0972 25.736 19.601C25.736 19.1048 25.3344 18.7032 24.8383 18.7032H20.6487C20.1526 18.7032 19.751 19.1048 19.751 19.601C19.751 20.0972 20.1526 20.4988 20.6487 20.4988Z" fill="#1395DF"/>
<path d="M20.6487 27.0823H24.8383C25.3344 27.0823 25.736 26.6807 25.736 26.1846C25.736 25.6884 25.3344 25.2868 24.8383 25.2868H20.6487C20.1526 25.2868 19.751 25.6884 19.751 26.1846C19.751 26.6807 20.1526 27.0823 20.6487 27.0823Z" fill="#1395DF"/>
</svg>
