<svg width="60" height="60" viewBox="0 0 60 60" fill="none" xmlns="http://www.w3.org/2000/svg">
<path d="M59.7192 44.5752L57.0218 37.231C56.8948 36.8849 56.5653 36.655 56.1968 36.655C54.5107 36.655 53.1389 35.2833 53.1389 33.5973V32.5511H53.9259C54.9536 32.5511 55.9187 32.151 56.6422 31.426C57.3687 30.7012 57.7687 29.7361 57.7687 28.7085C57.7687 26.5896 56.0449 24.8659 53.9259 24.8659H51.4485V22.2292C51.4485 21.7438 51.055 21.3503 50.5696 21.3503H34.3965V19.8064C38.2083 19.3718 41.3972 18.1337 43.8837 16.1208C43.8854 16.1194 43.8874 16.1185 43.8892 16.1171C44.2837 15.7976 44.6392 15.4744 44.9593 15.1549C44.9672 15.1471 44.9753 15.1394 44.9831 15.1315L44.9852 15.1294C45.9083 14.2039 46.5314 13.3121 46.927 12.6427C46.9489 12.6055 46.97 12.5692 46.9907 12.5336C46.9917 12.5317 46.993 12.5297 46.9941 12.5278C47.1683 12.2247 47.293 11.9733 47.3756 11.7934C47.634 11.231 47.4775 10.5674 46.9952 10.1796L46.2891 9.61163L39.4438 4.10522C39.1605 3.87776 38.8009 3.77756 38.4507 3.81659C38.3334 3.82948 38.2171 3.85807 38.1048 3.9026C38.0284 3.93284 37.9141 3.97502 37.7572 4.02541C37.3534 4.15467 36.668 4.33877 35.613 4.52088C35.4098 4.55592 35.1935 4.59084 34.9621 4.6253L34.9602 4.62565C33.5386 4.83694 31.8564 4.98987 29.96 5.07999C29.4752 5.10307 29.1008 5.51475 29.1238 5.99967C29.1468 6.48459 29.5581 6.85819 30.0436 6.83592C31.7866 6.75307 33.3587 6.6176 34.7283 6.43327L42.0703 15.2846C39.9968 16.7424 37.4179 17.6655 34.3808 18.0362C34.2379 16.7164 33.1171 15.6853 31.7597 15.6853C30.3646 15.6853 29.2198 16.7745 29.1293 18.1471C19.3447 17.4117 18.6604 11.5436 18.634 11.2615C18.6387 10.1642 18.9885 9.29862 19.7031 8.61623C21.6286 6.77745 25.4752 6.93202 25.5129 6.93389C25.5271 6.93459 25.5413 6.93495 25.5554 6.93495C25.8274 6.93495 26.0943 6.93401 26.3558 6.93213C26.8412 6.92873 27.232 6.53241 27.2286 6.04702C27.2252 5.56374 26.8323 5.17432 26.3498 5.17432C26.3477 5.17432 26.3456 5.17432 26.3435 5.17432C26.0921 5.17608 25.8359 5.17702 25.5748 5.17713C25.1786 5.16073 20.9047 5.04389 18.4941 7.3403C17.4205 8.36299 16.8762 9.68967 16.8762 11.2838C16.8762 11.3046 16.9624 13.4649 18.8843 15.6742C21.0491 18.1628 24.4914 19.5853 29.123 19.9092V21.3502H7.48582C7.00043 21.3502 6.60691 21.7437 6.60691 22.2291C6.60691 22.7145 7.00043 23.108 7.48582 23.108H29.1227V24.8658H1.75793V23.108H3.75023C4.23562 23.108 4.62914 22.7145 4.62914 22.2291C4.62914 21.7437 4.23562 21.3502 3.75023 21.3502H0.878906C0.393516 21.3502 0 21.7437 0 22.2291V25.7447C0 26.2301 0.393516 26.6236 0.878906 26.6236H24.7983C24.7983 26.6275 24.7983 26.6236 24.7983 26.6275L24.7989 36.0142C24.7989 36.4996 25.1924 36.8931 25.6778 36.8931H26.9699V39.3896C26.9699 47.1557 33.2885 53.474 41.0551 53.474H50.6907C51.0847 55.0335 52.4993 56.1912 54.1795 56.1912H57.908C58.3934 56.1912 58.7869 55.7977 58.7869 55.3123V49.8699C58.7869 49.6978 58.7367 49.5379 58.6513 49.4023C58.8423 49.2121 59.0181 49.0042 59.1751 48.7792C60.0319 47.5518 60.2353 45.9803 59.7192 44.5752ZM36.7337 6.09811C36.7642 6.09155 36.7914 6.08545 36.8209 6.07924C36.8632 6.07034 36.9047 6.06131 36.9456 6.05241C36.9952 6.04163 37.0446 6.03084 37.0921 6.02006C37.1221 6.01327 37.1503 6.00659 37.1795 5.99991C37.2768 5.97741 37.3697 5.95526 37.4582 5.93334C37.4798 5.92795 37.5022 5.92256 37.5233 5.91717C37.5711 5.9051 37.617 5.89327 37.6622 5.88143C37.685 5.87545 37.7073 5.86948 37.7295 5.86362C37.7726 5.85202 37.8153 5.84065 37.856 5.8294C37.8756 5.82401 37.8939 5.81874 37.9129 5.81334C37.9787 5.79471 38.0413 5.77655 38.1006 5.75874C38.128 5.75053 38.1555 5.74233 38.1816 5.73436C38.2058 5.72686 38.2289 5.71959 38.252 5.71233C38.2869 5.70131 38.3204 5.69053 38.3528 5.67999C38.3652 5.67588 38.378 5.67178 38.39 5.6678C38.4371 5.65209 38.4825 5.63686 38.524 5.62221L45.3021 11.0739L45.6386 11.3446C45.6158 11.3885 45.5912 11.4351 45.565 11.4835C45.5604 11.4919 45.5554 11.5009 45.5507 11.5095C45.5296 11.548 45.5074 11.5879 45.484 11.629C45.4746 11.6455 45.4646 11.6626 45.4549 11.6795C45.4349 11.7142 45.414 11.7498 45.3925 11.7862C45.38 11.8069 45.3674 11.828 45.3545 11.8492C45.3334 11.884 45.3114 11.9196 45.2889 11.9557C45.2746 11.9786 45.2604 12.0014 45.2455 12.0247C45.2216 12.0624 45.1964 12.1009 45.171 12.1397C45.156 12.1626 45.1416 12.1851 45.126 12.2084C45.0909 12.2609 45.0541 12.3147 45.0163 12.369C44.9996 12.3931 44.9823 12.4174 44.9651 12.4417C44.9305 12.4906 44.8954 12.5398 44.8584 12.5899C44.838 12.6177 44.8164 12.6462 44.7953 12.6743C44.7656 12.7138 44.7359 12.7534 44.7048 12.7937C44.6809 12.8248 44.6559 12.8562 44.6312 12.8877C44.6006 12.9265 44.5693 12.9656 44.5375 13.005C44.5113 13.0372 44.4847 13.0697 44.4577 13.1023C44.424 13.1428 44.3893 13.1836 44.3543 13.2246C44.3271 13.2564 44.3002 13.2881 44.2721 13.3201C44.2322 13.3658 44.1906 13.4121 44.1489 13.4583C44.1238 13.4861 44.0995 13.5136 44.0737 13.5415C44.0059 13.6153 43.9361 13.6895 43.8635 13.7643C43.854 13.7741 43.8437 13.784 43.8342 13.7938C43.7694 13.8601 43.703 13.9267 43.6345 13.9936C43.6106 14.0169 43.5857 14.0404 43.5613 14.0637C43.5209 14.1025 43.4795 14.1413 43.4378 14.1802L36.7337 6.09811ZM30.8807 18.3222C30.8807 17.8375 31.2749 17.4433 31.7596 17.4433C32.2443 17.4433 32.6385 17.8375 32.6385 18.3222V26.9508C32.6385 27.4355 32.2443 27.8297 31.7596 27.8297C31.2749 27.8297 30.8807 27.4355 30.8807 26.9508V18.3222ZM26.5562 26.6239H29.1229V26.9508C29.1229 28.4047 30.3057 29.5875 31.7597 29.5875C33.2136 29.5875 34.3965 28.4047 34.3965 26.9508V26.6237H45.0026C45.488 26.6237 45.8815 26.2302 45.8815 25.7448C45.8815 25.2594 45.488 24.8659 45.0026 24.8659H34.3965V23.1081H49.6904V24.8659H48.8115C48.3261 24.8659 47.9326 25.2594 47.9326 25.7448C47.9326 26.2302 48.3261 26.6237 48.8115 26.6237H50.5693H53.9258C55.0754 26.6237 56.0107 27.559 56.0107 28.7085C56.0107 29.2658 55.7939 29.789 55.399 30.1831C55.0069 30.576 54.4847 30.7927 53.9282 30.7933C53.9282 30.7933 53.9293 30.7933 53.9257 30.7934H29H26.5562V26.6239ZM40.8329 37.4835C40.9548 37.5414 41.0832 37.5689 41.2097 37.5689C41.5384 37.5689 41.8536 37.3837 42.0041 37.0671C42.894 35.1954 42.5912 33.6212 42.1075 32.5512H43.1822L45.4605 38.7536H39.3158C37.5464 38.7536 36.1069 37.3142 36.1069 35.5449V32.5511H40.0816C40.4941 33.1019 41.2799 34.4963 40.4166 36.3123C40.2082 36.7507 40.3945 37.275 40.8329 37.4835ZM26.5568 35.1353V32.5513H29.141V35.1353H26.5568ZM50.6892 51.7162H41.0549C34.2579 51.7162 28.7278 46.1865 28.7278 39.3897V36.8932H30.0199C30.5053 36.8932 30.8988 36.4997 30.8988 36.0143V32.5512H34.3488V35.545C34.3488 38.2835 36.5769 40.5115 39.3157 40.5115H46.1061L49.0668 48.5714C49.4264 49.5504 50.2262 50.2862 51.1909 50.5883C50.963 50.9278 50.7914 51.3083 50.6892 51.7162ZM57.0291 54.4334H54.1795C53.1647 54.4334 52.3391 53.6079 52.3391 52.5891C52.3391 51.5744 53.1647 50.7488 54.1795 50.7488H57.0291V54.4334ZM57.7337 47.773C57.1976 48.541 56.3529 48.9815 55.4162 48.9815H52.173C51.5255 48.9815 50.9403 48.5731 50.717 47.9652L45.055 32.5513H51.381V33.5973C51.381 36.0397 53.2086 38.0632 55.5682 38.372L58.0692 45.1812C58.3921 46.0603 58.2698 47.0051 57.7337 47.773Z" fill="#1395DF"/>
<path d="M53.9253 30.7932C53.9261 30.7932 53.9269 30.7931 53.9278 30.7931C53.9254 30.7931 53.9173 30.7931 53.9253 30.7932Z" fill="#1395DF"/>
</svg>
