<svg width="60" height="60" viewBox="0 0 60 60" fill="none" xmlns="http://www.w3.org/2000/svg">
<path d="M54.167 50.0001H51.667V34.1668C51.6666 33.7066 51.2932 33.3338 50.833 33.3341C50.5614 33.3343 50.307 33.4668 50.1511 33.6893L38.4845 50.3559C38.2207 50.7331 38.3127 51.2527 38.6899 51.5164C38.8298 51.6142 38.9962 51.6667 39.167 51.6668H50.0003V54.1668C50.0003 54.627 50.3734 55.0001 50.8336 55.0001C51.2938 55.0001 51.667 54.627 51.667 54.1668V51.6668H54.167C54.6272 51.6668 55.0003 51.2936 55.0003 50.8334C55.0003 50.3732 54.6272 50.0001 54.167 50.0001ZM50.0003 50.0001H40.767L50.0003 36.8101V50.0001Z" fill="#1395DF"/>
<path d="M39.167 53.333H29.3012L38.4737 42.5322C38.4945 42.5075 38.514 42.4816 38.532 42.4547C40.2576 39.9008 39.6828 36.443 37.2237 34.5848C34.2336 32.4363 30.0679 33.1187 27.9196 36.1088C27.1049 37.2427 26.6668 38.6036 26.667 39.9998C26.667 40.46 27.0401 40.8331 27.5003 40.8331C27.9605 40.8331 28.3337 40.46 28.3337 39.9998C28.3333 37.2383 30.5718 34.9996 33.3331 34.9992C34.3798 34.9991 35.4001 35.3275 36.2503 35.9381C37.9729 37.258 38.3741 39.6888 37.167 41.4922L26.8653 53.6272C26.5675 53.9781 26.6106 54.504 26.9616 54.8018C27.1121 54.9295 27.3029 54.9996 27.5003 54.9997H39.167C39.6272 54.9997 40.0003 54.6266 40.0003 54.1664C40.0003 53.7062 39.6272 53.333 39.167 53.333Z" fill="#1395DF"/>
<path d="M27.5183 49.1824C27.5357 48.7225 27.1769 48.3356 26.717 48.3182C26.7169 48.3182 26.7168 48.3182 26.7167 48.3182C15.8448 47.9147 7.11885 39.2044 6.69583 28.3333H10C10.4602 28.3333 10.8333 27.9602 10.8333 27.5C10.8333 27.0397 10.4602 26.6666 10 26.6666H6.69583C7.11281 15.8147 15.8146 7.11322 26.6667 6.69666V9.16666C26.6667 9.62686 27.0398 9.99999 27.5 9.99999C27.9602 9.99999 28.3333 9.62686 28.3333 9.16666V6.69666C39.0369 7.11062 47.6756 15.5862 48.2933 26.28L45.0433 23.03C44.7123 22.7102 44.1848 22.7193 43.865 23.0504C43.5531 23.3733 43.5531 23.8853 43.865 24.2083L48.5167 28.8599C48.6043 28.966 48.7172 29.0482 48.845 29.0991C48.8776 29.1089 48.9107 29.117 48.9442 29.1233C49.0014 29.1439 49.0605 29.1582 49.1208 29.1658C49.1292 29.1658 49.1367 29.1658 49.145 29.1658C49.1533 29.1658 49.1608 29.1658 49.1683 29.1658C49.2318 29.161 49.2945 29.1487 49.355 29.1291C49.3893 29.1249 49.4232 29.1186 49.4567 29.1099C49.5695 29.0698 49.6722 29.0056 49.7575 28.9216L54.4725 24.2083C54.7922 23.8772 54.7831 23.3498 54.4521 23.03C54.1292 22.7181 53.6172 22.7181 53.2942 23.03L49.9633 26.3583C49.368 14.4135 39.5187 5.02927 27.5592 5.01167C27.5383 5.01083 27.5208 5 27.5 5C27.4792 5 27.4617 5.01083 27.4408 5.01167C15.0606 5.02865 5.02865 15.0606 5.01167 27.4408C5.01167 27.4616 5 27.4791 5 27.5C5 27.5208 5.01083 27.5383 5.01167 27.5591C5.0324 39.6338 14.5886 49.5351 26.655 49.9841H26.6858C27.1336 49.984 27.5014 49.6299 27.5183 49.1824Z" fill="#1395DF"/>
<path d="M38.6956 16.3043C38.3702 15.979 37.8427 15.979 37.5173 16.3043L28.5623 25.2585C27.8857 24.9568 27.1129 24.9568 26.4364 25.2585L22.1964 21.0185C21.8654 20.6988 21.3378 20.708 21.0181 21.039C20.7062 21.3619 20.7062 21.8739 21.0181 22.1968L25.2498 26.4285C24.6556 27.6722 25.1823 29.1622 26.4261 29.7563C27.3808 30.2123 28.5193 30.0168 29.2673 29.2685C30.0192 28.5229 30.2129 27.3812 29.7489 26.4293L38.6956 17.4827C39.0209 17.1573 39.0209 16.6298 38.6956 16.3043ZM28.0891 28.0891C28.089 28.0892 28.089 28.0892 28.0889 28.0893C27.7593 28.4044 27.2402 28.4044 26.9106 28.0893C26.5851 27.7639 26.5851 27.2363 26.9104 26.9108C27.2358 26.5853 27.7634 26.5853 28.0889 26.9106C28.4144 27.236 28.4144 27.7637 28.0891 28.0891Z" fill="#1395DF"/>
</svg>
