<svg width="60" height="60" viewBox="0 0 60 60" fill="none" xmlns="http://www.w3.org/2000/svg">
<path d="M47.2281 23.4653C45.7541 23.4656 44.2946 23.7563 42.933 24.3207L35.7568 10.099H37.7231C37.9594 10.099 38.1861 10.0051 38.3532 9.83796C38.5203 9.67084 38.6142 9.44419 38.6142 9.20786C38.6142 8.97153 38.5203 8.74488 38.3532 8.57777C38.1861 8.41065 37.9594 8.31677 37.7231 8.31677H31.1884C30.9521 8.31677 30.7255 8.41065 30.5583 8.57777C30.3912 8.74488 30.2974 8.97153 30.2974 9.20786C30.2974 9.44419 30.3912 9.67084 30.5583 9.83796C30.7255 10.0051 30.9521 10.099 31.1884 10.099H33.7548L37.9548 18.4158H20.7924C20.6293 18.416 20.4693 18.461 20.33 18.5458C20.1907 18.6307 20.0773 18.7521 20.0023 18.897L17.1389 24.3564C14.9628 23.441 12.5544 23.2311 10.2526 23.7561C7.95091 24.2811 5.87175 25.5147 4.30775 27.2831C2.74374 29.0516 1.77363 31.266 1.53393 33.6146C1.29422 35.9632 1.797 38.3279 2.9715 40.3759C4.146 42.4238 5.9331 44.052 8.08131 45.0311C10.2295 46.0103 12.6307 46.2912 14.9469 45.8344C17.2631 45.3775 19.3778 44.2059 20.9933 42.4844C22.6088 40.7629 23.6439 38.5781 23.9528 36.2376H30.3686C30.5334 36.2379 30.695 36.1925 30.8355 36.1065C30.9761 36.0206 31.09 35.8973 31.1647 35.7504L38.935 20.3584L41.3469 25.1108C39.0238 26.5377 37.2957 28.7571 36.4818 31.3591C35.6679 33.961 35.8233 36.7696 36.9193 39.2659C38.0152 41.7622 39.9776 43.7775 42.4438 44.9394C44.9101 46.1013 47.7136 46.3312 50.3362 45.5868C52.9589 44.8424 55.2235 43.1739 56.7116 40.8896C58.1997 38.6053 58.8108 35.8596 58.4318 33.1598C58.0529 30.46 56.7096 27.9886 54.6502 26.2022C52.5907 24.4158 49.9543 23.4352 47.2281 23.4415V23.4653ZM12.7726 44.2574C11.3715 44.2557 9.98804 43.9443 8.72134 43.3455C7.45464 42.7466 6.33599 41.8751 5.44549 40.7934C4.55499 39.7116 3.91466 38.4464 3.57034 37.0882C3.22601 35.7301 3.18622 34.3126 3.45379 32.9372C3.72137 31.5619 4.2897 30.2627 5.1181 29.1327C5.9465 28.0027 7.01449 27.0698 8.24559 26.4009C9.4767 25.7319 10.8405 25.3433 12.2393 25.2631C13.6381 25.1828 15.0374 25.4128 16.337 25.9366L11.6261 34.9366C11.5557 35.0723 11.5215 35.2239 11.5267 35.3767C11.5319 35.5295 11.5763 35.6784 11.6556 35.809C11.735 35.9397 11.8466 36.0478 11.9798 36.1228C12.113 36.1979 12.2633 36.2374 12.4162 36.2376H22.1469C21.7936 38.4709 20.6557 40.5051 18.9376 41.9749C17.2195 43.4448 15.0337 44.254 12.7726 44.2574ZM17.8934 26.7326C19.1944 27.5677 20.272 28.7076 21.0329 30.0533C21.7937 31.3991 22.2148 32.9101 22.2597 34.4554H13.8835L17.8934 26.7326ZM29.8162 34.4554H24.0419C23.9888 32.5869 23.4724 30.7609 22.5392 29.1413C21.606 27.5217 20.2852 26.1592 18.6954 25.1762L21.3092 20.198H37.0221L29.8162 34.4554ZM47.2281 44.2574C45.1751 44.2462 43.1809 43.5705 41.5439 42.3316C39.9069 41.0926 38.715 39.357 38.1466 37.3842C37.5782 35.4115 37.6638 33.3077 38.3906 31.3877C39.1174 29.4676 40.4463 27.8345 42.1785 26.7326L46.5805 35.4534C46.7117 35.607 46.8913 35.7114 47.0896 35.7496C47.288 35.7878 47.4934 35.7574 47.6723 35.6635C47.8511 35.5696 47.9927 35.4177 48.0739 35.2327C48.1551 35.0478 48.1711 34.8407 48.1191 34.6455L43.7409 25.9188C45.0425 25.4018 46.4422 25.1788 47.84 25.2659C49.2378 25.3529 50.5991 25.7477 51.8265 26.4221C53.0539 27.0964 54.1171 28.0337 54.9401 29.1669C55.7631 30.3 56.3255 31.601 56.5871 32.9769C56.8487 34.3527 56.8031 35.7693 56.4534 37.1255C56.1038 38.4816 55.4588 39.7437 54.5646 40.8215C53.6703 41.8993 52.549 42.7662 51.2807 43.3602C50.0124 43.9542 48.6285 44.2605 47.2281 44.2574Z" fill="#1395DF"/>
<path d="M16.3364 16.0396H24.6532C24.8896 16.0396 25.1162 15.9457 25.2833 15.7786C25.4504 15.6115 25.5443 15.3849 25.5443 15.1485C25.5443 14.9122 25.4504 14.6856 25.2833 14.5184C25.1162 14.3513 24.8896 14.2574 24.6532 14.2574H16.3364C16.1001 14.2574 15.8734 14.3513 15.7063 14.5184C15.5392 14.6856 15.4453 14.9122 15.4453 15.1485C15.4453 15.3849 15.5392 15.6115 15.7063 15.7786C15.8734 15.9457 16.1001 16.0396 16.3364 16.0396Z" fill="#1395DF"/>
</svg>
