<svg width="60" height="60" viewBox="0 0 60 60" fill="none" xmlns="http://www.w3.org/2000/svg">
<path d="M54.4215 43.9603C47.37 41.887 45.7423 33.6296 45.3918 31.1464C45.3939 31.1108 45.3939 31.0751 45.3918 31.0395C47.747 24.3769 48.8722 17.3419 48.7126 10.2771C48.7167 9.90439 48.6215 9.5373 48.4366 9.21363C48.2518 8.88997 47.984 8.62142 47.6608 8.43564C47.3377 8.24987 46.9709 8.15358 46.5982 8.15669C46.2254 8.1598 45.8603 8.2622 45.5403 8.45334C42.4155 10.2052 39.455 12.2352 36.6947 14.5187C34.7878 12.8246 32.5478 11.5478 30.1185 10.7702C13.0334 5.39394 5.94029 20.0375 5.85712 20.1979C5.7777 20.3642 5.75179 20.551 5.78295 20.7326C5.81411 20.9142 5.90081 21.0817 6.03111 21.212C6.16142 21.3423 6.32891 21.429 6.51053 21.4602C6.69214 21.4913 6.87896 21.4654 7.04524 21.386C8.23336 20.8395 11.7561 19.6811 14.0136 20.8632C15.2017 21.4573 15.9264 22.6454 16.2353 24.4276C16.3941 25.5083 16.3355 26.6098 16.0632 27.6677C15.7908 28.7255 15.3101 29.7183 14.6492 30.588C13.069 32.8217 9.64128 35.7207 2.53633 36.8316C2.41931 36.8405 2.3052 36.8725 2.20052 36.9255C2.09584 36.9786 2.00264 37.0518 1.92624 37.1409C1.77194 37.3208 1.69544 37.5546 1.71355 37.791C1.73167 38.0273 1.84293 38.2468 2.02286 38.4011C2.20278 38.5553 2.43663 38.6319 2.67296 38.6137H2.81553C10.5383 37.3959 14.2987 34.1464 16.0928 31.6395C16.8925 30.5782 17.4722 29.3677 17.7976 28.0793C18.123 26.7908 18.1877 25.4503 17.9878 24.1365C17.5839 21.7959 16.5264 20.1623 14.8393 19.2771C12.867 18.2434 10.4611 18.4989 8.70266 18.9385C9.79552 17.3935 11.1084 16.0165 12.5997 14.8514C17.3046 11.2098 23.0195 10.4137 29.5839 12.4751C31.6941 13.1508 33.6461 14.246 35.3225 15.6949C31.236 19.2179 27.756 23.3883 25.0215 28.0395C20.1264 36.5583 16.7759 50.1088 16.6334 50.6791C16.6016 50.8115 16.6006 50.9494 16.6305 51.0823C16.6604 51.2151 16.7203 51.3393 16.8056 51.4454C16.8922 51.5504 17.0012 51.6347 17.1245 51.6923C17.2478 51.7498 17.3824 51.7792 17.5185 51.7781L22.865 51.683L25.5027 56.3226C25.57 56.4404 25.6634 56.5412 25.7756 56.6173C25.8878 56.6935 26.0159 56.7431 26.1502 56.7623H26.2749C26.4971 56.7561 26.709 56.6671 26.869 56.5127C27.3264 56.1207 37.3066 46.3959 42.1779 37.8949C42.9086 36.6177 43.5621 35.3286 44.1383 34.0335C45.1482 37.883 47.6373 43.8236 53.9165 45.683C54.0296 45.7162 54.1482 45.7267 54.2654 45.7141C54.3826 45.7014 54.4961 45.6658 54.5996 45.6093C54.703 45.5527 54.7943 45.4764 54.8682 45.3846C54.9421 45.2927 54.9972 45.1873 55.0304 45.0741C55.0635 44.961 55.0741 44.8425 55.0614 44.7253C55.0488 44.6081 55.0132 44.4945 54.9566 44.3911C54.9001 44.2877 54.8237 44.1964 54.7319 44.1225C54.6401 44.0485 54.5346 43.9934 54.4215 43.9603ZM40.6393 37.0098C36.6769 43.9068 28.9779 51.9028 26.4591 54.4395L24.1363 50.3523C24.0588 50.2157 23.9466 50.102 23.8109 50.0227C23.6753 49.9434 23.5212 49.9014 23.364 49.9009L18.671 49.984C19.6037 46.5207 22.5739 35.8395 26.566 28.9246C32.5839 18.4157 42.4631 12.2078 46.4314 10.0157C46.4826 9.97422 46.5452 9.94919 46.6109 9.9439C46.6766 9.93861 46.7423 9.95332 46.7995 9.98609C46.8567 10.0189 46.9026 10.0682 46.9313 10.1275C46.96 10.1869 46.97 10.2535 46.9601 10.3187C47.0611 14.8514 46.6631 26.5187 40.6393 37.0098Z" fill="#1395DF"/>
<path d="M44.1085 14.9704C43.9065 14.8613 43.6702 14.8344 43.4489 14.8953C43.2276 14.9562 43.0382 15.1001 42.9204 15.2971L25.3244 45.7783C25.2659 45.8797 25.2279 45.9917 25.2127 46.1078C25.1974 46.2239 25.2052 46.3418 25.2355 46.4549C25.2659 46.568 25.3182 46.674 25.3895 46.7668C25.4608 46.8597 25.5497 46.9376 25.6511 46.9961C25.7525 47.0546 25.8645 47.0926 25.9806 47.1079C26.0967 47.1231 26.2146 47.1153 26.3277 47.085C26.4408 47.0546 26.5468 47.0023 26.6397 46.931C26.7325 46.8597 26.8104 46.7708 26.8689 46.6694L44.4353 16.1882C44.4939 16.0868 44.5319 15.9749 44.5471 15.8588C44.5624 15.7427 44.5547 15.6247 44.5243 15.5116C44.494 15.3985 44.4416 15.2925 44.3703 15.1996C44.299 15.1067 44.21 15.0289 44.1085 14.9704Z" fill="#1395DF"/>
</svg>
