<svg width="60" height="60" viewBox="0 0 60 60" fill="none" xmlns="http://www.w3.org/2000/svg">
<path d="M56.3641 27.5941L51.6414 16.5802C51.346 15.8907 50.8547 15.3031 50.2285 14.8902C49.6023 14.4773 48.8687 14.2573 48.1186 14.2574H6.76612C6.07446 14.2574 5.41113 14.5322 4.92205 15.0213C4.43297 15.5104 4.1582 16.1737 4.1582 16.8654V42.4753C4.1582 42.7116 4.25209 42.9383 4.4192 43.1054C4.58631 43.2725 4.81296 43.3664 5.04929 43.3664H11.4057C11.6784 44.7093 12.407 45.9166 13.468 46.7838C14.529 47.651 15.8572 48.1248 17.2275 48.1248C18.5978 48.1248 19.926 47.651 20.987 46.7838C22.048 45.9166 22.7766 44.7093 23.0493 43.3664H38.1384C38.4111 44.7093 39.1397 45.9166 40.2007 46.7838C41.2617 47.651 42.5899 48.1248 43.9602 48.1248C45.3305 48.1248 46.6587 47.651 47.7197 46.7838C48.7807 45.9166 49.5093 44.7093 49.782 43.3664H55.5443C55.7807 43.3664 56.0073 43.2725 56.1744 43.1054C56.3415 42.9383 56.4354 42.7116 56.4354 42.4753V27.9208C56.4324 27.8084 56.4082 27.6976 56.3641 27.5941ZM50.0018 17.2812L54.0592 26.7327H41.5839V16.0396H48.1186C48.5195 16.0397 48.9116 16.1574 49.2464 16.378C49.5811 16.5987 49.8437 16.9127 50.0018 17.2812ZM6.76612 16.0396H39.8018V26.7327H5.94038V16.8654C5.94038 16.6464 6.02738 16.4363 6.18224 16.2815C6.33709 16.1266 6.54712 16.0396 6.76612 16.0396ZM17.2275 46.3367C16.4051 46.3367 15.6011 46.0928 14.9172 45.6358C14.2334 45.1789 13.7004 44.5294 13.3856 43.7696C13.0709 43.0097 12.9885 42.1736 13.149 41.367C13.3095 40.5603 13.7055 39.8194 14.2871 39.2378C14.8686 38.6562 15.6096 38.2602 16.4162 38.0997C17.2229 37.9393 18.059 38.0216 18.8189 38.3364C19.5787 38.6511 20.2282 39.1841 20.6851 39.8679C21.142 40.5518 21.3859 41.3558 21.3859 42.1782C21.3859 43.2811 20.9478 44.3388 20.168 45.1187C19.3881 45.8985 18.3304 46.3367 17.2275 46.3367ZM43.9602 46.3367C43.1377 46.3367 42.3337 46.0928 41.6499 45.6358C40.966 45.1789 40.433 44.5294 40.1183 43.7696C39.8036 43.0097 39.7212 42.1736 39.8817 41.367C40.0421 40.5603 40.4382 39.8194 41.0197 39.2378C41.6013 38.6562 42.3423 38.2602 43.1489 38.0997C43.9556 37.9393 44.7917 38.0216 45.5515 38.3364C46.3114 38.6511 46.9608 39.1841 47.4178 39.8679C47.8747 40.5518 48.1186 41.3558 48.1186 42.1782C48.1186 43.2811 47.6805 44.3388 46.9006 45.1187C46.1208 45.8985 45.0631 46.3367 43.9602 46.3367ZM49.8711 41.5842C49.724 40.1187 49.0377 38.7602 47.9455 37.7721C46.8533 36.784 45.433 36.2369 43.9602 36.2369C42.4874 36.2369 41.067 36.784 39.9748 37.7721C38.8826 38.7602 38.1964 40.1187 38.0493 41.5842H23.1384C22.9913 40.1187 22.3051 38.7602 21.2129 37.7721C20.1206 36.784 18.7003 36.2369 17.2275 36.2369C15.7547 36.2369 14.3344 36.784 13.2422 37.7721C12.1499 38.7602 11.4637 40.1187 11.3166 41.5842H5.94038V28.5149H54.6533V41.5842H49.8711Z" fill="#1395DF"/>
</svg>
