<svg width="60" height="60" viewBox="0 0 60 60" fill="none" xmlns="http://www.w3.org/2000/svg">
<path d="M24.2532 17.9583C27.7645 17.9583 31.4962 16.7676 31.4962 14.5609C31.4962 12.3542 27.7645 11.1634 24.2532 11.1634C20.7421 11.1634 17.0104 12.3541 17.0104 14.5608C17.0104 16.7675 20.742 17.9583 24.2532 17.9583ZM24.2532 12.4817C27.8699 12.4817 30.1779 13.7131 30.1779 14.5608C30.1779 15.4085 27.8699 16.6399 24.2532 16.6399C20.6367 16.6399 18.3287 15.4085 18.3287 14.5608C18.3287 13.7131 20.6366 12.4817 24.2532 12.4817ZM51.3407 33.5255C51.7049 33.5255 51.9999 33.2304 51.9999 32.8663V12.9541C51.9999 12.4853 51.7439 12.0556 51.3316 11.8328C50.9194 11.6101 50.4196 11.6313 50.0275 11.8882C48.7354 12.7346 47.3219 13.3287 45.8263 13.6539C44.3762 13.9693 42.8989 14.0226 41.4278 13.815C41.0424 11.9808 39.2351 10.3175 36.2402 9.07202C33.0276 7.73582 28.7706 7 24.2532 7C22.6062 7 20.9779 7.09861 19.4138 7.29294C19.0526 7.33785 18.7961 7.66709 18.841 8.02841C18.8858 8.38973 19.2154 8.64602 19.5763 8.60128C21.0867 8.41355 22.6603 8.31836 24.2532 8.31836C28.6008 8.31836 32.6781 9.01832 35.7339 10.2892C38.5647 11.4666 40.1882 13.0235 40.1882 14.5608C40.1882 16.0981 38.5647 17.655 35.7339 18.8324C32.6781 20.1033 28.6008 20.8032 24.2532 20.8032C19.9057 20.8032 15.8285 20.1033 12.7726 18.8324C9.94187 17.6551 8.31836 16.0982 8.31836 14.5608C8.31836 12.3637 11.5724 10.2235 16.6085 9.10832C16.9641 9.02957 17.1884 8.67766 17.1096 8.32223C17.0309 7.9668 16.6787 7.74268 16.3236 7.82116C13.6276 8.41812 11.3469 9.31399 9.72777 10.4119C7.94324 11.6219 7 13.0566 7 14.5608V45.9121C7 46.8129 7.49456 47.6324 8.29076 48.0508C11.9005 49.9475 17.6152 52.08 24.6538 51.9977C31.4638 51.9182 36.8767 49.8068 40.2184 48.0496C40.946 47.6671 41.4199 46.9478 41.4949 46.138C43.1609 46.4389 45.0262 46.417 46.8574 45.9119C49.0402 45.3097 50.6238 44.1951 51.5678 43.3661C51.8425 43.125 52 42.7764 52 42.4096L51.9999 32.8663C51.9999 32.5023 51.7049 33.5255 51.3407 33.5255C50.9766 33.5255 50.6816 32.5022 50.6816 32.8662L50.6816 42.3898C49.8395 43.1262 48.4359 44.109 46.5069 44.6411C44.5247 45.1877 42.7604 45.057 41.5066 44.7971V15.156C43.0456 15.3435 44.5894 15.2721 46.1066 14.9422C47.7339 14.5882 49.2727 13.9469 50.6816 13.0355V32.8662C50.6816 33.2304 50.9766 33.5255 51.3407 33.5255ZM40.1881 45.9124C40.1881 46.3217 39.9645 46.6936 39.6047 46.8828C36.3912 48.5726 31.186 50.603 24.6382 50.6795C17.7617 50.7605 12.2839 48.6598 8.90397 46.8838C8.54274 46.6939 8.31836 46.3216 8.31836 45.9121V17.5286C9.21088 18.4761 10.5413 19.3322 12.2663 20.0497C15.4789 21.3858 19.7359 22.1216 24.2532 22.1216C28.7706 22.1216 33.0276 21.3858 36.2403 20.0497C37.9653 19.3322 39.2957 18.4761 40.1882 17.5286V45.9124H40.1881Z" fill="#1395DF"/>
</svg>
