<svg width="60" height="60" viewBox="0 0 60 60" fill="none" xmlns="http://www.w3.org/2000/svg">
<path d="M54.4215 43.9604C47.37 41.8871 45.7423 33.6297 45.3918 31.1465C45.3939 31.1109 45.3939 31.0752 45.3918 31.0396C47.747 24.377 48.8722 17.342 48.7126 10.2772C48.7167 9.90451 48.6215 9.53742 48.4366 9.21376C48.2518 8.89009 47.984 8.62154 47.6608 8.43577C47.3377 8.24999 46.9709 8.1537 46.5982 8.15681C46.2254 8.15992 45.8603 8.26232 45.5403 8.45346C42.4155 10.2053 39.455 12.2353 36.6947 14.5188C34.7878 12.8247 32.5478 11.5479 30.1185 10.7703C13.0334 5.39406 5.94029 20.0376 5.85712 20.198C5.7777 20.3643 5.75179 20.5511 5.78295 20.7327C5.81411 20.9143 5.90081 21.0818 6.03111 21.2121C6.16142 21.3424 6.32891 21.4291 6.51053 21.4603C6.69214 21.4915 6.87896 21.4656 7.04524 21.3861C8.23336 20.8396 11.7561 19.6812 14.0136 20.8634C15.2017 21.4574 15.9264 22.6455 16.2353 24.4277C16.3941 25.5084 16.3355 26.61 16.0632 27.6678C15.7908 28.7256 15.3101 29.7184 14.6492 30.5881C13.069 32.8218 9.64128 35.7208 2.53633 36.8317C2.41931 36.8407 2.3052 36.8726 2.20052 36.9257C2.09584 36.9787 2.00264 37.0519 1.92624 37.141C1.77194 37.3209 1.69544 37.5548 1.71355 37.7911C1.73167 38.0274 1.84293 38.2469 2.02286 38.4012C2.20278 38.5555 2.43663 38.632 2.67296 38.6139H2.81553C10.5383 37.396 14.2987 34.1465 16.0928 31.6396C16.8925 30.5783 17.4722 29.3679 17.7976 28.0794C18.123 26.7909 18.1877 25.4504 17.9878 24.1366C17.5839 21.796 16.5264 20.1624 14.8393 19.2772C12.867 18.2436 10.4611 18.499 8.70266 18.9386C9.79552 17.3936 11.1084 16.0166 12.5997 14.8515C17.3046 11.2099 23.0195 10.4139 29.5839 12.4752C31.6941 13.1509 33.6461 14.2461 35.3225 15.695C31.236 19.2181 27.756 23.3884 25.0215 28.0396C20.1264 36.5584 16.7759 50.1089 16.6334 50.6792C16.6016 50.8116 16.6006 50.9495 16.6305 51.0824C16.6604 51.2152 16.7203 51.3395 16.8056 51.4455C16.8922 51.5505 17.0012 51.6349 17.1245 51.6924C17.2478 51.75 17.3824 51.7793 17.5185 51.7782L22.865 51.6832L25.5027 56.3228C25.57 56.4405 25.6634 56.5413 25.7756 56.6175C25.8878 56.6936 26.0159 56.7432 26.1502 56.7624H26.2749C26.4971 56.7562 26.709 56.6672 26.869 56.5129C27.3264 56.1208 37.3066 46.396 42.1779 37.8951C42.9086 36.6178 43.5621 35.3287 44.1383 34.0337C45.1482 37.8832 47.6373 43.8238 53.9165 45.6832C54.0296 45.7163 54.1482 45.7269 54.2654 45.7142C54.3826 45.7016 54.4961 45.6659 54.5996 45.6094C54.703 45.5529 54.7943 45.4765 54.8682 45.3847C54.9421 45.2929 54.9972 45.1874 55.0304 45.0743C55.0635 44.9611 55.0741 44.8426 55.0614 44.7254C55.0488 44.6082 55.0132 44.4946 54.9566 44.3912C54.9001 44.2878 54.8237 44.1965 54.7319 44.1226C54.6401 44.0487 54.5346 43.9935 54.4215 43.9604ZM40.6393 37.0099C36.6769 43.9069 28.9779 51.903 26.4591 54.4396L24.1363 50.3525C24.0588 50.2158 23.9466 50.1021 23.8109 50.0228C23.6753 49.9435 23.5211 49.9015 23.364 49.901L18.671 49.9842C19.6037 46.5208 22.5739 35.8396 26.566 28.9248C32.5839 18.4158 42.4631 12.2079 46.4314 10.0158C46.4826 9.97434 46.5452 9.94931 46.6109 9.94402C46.6766 9.93873 46.7423 9.95344 46.7995 9.98621C46.8567 10.019 46.9026 10.0683 46.9313 10.1276C46.96 10.187 46.97 10.2536 46.9601 10.3188C47.0611 14.8515 46.6631 26.5188 40.6393 37.0099Z" fill="#1395DF"/>
<path d="M44.1085 14.9703C43.9065 14.8612 43.6702 14.8343 43.4489 14.8952C43.2276 14.956 43.0382 15.1 42.9204 15.297L25.3244 45.7782C25.2659 45.8796 25.2279 45.9916 25.2127 46.1076C25.1974 46.2237 25.2052 46.3417 25.2355 46.4548C25.2659 46.5679 25.3182 46.6739 25.3895 46.7667C25.4608 46.8596 25.5497 46.9375 25.6511 46.996C25.7525 47.0545 25.8645 47.0925 25.9806 47.1077C26.0967 47.123 26.2146 47.1152 26.3277 47.0849C26.4408 47.0545 26.5468 47.0022 26.6397 46.9309C26.7325 46.8596 26.8104 46.7707 26.8689 46.6693L44.4353 16.1881C44.4939 16.0867 44.5319 15.9747 44.5471 15.8586C44.5624 15.7425 44.5547 15.6246 44.5243 15.5115C44.494 15.3984 44.4416 15.2923 44.3703 15.1995C44.299 15.1066 44.21 15.0287 44.1085 14.9703Z" fill="#1395DF"/>
</svg>
