<svg width="117" height="1231" viewBox="0 0 117 1231" fill="none" xmlns="http://www.w3.org/2000/svg">
<path d="M44.64 1188.06C44.64 1177.18 47.8933 1168.27 54.4 1161.34C60.8 1154.4 69.12 1150.94 79.36 1150.94C89.7067 1150.94 98.1333 1154.4 104.64 1161.34C111.04 1168.27 114.24 1177.18 114.24 1188.06L114.24 1230.94L2.24 1230.94L2.24 1160.54L23.36 1160.54L23.36 1208.86L44.64 1208.86L44.64 1188.06ZM93.6 1188.06C93.6 1183.68 92.3733 1180.06 89.92 1177.18C87.36 1174.3 83.84 1172.86 79.36 1172.86C74.88 1172.86 71.4133 1174.3 68.96 1177.18C66.5067 1180.06 65.28 1183.68 65.28 1188.06L65.28 1208.86L93.6 1208.86L93.6 1188.06Z" fill="white"/>
<path d="M93.12 1115.26L93.12 1068.06L114.24 1068.06L114.24 1137.34L2.24 1137.34L2.24 1068.86L23.36 1068.86L23.36 1115.26L47.2 1115.26L47.2 1072.86L68 1072.86L68 1115.26L93.12 1115.26Z" fill="white"/>
<path d="M56.32 993.14C61.9733 982.473 70.8267 977.14 82.88 977.14C92.9067 977.14 101.013 980.927 107.2 988.5C113.387 996.073 116.48 1005.83 116.48 1017.78C116.48 1038.58 107.68 1052.5 90.08 1059.54L79.36 1040.5C90.24 1037.09 95.68 1029.51 95.68 1017.78C95.68 1011.7 94.4 1007.06 91.84 1003.86C89.28 1000.66 85.8133 999.06 81.44 999.06C77.0667 999.06 73.6 1000.66 71.04 1003.86C68.48 1006.95 67.2 1011.43 67.2 1017.3L67.2 1031.22L47.52 1031.22L47.52 1020.66C47.52 1015.11 46.3467 1010.79 44 1007.7C41.5467 1004.61 38.24 1003.06 34.08 1003.06C29.92 1003.06 26.6667 1004.39 24.32 1007.06C21.8667 1009.73 20.64 1013.67 20.64 1018.9C20.64 1028.5 25.3333 1035.22 34.72 1039.06L23.84 1057.78C7.94667 1050.21 2.30974e-06 1037.25 2.52852e-06 1018.9C2.66081e-06 1007.81 2.98667 998.74 8.96 991.7C14.9333 984.66 22.8267 981.14 32.64 981.14C42.6667 981.14 50.56 985.14 56.32 993.14Z" fill="white"/>
<path d="M99.68 868.572C110.88 879.879 116.48 893.639 116.48 909.853C116.48 926.066 110.88 939.826 99.68 951.133C88.3733 962.333 74.56 967.932 58.24 967.932C41.92 967.932 28.16 962.333 16.96 951.133C5.65334 939.826 3.63556e-06 926.066 3.8289e-06 909.853C4.02224e-06 893.639 5.65334 879.879 16.96 868.572C28.16 857.266 41.92 851.612 58.24 851.612C74.56 851.612 88.3733 857.266 99.68 868.572ZM84.64 935.612C91.4667 928.679 94.88 920.093 94.88 909.853C94.88 899.613 91.4667 891.026 84.64 884.092C77.7067 877.159 68.9067 873.693 58.24 873.693C47.5733 873.693 38.7733 877.159 31.84 884.092C24.9067 891.026 21.44 899.613 21.44 909.853C21.44 920.093 24.9067 928.679 31.84 935.612C38.7733 942.546 47.5733 946.013 58.24 946.013C68.9067 946.013 77.7067 942.546 84.64 935.612Z" fill="white"/>
<path d="M2.24001 752.414L114.24 752.414L114.24 774.494L23.36 774.494L23.36 814.014L114.24 814.014L114.24 836.094L2.24 836.094L2.24001 752.414Z" fill="white"/>
<path d="M114.24 659.563L94.08 666.282L94.08 710.922L114.24 717.643L114.24 741.483L2.24001 702.282L2.24001 674.922L114.24 635.563L114.24 659.563ZM73.44 703.883L73.44 673.162L27.68 688.523L73.44 703.883Z" fill="white"/>
<path d="M116.48 575.63C116.48 592.483 110.88 606.403 99.68 617.39C88.48 628.377 74.6667 633.87 58.24 633.87C41.7067 633.87 27.8933 628.377 16.8 617.39C5.60001 606.403 7.61349e-06 592.483 7.81446e-06 575.63C7.9353e-06 565.497 2.40001 556.163 7.20001 547.63C11.8933 538.99 18.2933 532.27 26.4 527.47L37.44 546.51C32.4267 549.283 28.5333 553.23 25.76 558.35C22.88 563.47 21.44 569.23 21.44 575.63C21.44 586.51 24.8533 595.31 31.68 602.03C38.5067 608.643 47.36 611.95 58.24 611.95C69.0133 611.95 77.8133 608.643 84.64 602.03C91.4667 595.31 94.88 586.51 94.88 575.63C94.88 569.23 93.4933 563.47 90.72 558.35C87.84 553.123 83.9467 549.177 79.04 546.51L90.08 527.47C98.1867 532.27 104.64 538.937 109.44 547.47C114.133 556.003 116.48 565.39 116.48 575.63Z" fill="white"/>
<path d="M2.24001 450.226L2.24001 428.306L114.24 428.306L114.24 450.226L67.84 450.226L67.84 491.826L114.24 491.826L114.24 513.906L2.24001 513.906L2.24001 491.826L46.72 491.826L46.72 450.226L2.24001 450.226Z" fill="white"/>
<path d="M99.68 313.26C110.88 324.567 116.48 338.327 116.48 354.54C116.48 370.753 110.88 384.513 99.68 395.82C88.3734 407.02 74.56 412.62 58.24 412.62C41.92 412.62 28.16 407.02 16.96 395.82C5.65334 384.513 1.02576e-05 370.753 1.04509e-05 354.54C1.06443e-05 338.327 5.65334 324.567 16.96 313.26C28.16 301.953 41.92 296.3 58.24 296.3C74.56 296.3 88.3734 301.953 99.68 313.26ZM84.64 380.3C91.4667 373.367 94.88 364.78 94.88 354.54C94.88 344.3 91.4667 335.713 84.64 328.78C77.7067 321.847 68.9067 318.38 58.24 318.38C47.5734 318.38 38.7733 321.847 31.84 328.78C24.9067 335.713 21.44 344.3 21.44 354.54C21.44 364.78 24.9067 373.367 31.84 380.3C38.7733 387.233 47.5733 390.7 58.24 390.7C68.9067 390.7 77.7067 387.233 84.64 380.3Z" fill="white"/>
<path d="M116.48 227.661C116.48 244.515 110.88 258.435 99.68 269.421C88.48 280.408 74.6667 285.901 58.24 285.901C41.7067 285.901 27.8934 280.408 16.8 269.421C5.60001 258.435 1.1763e-05 244.515 1.19639e-05 227.661C1.20848e-05 217.528 2.40001 208.195 7.20001 199.661C11.8934 191.021 18.2934 184.301 26.4 179.501L37.44 198.541C32.4267 201.315 28.5334 205.261 25.76 210.381C22.88 215.501 21.44 221.261 21.44 227.661C21.44 238.541 24.8533 247.341 31.68 254.061C38.5067 260.675 47.36 263.981 58.24 263.981C69.0134 263.981 77.8134 260.675 84.64 254.061C91.4667 247.341 94.88 238.541 94.88 227.661C94.88 221.261 93.4934 215.501 90.72 210.381C87.84 205.155 83.9467 201.208 79.04 198.541L90.08 179.501C98.1867 184.301 104.64 190.968 109.44 199.501C114.133 208.035 116.48 217.421 116.48 227.661Z" fill="white"/>
<path d="M2.24001 92.3263L23.36 92.3263L23.36 122.566L114.24 122.566L114.24 144.646L23.36 144.646L23.36 174.726L2.24001 174.726L2.24001 92.3263Z" fill="white"/>
<path d="M39.04 38.24C39.04 27.4667 42.6667 18.4 49.92 11.04C57.1734 3.68004 66.08 7.87996e-07 76.64 9.13923e-07C87.2 1.03985e-06 96.1067 3.68004 103.36 11.04C110.613 18.4 114.24 27.4667 114.24 38.24L114.24 80L2.24001 80L2.24001 57.92L39.04 57.92L39.04 38.24ZM93.6 38.24C93.6 33.5467 92 29.6534 88.8 26.5601C85.6 23.4667 81.5467 21.92 76.64 21.92C71.84 21.92 67.84 23.4667 64.64 26.5601C61.3334 29.6534 59.68 33.5467 59.68 38.24L59.68 57.92L93.6 57.92L93.6 38.24Z" fill="white"/>
</svg>
