<svg width="116" height="442" viewBox="0 0 116 442" fill="none" xmlns="http://www.w3.org/2000/svg">
<path d="M16.7308 99.0421C5.57692 87.7716 -7.05787e-07 74.0556 0 57.8942C7.05787e-07 41.7327 5.57692 28.0167 16.7308 16.7462C27.9908 5.58208 41.7473 -7.11083e-07 58 0C74.2527 7.11092e-07 87.956 5.58208 99.1099 16.7463C110.37 28.0167 116 41.7327 116 57.8942C116 74.0556 110.37 87.7716 99.1099 99.0421C87.956 110.313 74.2527 115.948 58 115.948C41.7472 115.948 27.9908 110.313 16.7308 99.0421ZM31.7088 32.2166C24.9103 39.1277 21.511 47.6869 21.511 57.8942C21.511 68.1014 24.9103 76.6606 31.7088 83.5718C38.6135 90.4829 47.3773 93.9385 58 93.9385C68.6227 93.9385 77.3864 90.4829 84.2912 83.5718C91.196 76.6606 94.6483 68.1014 94.6483 57.8942C94.6483 47.6869 91.196 39.1277 84.2912 32.2166C77.3864 25.3054 68.6227 21.8499 58 21.8499C47.3773 21.8499 38.6135 25.3054 31.7088 32.2166Z" fill="#ffffff"/>
<path d="M113.769 214.829L2.23076 214.829L2.23076 192.82L92.7362 192.82V153.426H2.23076L2.23077 131.417L113.769 131.417V214.829Z" fill="#ffffff"/>
<path d="M2.23076 235.614H113.769V257.623H77.1209V277.24C77.1209 287.979 73.5091 297.017 66.2857 304.353C59.0623 311.69 50.1923 315.358 39.6758 315.358C29.1593 315.358 20.2894 311.69 13.0659 304.353C5.84248 297.017 2.23076 287.979 2.23076 277.24L2.23076 235.614ZM2.23076 325.565H113.769L113.769 347.415H2.23076L2.23076 325.565ZM22.7857 257.623V277.24C22.7857 281.918 24.3791 285.799 27.5659 288.883C30.7527 291.966 34.7894 293.508 39.6758 293.508C44.5623 293.508 48.5989 291.966 51.7857 288.883C54.9725 285.799 56.5659 281.918 56.5659 277.24V257.623H22.7857Z" fill="#ffffff"/>
<path d="M113.769 442H92.7362V411.857H2.23075L2.23075 389.847H92.7362V359.864H113.769V442Z" fill="#ffffff"/>
</svg>
