<svg width="116" height="605" viewBox="0 0 116 605" fill="none" xmlns="http://www.w3.org/2000/svg">
<path d="M116.48 546.76C116.48 563.613 110.88 577.533 99.68 588.52C88.48 599.507 74.6667 605 58.24 605C41.7067 605 27.8933 599.507 16.8 588.52C5.6 577.533 -1.80907e-06 563.613 -2.54575e-06 546.76C-2.98869e-06 536.627 2.4 527.293 7.2 518.76C11.8933 510.12 18.2933 503.4 26.4 498.6L37.44 517.64C32.4267 520.413 28.5333 524.36 25.76 529.48C22.88 534.6 21.44 540.36 21.44 546.76C21.44 557.64 24.8533 566.44 31.68 573.16C38.5067 579.773 47.36 583.08 58.24 583.08C69.0133 583.08 77.8133 579.773 84.64 573.16C91.4667 566.44 94.88 557.64 94.88 546.76C94.88 540.36 93.4933 534.6 90.72 529.48C87.84 524.253 83.9467 520.307 79.04 517.64L90.08 498.6C98.1867 503.4 104.64 510.067 109.44 518.6C114.133 527.133 116.48 536.52 116.48 546.76Z" fill="white"/>
<path d="M93.12 462.956L93.12 415.756L114.24 415.756L114.24 485.036L2.23999 485.036L2.23999 416.556L23.36 416.556L23.36 462.956L47.2 462.956L47.2 420.556L68 420.556L68 462.956L93.12 462.956Z" fill="white"/>
<path d="M2.23999 358.432C2.23999 347.659 5.86666 338.592 13.12 331.232C20.3733 323.872 29.28 320.193 39.84 320.193C50.4 320.193 59.3067 323.872 66.56 331.232C73.8133 338.592 77.44 347.659 77.44 358.432L77.44 378.112L114.24 378.112L114.24 400.192L2.23999 400.193L2.23999 358.432ZM56.8 358.432C56.8 353.739 55.2 349.846 52 346.753C48.6933 343.659 44.64 342.112 39.84 342.112C34.9333 342.112 30.88 343.659 27.68 346.753C24.48 349.846 22.88 353.739 22.88 358.432L22.88 378.113L56.8 378.113L56.8 358.432Z" fill="white"/>
<path d="M56.16 238.137C61.8133 228.324 70.3467 223.417 81.76 223.417C91.2533 223.417 99.04 226.777 105.12 233.497C111.2 240.217 114.24 248.484 114.24 258.297L114.24 305.817L2.23999 305.818L2.23998 261.658C2.23998 252.057 5.22665 244.004 11.2 237.497C17.0666 230.884 24.5866 227.577 33.76 227.577C43.04 227.577 50.5067 231.097 56.16 238.137ZM22.88 261.658L22.88 283.737L47.52 283.737L47.52 261.657C47.52 258.244 46.3467 255.417 44 253.177C41.6533 250.831 38.72 249.657 35.2 249.657C31.68 249.657 28.7467 250.777 26.4 253.017C24.0533 255.257 22.88 258.138 22.88 261.658ZM93.6 258.297C93.6 254.564 92.3733 251.471 89.92 249.017C87.36 246.564 84.16 245.337 80.32 245.337C76.5867 245.337 73.4933 246.564 71.04 249.017C68.48 251.471 67.2 254.564 67.2 258.297L67.2 283.737L93.6 283.737L93.6 258.297Z" fill="white"/>
<path d="M114.24 144.142L45.92 144.142L114.24 192.142L114.24 208.942L2.23998 208.943L2.23998 186.862L70.72 186.862L2.23998 138.862L2.23998 122.062L114.24 122.062L114.24 144.142Z" fill="white"/>
<path d="M116.48 48.1663C116.48 65.0196 110.88 78.9396 99.68 89.9263C88.48 100.913 74.6666 106.406 58.24 106.406C41.7067 106.406 27.8933 100.913 16.8 89.9263C5.59998 78.9396 -2.36033e-05 65.0196 -2.434e-05 48.1663C-2.47829e-05 38.0329 2.39998 28.6996 7.19998 20.1663C11.8933 11.5262 18.2933 4.80621 26.4 0.00622443L37.44 19.0463C32.4266 21.8196 28.5333 25.7662 25.76 30.8862C22.88 36.0062 21.44 41.7662 21.44 48.1663C21.44 59.0463 24.8533 67.8463 31.68 74.5662C38.5066 81.1796 47.36 84.4863 58.24 84.4863C69.0133 84.4863 77.8133 81.1796 84.64 74.5662C91.4667 67.8462 94.88 59.0463 94.88 48.1663C94.88 41.7662 93.4933 36.0062 90.72 30.8862C87.84 25.6595 83.9467 21.7129 79.04 19.0463L90.08 0.00622165C98.1866 4.80621 104.64 11.4729 109.44 20.0062C114.133 28.5395 116.48 37.9263 116.48 48.1663Z" fill="white"/>
</svg>
