<svg width="80" height="80" viewBox="0 0 80 80" fill="none" xmlns="http://www.w3.org/2000/svg">
<path d="M64.3103 33.9655C62.3141 33.9655 60.6897 32.341 60.6897 30.3448V8.62069C60.6897 6.62448 59.0652 5 57.069 5H51.9928C50.2717 5 48.7872 6.19966 48.4602 7.8531C47.6841 11.7948 44.1974 14.6552 40.1724 14.6552C36.1474 14.6552 32.6607 11.7948 31.8847 7.8531C31.5576 6.19966 30.0731 5 28.3521 5H23.2759C21.2797 5 19.6552 6.62448 19.6552 8.62069V30.3448C19.6552 32.341 18.0307 33.9655 16.0345 33.9655C12.7071 33.9655 10 36.6726 10 40V73.7931C10 74.4605 10.5395 75 11.2069 75H69.1379C69.8053 75 70.3448 74.4605 70.3448 73.7931V40C70.3448 36.6726 67.6378 33.9655 64.3103 33.9655ZM38.9655 72.5862H12.4138V65.3448H19.8772C20.3769 66.746 21.7045 67.7586 23.2759 67.7586H28.1034C29.6748 67.7586 31.0024 66.746 31.5021 65.3448H38.9655V72.5862ZM22.069 64.1379C22.069 63.4717 22.6097 62.931 23.2759 62.931H28.1034C28.7697 62.931 29.3103 63.4717 29.3103 64.1379C29.3103 64.8041 28.7697 65.3448 28.1034 65.3448H23.2759C22.6097 65.3448 22.069 64.8041 22.069 64.1379ZM38.9655 53.2759H35.3448C34.6774 53.2759 34.1379 53.8153 34.1379 54.4828C34.1379 55.1502 34.6774 55.6897 35.3448 55.6897H38.9655V62.931H31.5021C31.0024 61.5298 29.6748 60.5172 28.1034 60.5172H23.2759C21.7045 60.5172 20.3769 61.5298 19.8772 62.931H12.4138V46.0345H19.8772C20.3769 47.4357 21.7045 48.4483 23.2759 48.4483H28.1034C29.6748 48.4483 31.0024 47.4357 31.5021 46.0345H38.9655V53.2759ZM22.069 44.8276C22.069 44.1614 22.6097 43.6207 23.2759 43.6207H28.1034C28.7697 43.6207 29.3103 44.1614 29.3103 44.8276C29.3103 45.4938 28.7697 46.0345 28.1034 46.0345H23.2759C22.6097 46.0345 22.069 45.4938 22.069 44.8276ZM38.9655 33.9655H35.3448C34.6774 33.9655 34.1379 34.505 34.1379 35.1724C34.1379 35.8398 34.6774 36.3793 35.3448 36.3793H38.9655V43.6207H31.5021C31.0024 42.2195 29.6748 41.2069 28.1034 41.2069H23.2759C21.7045 41.2069 20.3769 42.2195 19.8772 43.6207H12.4138V40C12.4138 38.0038 14.0383 36.3793 16.0345 36.3793C19.3619 36.3793 22.069 33.6722 22.069 30.3448V8.62069C22.069 7.95448 22.6097 7.41379 23.2759 7.41379H28.3521C28.9229 7.41379 29.4117 7.79397 29.5155 8.32017C30.4376 12.9897 34.3153 16.4728 38.9655 16.9941V33.9655ZM67.931 72.5862H41.3793V65.3448H48.8428C49.3424 66.746 50.67 67.7586 52.2414 67.7586H57.069C58.6403 67.7586 59.9679 66.746 60.4676 65.3448H67.931V72.5862ZM51.0345 64.1379C51.0345 63.4717 51.5752 62.931 52.2414 62.931H57.069C57.7352 62.931 58.2759 63.4717 58.2759 64.1379C58.2759 64.8041 57.7352 65.3448 57.069 65.3448H52.2414C51.5752 65.3448 51.0345 64.8041 51.0345 64.1379ZM67.931 62.931H60.4676C59.9679 61.5298 58.6403 60.5172 57.069 60.5172H52.2414C50.67 60.5172 49.3424 61.5298 48.8428 62.931H41.3793V55.6897H45C45.6674 55.6897 46.2069 55.1502 46.2069 54.4828C46.2069 53.8153 45.6674 53.2759 45 53.2759H41.3793V46.0345H48.8428C49.3424 47.4357 50.67 48.4483 52.2414 48.4483H57.069C58.6403 48.4483 59.9679 47.4357 60.4676 46.0345H67.931V62.931ZM51.0345 44.8276C51.0345 44.1614 51.5752 43.6207 52.2414 43.6207H57.069C57.7352 43.6207 58.2759 44.1614 58.2759 44.8276C58.2759 45.4938 57.7352 46.0345 57.069 46.0345H52.2414C51.5752 46.0345 51.0345 45.4938 51.0345 44.8276ZM67.931 43.6207H60.4676C59.9679 42.2195 58.6403 41.2069 57.069 41.2069H52.2414C50.67 41.2069 49.3424 42.2195 48.8428 43.6207H41.3793V36.3793H45C45.6674 36.3793 46.2069 35.8398 46.2069 35.1724C46.2069 34.505 45.6674 33.9655 45 33.9655H41.3793V16.9941C46.0307 16.4728 49.9072 12.9897 50.8293 8.32017C50.9331 7.79397 51.4219 7.41379 51.9928 7.41379H57.069C57.7352 7.41379 58.2759 7.95448 58.2759 8.62069V30.3448C58.2759 33.6722 60.9829 36.3793 64.3103 36.3793C66.3066 36.3793 67.931 38.0038 67.931 40V43.6207Z" fill="#1395DF"/>
</svg>
