<svg width="80" height="80" viewBox="0 0 80 80" fill="none" xmlns="http://www.w3.org/2000/svg">
<path d="M49.8551 58.2278C49.2485 57.9745 48.5505 58.2556 48.294 58.8615C46.879 62.2092 43.6171 64.3713 39.9851 64.3713C36.5223 64.3713 33.3231 62.3465 31.8351 59.214C31.5532 58.6209 30.8441 58.366 30.2478 58.6495C29.653 58.9305 29.4005 59.642 29.6832 60.236C31.5635 64.1951 35.6076 66.7535 39.9851 66.7535C44.5771 66.7535 48.6998 64.0196 50.4888 59.7889C50.7444 59.1831 50.4618 58.4843 49.8551 58.2278Z" fill="#1395DF"/>
<path d="M34.125 46.9543C34.5641 46.4644 34.5228 45.7116 34.0329 45.2725C33.5422 44.8334 32.791 44.8747 32.3511 45.3646C30.8893 46.9964 29.4267 47.7928 27.9894 47.7197C25.7645 47.6133 24.1669 45.4805 24.1494 45.4567C23.7627 44.9263 23.0203 44.8096 22.4891 45.1947C21.9563 45.5806 21.838 46.3262 22.2239 46.859C22.3144 46.9837 24.4837 49.924 27.8521 50.0979C27.9585 50.1035 28.0641 50.1066 28.1697 50.1066C30.2477 50.1066 32.2503 49.0474 34.125 46.9543Z" fill="#1395DF"/>
<path d="M55.4181 45.3653C53.957 46.9963 52.4888 47.7967 51.0564 47.7204C48.8378 47.6148 47.2418 45.4955 47.2132 45.4574C46.8265 44.927 46.0817 44.8111 45.5521 45.1962C45.0193 45.5821 44.9017 46.3269 45.2876 46.8597C45.3782 46.9844 47.5491 49.9255 50.9198 50.0986C51.0254 50.105 51.131 50.1073 51.2358 50.1073C53.3146 50.1073 55.3172 49.0481 57.192 46.955C57.6311 46.4651 57.5898 45.7123 57.0999 45.2732C56.6099 44.8333 55.8556 44.8754 55.4181 45.3653Z" fill="#1395DF"/>
<path d="M67.7825 35.1044C67.5951 31.8551 66.5851 23.1826 61.1467 18.0824C58.1523 15.2739 54.3036 14.0066 49.7132 14.3179C47.0397 14.4989 44.6012 14.7125 42.4493 14.8999C29.0506 16.0727 25.0073 16.4253 20.8743 4.91161C20.6917 4.40025 20.1613 4.07945 19.6174 4.13027C19.4617 4.14536 19.3101 4.19062 19.1711 4.26367C18.8225 4.44789 10.6065 8.88422 8.20455 17.7855C6.74113 23.2072 7.77021 29.0466 11.26 35.1607C6.11066 35.9588 2.15234 40.4078 2.15234 45.7755C2.15234 51.711 6.97775 56.5396 12.9093 56.5396H13.6835C17.7807 67.499 27.9342 75.2814 39.7893 75.2814C51.6412 75.2814 61.7915 67.4998 65.8879 56.5396H66.4993C72.4293 56.5396 77.2539 51.711 77.2539 45.7755C77.2531 40.2792 73.1074 35.7388 67.7825 35.1044ZM10.4978 18.4278C12.116 12.4002 16.9248 8.57057 19.1425 7.07856C23.7948 18.9217 29.508 18.4215 42.6566 17.2725C44.7965 17.0851 47.2231 16.8731 49.8744 16.6936C53.774 16.4276 57.0184 17.479 59.5117 19.8134C64.3983 24.3903 65.2598 32.696 65.4115 35.449C54.9754 37.7811 51.3744 26.6311 51.2235 26.1436C51.0901 25.7092 50.7209 25.3884 50.2722 25.317C49.8196 25.2455 49.3726 25.4361 49.1106 25.8085C42.4739 35.2481 31.6384 37.234 27.2878 37.6501C21.5874 38.194 16.2665 37.1482 13.9582 35.0424C10.2969 29.1062 9.132 23.5161 10.4978 18.4278ZM4.53448 45.7755C4.53448 41.5552 7.67651 38.0646 11.742 37.4936V45.7755C11.742 48.6865 12.151 51.4982 12.9013 54.1567C8.28713 54.1527 4.53448 50.3945 4.53448 45.7755ZM39.7885 72.8993C25.637 72.8993 14.1242 60.7322 14.1242 45.7763V38.0455C16.6167 39.4232 20.1827 40.1815 24.2308 40.1815C25.2956 40.1815 26.3945 40.1291 27.5149 40.0219C31.9251 39.6002 42.539 37.6699 49.7768 28.8656C51.5237 32.519 56.2022 39.6709 65.4456 37.8716V45.7763C65.4456 60.7314 53.936 72.8993 39.7885 72.8993ZM66.6709 54.1487C67.4196 51.4927 67.8278 48.6841 67.8278 45.7755V37.5175C71.8131 38.1551 74.871 41.61 74.871 45.7755C74.871 50.3389 71.2072 54.0558 66.6709 54.1487Z" fill="#1395DF"/>
</svg>
