<svg width="80" height="80" viewBox="0 0 80 80" fill="none" xmlns="http://www.w3.org/2000/svg">
<path d="M72.562 58.6142C63.16 55.8498 60.9897 44.8399 60.5224 41.529C60.5253 41.4816 60.5253 41.4339 60.5224 41.3865C63.6626 32.503 65.1629 23.123 64.9501 13.7033C64.9556 13.2063 64.8286 12.7169 64.5822 12.2853C64.3357 11.8538 63.9786 11.4957 63.5478 11.248C63.1169 11.0003 62.6278 10.8719 62.1309 10.8761C61.6339 10.8802 61.147 11.0168 60.7204 11.2716C56.554 13.6074 52.6066 16.314 48.9263 19.3587C46.3838 17.0999 43.3971 15.3975 40.158 14.3607C17.3778 7.1924 7.92038 26.7172 7.80949 26.931C7.70361 27.1527 7.66906 27.4018 7.7106 27.644C7.75215 27.8861 7.86775 28.1094 8.04149 28.2832C8.21522 28.4569 8.43854 28.5725 8.6807 28.6141C8.92286 28.6556 9.17194 28.6211 9.39365 28.5152C10.9778 27.7865 15.6748 26.2419 18.6847 27.8181C20.2689 28.6102 21.2352 30.1944 21.6471 32.5706C21.8588 34.0116 21.7807 35.4803 21.4176 36.8907C21.0544 38.3011 20.4135 39.6249 19.5323 40.7845C17.4253 43.7627 12.855 47.628 3.38177 49.1092C3.22574 49.1212 3.0736 49.1638 2.93403 49.2345C2.79446 49.3053 2.67019 49.4029 2.56832 49.5216C2.36259 49.7615 2.26058 50.0733 2.28474 50.3884C2.3089 50.7036 2.45724 50.9962 2.69714 51.2019C2.93704 51.4076 3.24884 51.5096 3.56395 51.4855H3.75405C14.0511 49.8617 19.0649 45.529 21.457 42.1865C22.5234 40.7714 23.2962 39.1575 23.7301 37.4395C24.164 35.7216 24.2503 33.9342 23.9837 32.1825C23.4451 29.0617 22.0352 26.8835 19.7857 25.7033C17.156 24.3251 13.9481 24.6657 11.6036 25.2518C13.0607 23.1918 14.8112 21.3558 16.7996 19.8023C23.0729 14.9469 30.6927 13.8855 39.4451 16.634C42.2588 17.5349 44.8614 18.9951 47.0966 20.9271C41.648 25.6244 37.008 31.1849 33.362 37.3865C26.8352 48.7449 22.3679 66.8122 22.1778 67.5726C22.1355 67.7491 22.1342 67.933 22.174 68.1102C22.2138 68.2873 22.2937 68.4529 22.4075 68.5944C22.523 68.7344 22.6682 68.8468 22.8326 68.9235C22.9971 69.0003 23.1766 69.0394 23.358 69.0379L30.4867 68.9112L34.0035 75.0974C34.0934 75.2543 34.2178 75.3887 34.3674 75.4903C34.5171 75.5919 34.6879 75.6579 34.8669 75.6835H35.0333C35.3295 75.6753 35.612 75.5566 35.8253 75.3508C36.4352 74.828 49.7422 61.8617 56.2372 50.5271C57.2115 48.8241 58.0828 47.1053 58.8511 45.3785C60.1976 50.5112 63.5164 58.432 71.8887 60.9112C72.0395 60.9554 72.1976 60.9695 72.3538 60.9526C72.5101 60.9357 72.6615 60.8882 72.7994 60.8129C72.9373 60.7375 73.059 60.6357 73.1576 60.5132C73.2562 60.3908 73.3297 60.2502 73.3739 60.0993C73.4181 59.9485 73.4321 59.7905 73.4152 59.6342C73.3984 59.4779 73.3509 59.3265 73.2755 59.1886C73.2001 59.0507 73.0983 58.929 72.9759 58.8304C72.8534 58.7319 72.7128 58.6584 72.562 58.6142ZM54.1857 49.3469C48.9026 58.5429 38.6372 69.2043 35.2788 72.5865L32.1818 67.137C32.0784 66.9548 31.9288 66.8031 31.7479 66.6974C31.5671 66.5917 31.3615 66.5356 31.1521 66.535L24.8946 66.6459C26.1382 62.028 30.0986 47.7865 35.4214 38.5667C43.4451 24.5548 56.6174 16.2776 61.9085 13.3548C61.9768 13.2995 62.0602 13.2661 62.1478 13.259C62.2354 13.252 62.3231 13.2716 62.3994 13.3153C62.4756 13.359 62.5369 13.4247 62.5751 13.5039C62.6133 13.583 62.6267 13.6719 62.6135 13.7587C62.7481 19.8023 62.2174 35.3587 54.1857 49.3469Z" fill="#1395DF"/>
<path d="M58.812 19.96C58.5427 19.8146 58.2277 19.7788 57.9325 19.8599C57.6374 19.9411 57.385 20.133 57.2279 20.3957L33.7665 61.0373C33.6885 61.1725 33.6379 61.3218 33.6175 61.4765C33.5972 61.6313 33.6076 61.7886 33.648 61.9394C33.6885 62.0902 33.7582 62.2315 33.8533 62.3553C33.9484 62.4791 34.0669 62.583 34.2021 62.661C34.3374 62.739 34.4866 62.7897 34.6414 62.81C34.7962 62.8303 34.9535 62.82 35.1042 62.7795C35.255 62.739 35.3964 62.6693 35.5202 62.5742C35.644 62.4791 35.7479 62.3606 35.8259 62.2254L59.2477 21.5838C59.3258 21.4486 59.3765 21.2993 59.3968 21.1445C59.4172 20.9897 59.4069 20.8324 59.3664 20.6816C59.326 20.5308 59.2562 20.3895 59.1611 20.2657C59.0659 20.1418 58.9473 20.038 58.812 19.96Z" fill="#1395DF"/>
</svg>
