<svg width="80" height="80" viewBox="0 0 80 80" fill="none" xmlns="http://www.w3.org/2000/svg">
<path d="M73.6164 35.1762L40.2821 6.68847C39.8316 6.30342 39.166 6.30581 38.7204 6.69484L6.09553 35.0805C5.59729 35.5142 5.54467 36.2691 5.97834 36.7674C6.41201 37.2656 7.16774 37.3175 7.66519 36.8846L14.6948 30.7685V68.9318C14.6948 69.5919 15.2297 70.1276 15.8906 70.1276H62.6096C63.2697 70.1276 63.8054 69.5919 63.8054 68.9318V29.9378L72.0619 36.9938C72.2875 37.1867 72.5633 37.2808 72.8383 37.2808C73.1763 37.2808 73.512 37.1389 73.7487 36.8623C74.1776 36.36 74.1186 35.6051 73.6164 35.1762ZM61.4139 67.7368H17.0863V28.6878L39.512 9.17571L61.4139 27.8938V67.7368Z" fill="#1395DF"/>
<path d="M26.666 32.9448V55.8881C26.666 56.5481 27.2009 57.0838 27.8618 57.0838H50.8032C51.4633 57.0838 51.999 56.5481 51.999 55.8881V32.9448C51.999 32.2839 51.4633 31.749 50.8032 31.749H27.8618C27.2017 31.749 26.666 32.2839 26.666 32.9448ZM40.616 54.6923V45.613H49.6074V54.6923H40.616ZM49.6082 43.2214H40.616V34.1406H49.6074V43.2214H49.6082ZM29.0576 34.1406H38.2244V43.974C38.1694 44.1111 38.1375 44.2602 38.1375 44.4172C38.1375 44.5743 38.1694 44.7234 38.2244 44.8605V54.6915H29.0576V34.1406Z" fill="#1395DF"/>
</svg>
