<svg width="80" height="80" viewBox="0 0 80 80" fill="none" xmlns="http://www.w3.org/2000/svg">
<path d="M74.669 57.6794L52.9343 14.9071C52.8963 14.8367 52.8512 14.7704 52.7997 14.7091V14.6616C52.7334 14.5921 52.6589 14.5309 52.5779 14.4794H52.5224C52.4545 14.4406 52.3829 14.4088 52.3086 14.3843H52.2373C52.1442 14.3595 52.0485 14.3462 51.9522 14.3447H28.6096C28.3899 14.3443 28.1744 14.4048 27.9871 14.5194C27.7997 14.6341 27.6478 14.7984 27.5482 14.9942L5.77394 57.7665C5.70089 57.9441 5.67195 58.1367 5.6896 58.3278C5.70726 58.519 5.77098 58.7031 5.87531 58.8642C5.97964 59.0254 6.12147 59.1589 6.28867 59.2533C6.45586 59.3476 6.64343 59.4001 6.83532 59.4061H73.6155C73.8189 59.4065 74.019 59.3547 74.1967 59.2556C74.3743 59.1565 74.5236 59.0135 74.6301 58.8402C74.7366 58.6669 74.7968 58.4691 74.805 58.2659C74.8132 58.0626 74.7691 57.8607 74.6769 57.6794H74.669ZM31.8333 57.0299L50.6927 20.3566V57.0299H31.8333ZM53.069 41.9804L60.5066 57.0299H53.069V41.9804ZM29.3066 16.6338H49.9007L29.1561 57.0299H8.768L29.3066 16.6338ZM63.1284 57.0299L53.069 36.6259V20.4041L71.6749 57.0299H63.1284Z" fill="#1395DF"/>
</svg>
