<svg width="80" height="80" viewBox="0 0 80 80" fill="none" xmlns="http://www.w3.org/2000/svg">
<path d="M65.9259 23.3701C60.923 23.3701 56.8518 27.4413 56.8518 32.4442C56.8518 33.1607 57.4316 33.7405 58.1481 33.7405C58.8646 33.7405 59.4444 33.1607 59.4444 32.4442C59.4444 28.8706 62.351 25.9627 65.9259 25.9627C69.5007 25.9627 72.4073 28.8706 72.4073 32.4442C72.4073 36.0178 69.5007 38.9257 65.9259 38.9257H6.50137C5.78485 38.9257 5.20508 39.5054 5.20508 40.222C5.20508 40.9385 5.78485 41.5183 6.50137 41.5183H65.9259C70.9288 41.5183 74.9999 37.4471 74.9999 32.4442C74.9999 27.4413 70.9288 23.3701 65.9259 23.3701Z" fill="#1395DF"/>
<path d="M40 13C34.9971 13 30.9259 17.0712 30.9259 22.0741C30.9259 22.7906 31.5057 23.3704 32.2222 23.3704C32.9388 23.3704 33.5185 22.7906 33.5185 22.0741C33.5185 18.5005 36.4251 15.5926 40 15.5926C43.5749 15.5926 46.4815 18.5005 46.4815 22.0741C46.4815 25.6476 43.5749 28.5556 40 28.5556H6.2963C5.57977 28.5556 5 29.1353 5 29.8519C5 30.5684 5.57977 31.1481 6.2963 31.1481H40C45.0029 31.1481 49.0741 27.077 49.0741 22.0741C49.0741 17.0712 45.0029 13 40 13Z" fill="#1395DF"/>
<path d="M40 49.2959H6.2963C5.57977 49.2959 5 49.8757 5 50.5922C5 51.3087 5.57977 51.8885 6.2963 51.8885H40C43.5749 51.8885 46.4815 54.7964 46.4815 58.37C46.4815 61.9435 43.5749 64.8515 40 64.8515C36.4251 64.8515 33.5185 61.9435 33.5185 58.37C33.5185 57.6534 32.9388 57.0737 32.2222 57.0737C31.5057 57.0737 30.9259 57.6534 30.9259 58.37C30.9259 63.3729 34.9971 67.4441 40 67.4441C45.0029 67.4441 49.0741 63.3729 49.0741 58.37C49.0741 53.3671 45.0029 49.2959 40 49.2959Z" fill="#1395DF"/>
</svg>
