<svg width="80" height="80" viewBox="0 0 80 80" fill="none" xmlns="http://www.w3.org/2000/svg">
<path d="M14.4678 56.1408C14.4678 60.1364 17.7186 63.388 21.715 63.388C25.7114 63.388 28.9623 60.1364 28.9623 56.1408C28.9623 52.1452 25.7114 48.8936 21.715 48.8936C17.7186 48.8936 14.4678 52.1444 14.4678 56.1408ZM26.5801 56.1408C26.5801 58.8231 24.3973 61.0059 21.715 61.0059C19.0327 61.0059 16.8499 58.8231 16.8499 56.1408C16.8499 53.4585 19.0327 51.2757 21.715 51.2757C24.3973 51.2757 26.5801 53.4585 26.5801 56.1408Z" fill="#1395DF"/>
<path d="M71.6386 29.0768C71.1479 28.6392 70.3959 28.6813 69.9568 29.172L52.6569 48.5491L43.7509 39.6431C43.2856 39.1778 42.5321 39.1778 42.0668 39.6431C41.6014 40.1084 41.6014 40.862 42.0668 41.3273L51.8645 51.1242C52.0884 51.3481 52.3909 51.4728 52.707 51.4728C52.7181 51.4728 52.7292 51.4728 52.7403 51.472C53.0675 51.4625 53.3771 51.3195 53.5955 51.075L71.7346 30.7578C72.1722 30.2678 72.1293 29.5143 71.6386 29.0768Z" fill="#1395DF"/>
<path d="M53.1172 54.4508C52.459 54.4508 51.9262 54.9844 51.9262 55.6418V67.4946H9.75127V11.9114H51.9262V36.8659C51.9262 37.5233 52.459 38.0569 53.1172 38.0569C53.7755 38.0569 54.3083 37.5233 54.3083 36.8659V10.7204C54.3083 10.0629 53.7755 9.5293 53.1172 9.5293H8.56021C7.90194 9.5293 7.36914 10.0629 7.36914 10.7204V68.6856C7.36914 69.3431 7.90194 69.8767 8.56021 69.8767H53.1172C53.7755 69.8767 54.3083 69.3431 54.3083 68.6856V55.6418C54.3083 54.9844 53.7755 54.4508 53.1172 54.4508Z" fill="#1395DF"/>
<path d="M39.1946 25.5892C39.8529 25.5892 40.3857 25.0556 40.3857 24.3981C40.3857 23.7406 39.8529 23.207 39.1946 23.207H15.2653C14.607 23.207 14.0742 23.7406 14.0742 24.3981C14.0742 25.0556 14.607 25.5892 15.2653 25.5892H39.1946Z" fill="#1395DF"/>
<path d="M40.6782 34.9938C40.6782 34.3363 40.1454 33.8027 39.4871 33.8027H15.5641C14.9059 33.8027 14.373 34.3363 14.373 34.9938C14.373 35.6513 14.9059 36.1849 15.5641 36.1849H39.4871C40.1454 36.1849 40.6782 35.6513 40.6782 34.9938Z" fill="#1395DF"/>
</svg>
