<svg width="80" height="80" viewBox="0 0 80 80" fill="none" xmlns="http://www.w3.org/2000/svg">
<path d="M38.5184 56.8783C38.5184 56.2182 37.9835 55.6825 37.3227 55.6825H10.2877C10.9103 43.8929 20.6958 34.4941 32.6336 34.4941C36.9464 34.4941 41.1332 35.7234 44.7389 38.0503C45.2937 38.4075 46.0335 38.2488 46.3923 37.6932C46.7502 37.1384 46.59 36.3978 46.0359 36.0398C42.0412 33.4641 37.4072 32.1025 32.6336 32.1025C18.9762 32.1025 7.86426 43.2169 7.86426 56.8783C7.86426 57.5384 8.39917 58.0741 9.06004 58.0741H37.3227C37.9827 58.0741 38.5184 57.5384 38.5184 56.8783Z" fill="#1395DF"/>
<path d="M32.2193 29.8853C40.121 29.8853 46.5495 23.456 46.5495 15.5527C46.5495 7.65579 40.121 1.23047 32.2193 1.23047C24.3231 1.23047 17.8994 7.65579 17.8994 15.5527C17.8994 23.4552 24.3231 29.8853 32.2193 29.8853ZM32.2193 3.62203C38.8016 3.62203 44.1579 8.97433 44.1579 15.5527C44.1579 22.1367 38.8024 27.4938 32.2193 27.4938C25.6425 27.4938 20.291 22.1367 20.291 15.5527C20.291 8.97433 25.6425 3.62203 32.2193 3.62203Z" fill="#1395DF"/>
<path d="M71.6448 70.9401L63.3588 58.8898C64.9397 56.8099 65.8158 54.2964 65.8333 51.6394C65.8819 44.9239 60.4587 39.4193 53.7424 39.3683C47.0516 39.3364 41.5215 44.7525 41.4721 51.468C41.4538 54.192 42.3466 56.7063 43.8493 58.7479L35.3832 70.681C35.0986 71.0835 35.089 71.6193 35.3601 72.0306C35.6311 72.442 36.1254 72.6452 36.6085 72.5424L43.3064 71.1106L44.4831 77.4028C44.5763 77.9011 44.9725 78.2861 45.4732 78.365C45.5354 78.3746 45.5975 78.3794 45.6581 78.3794C46.0926 78.3794 46.4992 78.1426 46.7096 77.752L53.5574 65.0815L60.2251 77.8477C60.4332 78.2463 60.8437 78.4902 61.2838 78.4902C61.3396 78.4902 61.3962 78.4862 61.4528 78.4782C61.9542 78.4065 62.3568 78.0278 62.4572 77.5312L63.7247 71.2589L70.3908 72.7839C70.8691 72.8932 71.3706 72.6986 71.6472 72.2905C71.9254 71.8807 71.9238 71.345 71.6448 70.9401ZM53.6611 41.7599C53.6818 41.7599 53.7041 41.7599 53.7248 41.7599C59.1226 41.8005 63.4808 46.2257 63.4409 51.6226V51.6234C63.4242 54.235 62.3887 56.6848 60.5248 58.5199C58.6794 60.3375 56.2432 61.3364 53.6571 61.3356C53.6332 61.3356 53.6077 61.3356 53.5829 61.3356C48.1876 61.2989 43.8278 56.8793 43.8637 51.4839C43.9027 46.1085 48.2928 41.7599 53.6611 41.7599ZM46.2138 73.6417L45.4333 69.4645C45.3743 69.148 45.1886 68.8674 44.9207 68.6888C44.6513 68.5086 44.3212 68.4457 44.0071 68.5142L39.11 69.5609L45.4923 60.5655C47.1871 62.1009 49.3116 63.1619 51.6673 63.5501L46.2138 73.6417ZM63.0639 68.6521C62.7474 68.5796 62.419 68.6386 62.1487 68.8124C61.8777 68.9877 61.6895 69.2644 61.625 69.5809L60.7831 73.7469L55.4723 63.5796C57.7777 63.236 59.9206 62.2428 61.6903 60.6835L67.9363 69.7674L63.0639 68.6521Z" fill="#1395DF"/>
</svg>
