<svg width="80" height="80" viewBox="0 0 80 80" fill="none" xmlns="http://www.w3.org/2000/svg">
<path d="M75.011 40.7558H52.7327V18.8493C52.7327 18.1894 52.1978 17.6553 51.5387 17.6553H28.0657C27.4066 17.6553 26.8717 18.1894 26.8717 18.8493V31.7647H4.59344C3.93434 31.7647 3.39941 32.2989 3.39941 32.9588V61.1777C3.39941 61.8368 3.93434 62.3717 4.59344 62.3717H75.0117C75.6709 62.3717 76.2058 61.8368 76.2058 61.1777V41.9498C76.205 41.2907 75.6701 40.7558 75.011 40.7558ZM73.8169 59.9836H5.78668V34.1528H28.0649C28.724 34.1528 29.2589 33.6187 29.2589 32.9588V20.0433H50.3439V41.9498C50.3439 42.6097 50.8788 43.1438 51.5379 43.1438H73.8161V59.9836H73.8169Z" fill="#1395DF"/>
<path d="M15.9228 43.1396C16.9573 43.1396 17.7959 42.301 17.7959 41.2666C17.7959 40.2321 16.9573 39.3936 15.9228 39.3936C14.8884 39.3936 14.0498 40.2321 14.0498 41.2666C14.0498 42.301 14.8884 43.1396 15.9228 43.1396Z" fill="#1395DF"/>
<path d="M39.8017 28.9111C40.8362 28.9111 41.6748 28.0725 41.6748 27.0381C41.6748 26.0036 40.8362 25.165 39.8017 25.165C38.7673 25.165 37.9287 26.0036 37.9287 27.0381C37.9287 28.0725 38.7673 28.9111 39.8017 28.9111Z" fill="#1395DF"/>
<path d="M64.0801 52.0664C65.1145 52.0664 65.9531 51.2278 65.9531 50.1933C65.9531 49.1589 65.1145 48.3203 64.0801 48.3203C63.0456 48.3203 62.207 49.1589 62.207 50.1933C62.207 51.2278 63.0456 52.0664 64.0801 52.0664Z" fill="#1395DF"/>
</svg>
