<svg width="80" height="80" viewBox="0 0 80 80" fill="none" xmlns="http://www.w3.org/2000/svg">
<path d="M67.4061 57.5844C70.8912 52.4358 72.8714 46.2576 72.8714 39.6042C72.8714 21.7032 58.2971 7.12891 40.3961 7.12891C22.4952 7.12891 7.9209 21.7032 7.9209 39.6042C7.9209 57.5051 22.4952 72.0794 40.3961 72.0794C51.3268 72.0794 60.9902 66.6141 66.9308 58.2972C67.01 58.218 67.01 58.218 67.0892 58.1388C67.1684 58.0596 67.3268 57.822 67.4061 57.5844ZM70.4952 39.6042C70.4952 42.9309 69.9407 46.0992 68.9902 49.0299C69.0694 46.02 68.5942 43.0101 67.2476 41.3467C65.8219 39.6042 64.0001 39.6834 62.5744 39.8418C60.5942 40.0002 58.6932 40.1586 56.4754 35.4853C54.7328 31.7626 56.3962 30.3368 59.2476 28.4358C61.307 27.0893 64.0001 25.1883 62.0991 21.7824C60.3565 18.6933 57.7427 18.7725 55.6041 18.7725C54.2575 18.7725 52.9902 18.7725 51.8813 18.0596C50.1387 16.9507 48.7922 14.5745 47.4457 12.3566C46.9704 11.5645 46.4952 10.7725 46.0991 10.0596C60.0397 12.8319 70.4952 25.0299 70.4952 39.6042ZM32.0001 10.6933L32.0793 10.7725C33.9011 12.2774 38.416 16.9507 37.9407 20.9111C37.7823 22.2576 35.0892 23.3665 32.7922 24.4754C29.5447 25.9012 25.8219 27.5646 25.109 30.8121C24.6338 32.9507 25.5843 35.3269 28.1189 38.1784C33.8219 44.6735 38.5744 46.0992 42.0595 47.2081C44.6734 48.0002 46.416 48.5546 47.6041 50.8517C49.109 53.624 48.0001 54.7329 44.9902 57.3467C42.2179 59.8022 38.416 63.1289 37.9407 69.7032C35.9605 69.5447 34.0595 69.2279 32.1585 68.6735C32.4754 59.1685 28.4358 56.0794 25.4258 53.7824C24.4754 53.0695 23.6041 52.3566 23.1288 51.6438C22.7328 51.0101 23.6041 49.5051 24.3961 48.1586C25.5843 46.0992 26.9308 43.723 26.0595 41.4259C25.4259 39.7626 23.8417 38.5745 21.1486 37.624C12.1189 34.6141 13.307 26.5348 13.3862 26.218C13.3862 26.218 13.3862 26.218 13.3862 26.1388C17.2674 18.6933 23.9209 13.0695 32.0001 10.6933ZM10.2971 39.6042C10.2971 36.5943 10.7724 33.6636 11.5645 30.9705C12.4358 34.1388 14.7328 37.9408 20.515 39.8418C22.4952 40.4754 23.6833 41.2675 24.0001 42.218C24.4754 43.4853 23.4457 45.2279 22.4952 46.9705C21.307 48.9507 20.1189 51.0893 21.2278 52.9111C21.8615 54.02 22.9704 54.8121 24.0793 55.6834C26.6932 57.6636 29.9407 60.119 29.8615 67.8814C18.4556 63.5249 10.2971 52.515 10.2971 39.6042ZM40.3961 69.7032C40.7922 64.1586 43.8813 61.4655 46.5744 59.0101C49.2674 56.6339 52.1189 54.0992 49.6635 49.5844C47.9209 46.416 45.5447 45.7032 42.6932 44.8319C39.3664 43.8022 35.1684 42.4556 29.8615 36.515C27.9605 34.3764 27.0892 32.5546 27.406 31.2081C27.8813 29.1487 30.9704 27.8022 33.7427 26.5348C36.911 25.1091 40.0001 23.7626 40.3169 21.1487C40.8714 16.5546 36.8318 11.9606 34.7724 9.98039C36.5942 9.66356 38.4952 9.42594 40.3961 9.42594C41.2674 9.42594 42.1387 9.50514 42.9308 9.50514C43.01 9.58435 43.01 9.66356 43.0892 9.66356C43.8813 10.5348 44.7526 11.9606 45.6239 13.3863C46.9704 15.7626 48.5546 18.4556 50.7724 19.8814C52.4358 20.9903 54.1783 20.9903 55.7625 20.9111C57.9803 20.9111 59.1684 20.9903 60.1189 22.7329C60.911 24.0794 60.3565 24.6339 57.9803 26.2972C55.4457 27.9606 51.7229 30.5745 54.3367 36.3566C57.1882 42.5348 60.3565 42.2972 62.7328 42.0596C64.0793 41.9804 64.713 41.9012 65.3466 42.6933C67.4061 45.3863 66.5348 53.8616 65.5051 56.2378C60.1189 64.317 50.8516 69.7032 40.3961 69.7032Z" fill="#1395DF"/>
</svg>
