<svg width="81" height="80" viewBox="0 0 81 80" fill="none" xmlns="http://www.w3.org/2000/svg">
<path d="M54.0919 12.9102C47.6952 12.9102 42.1946 16.8236 39.8604 22.3824C37.5246 16.8236 32.0216 12.9102 25.6217 12.9102C17.1133 12.9102 10.1904 19.8306 10.1904 28.3375C10.1904 31.6203 11.2507 34.7852 13.2835 37.5251L38.9269 69.55C39.1541 69.833 39.4969 69.998 39.8604 69.998H39.8612C40.2247 69.998 40.5683 69.8322 40.7947 69.5484L66.9929 36.7168C67.0176 36.6849 67.0423 36.6514 67.0646 36.6171C68.6774 34.1044 69.5304 31.2408 69.5304 28.3375C69.5312 19.8306 62.6043 12.9102 54.0919 12.9102ZM65.0852 35.2746L39.8588 66.8882L15.1769 36.0655C13.4789 33.7751 12.5812 31.1029 12.5812 28.3375C12.5812 21.1492 18.431 15.3017 25.6209 15.3017C32.8132 15.3017 38.6646 21.1492 38.6646 28.3375C38.6646 28.9983 39.1995 29.5332 39.8604 29.5332C40.5213 29.5332 41.0562 28.9983 41.0562 28.3375C41.0562 21.1492 46.9036 15.3017 54.0919 15.3017C61.2858 15.3017 67.1396 21.1492 67.1396 28.3375C67.1396 30.7633 66.4293 33.1605 65.0852 35.2746Z" fill="#1395DF"/>
</svg>
