<svg width="80" height="80" viewBox="0 0 80 80" fill="none" xmlns="http://www.w3.org/2000/svg">
<path d="M48.6099 61.7824H9.18812C8.87301 61.7824 8.57081 61.6572 8.34799 61.4344C8.12518 61.2116 8 60.9094 8 60.5943C8 48.8398 17.3782 39.2715 28.903 39.2715C40.4277 39.2715 49.798 48.8398 49.798 60.5943C49.798 60.9094 49.6728 61.2116 49.45 61.4344C49.2272 61.6572 48.925 61.7824 48.6099 61.7824ZM10.4079 59.4061H47.3822C47.1349 54.6508 45.0859 50.1682 41.6519 46.8695C38.2178 43.5708 33.6564 41.7037 28.895 41.6477C24.1337 41.7037 19.5723 43.5708 16.1382 46.8695C12.7042 50.1682 10.6552 54.6508 10.4079 59.4061Z" fill="#1395DF"/>
<path d="M28.9111 35.6435C26.3262 35.6435 23.7994 34.877 21.6502 33.4409C19.501 32.0049 17.8258 29.9637 16.8366 27.5756C15.8475 25.1875 15.5886 22.5597 16.0929 20.0245C16.5972 17.4893 17.8419 15.1606 19.6697 13.3328C21.4975 11.505 23.8262 10.2603 26.3614 9.75601C28.8966 9.25173 31.5244 9.51055 33.9125 10.4997C36.3006 11.4889 38.3418 13.164 39.7778 15.3133C41.2139 17.4625 41.9804 19.9893 41.9804 22.5742C41.9762 26.0391 40.5979 29.3609 38.1479 31.811C35.6978 34.261 32.376 35.6393 28.9111 35.6435ZM28.9111 11.8811C26.7962 11.8811 24.7288 12.5083 22.9704 13.6832C21.2119 14.8582 19.8413 16.5282 19.032 18.4821C18.2227 20.436 18.0109 22.5861 18.4235 24.6603C18.8361 26.7346 19.8545 28.6399 21.35 30.1353C22.8454 31.6308 24.7507 32.6492 26.825 33.0618C28.8992 33.4744 31.0493 33.2626 33.0032 32.4533C34.9571 31.644 36.6271 30.2734 37.8021 28.5149C38.977 26.7565 39.6042 24.6891 39.6042 22.5742C39.6 19.7395 38.4721 17.0221 36.4676 15.0177C34.4632 13.0132 31.7458 11.8853 28.9111 11.8811Z" fill="#1395DF"/>
<path d="M28.8951 49.1639C24.6951 49.1668 20.5738 48.0249 16.9743 45.8609C16.7043 45.696 16.5109 45.4306 16.4367 45.1232C16.3624 44.8157 16.4133 44.4913 16.5782 44.2213C16.7431 43.9514 17.0085 43.758 17.316 43.6837C17.6235 43.6095 17.9479 43.6604 18.2178 43.8253C21.4479 45.7633 25.144 46.787 28.9109 46.787C32.6778 46.787 36.3739 45.7633 39.604 43.8253C39.8739 43.6625 40.1975 43.6136 40.5035 43.6893C40.8095 43.7651 41.0728 43.9593 41.2356 44.2293C41.3985 44.4992 41.4474 44.8228 41.3716 45.1288C41.2958 45.4348 41.1016 45.6981 40.8317 45.8609C37.2275 48.0277 33.1004 49.1697 28.8951 49.1639Z" fill="#1395DF"/>
<path d="M39.1997 20.8949C37.9322 20.9367 36.6694 20.721 35.4877 20.2608C34.306 19.8006 33.2299 19.1056 32.3244 18.2177C29.9482 19.5484 23.263 22.4949 17.8531 18.289C17.7299 18.1933 17.6267 18.0742 17.5494 17.9386C17.4721 17.8031 17.4224 17.6536 17.4029 17.4988C17.3834 17.3439 17.3946 17.1868 17.4358 17.0363C17.477 16.8858 17.5475 16.7449 17.6432 16.6216C17.7389 16.4984 17.858 16.3952 17.9935 16.3179C18.1291 16.2407 18.2786 16.1909 18.4334 16.1714C18.5882 16.1519 18.7454 16.1631 18.8959 16.2043C19.0464 16.2456 19.1873 16.316 19.3106 16.4117C24.5541 20.4909 31.8492 15.7385 31.9284 15.6909C32.0604 15.6032 32.2086 15.5427 32.3644 15.5131C32.5201 15.4835 32.6802 15.4853 32.8352 15.5186C32.9902 15.5518 33.137 15.6157 33.2669 15.7065C33.3968 15.7973 33.5073 15.9132 33.5917 16.0474C33.6551 16.1424 35.2947 18.5583 39.1997 18.5583C39.5148 18.5583 39.817 18.6834 40.0398 18.9063C40.2626 19.1291 40.3878 19.4313 40.3878 19.7464C40.3878 20.0615 40.2626 20.3637 40.0398 20.5865C39.817 20.8093 39.5148 20.9345 39.1997 20.9345V20.8949Z" fill="#1395DF"/>
<path d="M73.2672 49.9009H51.0889C50.7738 49.9009 50.4716 49.7757 50.2488 49.5529C50.026 49.3301 49.9008 49.0279 49.9008 48.7128C49.9008 48.3977 50.026 48.0955 50.2488 47.8727C50.4716 47.6499 50.7738 47.5247 51.0889 47.5247H72.0236C71.769 44.3405 70.3337 41.3663 67.9993 39.1858C65.6649 37.0053 62.5999 35.7758 59.4058 35.7385C57.0371 35.7398 54.7169 36.4095 52.7118 37.6705C50.7067 38.9316 49.0982 40.7328 48.0711 42.8673C48.0194 43.0282 47.9339 43.1762 47.8204 43.3014C47.7068 43.4266 47.5679 43.5262 47.4128 43.5935C47.2578 43.6607 47.0902 43.6941 46.9212 43.6914C46.7522 43.6887 46.5857 43.65 46.4328 43.5779C46.28 43.5057 46.1443 43.4017 46.0348 43.273C45.9254 43.1442 45.8446 42.9935 45.798 42.8311C45.7514 42.6686 45.74 42.498 45.7646 42.3308C45.7891 42.1636 45.8491 42.0035 45.9404 41.8613C47.1557 39.3196 49.0647 37.1731 51.4471 35.6694C53.8295 34.1657 56.5885 33.3659 59.4058 33.3623C63.4358 33.4062 67.2838 35.0472 70.1053 37.9251C72.9267 40.803 74.4912 44.6827 74.4553 48.7128C74.4553 49.0279 74.3301 49.3301 74.1073 49.5529C73.8845 49.7757 73.5823 49.9009 73.2672 49.9009Z" fill="#1395DF"/>
<path d="M59.4064 30.8909C57.3698 30.8909 55.379 30.287 53.6857 29.1556C51.9923 28.0241 50.6726 26.4159 49.8932 24.5344C49.1138 22.6529 48.9099 20.5825 49.3072 18.5851C49.7045 16.5876 50.6852 14.7529 52.1253 13.3128C53.5654 11.8727 55.4001 10.892 57.3976 10.4947C59.395 10.0974 61.4654 10.3013 63.3469 11.0807C65.2284 11.8601 66.8366 13.1798 67.9681 14.8732C69.0995 16.5665 69.7034 18.5573 69.7034 20.5939C69.7034 21.9461 69.4371 23.2851 68.9196 24.5344C68.4022 25.7837 67.6437 26.9188 66.6875 27.875C65.7313 28.8312 64.5962 29.5896 63.3469 30.1071C62.0976 30.6246 60.7586 30.8909 59.4064 30.8909ZM59.4064 12.6731C57.8398 12.6731 56.3084 13.1377 55.0059 14.008C53.7033 14.8784 52.6881 16.1154 52.0886 17.5628C51.489 19.0101 51.3322 20.6027 51.6378 22.1392C51.9434 23.6757 52.6978 25.087 53.8056 26.1948C54.9133 27.3025 56.3247 28.0569 57.8611 28.3625C59.3976 28.6681 60.9902 28.5113 62.4376 27.9118C63.8849 27.3123 65.122 26.297 65.9923 24.9945C66.8627 23.6919 67.3272 22.1605 67.3272 20.5939C67.3272 18.4932 66.4927 16.4785 65.0073 14.9931C63.5218 13.5076 61.5071 12.6731 59.4064 12.6731Z" fill="#1395DF"/>
<path d="M65.5364 21.7032C63.0944 21.6834 60.7389 20.7963 58.8904 19.2004C57.042 17.6044 55.821 15.4034 55.4453 12.9903C55.3991 12.6752 55.48 12.3547 55.6701 12.0992C55.8602 11.8437 56.1441 11.6742 56.4592 11.628C56.7743 11.5817 57.0949 11.6626 57.3504 11.8527C57.6059 12.0429 57.7754 12.3267 57.8216 12.6418C57.9933 13.7783 58.4124 14.8632 59.049 15.8201C59.6857 16.777 60.5246 17.5825 61.5064 18.18C62.4883 18.7774 63.5893 19.1521 64.7318 19.2778C65.8742 19.4034 67.0303 19.2769 68.1186 18.9072C68.2663 18.8551 68.4228 18.8327 68.5792 18.8412C68.7355 18.8497 68.8887 18.8889 69.0299 18.9565C69.1711 19.0242 69.2976 19.119 69.4022 19.2356C69.5068 19.3522 69.5874 19.4882 69.6394 19.6359C69.6914 19.7836 69.7138 19.9401 69.7053 20.0964C69.6969 20.2528 69.6577 20.406 69.59 20.5472C69.5223 20.6884 69.4275 20.8149 69.3109 20.9195C69.1944 21.0241 69.0584 21.1047 68.9107 21.1567C67.8247 21.5273 66.6839 21.7121 65.5364 21.7032Z" fill="#1395DF"/>
<path d="M70.8915 41.1879C70.6709 41.1879 70.4546 41.1265 70.2669 41.0105C70.0792 40.8945 69.9275 40.7285 69.8288 40.5311C69.7301 40.3338 69.6884 40.1128 69.7082 39.8931C69.728 39.6733 69.8086 39.4634 69.941 39.2869C72.4598 35.9364 71.0895 32.7047 69.5054 28.9899C68.4361 26.4552 67.3271 23.8572 67.3271 20.9899C67.3271 20.6748 67.4523 20.3726 67.6751 20.1498C67.898 19.9269 68.2002 19.8018 68.5153 19.8018C68.8304 19.8018 69.1326 19.9269 69.3554 20.1498C69.5782 20.3726 69.7034 20.6748 69.7034 20.9899C69.7034 23.3661 70.7093 25.7424 71.6915 28.0473C73.4103 32.0869 75.1846 36.2612 71.842 40.7206C71.7305 40.8667 71.5866 40.9849 71.4217 41.066C71.2568 41.1471 71.0753 41.1888 70.8915 41.1879Z" fill="#1395DF"/>
<path d="M47.9683 41.188C47.7838 41.188 47.6019 41.1451 47.4369 41.0626C47.272 40.9801 47.1285 40.8603 47.0178 40.7128C43.6831 36.2613 45.4336 32.087 47.1683 28.0395C48.1425 25.7425 49.1564 23.3662 49.1564 20.9821C49.1564 20.667 49.2816 20.3648 49.5044 20.1419C49.7272 19.9191 50.0294 19.7939 50.3445 19.7939C50.6596 19.7939 50.9618 19.9191 51.1846 20.1419C51.4075 20.3648 51.5326 20.667 51.5326 20.9821C51.5326 23.8494 50.4237 26.4474 49.3544 28.9662C47.7703 32.6969 46.4 35.9207 48.9188 39.2632C49.0512 39.4398 49.1318 39.6497 49.1516 39.8694C49.1714 40.0892 49.1296 40.3101 49.031 40.5075C48.9323 40.7048 48.7806 40.8708 48.5929 40.9868C48.4052 41.1028 48.1889 41.1642 47.9683 41.1642V41.188Z" fill="#1395DF"/>
</svg>
