<svg width="80" height="80" viewBox="0 0 80 80" fill="none" xmlns="http://www.w3.org/2000/svg">
<path d="M73.1699 44.962H58.4976C58.1843 34.8169 49.8393 26.6592 39.62 26.6592C29.4008 26.6592 21.0558 34.8169 20.7425 44.962H6.48388C5.823 44.962 5.28809 45.4977 5.28809 46.1577C5.28809 46.8178 5.823 47.3535 6.48388 47.3535H73.1699C73.83 47.3535 74.3657 46.8178 74.3657 46.1577C74.3657 45.4977 73.83 44.962 73.1699 44.962ZM39.6192 29.05C48.5191 29.05 55.7768 36.137 56.0909 44.9612H23.1484C23.4625 36.137 30.7202 29.05 39.6192 29.05Z" fill="#1395DF"/>
<path d="M61.1807 57.4893H17.0249C16.364 57.4893 15.8291 58.025 15.8291 58.6851C15.8291 59.3451 16.364 59.8808 17.0249 59.8808H61.1807C61.8407 59.8808 62.3764 59.3451 62.3764 58.6851C62.3764 58.025 61.8407 57.4893 61.1807 57.4893Z" fill="#1395DF"/>
<path d="M48.5141 70.1396H30.771C30.1101 70.1396 29.5752 70.6754 29.5752 71.3354C29.5752 71.9955 30.1101 72.5312 30.771 72.5312H48.5141C49.1742 72.5312 49.7099 71.9955 49.7099 71.3354C49.7099 70.6754 49.175 70.1396 48.5141 70.1396Z" fill="#1395DF"/>
<path d="M40.2134 24.0018C40.8742 24.0018 41.4092 23.4669 41.4092 22.806V8.47802C41.4092 7.81714 40.8742 7.28223 40.2134 7.28223C39.5525 7.28223 39.0176 7.81714 39.0176 8.47802V22.806C39.0176 23.4669 39.5525 24.0018 40.2134 24.0018Z" fill="#1395DF"/>
<path d="M49.3927 25.319C49.5258 25.3668 49.6629 25.3899 49.7968 25.3899C50.2871 25.3899 50.7471 25.0862 50.9225 24.5975L55.4378 12.0226C55.6602 11.4008 55.3373 10.716 54.7163 10.4936C54.0937 10.2703 53.4089 10.5932 53.1865 11.215L48.6712 23.79C48.448 24.411 48.7716 25.0958 49.3927 25.319Z" fill="#1395DF"/>
<path d="M57.6013 30.8412C57.9353 30.8412 58.2669 30.7025 58.5037 30.4315L68.1888 19.3242C68.6225 18.8259 68.5707 18.071 68.0732 17.6373C67.5734 17.2028 66.82 17.2554 66.3856 17.7529L56.7004 28.8594C56.2668 29.3576 56.3186 30.1126 56.816 30.5463C57.0432 30.744 57.3223 30.8412 57.6013 30.8412Z" fill="#1395DF"/>
<path d="M76.5619 31.2567C76.2645 30.6668 75.5455 30.4292 74.9555 30.7273L62.32 37.1001C61.7309 37.3975 61.4941 38.1165 61.7915 38.7065C62.0019 39.1234 62.4228 39.3641 62.8597 39.3641C63.0415 39.3641 63.2248 39.3227 63.3978 39.2358L76.0333 32.863C76.6225 32.5649 76.8592 31.8458 76.5619 31.2567Z" fill="#1395DF"/>
<path d="M29.6653 24.5976C29.8407 25.0855 30.2999 25.39 30.7909 25.39C30.9249 25.39 31.0612 25.3669 31.1951 25.319C31.8169 25.0958 32.1398 24.411 31.9166 23.79L27.1669 10.563C26.9437 9.94118 26.2573 9.61752 25.6379 9.84153C25.0161 10.0647 24.6932 10.7495 24.9164 11.3705L29.6653 24.5976Z" fill="#1395DF"/>
<path d="M22.0505 30.3878C22.2865 30.6859 22.6357 30.8406 22.988 30.8406C23.2487 30.8406 23.5102 30.7561 23.7302 30.5815C24.2476 30.1709 24.3345 29.4192 23.9239 28.9018L14.7985 17.3967C14.3871 16.8785 13.6354 16.7916 13.1188 17.203C12.6014 17.6135 12.5145 18.3653 12.9251 18.8827L22.0505 30.3878Z" fill="#1395DF"/>
<path d="M17.7269 39.3633C18.1661 39.3633 18.5902 39.1194 18.7983 38.6992C19.0925 38.1077 18.8509 37.3902 18.2594 37.0961L6.09661 31.0541C5.50589 30.76 4.78683 31.0007 4.49346 31.593C4.19929 32.1846 4.44084 32.902 5.03236 33.1962L17.1951 39.2373C17.3665 39.3226 17.5475 39.3633 17.7269 39.3633Z" fill="#1395DF"/>
</svg>
