<svg width="120" height="15" viewBox="0 0 120 15" fill="none" xmlns="http://www.w3.org/2000/svg">
<path d="M20.4853 0.949517L18.0479 10.86L18.0042 10.8602L11.0795 0.941014L3.35512 0.933594L0 14.5758L4.98422 14.5803L7.42136 4.66931H7.46548L14.3902 14.5886L22.1149 14.5957L25.4698 0.953675L20.4853 0.949517Z" fill="#2D3741"/>
<path d="M43.4773 7.18641L43.1166 8.65279C42.9962 9.14206 42.8542 9.56222 42.6947 9.91289C42.5322 10.2636 42.3221 10.5453 42.0597 10.7588C41.7988 10.9716 41.4681 11.1274 41.0684 11.2273C40.6695 11.3281 40.1788 11.3775 39.5957 11.3767L33.2234 11.3713C32.6399 11.3706 32.1737 11.3206 31.8237 11.2191C31.4744 11.1187 31.2202 10.9618 31.0643 10.7487C30.9068 10.5348 30.8334 10.2529 30.8446 9.90221C30.8562 9.55118 30.9229 9.13085 31.0433 8.64193L31.404 7.17573C31.5087 6.74943 31.6434 6.37034 31.8062 6.03741C31.9714 5.70555 32.1956 5.42092 32.4768 5.18244C32.7603 4.94468 33.119 4.76319 33.5533 4.6378C33.9882 4.51313 34.5353 4.45088 35.1929 4.4516L41.0286 4.45685C41.686 4.45721 42.2022 4.5209 42.5756 4.64594C42.9479 4.77206 43.2182 4.95391 43.3842 5.1924C43.5487 5.43106 43.6319 5.71641 43.6328 6.04826C43.6328 6.3812 43.5818 6.7601 43.4773 7.18641ZM49.032 3.44121C48.8682 2.8012 48.5214 2.29492 47.9907 1.9238C47.4607 1.55304 46.7722 1.29755 45.9238 1.15894C45.0755 1.01962 44.0892 0.949952 42.9674 0.949047L34.9796 0.941449C33.8576 0.940544 32.8373 1.00858 31.9212 1.1461C31.0055 1.28308 30.1894 1.53712 29.4793 1.90697C28.7673 2.27664 28.1713 2.7822 27.6924 3.42185C27.213 4.06203 26.8516 4.87809 26.6077 5.86985L25.6073 9.9384C25.3601 10.9425 25.3199 11.7616 25.4859 12.3965C25.651 13.0309 25.9994 13.5338 26.529 13.9045C27.0577 14.2757 27.7477 14.5308 28.5962 14.6698C29.4446 14.8078 30.4307 14.8782 31.553 14.8793L39.5411 14.8867C40.6624 14.8876 41.6822 14.8192 42.5986 14.6817C43.5153 14.5454 44.3287 14.2912 45.0408 13.9214C45.7532 13.5515 46.348 13.0496 46.8255 12.4159C47.3031 11.7819 47.6649 10.9629 47.912 9.95831L48.9125 5.88993C49.1558 4.89836 49.1962 4.08266 49.032 3.44121Z" fill="#2D3741"/>
<path d="M66.6669 5.59554C66.5709 5.98621 66.3753 6.25962 66.0831 6.41668C65.7882 6.57464 65.4112 6.65209 64.947 6.6519L56.117 6.64394L56.642 4.50951L65.4719 4.51748C65.9361 4.51766 66.2742 4.59727 66.4926 4.75433C66.7065 4.91266 66.7658 5.19222 66.6669 5.59554ZM64.3688 9.47393C64.9071 9.47411 65.3246 9.54667 65.6175 9.69305C65.9129 9.83744 66.0017 10.1434 65.8873 10.6094C65.7878 11.0123 65.558 11.2799 65.1953 11.4111C64.8337 11.5432 64.382 11.6096 63.8426 11.6094L54.8981 11.6011L55.4232 9.46596L64.3688 9.47393ZM71.0693 2.02839C70.6456 1.74503 70.0774 1.5431 69.3644 1.42367C68.6526 1.30316 67.8029 1.24273 66.8141 1.24164L52.4633 1.2288L49.1084 14.8719L64.987 14.8867C65.707 14.8871 66.3803 14.8406 67.0103 14.7472C67.6397 14.6533 68.2072 14.4751 68.7149 14.2118C69.2201 13.9485 69.6562 13.5808 70.0188 13.1098C70.3811 12.639 70.6552 12.0265 70.8413 11.2729C71.0946 10.242 71.0599 9.46994 70.7366 8.95425C70.4155 8.43982 69.7224 8.12462 68.6587 8.00972L68.6732 7.95398C69.0379 7.86586 69.3803 7.76562 69.6987 7.65289C70.0197 7.53962 70.3149 7.37098 70.5869 7.1448C70.859 6.91898 71.0993 6.62331 71.3098 6.25961C71.5179 5.89537 71.6956 5.41768 71.8413 4.82761C72.0046 4.16192 72.0225 3.59918 71.8961 3.14066C71.7687 2.68233 71.4927 2.31085 71.0693 2.02839Z" fill="#2D3741"/>
<path d="M75.6419 1.23874L72.2881 14.882L77.2725 14.8867L80.6267 1.24327L75.6419 1.23874Z" fill="#2D3741"/>
<path d="M86.0991 11.6027L88.6547 1.23349L83.6708 1.22897L80.3164 14.8722L96.5036 14.8867L94.5659 11.6103L86.0991 11.6027Z" fill="#2D3741"/>
<path d="M98.8816 14.8703L116.955 14.8867L117.761 11.6109L96.9502 11.5962L98.8816 14.8703Z" fill="#2D3741"/>
<path d="M99.9306 9.36885L118.004 9.38477L118.809 6.10984L97.999 6.09464L99.9306 9.36885Z" fill="#2D3741"/>
<path d="M99.4824 1.27862L101.443 4.4381L119.222 4.46289L120 1.29761L99.4824 1.27862Z" fill="#2D3741"/>
</svg>
