<svg width="1920" height="173" viewBox="0 0 1920 173" fill="none" xmlns="http://www.w3.org/2000/svg">
<path d="M77.7494 2.85613H105.985V145.663H77.7494V93.4363C69.0196 97.1085 59.676 98.9446 49.7187 98.9446C35.26 98.9446 23.3248 94.9324 13.913 86.908C4.63768 78.7476 0 67.7311 0 53.8585V2.85613H28.2353V50.1863C28.2353 56.9866 30.2131 62.3589 34.1688 66.3031C38.2609 70.1112 43.6488 72.0153 50.3325 72.0153C60.2899 72.0153 69.4288 70.0432 77.7494 66.0991V2.85613Z" fill="white"/>
<path d="M160.78 118.733H221.138V145.663H132.545V2.85613H220.115V29.7854H160.78V60.1828H215V86.704H160.78V118.733Z" fill="white"/>
<path d="M381.194 2.85613V145.663H353.163V53.0425L312.856 119.346H309.583L269.276 53.2465V145.663H241.041V2.85613H270.094L311.22 70.3833L352.14 2.85613H381.194Z" fill="white"/>
<path d="M487.267 118.733H547.625V145.663H459.031V2.85613H546.602V29.7854H487.267V60.1828H541.487V86.704H487.267V118.733Z" fill="white"/>
<path d="M733.87 118.733H749.215V173H720.98V145.663H567.527V2.85613H595.763V118.733H636.683V2.85613H664.714V118.733H705.635V2.85613H733.87V118.733Z" fill="white"/>
<path d="M796.37 118.733H856.728V145.663H768.135V2.85613H855.705V29.7854H796.37V60.1828H850.59V86.704H796.37V118.733Z" fill="white"/>
<path d="M1003.69 71.8113C1017.33 79.0197 1024.15 90.3082 1024.15 105.677C1024.15 118.461 1019.31 128.798 1009.62 136.686C999.938 144.575 987.457 148.519 972.18 148.519C945.582 148.519 927.781 137.298 918.779 114.857L943.127 101.189C947.491 115.061 957.176 121.998 972.18 121.998C979.955 121.998 985.889 120.366 989.981 117.101C994.073 113.837 996.119 109.417 996.119 103.841C996.119 98.2645 994.073 93.8443 989.981 90.5802C986.025 87.316 980.296 85.684 972.794 85.684H954.994V60.5908H968.497C975.59 60.5908 981.115 59.0947 985.07 56.1026C989.026 52.9745 991.004 48.7583 991.004 43.454C991.004 38.1498 989.299 34.0016 985.889 31.0094C982.479 27.8813 977.432 26.3172 970.748 26.3172C958.472 26.3172 949.879 32.3015 944.968 44.2701L921.029 30.3974C930.714 10.1325 947.287 0 970.748 0C984.934 0 996.528 3.80818 1005.53 11.4245C1014.53 19.0409 1019.03 29.1053 1019.03 41.6179C1019.03 54.4025 1013.92 64.467 1003.69 71.8113Z" fill="white"/>
<path d="M1134.54 145.663L1125.95 119.958H1068.87L1060.27 145.663H1029.79L1079.91 2.85613H1114.9L1165.23 145.663H1134.54ZM1077.87 93.6403H1117.15L1097.51 35.2936L1077.87 93.6403Z" fill="white"/>
<path d="M1260.57 2.85613H1288.6V145.663H1260.57V86.5H1207.38V145.663H1179.14V2.85613H1207.38V59.5708H1260.57V2.85613Z" fill="white"/>
<path d="M1416.28 2.85613V145.663H1388.05V96.0884H1371.88L1338.94 145.663H1307.23L1342.22 93.0283C1333.08 89.7642 1325.64 84.1879 1319.92 76.2995C1314.19 68.4112 1311.32 59.7068 1311.32 50.1863C1311.32 37.1297 1315.96 25.9772 1325.23 16.7288C1334.51 7.48035 1345.76 2.85613 1358.99 2.85613H1416.28ZM1358.99 71.4033H1388.05V29.1733H1358.99C1353.67 29.1733 1349.11 31.2134 1345.29 35.2936C1341.47 39.3738 1339.56 44.3381 1339.56 50.1863C1339.56 56.0346 1341.47 61.0668 1345.29 65.283C1349.11 69.3632 1353.67 71.4033 1358.99 71.4033Z" fill="white"/>
<path d="M1537.62 2.85613V29.7854H1498.95V145.663H1470.71V29.7854H1432.25V2.85613H1537.62Z" fill="white"/>
<path d="M1606.78 49.7783C1620.56 49.7783 1632.15 54.4025 1641.56 63.6509C1650.98 72.8994 1655.68 84.2559 1655.68 97.7205C1655.68 111.185 1650.98 122.542 1641.56 131.79C1632.15 141.039 1620.56 145.663 1606.78 145.663H1553.38V2.85613H1581.62V49.7783H1606.78ZM1606.78 119.346C1612.78 119.346 1617.76 117.305 1621.72 113.225C1625.67 109.145 1627.65 103.977 1627.65 97.7205C1627.65 91.6002 1625.67 86.5 1621.72 82.4198C1617.76 78.2036 1612.78 76.0955 1606.78 76.0955H1581.62V119.346H1606.78Z" fill="white"/>
<path d="M1741.99 148.519C1720.44 148.519 1702.64 141.379 1688.59 127.098C1674.54 112.817 1667.52 95.2044 1667.52 74.2594C1667.52 53.1785 1674.54 35.5657 1688.59 21.421C1702.64 7.14033 1720.44 0 1741.99 0C1754.95 0 1766.89 3.06014 1777.8 9.18043C1788.85 15.1647 1797.44 23.3251 1803.58 33.6616L1779.23 47.7382C1775.68 41.3459 1770.64 36.3817 1764.09 32.8455C1757.54 29.1733 1750.18 27.3373 1741.99 27.3373C1728.08 27.3373 1716.83 31.6895 1708.23 40.3939C1699.78 49.0983 1695.55 60.3868 1695.55 74.2594C1695.55 87.9961 1699.78 99.2166 1708.23 107.921C1716.83 116.625 1728.08 120.978 1741.99 120.978C1750.18 120.978 1757.54 119.21 1764.09 115.673C1770.77 112.001 1775.82 107.037 1779.23 100.781L1803.58 114.857C1797.44 125.194 1788.92 133.422 1778 139.542C1767.09 145.527 1755.09 148.519 1741.99 148.519Z" fill="white"/>
<path d="M1920 2.85613V145.663H1891.76V96.0884H1875.6L1842.66 145.663H1810.95L1845.93 93.0283C1836.79 89.7642 1829.36 84.1879 1823.63 76.2995C1817.9 68.4112 1815.04 59.7068 1815.04 50.1863C1815.04 37.1297 1819.68 25.9772 1828.95 16.7288C1838.23 7.48035 1849.48 2.85613 1862.71 2.85613H1920ZM1862.71 71.4033H1891.76V29.1733H1862.71C1857.39 29.1733 1852.82 31.2134 1849 35.2936C1845.18 39.3738 1843.27 44.3381 1843.27 50.1863C1843.27 56.0346 1845.18 61.0668 1849 65.283C1852.82 69.3632 1857.39 71.4033 1862.71 71.4033Z" fill="white"/>
</svg>
