<svg width="1920" height="142" viewBox="0 0 1920 142" fill="none" xmlns="http://www.w3.org/2000/svg">
<path d="M71.1187 142C50.5386 142 33.5404 135.173 20.1242 121.519C6.70808 107.865 0 91.0256 0 71C0 50.8443 6.70808 34.0046 20.1242 20.4808C33.5404 6.82692 50.5386 0 71.1187 0C83.4928 0 94.89 2.92583 105.31 8.77748C115.861 14.4991 124.067 22.3013 129.928 32.1841L106.678 45.6429C103.291 39.5311 98.472 34.7848 92.2198 31.4038C85.9676 27.8929 78.9339 26.1374 71.1187 26.1374C57.8328 26.1374 47.0868 30.2985 38.8808 38.6209C30.8051 46.9432 26.7672 57.7363 26.7672 71C26.7672 84.1337 30.8051 94.8617 38.8808 103.184C47.0868 111.506 57.8328 115.668 71.1187 115.668C78.9339 115.668 85.9676 113.977 92.2198 110.596C98.6023 107.085 103.422 102.339 106.678 96.3571L129.928 109.816C124.067 119.699 115.926 127.566 105.506 133.418C95.0854 139.139 83.6231 142 71.1187 142Z" fill="#F6F8FB"/>
<path d="M229.138 68.4643C241.121 75.3562 247.113 85.7592 247.113 99.6731C247.113 111.246 243.01 120.739 234.804 128.151C226.598 135.563 216.503 139.269 204.52 139.269H146.491V2.73077H200.417C212.139 2.73077 221.974 6.37179 229.919 13.6538C237.995 20.8059 242.033 29.9734 242.033 41.1566C242.033 52.4698 237.734 61.5723 229.138 68.4643ZM200.417 27.8929H173.454V57.9313H200.417C204.585 57.9313 208.037 56.5009 210.772 53.6401C213.637 50.7793 215.07 47.2033 215.07 42.9121C215.07 38.6209 213.703 35.0449 210.967 32.1841C208.232 29.3233 204.715 27.8929 200.417 27.8929ZM204.52 114.107C209.079 114.107 212.856 112.612 215.852 109.621C218.848 106.5 220.346 102.599 220.346 97.9176C220.346 93.3663 218.848 89.5952 215.852 86.6044C212.856 83.4835 209.079 81.9231 204.52 81.9231H173.454V114.107H204.52Z" fill="#F6F8FB"/>
<path d="M357.491 2.73077V139.269H330.528V91.8709H315.093L283.637 139.269H253.353L286.763 88.9451C278.036 85.8242 270.937 80.4927 265.466 72.9506C259.996 65.4084 257.26 57.0861 257.26 47.9835C257.26 35.5 261.689 24.837 270.546 15.9945C279.403 7.15202 290.149 2.73077 302.784 2.73077H357.491ZM302.784 68.2692H330.528V27.8929H302.784C297.704 27.8929 293.341 29.8434 289.694 33.7445C286.046 37.6456 284.223 42.3919 284.223 47.9835C284.223 53.5751 286.046 58.3864 289.694 62.4176C293.341 66.3187 297.704 68.2692 302.784 68.2692Z" fill="#F6F8FB"/>
<path d="M544.475 139.269H514.386L471.989 77.0467V139.269H445.026V77.0467L402.628 139.269H372.735L420.213 69.6346L374.689 2.73077H404.582L445.026 63.5879V2.73077H471.989V63.5879L512.432 2.73077H542.521L496.802 69.6346L544.475 139.269Z" fill="#F6F8FB"/>
<path d="M638.707 139.269V55.9808L580.092 139.269H559.577V2.73077H586.54V86.2143L645.154 2.73077H665.669V139.269H638.707Z" fill="#F6F8FB"/>
<path d="M781.501 2.73077V28.478H744.574V139.269H717.612V28.478H680.88V2.73077H781.501Z" fill="#F6F8FB"/>
<path d="M823.516 113.522H881.153V139.269H796.553V2.73077H880.176V28.478H823.516V57.5412H875.292V82.8984H823.516V113.522Z" fill="#F6F8FB"/>
<path d="M964.071 142C943.491 142 926.493 135.173 913.076 121.519C899.66 107.865 892.952 91.0256 892.952 71C892.952 50.8443 899.66 34.0046 913.076 20.4808C926.493 6.82692 943.491 0 964.071 0C976.445 0 987.842 2.92583 998.263 8.77748C1008.81 14.4991 1017.02 22.3013 1022.88 32.1841L999.63 45.6429C996.244 39.5311 991.424 34.7848 985.172 31.4038C978.92 27.8929 971.886 26.1374 964.071 26.1374C950.785 26.1374 940.039 30.2985 931.833 38.6209C923.757 46.9432 919.719 57.7363 919.719 71C919.719 84.1337 923.757 94.8617 931.833 103.184C940.039 111.506 950.785 115.668 964.071 115.668C971.886 115.668 978.92 113.977 985.172 110.596C991.555 107.085 996.374 102.339 999.63 96.3571L1022.88 109.816C1017.02 119.699 1008.88 127.566 998.458 133.418C988.038 139.139 976.575 142 964.071 142Z" fill="#F6F8FB"/>
<path d="M1090.44 47.5934C1103.59 47.5934 1114.67 52.0146 1123.65 60.8571C1132.64 69.6996 1137.13 80.5577 1137.13 93.4313C1137.13 106.305 1132.64 117.163 1123.65 126.005C1114.67 134.848 1103.59 139.269 1090.44 139.269H1039.44V2.73077H1066.41V47.5934H1090.44ZM1090.44 114.107C1096.17 114.107 1100.92 112.157 1104.7 108.256C1108.48 104.354 1110.37 99.413 1110.37 93.4313C1110.37 87.5797 1108.48 82.7033 1104.7 78.8022C1100.92 74.7711 1096.17 72.7555 1090.44 72.7555H1066.41V114.107H1090.44Z" fill="#F6F8FB"/>
<path d="M1268.4 142C1247.82 142 1230.82 135.173 1217.41 121.519C1203.99 107.865 1197.28 91.0256 1197.28 71C1197.28 50.8443 1203.99 34.0046 1217.41 20.4808C1230.82 6.82692 1247.82 0 1268.4 0C1280.77 0 1292.17 2.92583 1302.59 8.77748C1313.14 14.4991 1321.35 22.3013 1327.21 32.1841L1303.96 45.6429C1300.57 39.5311 1295.75 34.7848 1289.5 31.4038C1283.25 27.8929 1276.21 26.1374 1268.4 26.1374C1255.11 26.1374 1244.37 30.2985 1236.16 38.6209C1228.09 46.9432 1224.05 57.7363 1224.05 71C1224.05 84.1337 1228.09 94.8617 1236.16 103.184C1244.37 111.506 1255.11 115.668 1268.4 115.668C1276.21 115.668 1283.25 113.977 1289.5 110.596C1295.88 107.085 1300.7 102.339 1303.96 96.3571L1327.21 109.816C1321.35 119.699 1313.21 127.566 1302.79 133.418C1292.37 139.139 1280.9 142 1268.4 142Z" fill="#F6F8FB"/>
<path d="M1471.91 2.73077H1498.67V139.269H1471.91V82.7033H1421.11V139.269H1394.14V2.73077H1421.11V56.956H1471.91V2.73077Z" fill="#F6F8FB"/>
<path d="M1612 139.269L1603.8 114.692H1549.28L1541.08 139.269H1511.97L1559.83 2.73077H1593.25L1641.31 139.269H1612ZM1557.88 89.5302H1595.39L1576.64 33.7445L1557.88 89.5302Z" fill="#F6F8FB"/>
<path d="M1788.42 2.73077V139.269H1761.66V50.7143L1723.17 114.107H1720.04L1681.55 50.9093V139.269H1654.59V2.73077H1682.33L1721.6 67.294L1760.68 2.73077H1788.42Z" fill="#F6F8FB"/>
<path d="M1893.04 139.269V55.9808L1834.42 139.269H1813.91V2.73077H1840.87V86.2143L1899.48 2.73077H1920V139.269H1893.04Z" fill="#F6F8FB"/>
</svg>
