<svg width="1920" height="198" viewBox="0 0 1920 198" fill="none" xmlns="http://www.w3.org/2000/svg">
<path d="M195.355 95.7273V108.818C195.355 135 186.715 156.455 169.435 173.182C152.155 189.727 129.6 198 101.77 198C72.3032 198 47.9293 188.455 28.6484 169.364C9.54948 150.273 0 126.818 0 99C0 71.3636 9.54948 48 28.6484 28.9091C47.9293 9.63636 71.7575 0 100.133 0C117.959 0 134.238 4.09091 148.972 12.2727C163.705 20.4545 175.165 31.4545 183.35 45.2727L156.339 60.8182C151.246 51.7273 143.697 44.4545 133.693 39C123.689 33.3636 112.502 30.5455 100.133 30.5455C80.1247 30.5455 63.6632 37.0909 50.7487 50.1818C37.8341 63.2727 31.3769 79.6364 31.3769 99.2727C31.3769 118.909 37.8341 135.182 50.7487 148.091C63.8451 161 80.9432 167.455 102.043 167.455C118.959 167.455 132.692 163.545 143.242 155.727C153.974 147.727 160.795 137.091 163.705 123.818H99.8603V95.7273H195.355Z" fill="white"/>
<path d="M341.262 194.455L327.893 156H246.585L233.216 194.455H199.111L268.413 3.54546H306.065L375.094 194.455H341.262ZM256.953 126.545H317.525L287.239 40.3636L256.953 126.545Z" fill="white"/>
<path d="M574.244 95.7273V108.818C574.244 135 565.604 156.455 548.324 173.182C531.044 189.727 508.489 198 480.659 198C451.192 198 426.818 188.455 407.537 169.364C388.438 150.273 378.888 126.818 378.888 99C378.888 71.3636 388.438 48 407.537 28.9091C426.818 9.63636 450.646 0 479.022 0C496.847 0 513.127 4.09091 527.86 12.2727C542.594 20.4545 554.053 31.4545 562.238 45.2727L535.227 60.8182C530.134 51.7273 522.585 44.4545 512.581 39C502.577 33.3636 491.39 30.5455 479.022 30.5455C459.013 30.5455 442.552 37.0909 429.637 50.1818C416.723 63.2727 410.265 79.6364 410.265 99.2727C410.265 118.909 416.723 135.182 429.637 148.091C442.734 161 459.832 167.455 480.931 167.455C497.848 167.455 511.581 163.545 522.131 155.727C532.862 147.727 539.684 137.091 542.594 123.818H478.749V95.7273H574.244Z" fill="white"/>
<path d="M720.15 194.455L706.781 156H625.474L612.105 194.455H577.999L647.301 3.54546H684.954L753.983 194.455H720.15ZM635.842 126.545H696.413L666.127 40.3636L635.842 126.545Z" fill="white"/>
<path d="M883.385 194.455L843.004 124.909H805.897V194.455H774.52V3.54546H850.916C868.014 3.54546 882.475 9.54546 894.298 21.5455C906.303 33.3636 912.306 47.8182 912.306 64.9091C912.306 77.0909 908.759 88.2727 901.665 98.4545C894.753 108.455 885.658 115.727 874.381 120.273L917.763 194.455H883.385ZM805.897 33V96.8182H850.916C859.283 96.8182 866.377 93.7273 872.198 87.5455C878.019 81.3636 880.929 73.8182 880.929 64.9091C880.929 56 878.019 48.4545 872.198 42.2727C866.377 36.0909 859.283 33 850.916 33H805.897Z" fill="white"/>
<path d="M941.849 3.54546H973.226V194.455H941.849V3.54546Z" fill="white"/>
<path d="M1125.99 3.54546H1157.36V194.455H1132.81L1042.77 64.9091V194.455H1011.39V3.54546H1035.95L1125.99 133.091V3.54546Z" fill="white"/>
<path d="M1387.86 3.54546V33.5455H1334.11V194.455H1302.73V33.5455H1248.71V3.54546H1387.86Z" fill="white"/>
<path d="M1442.44 164.455H1527.02V194.455H1411.06V3.54546H1525.66V33.5455H1442.44V83.1818H1518.84V112.909H1442.44V164.455Z" fill="white"/>
<path d="M1682.83 194.455L1669.46 156H1588.15L1574.78 194.455H1540.67L1609.98 3.54546H1647.63L1716.66 194.455H1682.83ZM1598.52 126.545H1659.09L1628.8 40.3636L1598.52 126.545Z" fill="white"/>
<path d="M1920 3.54546V194.455H1888.62V58.3636L1830.51 154.364H1826.69L1768.57 58.0909V194.455H1737.2V3.54546H1771.03L1828.6 99L1886.44 3.54546H1920Z" fill="white"/>
</svg>
