<svg width="60" height="61" viewBox="0 0 60 61" fill="none" xmlns="http://www.w3.org/2000/svg">
<g clip-path="url(#clip0)">
<path d="M53.484 53.7254C52.7535 53.3024 51.8181 53.5521 51.3954 54.283C50.1301 56.4704 47.7766 57.8289 45.2533 57.8289C42.7297 57.8289 40.3762 56.4702 39.1111 54.283C38.8378 53.8108 38.3335 53.5197 37.7879 53.5197C37.2422 53.5197 36.738 53.8106 36.4647 54.283C35.1995 56.4702 32.846 57.8289 30.3225 57.8289C27.7994 57.8289 25.4459 56.47 24.1803 54.2828C23.907 53.8106 23.4028 53.5197 22.8571 53.5197C22.3115 53.5197 21.8072 53.8106 21.5339 54.283C20.2688 56.4702 17.9153 57.8289 15.3917 57.8289C12.8686 57.8289 10.5151 56.47 9.24958 54.2828C8.82665 53.5519 7.89111 53.3026 7.16082 53.7254C6.43012 54.1481 6.18044 55.0834 6.60316 55.8141C8.4133 58.9428 11.781 60.8862 15.3917 60.8862C18.2499 60.8862 20.9559 59.6684 22.8573 57.6092C24.7588 59.6686 27.4645 60.8862 30.3225 60.8862C33.1809 60.8862 35.8864 59.6686 37.7879 57.6094C39.6893 59.6686 42.3951 60.8862 45.2533 60.8862C48.8642 60.8862 52.2317 58.9428 54.0418 55.8139C54.4644 55.0832 54.2147 54.1481 53.484 53.7254Z" fill="white"/>
<path d="M10.6802 31.5794C13.3973 31.5794 15.608 29.3688 15.608 26.6516C15.608 23.9343 13.3973 21.7236 10.6802 21.7236C7.96281 21.7236 5.75195 23.9343 5.75195 26.6516C5.75195 29.3688 7.96281 31.5794 10.6802 31.5794ZM10.6802 24.781C11.7115 24.781 12.5506 25.6201 12.5506 26.6516C12.5506 27.6832 11.7115 28.5221 10.6802 28.5221C9.64862 28.5221 8.80928 27.683 8.80928 26.6516C8.80928 25.6201 9.64862 24.781 10.6802 24.781Z" fill="white"/>
<path d="M23.3548 30.4368L19.1191 32.6228H10.6799C10.1467 32.6228 9.65203 32.9006 9.37463 33.3559C9.09723 33.8113 9.07705 34.3783 9.32123 34.852L14.3515 44.6077C14.6139 45.1162 15.1381 45.4358 15.7102 45.4358H24.4957L29.7735 51.1067C30.0748 51.4304 30.4832 51.5941 30.8929 51.5941C31.2659 51.5941 31.6397 51.4585 31.934 51.1844C32.552 50.6092 32.5867 49.6419 32.0115 49.0239L26.2802 42.8658C25.991 42.5552 25.5856 42.3787 25.1612 42.3787H16.6419L13.1881 35.6803H19.4905C19.7345 35.6803 19.9748 35.622 20.1914 35.5101L25.8622 32.5836C25.9836 32.5209 26.0935 32.4436 26.1907 32.3552C26.1911 32.3547 26.1915 32.3545 26.1917 32.3543L44.667 15.7698H52.7181C53.5623 15.7698 54.2468 15.0853 54.2468 14.2411C54.2468 6.87745 48.2558 0.886719 40.8922 0.886719H32.2556C24.8918 0.886719 18.9008 6.87745 18.9008 14.2411C18.9008 14.3797 18.9198 14.5177 18.9569 14.6514L23.3548 30.4368ZM40.892 3.94404C46.0505 3.94404 50.3352 7.75714 51.0761 12.7125H45.523C45.1205 9.19551 43.3462 6.08947 40.7501 3.94404H40.892ZM32.2554 3.94404C37.7111 3.94404 42.1871 8.20942 42.5291 13.5801L25.9726 28.4422L21.9598 14.0389C22.068 8.45421 26.645 3.94404 32.2554 3.94404Z" fill="white"/>
</g>
<defs>
<clipPath id="clip0">
<rect width="60" height="60" fill="white" transform="translate(0 0.886719)"/>
</clipPath>
</defs>
</svg>
