<svg width="60" height="61" viewBox="0 0 60 61" fill="none" xmlns="http://www.w3.org/2000/svg">
<g clip-path="url(#clip0)">
<path d="M43.1799 4.40234H42.4521L34.2059 12.648C33.9276 6.27002 28.7709 1.13712 22.3828 0.896332V0.886719H11.8359V0.896332C5.26749 1.14398 0 6.56345 0 13.1914V18.4648H0.763092L11.1328 35.7212L3.51562 43.3388V44.0667C3.51562 53.3414 11.0609 60.8867 20.3357 60.8867H21.0635L60 21.9503V21.2224C60 11.9477 52.4547 4.40234 43.1799 4.40234ZM30.7031 13.1914V14.9492H22.3828V4.41516C27.0122 4.65961 30.7031 8.50208 30.7031 13.1914ZM18.8672 4.40234V14.9492H15.3516V4.40234H18.8672ZM3.51562 13.1914C3.51562 8.50208 7.20657 4.65961 11.8359 4.41516V14.9492H3.51562V13.1914ZM4.86511 18.4648H28.3896L13.6949 33.1591L4.86511 18.4648ZM19.6262 57.3523C12.8531 56.9953 7.40707 51.5493 7.05002 44.7762L43.8895 7.93674C50.6625 8.29379 56.1086 13.7398 56.4656 20.5129L19.6262 57.3523Z" fill="white"/>
<path d="M14.6904 42.2538L22.1483 49.7117L29.6062 42.2538L22.1483 34.7959L14.6904 42.2538ZM22.1483 44.7399L19.6622 42.2538L22.1483 39.7677L24.6344 42.2538L22.1483 44.7399Z" fill="white"/>
<path d="M33.9092 23.035L41.3671 30.4929L48.8249 23.035L41.3671 15.5771L33.9092 23.035ZM41.3671 25.5211L38.8809 23.035L41.3671 20.5489L43.8532 23.035L41.3671 25.5211Z" fill="white"/>
</g>
<defs>
<clipPath id="clip0">
<rect width="60" height="60" fill="white" transform="translate(0 0.886719)"/>
</clipPath>
</defs>
</svg>
