<svg width="60" height="61" viewBox="0 0 60 61" fill="none" xmlns="http://www.w3.org/2000/svg">
<path d="M49.9219 59.0092H10.0781C7.10578 59.0092 4.6875 56.591 4.6875 53.6186V25.2568C4.6875 24.2214 5.52691 23.3818 6.5625 23.3818C7.59809 23.3818 8.4375 24.2214 8.4375 25.2568V53.6186C8.4375 54.5232 9.17344 55.2592 10.0781 55.2592H49.9219C50.8266 55.2592 51.5625 54.5232 51.5625 53.6186V25.2568C51.5625 24.2214 52.4019 23.3818 53.4375 23.3818C54.4731 23.3818 55.3125 24.2214 55.3125 25.2568V53.6186C55.3125 56.5909 52.8943 59.0092 49.9219 59.0092Z" fill="white"/>
<path d="M58.125 31.8192C57.6451 31.8192 57.1653 31.6362 56.7992 31.27L33.4802 7.95121C31.5613 6.03215 28.4388 6.03215 26.5197 7.95121L3.20083 31.2701C2.46864 32.0024 1.28142 32.0024 0.549228 31.2701C-0.183076 30.5379 -0.183076 29.3507 0.549228 28.6185L23.8681 5.29949C27.2492 1.9184 32.7508 1.9184 36.1318 5.29949L59.4507 28.6184C60.183 29.3507 60.183 30.5378 59.4507 31.27C59.0847 31.6362 58.6049 31.8192 58.125 31.8192Z" fill="white"/>
<path d="M37.5 59.0098H22.5C21.4644 59.0098 20.625 58.1702 20.625 57.1348V40.4941C20.625 37.2633 23.2535 34.6348 26.4844 34.6348H33.5156C36.7465 34.6348 39.375 37.2633 39.375 40.4941V57.1348C39.375 58.1702 38.5356 59.0098 37.5 59.0098ZM24.375 55.2598H35.625V40.4941C35.625 39.3311 34.6787 38.3848 33.5156 38.3848H26.4844C25.3213 38.3848 24.375 39.3311 24.375 40.4941V55.2598Z" fill="white"/>
</svg>
