<svg width="155" height="60" viewBox="0 0 155 60" fill="none" xmlns="http://www.w3.org/2000/svg">
<g clip-path="url(#clip0)">
<path d="M32.5605 37.8728C32.5038 37.7594 32.466 37.7027 32.466 37.7027C32.466 37.7027 27.3636 40.3484 22.6959 43.4098L24.2266 46.0744C24.2266 46.0744 27.4392 43.9579 31.0676 41.9169C32.2959 46.2823 31.1999 50.6098 28.1195 52.6319C24.1888 55.183 18.444 52.9153 15.2503 47.5673C12.0755 42.2193 12.6613 35.7941 16.592 33.224C19.4266 31.372 23.2062 32.0334 26.3054 34.5657L28.1195 32.2035C24.0188 28.7453 18.8597 27.8382 14.9668 30.3893C9.73214 33.8098 8.80616 42.2004 12.9258 49.1169C17.0455 56.0334 24.6235 58.887 29.8581 55.4665C34.8282 52.1972 35.9621 44.5626 32.5605 37.8728ZM69.5999 28.5941V26.4208C67.6156 26.6098 65.1589 26.8744 62.74 27.2523L63.118 30.3327C63.118 30.3327 66.8597 29.7279 70.9794 29.3689C70.4503 33.8854 67.8046 37.4004 64.214 37.9673C59.6408 38.6854 55.2188 34.2067 54.3306 27.9516C53.4424 21.7153 56.4282 16.0838 61.0203 15.3657C64.3274 14.8555 67.54 17.0476 69.4109 20.6382L71.9621 19.2208C69.5432 14.3642 65.14 11.3783 60.6046 12.0775C54.5006 13.0224 50.4755 20.3358 51.6282 28.4051C51.7038 28.8964 51.7794 29.3689 51.8928 29.8413C51.8361 29.709 51.8172 29.6334 51.8172 29.6334C51.8172 29.6334 50.7778 30.0114 49.1904 30.6161L42.614 17.3878C42.614 17.3878 35.1684 19.7878 29.5936 22.6413L30.8219 25.4949C30.8219 25.4949 32.9762 24.4555 36.0754 23.1705C36.8125 27.8382 37.0959 31.8445 37.0959 35.2082C35.5085 35.8319 34.2613 36.3421 33.6943 36.6067L34.7526 39.4035C35.5274 39.1012 36.2644 38.8177 37.0014 38.5153C36.5101 46.9626 34.2424 50.5342 34.2424 50.5342C34.2424 50.5342 35.9621 50.9689 37.9274 51.2712C39.288 47.6618 39.9495 42.9185 40.0251 37.3437C43.0487 36.1909 45.6566 35.1893 47.7353 34.4145L51.1369 41.2744C50.6266 41.4445 50.1164 41.5956 49.644 41.7657L50.551 44.7138C50.551 44.7138 52.3463 44.0523 56.7873 42.8618C56.3904 40.972 56.1069 39.8571 56.1069 39.8571C56.1069 39.8571 55.2566 40.0838 54.0849 40.4051L50.5888 33.3563C51.7416 32.9405 52.4786 32.6571 52.7432 32.5626C54.9731 38.3453 59.8109 42.0492 64.7999 41.2744C69.9967 40.4618 73.6817 35.1138 73.9841 28.5752H69.5999V28.5941ZM39.9684 34.0933C39.8739 30.3327 39.5526 26.2697 39.0046 21.9988C39.7038 21.7342 40.403 21.4697 41.14 21.2051L46.3369 31.6744C44.3337 32.4303 42.0471 33.2807 39.9684 34.0933ZM91.9558 29.9925C93.2786 30.0681 94.1101 30.1248 94.318 30.1248C94.488 28.1783 94.488 27.0445 94.488 27.0445C94.488 27.0445 93.3731 26.9878 91.6912 26.8933L90.4439 12.0397V11.9642C90.4439 11.9642 82.677 11.3594 76.4786 11.8697L76.6298 14.9878C76.6298 14.9878 78.9542 14.8555 82.2613 14.8366C81.2408 19.3909 80.0502 23.1705 78.8219 26.2697C77.7069 26.2319 76.7432 26.1941 76.044 26.1941V28.613H75.1369L75.118 29.2177C75.9306 29.2555 76.7432 29.2744 77.518 29.3122C73.9841 36.9279 70.5825 39.309 70.5825 39.309C70.5825 39.309 71.9999 40.4051 73.7195 41.4634C76.2896 38.6854 78.6329 34.5468 80.7306 29.4445C83.9432 29.5767 86.7211 29.7279 88.9321 29.8413L89.5747 37.6271C89.0077 37.6082 88.4408 37.5893 87.9117 37.5893L87.8739 40.6886C87.8739 40.6886 89.7825 40.6508 94.3558 40.9909C94.5447 39.0634 94.6203 37.9106 94.6203 37.9106C94.6203 37.9106 93.7699 37.835 92.5794 37.7594L91.9558 29.9925ZM81.9211 26.4019C83.2062 22.9059 84.3778 19.0319 85.455 14.8744C86.192 14.8933 86.9479 14.9122 87.7227 14.95L88.7054 26.7232C86.5699 26.6098 84.1321 26.4964 81.9211 26.4019ZM128.012 20.2413C128.201 19.7311 128.296 19.4476 128.296 19.4476C128.296 19.4476 124.573 17.9925 121.909 17.1799L121.058 20.1468C121.058 20.1468 122.097 20.4303 124.441 21.2807L116.712 42.5972C116.126 42.3704 115.54 42.1437 114.992 41.9547L114.028 44.8838C114.028 44.8838 115.842 45.4697 120.075 47.3027C120.831 45.5453 121.247 44.4681 121.247 44.4681C121.247 44.4681 120.51 44.1468 119.471 43.7122L128.012 20.2413ZM107.546 31.9956C110.135 31.9201 112.252 31.3531 113.896 30.3327C115.653 29.2366 116.806 27.498 117.203 25.5893C117.297 25.098 117.354 24.5878 117.354 24.0775C117.354 21.583 116.05 19.2019 113.745 17.35C111.42 15.4602 108.057 13.9673 103.521 12.9657C101.461 12.5122 99.4392 12.3043 97.5495 12.3043C97.4739 12.3043 97.3983 12.3043 97.3227 12.3043L97.3605 15.498C97.4172 15.498 97.4928 15.498 97.5495 15.498C98.7211 15.498 99.9873 15.5925 101.272 15.8004L99.5148 27.7059C99.0046 27.5736 98.4943 27.4035 98.003 27.2523L97.0581 30.2949C97.7006 30.5216 98.3621 30.7106 99.0424 30.8807L97.9652 38.2697C97.3416 38.1752 96.7369 38.0807 96.1699 38.024L95.8109 41.1043C95.8109 41.1043 97.7006 41.2744 102.217 42.1437C102.614 40.2539 102.803 39.1201 102.803 39.1201C102.803 39.1201 102.028 38.9689 100.913 38.761L101.972 31.5232C102.746 31.6555 103.502 31.7689 104.201 31.8445C106.337 37.2114 108.397 42.2571 111.061 45.035C112.762 43.939 114.16 42.824 114.16 42.824C114.16 42.824 111.212 40.1027 107.546 31.9956ZM102.444 28.3484L104.201 16.3862C107.754 17.2933 110.286 18.5405 111.874 19.8445C113.669 21.3185 114.293 22.7547 114.312 24.0397C114.312 24.3043 114.274 24.5878 114.217 24.8712C113.972 25.9862 113.423 26.8366 112.309 27.5547C111.194 28.2728 109.455 28.783 106.96 28.7642C105.657 28.8019 104.145 28.6697 102.444 28.3484ZM149.669 30.7673L147.949 33.2807C147.949 33.2807 148.441 33.6397 149.499 34.4712L137.953 53.3122L140.353 25.1547C140.22 25.0791 134.929 22.3767 132.397 21.2807L131.244 24.1342C131.244 24.1342 132.302 24.5689 134.664 25.7405L124.686 45.9799C124.082 45.6775 123.458 45.3941 122.891 45.1484L121.72 47.983C121.72 47.983 123.496 48.7201 127.578 50.8933C128.466 49.1925 128.957 48.172 128.957 48.172C128.957 48.172 128.315 47.813 127.37 47.3405L137.159 27.4413L134.816 54.8807C134.816 54.8807 137.99 56.9216 141.675 59.7941C142.828 58.2823 143.471 57.3563 143.471 57.3563C143.471 57.3563 142.072 56.2413 140.447 55.0508L151.861 36.4177C152.239 36.739 152.636 37.0791 153.071 37.4571C154.28 36.0019 154.998 35.1138 154.998 35.1138C154.998 35.1138 151.937 32.4492 149.669 30.7673Z" fill="#1495DF"/>
<path d="M106.96 31.3706C109.549 31.2951 111.666 30.7281 113.31 29.7076C115.067 28.6116 116.22 26.873 116.617 24.9643C116.712 24.473 116.768 23.9628 116.768 23.4525C116.768 20.9769 115.464 18.5769 113.159 16.725C110.834 14.8352 107.471 13.3423 102.935 12.3407C100.875 11.8872 98.8533 11.6793 96.9635 11.6793C96.8879 11.6793 96.8123 11.6793 96.7367 11.6793L96.7745 14.873C96.8312 14.873 96.9068 14.873 96.9635 14.873C98.1352 14.873 99.4013 14.9675 100.686 15.1754L98.9289 27.0809C98.4186 26.9486 97.9084 26.7785 97.4171 26.6273L96.4722 29.6699C97.1147 29.8966 97.7761 30.0856 98.4564 30.2557L97.3793 37.6447C96.7556 37.5502 96.1509 37.4557 95.584 37.399L95.2249 40.4793C95.2249 40.4793 97.1147 40.6494 101.631 41.5187C102.028 39.6289 102.217 38.4951 102.217 38.4951C102.217 38.4951 101.442 38.3439 100.327 38.136L101.386 30.8982C102.16 31.0305 102.916 31.1439 103.615 31.2195C105.751 36.5864 107.811 41.6321 110.475 44.41C112.176 43.3139 113.575 42.199 113.575 42.199C113.575 42.199 110.626 39.4777 106.96 31.3706ZM101.858 27.7423L103.615 15.7801C107.168 16.6872 109.701 17.9344 111.288 19.2384C113.083 20.7124 113.707 22.1486 113.726 23.4336C113.726 23.6982 113.688 23.9817 113.631 24.2651C113.386 25.3801 112.838 26.2305 111.723 26.9486C110.608 27.6667 108.869 28.1769 106.375 28.158C105.071 28.1958 103.559 28.0447 101.858 27.7423ZM73.3037 25.6825C73.3037 25.5502 73.2848 25.4935 73.2848 25.4935C73.2848 25.4935 67.5966 25.7769 62.1541 26.6462L62.532 29.7265C62.532 29.7265 66.2738 29.1218 70.3934 28.7628C69.8643 33.2793 67.2186 36.7943 63.6281 37.3612C59.0549 38.0793 54.6328 33.6006 53.7446 27.3454C52.8564 21.1092 55.8423 15.4777 60.4344 14.7596C63.7415 14.2494 66.9541 16.4415 68.8249 20.0321L71.3761 18.6147C68.9383 13.7392 64.5352 10.7533 60.0186 11.4525C53.9147 12.3974 49.8895 19.7108 51.0423 27.7801C51.1179 28.2714 51.1934 28.7439 51.3068 29.2163C51.2501 29.084 51.2312 29.0084 51.2312 29.0084C51.2312 29.0084 50.1919 29.3864 48.6045 29.9911L42.0281 16.7628C42.0281 16.7628 34.5824 19.1628 29.0076 22.0163L30.236 24.8699C30.236 24.8699 32.3903 23.8305 35.4895 22.5454C36.2265 27.2132 36.51 31.2195 36.51 34.5832C34.9226 35.2069 33.6753 35.7171 33.1084 35.9817L34.1667 38.7785C34.9415 38.4762 35.6785 38.1927 36.4155 37.8903C35.9242 46.3376 33.6564 49.9092 33.6564 49.9092C33.6564 49.9092 35.3761 50.3439 37.3415 50.6462C38.7021 47.0368 39.3635 42.2935 39.4391 36.7187C42.4627 35.5659 45.0706 34.5643 47.1493 33.7895L50.5509 40.6494C50.0407 40.8195 49.5304 40.9706 49.058 41.1407L49.9651 44.0888C49.9651 44.0888 51.7604 43.4273 56.2013 42.2368C55.8045 40.347 55.521 39.2321 55.521 39.2321C55.521 39.2321 54.6706 39.4588 53.499 39.7801L50.0029 32.7313C51.1556 32.3155 51.8927 32.0321 52.1572 31.9376C54.3871 37.7202 59.2249 41.4242 64.2139 40.6494C69.9588 39.7801 73.8895 33.2415 73.3037 25.6825ZM39.3824 33.4683C39.2879 29.7077 38.9667 25.6447 38.4186 21.3738C39.1179 21.1092 39.8171 20.8447 40.5541 20.5801L45.7509 31.0494C43.7478 31.8053 41.4612 32.6746 39.3824 33.4683ZM91.3698 29.3675C92.6926 29.4431 93.5241 29.4998 93.732 29.4998C93.9021 27.5533 93.9021 26.4195 93.9021 26.4195C93.9021 26.4195 92.7871 26.3628 91.1052 26.2683L89.858 11.4147V11.3392C89.858 11.3392 82.0911 10.7344 75.8927 11.2447L76.0438 14.3628C76.0438 14.3628 78.3682 14.2305 81.6753 14.2116C80.6549 18.7659 79.4643 22.5454 78.236 25.6447C76.5352 25.588 75.2123 25.5502 74.5887 25.5691L74.532 28.5738C75.3446 28.6116 76.1572 28.6305 76.932 28.6683C73.3982 36.284 69.9966 38.6651 69.9966 38.6651C69.9966 38.6651 71.4139 39.7612 73.1336 40.8195C75.7037 38.0415 78.047 33.9029 80.1446 28.8006C83.3572 28.9328 86.1352 29.084 88.3462 29.1974L88.9887 36.9832C88.4218 36.9643 87.8549 36.9454 87.3257 36.9454L87.2879 40.0447C87.2879 40.0447 89.1966 40.0069 93.7698 40.347C93.9588 38.4195 94.0344 37.2667 94.0344 37.2667C94.0344 37.2667 93.184 37.1911 91.9934 37.1155L91.3698 29.3675ZM81.3352 25.7769C82.6202 22.2809 83.7919 18.4069 84.869 14.2494C85.606 14.2683 86.3619 14.2872 87.1367 14.325L88.1194 26.0982C85.984 26.0037 83.5462 25.8903 81.3352 25.7769ZM31.9745 37.2478C31.9179 37.1344 31.8801 37.0777 31.8801 37.0777C31.8801 37.0777 26.7777 39.7234 22.11 42.7848L23.6407 45.4494C23.6407 45.4494 26.8533 43.3328 30.4816 41.2919C31.71 45.6573 30.6139 49.9848 27.5336 52.0069C23.6029 54.5769 17.8391 52.3092 14.6643 46.9612C11.4895 41.6132 12.0753 35.188 16.006 32.6179C18.8407 30.7659 22.6202 31.4273 25.7194 33.9596L27.5336 31.5974C23.4328 28.1391 18.2738 27.2321 14.3809 29.7832C9.14621 33.2037 8.22022 41.5943 12.3399 48.5108C16.4596 55.4273 24.0375 58.2809 29.2722 54.8604C34.2423 51.5911 35.3761 43.9376 31.9745 37.2478ZM127.426 19.6352C127.615 19.125 127.71 18.8415 127.71 18.8415C127.71 18.8415 123.987 17.3864 121.323 16.5738L120.472 19.5407C120.472 19.5407 121.512 19.8242 123.855 20.6746L116.126 41.9911C115.54 41.7643 114.954 41.5376 114.406 41.3486L113.442 44.2777C113.442 44.2777 115.256 44.8636 119.489 46.6966C120.245 44.9391 120.661 43.862 120.661 43.862C120.661 43.862 119.924 43.5407 118.885 43.1061L127.426 19.6352ZM149.083 30.1423L147.363 32.6557C147.363 32.6557 147.855 33.0147 148.913 33.8462L137.367 52.6872L139.767 24.5297C139.615 24.4541 134.343 21.7517 131.811 20.6557L130.658 23.5092C130.658 23.5092 131.716 23.9439 134.078 25.1155L124.101 45.3549C123.496 45.0525 122.872 44.7691 122.305 44.5234L121.134 47.358C121.134 47.358 122.91 48.0951 126.992 50.2683C127.88 48.5675 128.371 47.547 128.371 47.547C128.371 47.547 127.729 47.188 126.784 46.7155L136.573 26.8163L134.23 54.2557C134.23 54.2557 137.404 56.2966 141.089 59.1691C142.242 57.6573 142.885 56.7313 142.885 56.7313C142.885 56.7313 141.486 55.6163 139.861 54.4258L151.275 35.7927C151.653 36.1139 152.05 36.4541 152.485 36.8321C153.694 35.3769 154.412 34.4888 154.412 34.4888C154.412 34.4888 151.351 31.8242 149.083 30.1423Z" fill="white"/>
<path d="M98.5698 29.8207C97.6439 29.5939 96.7557 29.3482 95.9053 29.0648L96.8502 26.0222C97.625 26.2868 98.4187 26.5136 99.2502 26.7026C101.82 27.3073 103.993 27.5719 105.808 27.5719C108.283 27.5719 110.041 27.0616 111.156 26.3624C112.271 25.6443 112.819 24.775 113.064 23.6789C113.121 23.3955 113.159 23.1309 113.159 22.8474C113.159 21.5624 112.535 20.1262 110.721 18.6522C108.926 17.1971 105.978 15.7986 101.745 14.8726C99.8738 14.4569 98.0596 14.2679 96.3966 14.2679C96.3399 14.2679 96.2643 14.2679 96.2076 14.2679L96.1698 11.0742C96.2454 11.0742 96.321 11.0742 96.3966 11.0742C98.2864 11.0742 100.308 11.2821 102.368 11.7356C106.904 12.7372 110.268 14.2301 112.592 16.1199C114.897 17.9908 116.201 20.3719 116.201 22.8474C116.201 23.3577 116.145 23.8679 116.05 24.3593C115.653 26.2679 114.519 28.0065 112.743 29.1026C110.986 30.2175 108.68 30.7845 105.827 30.7845C103.71 30.7656 101.31 30.4632 98.5698 29.8207Z" fill="#FF1B34"/>
<path d="M72.7181 24.8702C73.3795 32.5049 69.4299 39.1568 63.5906 40.0639C57.4867 41.0088 51.6095 35.245 50.4567 27.1757C49.304 19.1064 53.3292 11.793 59.4331 10.8482C63.9496 10.1489 68.3528 13.1348 70.7906 18.0104L68.2394 19.4277C66.3685 15.8182 63.137 13.645 59.8489 14.1552C55.2756 14.8734 52.2898 20.5049 53.1591 26.7411C54.0473 32.9773 58.4693 37.456 63.0425 36.7568C67.4268 36.0765 70.3748 31.0119 69.8457 25.097L72.7181 24.8702Z" fill="#FF1B34"/>
<path d="M61.5684 26.0229L61.9463 29.1032C61.9463 29.1032 67.2944 28.2339 72.2456 27.9693C72.8692 26.3819 72.6991 24.8701 72.6991 24.8701C72.6991 24.8701 67.0109 25.1536 61.5684 26.0229Z" fill="#FF1B34"/>
<path d="M88.648 39.1544L86.3047 10.9024L89.2716 10.7891L91.6527 39.1922L88.648 39.1544Z" fill="#FF1B34"/>
<path d="M75.3252 10.6392L75.4764 13.7573C75.4764 13.7573 81.1645 13.4171 87.4007 13.7762C88.629 11.8297 89.196 13.3227 89.196 13.3227L89.2527 11.9053L89.3094 10.7337C89.2716 10.7337 81.5047 10.129 75.3252 10.6392Z" fill="#FF1B34"/>
<path d="M86.7585 36.3398L86.7207 39.4391C86.7207 39.4391 88.6294 39.4013 93.2026 39.7414C93.3916 37.8139 93.4671 36.6611 93.4671 36.6611C93.4671 36.6611 89.5364 36.3398 86.7585 36.3398Z" fill="#FF1B34"/>
<path d="M74.0215 24.9634L73.9648 27.9681C84.6987 28.346 92.4467 28.8563 93.127 28.8941C93.2971 26.9476 93.2971 25.8138 93.2971 25.8138C93.2971 25.8138 76.705 24.8878 74.0215 24.9634Z" fill="#FF1B34"/>
<path d="M84.396 13.1528C81.3157 25.2662 77.3283 35.0552 72.5472 40.2142C70.8275 39.1559 69.4102 38.0599 69.4102 38.0599C69.4102 38.0599 77.0826 32.6929 81.3535 12.3213L84.396 13.1528Z" fill="#FF1B34"/>
<path d="M31.2941 36.4524C34.8091 43.1799 33.713 50.928 28.6862 54.1972C23.4516 57.6177 15.8547 54.7831 11.7539 47.8476C7.63425 40.9311 8.54134 32.5406 13.7949 29.1201C17.6689 26.5878 22.8469 27.4949 26.9476 30.9343L25.1335 33.2965C22.0531 30.7642 18.2547 30.1028 15.4201 31.9547C11.4894 34.5248 10.8846 40.9311 14.0783 46.298C17.2531 51.6461 23.0169 53.9138 26.9476 51.3437C30.7083 48.887 31.502 43.0098 28.7618 37.813L31.2941 36.4524Z" fill="#FF1B34"/>
<path d="M21.5244 42.1781L23.0551 44.8427C23.0551 44.8427 27.6284 41.8191 32.0693 39.4947C32.0315 37.775 31.3134 36.4521 31.3134 36.4521C31.3134 36.4521 26.1921 39.0978 21.5244 42.1781Z" fill="#FF1B34"/>
<path d="M51.1931 42.6133L38.7207 17.4605L41.4042 16.1377L53.99 41.4416L51.1931 42.6133Z" fill="#FF1B34"/>
<path d="M28.3838 21.3912L29.6121 24.2448C29.6121 24.2448 34.7901 21.7503 40.7239 19.6904C41.1964 17.4038 42.2358 18.5755 42.2358 18.5755L41.7822 17.2338L41.4232 16.1377C41.4043 16.1377 33.9775 18.5566 28.3838 21.3912Z" fill="#FF1B34"/>
<path d="M48.4346 40.5346L49.3417 43.4827C49.3417 43.4827 51.1369 42.8213 55.5778 41.6307C55.181 39.7409 54.8975 38.626 54.8975 38.626C54.8975 38.626 51.0613 39.6276 48.4346 40.5346Z" fill="#FF1B34"/>
<path d="M32.5029 35.357L33.5612 38.1539C43.6147 34.2043 50.9659 31.5586 51.6084 31.3129C51.0604 29.4421 50.6447 28.3838 50.6447 28.3838C50.6447 28.3838 34.9596 34.2043 32.5029 35.357Z" fill="#FF1B34"/>
<path d="M37.7755 20.2959C39.3629 32.7116 39.2496 43.3699 36.7173 50.0408C34.7519 49.7573 33.0322 49.3038 33.0322 49.3038C33.0322 49.3038 38.1535 41.2534 34.6763 20.7305L37.7755 20.2959Z" fill="#FF1B34"/>
<path d="M114.651 43.8988L124.119 17.7822L126.84 19.0106L117.335 45.2972L114.651 43.8988Z" fill="#FF1B34"/>
<path d="M113.839 40.7441L112.875 43.6733C112.875 43.6733 114.689 44.2591 118.922 46.0922C119.678 44.3347 120.094 43.2575 120.094 43.2575C120.094 43.2575 116.484 41.6512 113.839 40.7441Z" fill="#FF1B34"/>
<path d="M120.756 15.9492L119.905 18.9161C119.905 18.9161 121.738 19.4264 126.047 21.0894C126.746 19.2941 127.143 18.2169 127.143 18.2169C127.143 18.2169 123.401 16.7618 120.756 15.9492Z" fill="#FF1B34"/>
<path d="M122.399 46.978L134.645 22.1465L137.215 23.6961L124.932 48.6788L122.399 46.978Z" fill="#FF1B34"/>
<path d="M133.644 53.6497L136.195 23.7158L139.181 23.9048L136.592 54.33L133.644 53.6497Z" fill="#FF1B34"/>
<path d="M121.719 43.8984L120.548 46.7331C120.548 46.7331 122.324 47.4701 126.406 49.6433C127.294 47.9425 127.786 46.9221 127.786 46.9221C127.786 46.9221 124.29 45.0323 121.719 43.8984Z" fill="#FF1B34"/>
<path d="M131.244 20.0312L130.091 22.8848C130.091 22.8848 131.867 23.6029 135.968 25.7572C136.856 24.0564 139.199 23.9242 139.199 23.9242C139.199 23.9242 133.795 21.1462 131.244 20.0312Z" fill="#FF1B34"/>
<path d="M135.42 54.2928L149.839 30.7842L152.258 32.5795L137.782 56.2393L135.42 54.2928Z" fill="#FF1B34"/>
<path d="M136.799 52.0635L133.644 53.6509C133.644 53.6509 136.818 55.6918 140.503 58.5643C141.656 57.0524 142.299 56.1265 142.299 56.1265C142.299 56.1265 139.143 53.632 136.799 52.0635Z" fill="#FF1B34"/>
<path d="M148.497 29.5361L146.777 32.0495C146.777 32.0495 148.346 33.1645 151.899 36.207C153.108 34.7519 153.826 33.8637 153.826 33.8637C153.826 33.8637 150.765 31.218 148.497 29.5361Z" fill="#FF1B34"/>
<path d="M96.3965 39.7035L100.459 12.0752L103.37 12.6988L99.3067 40.4783L96.3965 39.7035Z" fill="#FF1B34"/>
<path d="M94.9977 36.7744L94.6387 39.8547C94.6387 39.8547 96.5284 40.0248 101.045 40.8941C101.442 39.0043 101.631 37.8705 101.631 37.8705C101.631 37.8705 97.7568 37.0957 94.9977 36.7744Z" fill="#FF1B34"/>
<path d="M105.656 29.1014L102.387 28.9502C104.768 34.9218 106.96 40.7234 109.908 43.8037C111.609 42.7077 113.007 41.5927 113.007 41.5927C113.007 41.5927 109.643 38.4935 105.656 29.1014Z" fill="#FF1B34"/>
<path d="M83.6035 58.5086V45.3369H85.361V58.5086H83.6035Z" fill="#1495DF"/>
<path d="M80.2393 47.17V45.3369H88.8377V47.17H80.2393Z" fill="#1495DF"/>
<path d="M90.9922 47.17V45.3369H97.493V47.17H90.9922Z" fill="#1495DF"/>
<path d="M90.9922 52.7462V50.9131H96.0757V52.7462H90.9922Z" fill="#1495DF"/>
<path d="M90.9922 58.5079V56.6748H97.493V58.5079H90.9922Z" fill="#1495DF"/>
<path d="M90.709 58.5086V45.3369H92.4665V58.5086H90.709Z" fill="#1495DF"/>
<path d="M65.3672 58.5086V45.3369H67.1058V58.5086H65.3672Z" fill="#1495DF"/>
<path d="M76.6299 58.5086V45.3369H78.3874V58.5086H76.6299Z" fill="#1495DF"/>
<path d="M65.8018 53.0094C68.4852 50.8172 70.564 48.5873 72.0947 45.3369H74.0789C72.4537 48.8897 69.8081 51.6865 66.8789 54.0865L65.8018 53.0094Z" fill="#1495DF"/>
<path d="M71.0549 55.919C70.0155 54.4071 68.9384 52.6119 68.3525 50.8922V51.2512L69.9966 50.2686C70.4691 51.6859 71.4895 53.4056 72.4722 54.8418C73.4549 56.278 75.0801 58.1111 75.458 58.5268H75.2313H73.1714C72.6612 57.9977 72.0943 57.4308 71.0549 55.919Z" fill="#1495DF"/>
<path d="M100.933 45.752V47.6228C113.008 49.5126 124.309 53.6323 132.038 58.8858L132.17 58.6023C124.366 52.8008 113.632 47.9252 100.933 45.752Z" fill="#1495DF"/>
<path d="M100.933 56.4473V57.9213C104.315 57.9024 106.432 58.1858 109.474 58.6583L109.531 58.3937C107.377 57.4866 103.484 56.7118 100.933 56.4473Z" fill="#1495DF"/>
<path d="M100.933 51.2695V52.9325C107.244 53.6128 115.692 56.1451 121.304 58.7152L121.418 58.3939C116.977 55.6349 109.437 52.7246 100.933 51.2695Z" fill="#1495DF"/>
<path d="M61.9276 45.752V47.6228C49.852 49.5126 38.5512 53.6323 30.8032 58.8858L30.6709 58.6023C38.4756 52.8008 49.2095 47.9252 61.9276 45.752Z" fill="#1495DF"/>
<path d="M61.9275 56.4473V57.9213C58.5449 57.9024 56.4283 58.1858 53.3858 58.6583L53.3291 58.3937C55.4834 57.4866 59.3574 56.7118 61.9275 56.4473Z" fill="#1495DF"/>
<path d="M61.9274 51.2695V52.9325C55.6156 53.6128 47.1684 56.1451 41.5558 58.7152L41.4424 58.3939C45.8644 55.6349 53.4046 52.7246 61.9274 51.2695Z" fill="#1495DF"/>
<path d="M95.0358 1.9827C92.5413 0.300807 76.6862 0.319704 68.0311 1.35907C67.6909 2.41734 68.0311 3.34333 68.0311 3.34333C76.6862 4.13703 92.5413 3.74018 95.0358 1.9827Z" fill="#1495DF"/>
<path d="M75.0612 0.981849C74.2108 0.528306 72.5289 -0.000827536 72.2644 0.0180701C69.9022 0.131456 64.1573 0.396023 64.1195 0.509409C64.0817 0.622794 67.2376 1.05744 68.2392 1.68106C69.2596 2.28579 75.0612 0.981849 75.0612 0.981849Z" fill="#1495DF"/>
<path d="M75.1182 3.53299C74.2678 4.00543 72.5859 4.59126 72.3213 4.59126C69.9591 4.53457 64.2143 4.42118 64.1576 4.32669C64.1198 4.21331 67.2757 3.70307 68.2772 3.04165C69.3166 2.38024 75.1182 3.53299 75.1182 3.53299Z" fill="#1495DF"/>
<path d="M62.4378 2.15544C35.9433 1.77749 11.8299 13.4184 0 26.6657C0.359055 26.9491 0.226772 26.8169 0.226772 26.8169C0.226772 26.8169 21.9024 3.32709 62.4567 2.77906C62.4378 2.15544 62.4378 2.15544 62.4378 2.15544Z" fill="#1495DF"/>
<path d="M62.419 2.17285C37.7576 3.02324 13.4174 16.6106 2.68359 30.8594C3.08044 31.124 2.92926 30.9917 2.92926 30.9917C2.92926 30.9917 22.1671 6.5949 62.4379 2.79647C62.4379 2.26734 62.419 2.17285 62.419 2.17285Z" fill="#1495DF"/>
</g>
<defs>
<clipPath id="clip0">
<rect width="154.998" height="60" fill="white"/>
</clipPath>
</defs>
</svg>
