<svg width="176" height="39" viewBox="0 0 176 39" fill="none" xmlns="http://www.w3.org/2000/svg">
<g clip-path="url(#clip0)">
<path d="M175.011 26.2785C174.465 26.2785 174.021 26.7285 174.021 27.2826C174.021 27.8367 174.465 28.2868 175.011 28.2868C175.557 28.2868 176 27.8367 176 27.2826C176 26.7285 175.557 26.2785 175.011 26.2785ZM175.011 28.1275C174.551 28.1275 174.178 27.7475 174.178 27.2826C174.178 26.8155 174.553 26.4377 175.011 26.4377C175.471 26.4377 175.845 26.8177 175.845 27.2826C175.845 27.7475 175.471 28.1275 175.011 28.1275ZM175.333 27.1107C175.333 26.9281 175.205 26.8198 175.017 26.8198H174.701V27.7348H174.856V27.4036H175.025L175.188 27.7348H175.356L175.176 27.3697C175.272 27.3251 175.333 27.2359 175.333 27.1107ZM175.011 27.2614H174.858V26.9579H175.011C175.115 26.9579 175.178 27.0109 175.178 27.1086C175.178 27.2083 175.113 27.2614 175.011 27.2614ZM55.8054 16.1161V13.6875H52.1369V28.136H55.8054V19.4725C55.8054 17.9036 56.7969 17.133 58.3426 17.133H60.3505V13.6875H58.6354C57.2926 13.6875 56.1255 14.3987 55.8054 16.1161ZM63.7869 7.97266C62.532 7.97266 61.5699 8.97893 61.5699 10.2527C61.5699 11.4967 62.532 12.503 63.7869 12.503C65.0419 12.503 66.004 11.4967 66.004 10.2527C66.004 8.97888 65.0419 7.97266 63.7869 7.97266ZM61.9568 28.136H65.6171V13.6875H61.9568V28.136ZM83.0524 20.9117C83.0524 25.0365 79.7582 28.3802 75.6942 28.3802C74.0544 28.3802 72.5673 27.8346 71.3751 26.9132V32.3776H67.7148V13.6875H71.3751V14.9103C72.5673 13.9889 74.0544 13.4434 75.6942 13.4434C79.7582 13.4434 83.0524 16.7869 83.0524 20.9117ZM79.3692 20.9117C79.3692 18.6721 77.5788 16.8549 75.3722 16.8549C73.1655 16.8549 71.3751 18.6721 71.3751 20.9117C71.3751 23.1514 73.1656 24.9686 75.3722 24.9686C77.5788 24.9686 79.3692 23.1536 79.3692 20.9117ZM146.67 19.6444L144.534 19.05C143.129 18.6784 142.583 18.2411 142.583 17.4875C142.583 16.753 143.353 16.2392 144.453 16.2392C145.501 16.2392 146.323 16.9355 146.323 17.8271V17.9099H149.696V17.8271C149.696 15.2053 147.59 13.4433 144.453 13.4433C141.347 13.4433 139.09 15.2032 139.09 17.6297C139.09 19.5169 140.322 20.9393 142.472 21.5294L144.518 22.0963C146.072 22.5336 146.649 23.0177 146.649 23.8859C146.649 24.8009 145.814 25.4165 144.572 25.4165C143.277 25.4165 142.405 24.5843 142.405 23.3488V23.266H138.824V23.3488C138.824 26.3124 141.175 28.3843 144.543 28.3843C147.787 28.3843 150.142 26.3612 150.142 23.576C150.142 22.2088 149.539 20.4214 146.67 19.6444ZM96.037 13.6875H99.6972V28.136H96.037V26.9132C94.8448 27.8345 93.3576 28.3801 91.7178 28.3801C87.654 28.3801 84.3597 25.0365 84.3597 20.9117C84.3597 16.7868 87.654 13.4433 91.7178 13.4433C93.3576 13.4433 94.8448 13.9889 96.037 14.9102V13.6875ZM96.037 20.9117C96.037 18.67 94.2466 16.8549 92.0399 16.8549C89.8333 16.8549 88.043 18.6721 88.043 20.9117C88.043 23.1514 89.8333 24.9686 92.0399 24.9686C94.2486 24.9686 96.037 23.1536 96.037 20.9117ZM112.914 8.54583H116.574V28.1381H112.914V26.9153C111.722 27.8367 110.235 28.3823 108.595 28.3823C104.531 28.3823 101.237 25.0387 101.237 20.9138C101.237 16.789 104.531 13.4454 108.595 13.4454C110.235 13.4454 111.722 13.991 112.914 14.9123V8.54583ZM112.914 20.9117C112.914 18.6721 111.123 16.8549 108.917 16.8549C106.71 16.8549 104.92 18.6721 104.92 20.9117C104.92 23.1514 106.708 24.9686 108.917 24.9686C111.123 24.9686 112.914 23.1536 112.914 20.9117ZM133.568 28.136H137.228V13.6875H133.568V28.136ZM135.398 7.97266C134.143 7.97266 133.181 8.97893 133.181 10.2527C133.181 11.4967 134.143 12.503 135.398 12.503C136.653 12.503 137.615 11.4967 137.615 10.2527C137.615 8.97888 136.653 7.97266 135.398 7.97266ZM165.963 20.9117C165.963 25.0365 162.668 28.3802 158.604 28.3802C154.54 28.3802 151.246 25.0366 151.246 20.9117C151.246 16.7869 154.54 13.4434 158.604 13.4434C162.668 13.4434 165.963 16.7869 165.963 20.9117ZM162.601 20.9117C162.601 18.6721 160.811 16.8549 158.604 16.8549C156.398 16.8549 154.607 18.6721 154.607 20.9117C154.607 23.1514 156.396 24.9686 158.604 24.9686C160.811 24.9686 162.601 23.1536 162.601 20.9117ZM53.9314 8.54583H39.8906V11.8597H45.0882V28.136H48.7359V11.8597H53.9335V8.54583H53.9314ZM124.938 24.1789L121.682 13.6875H117.837L122.721 28.136H127.126L132.039 13.6875H128.195L124.938 24.1789ZM171.325 16.1161V13.6875H167.657V28.136H171.325V19.4725C171.325 17.9036 172.317 17.133 173.862 17.133H175.87V13.6875H174.155C172.812 13.6875 171.647 14.3987 171.325 16.1161Z" fill="black"/>
<path d="M18.7206 38.8867C29.0591 38.8867 37.4402 30.3801 37.4402 19.8867C37.4402 9.39331 29.0591 0.886719 18.7206 0.886719C8.38203 0.886719 0.000976562 9.39331 0.000976562 19.8867C0.000976562 30.3801 8.38203 38.8867 18.7206 38.8867Z" fill="#34E0A1"/>
<path d="M30.2816 16.1803L32.5405 13.6859H27.5311C25.0233 11.9472 21.9947 10.9346 18.7193 10.9346C15.448 10.9346 12.4279 11.9494 9.92421 13.6859H4.90234L7.16125 16.1803C5.77665 17.4625 4.90864 19.3095 4.90864 21.3602C4.90864 25.2303 8.00003 28.3679 11.813 28.3679C13.6243 28.3679 15.2745 27.6589 16.5065 26.4997L18.7194 28.9453L20.9322 26.5019C22.1642 27.661 23.8123 28.3679 25.6236 28.3679C29.4366 28.3679 32.5321 25.2303 32.5321 21.3602C32.5342 19.3073 31.6662 17.4604 30.2816 16.1803ZM11.815 26.1027C9.23398 26.1027 7.14247 23.9799 7.14247 21.3602C7.14247 18.7405 9.23404 16.6176 11.815 16.6176C14.396 16.6176 16.4876 18.7405 16.4876 21.3602C16.4876 23.9799 14.396 26.1027 11.815 26.1027ZM18.7214 21.2222C18.7214 18.1015 16.4855 15.4224 13.5343 14.2782C15.1302 13.6009 16.8808 13.2252 18.7193 13.2252C20.5578 13.2252 22.3105 13.6009 23.9064 14.2782C20.9573 15.4246 18.7214 18.1016 18.7214 21.2222ZM25.6257 26.1027C23.0447 26.1027 20.9531 23.9799 20.9531 21.3602C20.9531 18.7405 23.0447 16.6176 25.6257 16.6176C28.2068 16.6176 30.2983 18.7405 30.2983 21.3602C30.2983 23.9799 28.2067 26.1027 25.6257 26.1027ZM25.6257 18.8721C24.2725 18.8721 23.1765 19.9845 23.1765 21.3581C23.1765 22.7316 24.2725 23.844 25.6257 23.844C26.979 23.844 28.075 22.7316 28.075 21.3581C28.0749 19.9867 26.979 18.8721 25.6257 18.8721ZM14.2642 21.3602C14.2642 22.7337 13.1682 23.8461 11.815 23.8461C10.4618 23.8461 9.3658 22.7337 9.3658 21.3602C9.3658 19.9867 10.4618 18.8742 11.815 18.8742C13.1682 18.8721 14.2642 19.9867 14.2642 21.3602Z" fill="black"/>
</g>
<defs>
<clipPath id="clip0">
<rect width="176" height="38" fill="white" transform="translate(0 0.886719)"/>
</clipPath>
</defs>
</svg>
