<svg width="1920" height="115" viewBox="0 0 1920 115" fill="none" xmlns="http://www.w3.org/2000/svg">
<path d="M66.8807 55.4464C76.5781 61.0279 81.4269 69.4528 81.4269 80.7212C81.4269 90.0939 78.1065 97.7816 71.4659 103.784C64.8253 109.787 56.6562 112.788 46.9588 112.788H0V2.21154H43.6385C53.1251 2.21154 61.0833 5.16026 67.5131 11.0577C74.0484 16.8498 77.316 24.2743 77.316 33.331C77.316 42.4931 73.8376 49.8649 66.8807 55.4464ZM43.6385 22.5893H21.8192V46.9162H43.6385C47.0115 46.9162 49.8048 45.7578 52.0183 43.4409C54.3373 41.1241 55.4967 38.228 55.4967 34.7528C55.4967 31.2775 54.39 28.3814 52.1764 26.0646C49.9629 23.7477 47.1169 22.5893 43.6385 22.5893ZM46.9588 92.4107C50.648 92.4107 53.7048 91.1996 56.1292 88.7775C58.5536 86.25 59.7657 83.0907 59.7657 79.2994C59.7657 75.6135 58.5536 72.5595 56.1292 70.1374C53.7048 67.6099 50.648 66.3462 46.9588 66.3462H21.8192V92.4107H46.9588Z" fill="white"/>
<path d="M166.881 112.788L160.24 92.8846H116.127L109.487 112.788H85.9281L124.665 2.21154H151.702L190.597 112.788H166.881ZM123.084 72.5069H153.441L138.263 27.3283L123.084 72.5069Z" fill="white"/>
<path d="M242.611 2.21154C253.257 2.21154 262.216 5.79212 269.489 12.9533C276.762 20.1145 280.399 28.908 280.399 39.3338C280.399 49.7596 276.762 58.5531 269.489 65.7143C262.216 72.8755 253.257 76.456 242.611 76.456H223.163V112.788H201.344V2.21154H242.611ZM242.611 56.0783C247.248 56.0783 251.096 54.4986 254.153 51.3393C257.209 48.0746 258.738 44.0728 258.738 39.3338C258.738 34.4895 257.209 30.4876 254.153 27.3283C251.096 24.169 247.248 22.5893 242.611 22.5893H223.163V56.0783H242.611Z" fill="white"/>
<path d="M358.639 112.788V45.3365L311.206 112.788H294.604V2.21154H316.423V69.8214L363.856 2.21154H380.458V112.788H358.639Z" fill="white"/>
<path d="M472.139 112.788L465.498 92.8846H421.385L414.745 112.788H391.186L429.923 2.21154H456.96L495.855 112.788H472.139ZM428.342 72.5069H458.699L443.521 27.3283L428.342 72.5069Z" fill="white"/>
<path d="M569.53 2.21154H591.191V112.788H569.53V66.978H528.421V112.788H506.602V2.21154H528.421V46.1264H569.53V2.21154Z" fill="white"/>
<path d="M684.956 2.21154V23.0632H655.074V112.788H633.254V23.0632H603.53V2.21154H684.956Z" fill="white"/>
<path d="M697.137 112.788V2.21154H718.956V38.544H738.404C749.05 38.544 758.01 42.1245 765.283 49.2857C772.556 56.4469 776.192 65.2404 776.192 75.6662C776.192 86.092 772.556 94.8855 765.283 102.047C758.01 109.208 749.05 112.788 738.404 112.788H697.137ZM786.311 112.788V2.21154H807.973V112.788H786.311ZM718.956 92.4107H738.404C743.042 92.4107 746.889 90.831 749.946 87.6717C753.003 84.5124 754.531 80.5105 754.531 75.6662C754.531 70.8219 753.003 66.8201 749.946 63.6607C746.889 60.5014 743.042 58.9217 738.404 58.9217H718.956V92.4107Z" fill="white"/>
<path d="M950.755 2.21154V112.788H928.936V23.0632H889.882V112.788H868.063V2.21154H950.755Z" fill="white"/>
<path d="M1012.63 2.21154C1023.27 2.21154 1032.23 5.79212 1039.51 12.9533C1046.78 20.1145 1050.42 28.908 1050.42 39.3338C1050.42 49.7596 1046.78 58.5531 1039.51 65.7143C1032.23 72.8755 1023.27 76.456 1012.63 76.456H993.179V112.788H971.36V2.21154H1012.63ZM1012.63 56.0783C1017.26 56.0783 1021.11 54.4986 1024.17 51.3393C1027.23 48.0746 1028.75 44.0728 1028.75 39.3338C1028.75 34.4895 1027.23 30.4876 1024.17 27.3283C1021.11 24.169 1017.26 22.5893 1012.63 22.5893H993.179V56.0783H1012.63Z" fill="white"/>
<path d="M1156.98 98.4135C1145.8 109.471 1132.2 115 1116.18 115C1100.16 115 1086.56 109.471 1075.39 98.4135C1064.32 87.2505 1058.79 73.6126 1058.79 57.5C1058.79 41.3874 1064.32 27.8022 1075.39 16.7445C1086.56 5.5815 1100.16 0 1116.18 0C1132.2 0 1145.8 5.5815 1156.98 16.7445C1168.15 27.8022 1173.73 41.3874 1173.73 57.5C1173.73 73.6126 1168.15 87.2505 1156.98 98.4135ZM1090.73 83.5646C1097.58 90.3045 1106.06 93.6745 1116.18 93.6745C1126.3 93.6745 1134.79 90.3045 1141.64 83.5646C1148.49 76.7193 1151.92 68.0311 1151.92 57.5C1151.92 46.9689 1148.49 38.2807 1141.64 31.4354C1134.79 24.5902 1126.3 21.1676 1116.18 21.1676C1106.06 21.1676 1097.58 24.5902 1090.73 31.4354C1083.88 38.2807 1080.45 46.9689 1080.45 57.5C1080.45 68.0311 1083.88 76.7193 1090.73 83.5646Z" fill="white"/>
<path d="M1310.41 112.788H1286.06L1251.75 62.397V112.788H1229.93V62.397L1195.62 112.788H1171.43L1209.85 56.3942L1173.01 2.21154H1197.2L1229.93 51.4973V2.21154H1251.75V51.4973L1284.48 2.21154H1308.83L1271.83 56.3942L1310.41 112.788Z" fill="white"/>
<path d="M1386.67 112.788V45.3365L1339.23 112.788H1322.63V2.21154H1344.45V69.8214L1391.88 2.21154H1408.48V112.788H1386.67Z" fill="white"/>
<path d="M1495.9 55.4464C1505.59 61.0279 1510.44 69.4528 1510.44 80.7212C1510.44 90.0939 1507.12 97.7816 1500.48 103.784C1493.84 109.787 1485.67 112.788 1475.97 112.788H1429.02V2.21154H1472.65C1482.14 2.21154 1490.1 5.16026 1496.53 11.0577C1503.06 16.8498 1506.33 24.2743 1506.33 33.331C1506.33 42.4931 1502.85 49.8649 1495.9 55.4464ZM1472.65 22.5893H1450.83V46.9162H1472.65C1476.03 46.9162 1478.82 45.7578 1481.03 43.4409C1483.35 41.1241 1484.51 38.228 1484.51 34.7528C1484.51 31.2775 1483.41 28.3814 1481.19 26.0646C1478.98 23.7477 1476.13 22.5893 1472.65 22.5893ZM1475.97 92.4107C1479.66 92.4107 1482.72 91.1996 1485.14 88.7775C1487.57 86.25 1488.78 83.0907 1488.78 79.2994C1488.78 75.6135 1487.57 72.5595 1485.14 70.1374C1482.72 67.6099 1479.66 66.3462 1475.97 66.3462H1450.83V92.4107H1475.97Z" fill="white"/>
<path d="M1595.9 112.788L1589.26 92.8846H1545.14L1538.5 112.788H1514.94L1553.68 2.21154H1580.72L1619.61 112.788H1595.9ZM1552.1 72.5069H1582.46L1567.28 27.3283L1552.1 72.5069Z" fill="white"/>
<path d="M1693.29 2.21154H1714.95V112.788H1693.29V66.978H1652.18V112.788H1630.36V2.21154H1652.18V46.1264H1693.29V2.21154Z" fill="white"/>
<path d="M1799.54 112.788V45.3365L1752.11 112.788H1735.51V2.21154H1757.33V69.8214L1804.76 2.21154H1821.36V112.788H1799.54Z" fill="white"/>
<path d="M1920 2.21154V112.788H1898.18V74.4025H1885.69L1860.23 112.788H1835.73L1862.76 72.033C1855.7 69.5055 1849.96 65.1877 1845.53 59.0797C1841.1 52.9716 1838.89 46.2317 1838.89 38.8599C1838.89 28.75 1842.47 20.1145 1849.64 12.9533C1856.81 5.79212 1865.5 2.21154 1875.73 2.21154H1920ZM1875.73 55.2885H1898.18V22.5893H1875.73C1871.62 22.5893 1868.09 24.169 1865.14 27.3283C1862.18 30.4876 1860.71 34.3315 1860.71 38.8599C1860.71 43.3883 1862.18 47.2848 1865.14 50.5494C1868.09 53.7088 1871.62 55.2885 1875.73 55.2885Z" fill="white"/>
</svg>
