<svg width="1920" height="177" viewBox="0 0 1920 177" fill="none" xmlns="http://www.w3.org/2000/svg">
<path d="M47.0118 77.2842C58.9401 77.2842 68.705 80.8475 76.3064 87.9743C83.9078 94.9842 87.7085 104.097 87.7085 115.313C87.7085 126.646 83.9078 135.875 76.3064 143.002C68.705 150.012 58.9401 153.517 47.0118 153.517H0V30.8436H77.1835V53.9762H24.2076V77.2842H47.0118ZM47.0118 130.91C51.8065 130.91 55.7826 129.566 58.9401 126.879C62.0976 124.075 63.6764 120.22 63.6764 115.313C63.6764 110.406 62.0976 106.609 58.9401 103.922C55.7826 101.235 51.8065 99.8911 47.0118 99.8911H24.2076V130.91H47.0118Z" fill="white"/>
<path d="M92.2831 153.517V131.085C99.5336 132.137 104.972 130.676 108.597 126.704C112.222 122.732 114.035 114.962 114.035 103.396V30.8436H197.533V153.517H173.501V53.9762H138.067V102.695C138.067 113.327 136.781 122.264 134.208 129.508C131.635 136.751 128.068 142.126 123.507 145.631C119.063 149.136 114.269 151.472 109.123 152.641C104.094 153.809 98.4811 154.101 92.2831 153.517Z" fill="white"/>
<path d="M323.62 137.569C311.224 149.837 296.138 155.97 278.362 155.97C260.587 155.97 245.501 149.837 233.105 137.569C220.825 125.185 214.686 110.055 214.686 92.1802C214.686 74.305 220.825 59.2337 233.105 46.9663C245.501 34.5822 260.587 28.3901 278.362 28.3901C296.138 28.3901 311.224 34.5822 323.62 46.9663C336.016 59.2337 342.214 74.305 342.214 92.1802C342.214 110.055 336.016 125.185 323.62 137.569ZM250.12 121.096C257.721 128.573 267.135 132.312 278.362 132.312C289.589 132.312 299.003 128.573 306.604 121.096C314.206 113.502 318.006 103.863 318.006 92.1802C318.006 80.497 314.206 70.8584 306.604 63.2644C299.003 55.6703 289.589 51.8733 278.362 51.8733C267.135 51.8733 257.721 55.6703 250.12 63.2644C242.519 70.8584 238.718 80.497 238.718 92.1802C238.718 103.863 242.519 113.502 250.12 121.096Z" fill="white"/>
<path d="M429.044 30.8436V53.9762H383.436V153.517H359.228V30.8436H429.044Z" fill="white"/>
<path d="M556.153 30.8436H580.185V153.517H556.153V102.695H510.544V153.517H486.337V30.8436H510.544V79.5624H556.153V30.8436Z" fill="white"/>
<path d="M681.934 153.517L674.566 131.436H625.625L618.257 153.517H592.12L635.097 30.8436H665.094L708.246 153.517H681.934ZM633.343 108.829H667.023L650.183 58.7079L633.343 108.829Z" fill="white"/>
<path d="M838.576 30.8436H862.783V153.517H720.169V30.8436H744.377V130.384H779.46V30.8436H803.492V130.384H838.576V30.8436Z" fill="white"/>
<path d="M909.858 130.384H961.606V153.517H885.651V30.8436H960.729V53.9762H909.858V80.0881H956.344V102.87H909.858V130.384Z" fill="white"/>
<path d="M1000.77 19.6277V0H1051.64V19.6277H1000.77ZM1049.71 153.517V78.6861L997.088 153.517H978.67V30.8436H1002.88V105.85L1055.5 30.8436H1073.92V153.517H1049.71Z" fill="white"/>
<path d="M1198.79 155.97C1180.31 155.97 1165.05 149.837 1153.01 137.569C1140.96 125.302 1134.94 110.172 1134.94 92.1802C1134.94 74.0713 1140.96 58.9416 1153.01 46.7911C1165.05 34.5238 1180.31 28.3901 1198.79 28.3901C1209.9 28.3901 1220.13 31.0188 1229.49 36.2762C1238.96 41.4168 1246.33 48.4267 1251.59 57.3059L1230.72 69.398C1227.68 63.9069 1223.35 59.6426 1217.74 56.6049C1212.12 53.4505 1205.81 51.8733 1198.79 51.8733C1186.86 51.8733 1177.22 55.6119 1169.85 63.0891C1162.6 70.5663 1158.97 80.2634 1158.97 92.1802C1158.97 103.98 1162.6 113.619 1169.85 121.096C1177.22 128.573 1186.86 132.312 1198.79 132.312C1205.81 132.312 1212.12 130.793 1217.74 127.755C1223.47 124.601 1227.79 120.337 1230.72 114.962L1251.59 127.054C1246.33 135.934 1239.02 143.002 1229.67 148.259C1220.31 153.4 1210.02 155.97 1198.79 155.97Z" fill="white"/>
<path d="M1347.17 30.8436V53.9762H1314.01V153.517H1289.81V53.9762H1256.83V30.8436H1347.17Z" fill="white"/>
<path d="M1430.71 153.517L1423.34 131.436H1374.4L1367.03 153.517H1340.9L1383.87 30.8436H1413.87L1457.02 153.517H1430.71ZM1382.12 108.829H1415.8L1398.96 58.7079L1382.12 108.829Z" fill="white"/>
<path d="M1538.76 30.8436H1562.79V153.517H1538.76V102.695H1493.15V153.517H1468.95V30.8436H1493.15V79.5624H1538.76V30.8436Z" fill="white"/>
<path d="M1677.35 130.384H1690.51V177H1666.3V153.517H1585.61V30.8436H1609.81V130.384H1653.14V30.8436H1677.35V130.384Z" fill="white"/>
<path d="M1777.76 153.517V78.6861L1725.14 153.517H1706.72V30.8436H1730.93V105.85L1783.55 30.8436H1801.97V153.517H1777.76Z" fill="white"/>
<path d="M1895.79 153.517V78.6861L1843.17 153.517H1824.75V30.8436H1848.96V105.85L1901.58 30.8436H1920V153.517H1895.79Z" fill="white"/>
</svg>
