<svg width="80" height="80" viewBox="0 0 80 80" fill="none" xmlns="http://www.w3.org/2000/svg">
<path d="M16.2552 15.3785L25.4982 19.4423C23.6656 22.1514 22.7094 25.259 22.7094 28.5259C22.7094 37.4502 29.9604 44.7809 38.9644 44.7809C47.9684 44.7809 55.2194 37.5299 55.2194 28.5259C55.2194 25.3387 54.2632 22.1514 52.5102 19.522L60.6377 15.6973V31.1554L58.1676 36.4144C58.0082 36.8128 58.0082 37.2112 58.2472 37.5299C58.4863 37.8487 58.8847 38.0877 59.2831 38.0877H63.9843C64.3827 38.0877 64.7811 37.9283 64.9405 37.5299C65.1795 37.2112 65.1795 36.8128 65.0202 36.4144L62.8688 31.1554V14.6614C62.8688 14.024 62.7891 13.5459 61.6735 13.0678C61.4345 12.9881 39.5222 3.26698 39.5222 3.26698C39.2034 3.10762 38.8847 3.10762 38.566 3.26698L16.2552 13.1475C15.8568 13.3068 15.5381 13.7849 15.5381 14.263C15.5381 14.7411 15.7771 15.1395 16.2552 15.3785ZM52.7492 28.5259C52.7492 36.1754 46.5341 42.3905 38.8847 42.3905C31.2353 42.3905 25.0202 36.1754 25.0202 28.5259C25.0202 25.5777 25.9763 22.7889 27.6496 20.3985L38.4863 25.259C38.6457 25.3387 38.805 25.3387 38.9644 25.3387C39.1237 25.3387 39.2831 25.3387 39.4425 25.259L50.1198 20.4781C51.8727 22.8686 52.7492 25.6574 52.7492 28.5259ZM61.1158 35.6973L61.6735 34.502L62.1516 35.6973H61.1158ZM39.0441 5.65742L58.4066 14.263L39.0441 22.8686L19.6815 14.263L39.0441 5.65742Z" fill="#1395DF"/>
<path d="M39.3624 47.6494C23.8246 47.6494 11.1553 60.3187 11.1553 75.8566C11.1553 76.494 11.713 77.0518 12.3505 77.0518H66.3744C67.0119 77.0518 67.5696 76.494 67.5696 75.8566C67.5696 60.3187 54.9003 47.6494 39.3624 47.6494ZM13.6254 74.6614C14.2628 60.9562 25.5776 50.0399 39.4421 50.0399C53.3067 50.0399 64.5417 61.0359 65.1792 74.6614H13.6254Z" fill="#1395DF"/>
</svg>
