<svg width="80" height="80" viewBox="0 0 80 80" fill="none" xmlns="http://www.w3.org/2000/svg">
<path d="M38.5184 56.8778C38.5184 56.2177 37.9835 55.682 37.3227 55.682H10.2877C10.9103 43.8924 20.6958 34.4936 32.6336 34.4936C36.9464 34.4936 41.1332 35.7229 44.7389 38.0499C45.2937 38.407 46.0335 38.2484 46.3923 37.6927C46.7502 37.1379 46.59 36.3973 46.0359 36.0394C42.0412 33.4636 37.4072 32.1021 32.6336 32.1021C18.9762 32.1021 7.86426 43.2164 7.86426 56.8778C7.86426 57.5379 8.39917 58.0736 9.06004 58.0736H37.3227C37.9827 58.0736 38.5184 57.5379 38.5184 56.8778Z" fill="#1395DF"/>
<path d="M32.2193 29.8853C40.121 29.8853 46.5495 23.456 46.5495 15.5527C46.5495 7.65579 40.121 1.23047 32.2193 1.23047C24.3231 1.23047 17.8994 7.65579 17.8994 15.5527C17.8994 23.4552 24.3231 29.8853 32.2193 29.8853ZM32.2193 3.62203C38.8016 3.62203 44.1579 8.97433 44.1579 15.5527C44.1579 22.1367 38.8024 27.4938 32.2193 27.4938C25.6425 27.4938 20.291 22.1367 20.291 15.5527C20.291 8.97433 25.6425 3.62203 32.2193 3.62203Z" fill="#1395DF"/>
<path d="M71.6448 70.9396L63.3588 58.8893C64.9397 56.8094 65.8158 54.2959 65.8333 51.6389C65.8819 44.9234 60.4587 39.4188 53.7424 39.3678C47.0516 39.3359 41.5215 44.752 41.4721 51.4675C41.4538 54.1915 42.3466 56.7058 43.8493 58.7474L35.3832 70.6805C35.0986 71.0831 35.089 71.6188 35.3601 72.0301C35.6311 72.4415 36.1254 72.6447 36.6085 72.5419L43.3064 71.1102L44.4831 77.4024C44.5763 77.9006 44.9725 78.2856 45.4732 78.3646C45.5354 78.3741 45.5975 78.3789 45.6581 78.3789C46.0926 78.3789 46.4992 78.1421 46.7096 77.7515L53.5574 65.081L60.2251 77.8472C60.4332 78.2458 60.8437 78.4897 61.2838 78.4897C61.3396 78.4897 61.3962 78.4857 61.4528 78.4778C61.9542 78.406 62.3568 78.0273 62.4572 77.5307L63.7247 71.2584L70.3908 72.7835C70.8691 72.8927 71.3706 72.6982 71.6472 72.29C71.9254 71.8802 71.9238 71.3445 71.6448 70.9396ZM53.6611 41.7594C53.6818 41.7594 53.7041 41.7594 53.7248 41.7594C59.1226 41.8 63.4808 46.2252 63.4409 51.6222V51.623C63.4242 54.2345 62.3887 56.6843 60.5248 58.5194C58.6794 60.337 56.2432 61.3359 53.6571 61.3351C53.6332 61.3351 53.6077 61.3351 53.5829 61.3351C48.1876 61.2984 43.8278 56.8788 43.8637 51.4834C43.9027 46.108 48.2928 41.7594 53.6611 41.7594ZM46.2138 73.6412L45.4333 69.464C45.3743 69.1475 45.1886 68.8669 44.9207 68.6883C44.6513 68.5082 44.3212 68.4452 44.0071 68.5137L39.11 69.5604L45.4923 60.565C47.1871 62.1004 49.3116 63.1614 51.6673 63.5497L46.2138 73.6412ZM63.0639 68.6516C62.7474 68.5791 62.419 68.6381 62.1487 68.8119C61.8777 68.9873 61.6895 69.2639 61.625 69.5804L60.7831 73.7465L55.4723 63.5791C57.7777 63.2356 59.9206 62.2423 61.6903 60.683L67.9363 69.7669L63.0639 68.6516Z" fill="#1395DF"/>
</svg>
