<svg width="80" height="80" viewBox="0 0 80 80" fill="none" xmlns="http://www.w3.org/2000/svg">
<path d="M70.5181 12.1913C70.2791 11.9523 69.9604 11.7929 69.6416 11.7929H57.5301V6.21524C57.5301 5.57779 56.9723 5.02002 56.3349 5.02002H22.311C21.6735 5.02002 21.1157 5.57779 21.1157 6.21524V11.7929H8.68545C8.36673 11.7929 8.048 11.9523 7.80896 12.1913C7.56992 12.4304 7.49023 12.7491 7.49023 13.0678C7.49023 13.3069 7.72928 18.4065 9.56195 24.3029C12.1117 32.1913 16.4145 37.769 22.1516 40.3188C24.0639 46.6933 28.4464 51.7132 33.9444 53.7053V53.9443C33.9444 60.5579 28.9245 65.8168 22.4703 65.8168C21.8329 65.8168 21.2751 66.3746 21.2751 67.0121V73.785C21.2751 74.4224 21.8329 74.9802 22.4703 74.9802H56.3349C56.9723 74.9802 57.5301 74.4224 57.5301 73.785V67.0121C57.5301 66.3746 56.9723 65.8168 56.3349 65.8168C49.801 65.8168 44.4623 60.4782 44.4623 53.9443V53.785C50.1994 51.7929 54.6615 46.6933 56.5739 40.1595C62.0719 37.53 66.295 32.032 68.7651 24.3029C70.6775 18.4065 70.8368 13.2272 70.8368 13.0678C70.9165 12.7491 70.7572 12.4304 70.5181 12.1913ZM9.96035 14.1834H21.1157V33.3069C21.1157 34.6615 21.1954 35.9364 21.4345 37.2113C12.3508 31.7929 10.3588 18.3268 9.96035 14.1834ZM55.1396 68.1276V72.5101H23.6655V68.1276C30.6775 67.5698 36.0958 61.7531 36.2552 54.3427C37.2113 54.5021 38.2472 54.6615 39.2831 54.6615C40.2392 54.6615 41.1954 54.5818 42.0719 54.4224C42.3906 61.6734 48.048 67.5698 55.1396 68.1276ZM42.4703 51.9523C41.4345 52.1913 40.3986 52.3507 39.3627 52.3507C38.1675 52.3507 36.9723 52.1913 35.8568 51.8726C35.6177 51.7929 35.2193 51.6336 35.06 51.6336C28.4464 49.4025 23.5062 42.0718 23.5062 33.3866V7.49014H55.1396V12.271V13.785V33.3866C55.1396 42.0718 50.1994 49.4025 43.5062 51.6336L42.4703 51.9523ZM57.291 37.0519C57.4504 35.8567 57.6098 34.5818 57.6098 33.3069V14.1834H68.4464C68.048 18.3268 66.1357 31.3945 57.291 37.0519Z" fill="#1395DF"/>
<path d="M50.8373 21.7529L44.3035 20.7967L41.3553 14.8206C41.0365 14.1832 40.3194 13.7051 39.6023 13.7051C38.8851 13.7051 38.168 14.1035 37.8493 14.8206L34.9011 20.7967L28.3672 21.7529C27.6501 21.8326 27.0126 22.3903 26.7736 23.1075C26.5345 23.8246 26.6939 24.6214 27.2517 25.0995L32.0325 29.721L30.917 36.2549C30.7576 36.972 31.0764 37.6891 31.7138 38.1672C32.0325 38.4063 32.431 38.5656 32.909 38.5656C33.2278 38.5656 33.5465 38.486 33.7855 38.3266L39.8413 35.2987L45.5784 38.3266C46.2158 38.6453 47.0126 38.6453 47.6501 38.1672C48.2875 37.6891 48.5266 36.972 48.4469 36.2549L47.3314 29.721L52.1122 25.0995C52.67 24.5417 52.8294 23.8246 52.5903 23.1075C52.1919 22.3903 51.6341 21.8326 50.8373 21.7529ZM45.1003 28.4461C44.7816 28.6852 44.7019 29.0836 44.7816 29.482L45.8971 35.7768L40.3991 32.9083C40.0804 32.7489 39.682 32.7489 39.2835 32.9083L33.3871 35.8565L34.5027 29.482C34.5823 29.0836 34.423 28.6852 34.1839 28.4461L29.6421 23.984L35.9369 23.0278C36.3353 22.9481 36.6541 22.7091 36.8134 22.3903L39.6023 16.6533L42.3911 22.3903C42.5505 22.7091 42.8692 23.0278 43.2676 23.0278L49.5624 23.984L45.1003 28.4461Z" fill="#1395DF"/>
</svg>
