<svg width="1920" height="126" viewBox="0 0 1920 126" fill="none" xmlns="http://www.w3.org/2000/svg">
<path d="M102.249 2.08019V106.09H81.7994V38.6321L52.3934 86.9222H50.0051L20.5991 38.7807V106.09H0V2.08019H21.1962L51.1993 51.2618L81.0531 2.08019H102.249Z" fill="white"/>
<path d="M188.889 106.09L182.62 87.3679H140.974L134.705 106.09H112.464L149.035 2.08019H174.56L211.28 106.09H188.889ZM147.542 68.2005H176.202L161.872 25.7052L147.542 68.2005Z" fill="white"/>
<path d="M260.385 2.08019C270.435 2.08019 278.894 5.44811 285.76 12.184C292.627 18.9198 296.06 27.191 296.06 36.9976C296.06 46.8042 292.627 55.0755 285.76 61.8113C278.894 68.5472 270.435 71.9151 260.385 71.9151H242.024V106.09H221.425V2.08019H260.385ZM260.385 52.7476C264.763 52.7476 268.395 51.2618 271.281 48.2901C274.167 45.2193 275.61 41.4552 275.61 36.9976C275.61 32.441 274.167 28.6769 271.281 25.7052C268.395 22.7335 264.763 21.2476 260.385 21.2476H242.024V52.7476H260.385Z" fill="white"/>
<path d="M410.227 2.08019H430.826V106.09H309.471V2.08019H330.07V86.4764H359.924V2.08019H380.373V86.4764H410.227V2.08019Z" fill="white"/>
<path d="M489.244 2.08019C499.295 2.08019 507.754 5.44811 514.62 12.184C521.486 18.9198 524.919 27.191 524.919 36.9976C524.919 46.8042 521.486 55.0755 514.62 61.8113C507.754 68.5472 499.295 71.9151 489.244 71.9151H470.884V106.09H450.285V2.08019H489.244ZM489.244 52.7476C493.623 52.7476 497.255 51.2618 500.141 48.2901C503.027 45.2193 504.47 41.4552 504.47 36.9976C504.47 32.441 503.027 28.6769 500.141 25.7052C497.255 22.7335 493.623 21.2476 489.244 21.2476H470.884V52.7476H489.244Z" fill="white"/>
<path d="M591.433 2.08019H612.032L580.685 77.4127C572.326 97.6203 558.594 107.179 539.487 106.09V86.9222C545.06 87.4174 549.538 86.6745 552.921 84.6934C556.404 82.6132 559.29 79.2948 561.579 74.7382L527.396 2.08019H547.995L570.834 52.3019L591.433 2.08019Z" fill="white"/>
<path d="M692.28 2.08019V21.6934H664.068V106.09H643.469V21.6934H615.407V2.08019H692.28Z" fill="white"/>
<path d="M703.78 106.09V2.08019H724.379V36.2547H742.739C752.79 36.2547 761.248 39.6226 768.115 46.3585C774.981 53.0943 778.414 61.3656 778.414 71.1722C778.414 80.9788 774.981 89.25 768.115 95.9858C761.248 102.722 752.79 106.09 742.739 106.09H703.78ZM787.968 106.09V2.08019H808.417V106.09H787.968ZM724.379 86.9222H742.739C747.118 86.9222 750.75 85.4363 753.636 82.4646C756.522 79.4929 757.964 75.7288 757.964 71.1722C757.964 66.6156 756.522 62.8514 753.636 59.8797C750.75 56.908 747.118 55.4222 742.739 55.4222H724.379V86.9222Z" fill="white"/>
<path d="M928.289 52.1533C937.444 57.4033 942.021 65.3278 942.021 75.9269C942.021 84.7429 938.887 91.9741 932.617 97.6203C926.348 103.267 918.636 106.09 909.481 106.09H865.148V2.08019H906.346C915.302 2.08019 922.815 4.85377 928.886 10.4009C935.055 15.8491 938.14 22.8325 938.14 31.3514C938.14 39.9693 934.856 46.9033 928.289 52.1533ZM906.346 21.2476H885.747V44.1297H906.346C909.53 44.1297 912.167 43.0401 914.257 40.8609C916.447 38.6816 917.541 35.9575 917.541 32.6887C917.541 29.4198 916.496 26.6958 914.406 24.5165C912.317 22.3373 909.63 21.2476 906.346 21.2476ZM909.481 86.9222C912.964 86.9222 915.849 85.783 918.138 83.5047C920.427 81.1274 921.571 78.1557 921.571 74.5896C921.571 71.1226 920.427 68.25 918.138 65.9717C915.849 63.5943 912.964 62.4057 909.481 62.4057H885.747V86.9222H909.481Z" fill="white"/>
<path d="M1095.09 2.08019V106.09H1074.64V38.6321L1045.24 86.9222H1042.85L1013.44 38.7807V106.09H992.843V2.08019H1014.04L1044.04 51.2618L1073.9 2.08019H1095.09Z" fill="white"/>
<path d="M1135.16 86.4764H1179.19V106.09H1114.56V2.08019H1178.45V21.6934H1135.16V43.8325H1174.72V63.1486H1135.16V86.4764Z" fill="white"/>
<path d="M1317.16 106.09H1294.17L1261.78 58.691V106.09H1241.18V58.691L1208.79 106.09H1185.95L1222.22 53.0448L1187.45 2.08019H1210.28L1241.18 48.4387V2.08019H1261.78V48.4387L1292.68 2.08019H1315.67L1280.74 53.0448L1317.16 106.09Z" fill="white"/>
<path d="M1391.84 52.1533C1400.99 57.4033 1405.57 65.3278 1405.57 75.9269C1405.57 84.7429 1402.44 91.9741 1396.17 97.6203C1389.9 103.267 1382.19 106.09 1373.03 106.09H1328.7V2.08019H1369.9C1378.85 2.08019 1386.37 4.85377 1392.44 10.4009C1398.61 15.8491 1401.69 22.8325 1401.69 31.3514C1401.69 39.9693 1398.41 46.9033 1391.84 52.1533ZM1369.9 21.2476H1349.3V44.1297H1369.9C1373.08 44.1297 1375.72 43.0401 1377.81 40.8609C1380 38.6816 1381.09 35.9575 1381.09 32.6887C1381.09 29.4198 1380.05 26.6958 1377.96 24.5165C1375.87 22.3373 1373.18 21.2476 1369.9 21.2476ZM1373.03 86.9222C1376.51 86.9222 1379.4 85.783 1381.69 83.5047C1383.98 81.1274 1385.12 78.1557 1385.12 74.5896C1385.12 71.1226 1383.98 68.25 1381.69 65.9717C1379.4 63.5943 1376.51 62.4057 1373.03 62.4057H1349.3V86.9222H1373.03Z" fill="white"/>
<path d="M1506.99 92.5684C1496.45 102.969 1483.61 108.17 1468.48 108.17C1453.36 108.17 1440.52 102.969 1429.97 92.5684C1419.52 82.0684 1414.3 69.2406 1414.3 54.0849C1414.3 38.9292 1419.52 26.1509 1429.97 15.75C1440.52 5.25 1453.36 0 1468.48 0C1483.61 0 1496.45 5.25 1506.99 15.75C1517.54 26.1509 1522.82 38.9292 1522.82 54.0849C1522.82 69.2406 1517.54 82.0684 1506.99 92.5684ZM1444.45 78.6014C1450.92 84.941 1458.93 88.1108 1468.48 88.1108C1478.04 88.1108 1486.05 84.941 1492.52 78.6014C1498.98 72.1627 1502.22 63.9906 1502.22 54.0849C1502.22 44.1792 1498.98 36.0071 1492.52 29.5684C1486.05 23.1297 1478.04 19.9104 1468.48 19.9104C1458.93 19.9104 1450.92 23.1297 1444.45 29.5684C1437.98 36.0071 1434.75 44.1792 1434.75 54.0849C1434.75 63.9906 1437.98 72.1627 1444.45 78.6014Z" fill="white"/>
<path d="M1612.94 86.4764H1624.13V126H1603.53V106.09H1545.77V126H1525.17V86.4764H1535.32C1541.09 78.4528 1543.98 66.7146 1543.98 51.2618V2.08019H1612.94V86.4764ZM1557.41 86.4764H1592.34V21.2476H1564.57V51.559C1564.57 66.6156 1562.19 78.2547 1557.41 86.4764Z" fill="white"/>
<path d="M1697.29 2.08019H1717.74V106.09H1697.29V63H1658.48V106.09H1637.88V2.08019H1658.48V43.3868H1697.29V2.08019Z" fill="white"/>
<path d="M1825.07 92.5684C1814.52 102.969 1801.68 108.17 1786.55 108.17C1771.43 108.17 1758.59 102.969 1748.04 92.5684C1737.59 82.0684 1732.37 69.2406 1732.37 54.0849C1732.37 38.9292 1737.59 26.1509 1748.04 15.75C1758.59 5.25 1771.43 0 1786.55 0C1801.68 0 1814.52 5.25 1825.07 15.75C1835.61 26.1509 1840.89 38.9292 1840.89 54.0849C1840.89 69.2406 1835.61 82.0684 1825.07 92.5684ZM1762.52 78.6014C1768.99 84.941 1777 88.1108 1786.55 88.1108C1796.11 88.1108 1804.12 84.941 1810.59 78.6014C1817.06 72.1627 1820.29 63.9906 1820.29 54.0849C1820.29 44.1792 1817.06 36.0071 1810.59 29.5684C1804.12 23.1297 1796.11 19.9104 1786.55 19.9104C1777 19.9104 1768.99 23.1297 1762.52 29.5684C1756.05 36.0071 1752.82 44.1792 1752.82 54.0849C1752.82 63.9906 1756.05 72.1627 1762.52 78.6014Z" fill="white"/>
<path d="M1875.97 86.4764H1920V106.09H1855.37V2.08019H1919.25V21.6934H1875.97V43.8325H1915.52V63.1486H1875.97V86.4764Z" fill="white"/>
</svg>
