<svg width="24" height="25" viewBox="0 0 24 25" fill="none" xmlns="http://www.w3.org/2000/svg">
<path d="M23.309 15.4331C25.047 7.62312 18.205 0.528116 10.17 1.89012C5.808 -0.816884 0 2.24212 0 7.43212C0 8.63912 0.333 9.76912 0.912 10.7431C-0.703 18.5711 6.195 25.5641 14.223 24.1091C15.159 24.6041 16.227 24.8861 17.362 24.8861C22.311 24.8861 25.48 19.7531 23.309 15.4331ZM12.096 20.7651C9.754 20.7651 7.466 20.2001 6.112 18.2661C4.094 15.4121 6.755 13.9841 8.061 15.0721C9.151 15.9911 8.809 18.2141 12.01 18.2141C13.421 18.2141 15.163 17.6121 15.163 16.2131C15.163 13.3981 8.918 14.7301 6.435 11.6611C5.523 10.5371 5.351 8.55412 6.471 7.11612C8.423 4.60412 14.151 4.45112 16.614 6.34812C18.888 8.10812 18.274 10.4441 16.439 10.4441C14.232 10.4441 15.392 7.55612 11.829 7.55612C9.246 7.55612 8.23 9.39312 10.049 10.2871C12.47 11.4891 18.799 11.1141 18.799 15.8901C18.791 19.2471 15.552 20.7651 12.096 20.7651Z" fill="#03A9F4"/>
</svg>
