<svg width="1920" height="264" viewBox="0 0 1920 264" fill="none" xmlns="http://www.w3.org/2000/svg">
<path d="M142.654 228.974H101.188L35.9894 143.24V228.974H0V46.004H35.9894V126.772L98.5797 46.004H140.046L72.5004 134.875L142.654 228.974Z" fill="#F6F8FB"/>
<path d="M282.39 228.974L271.436 196.04H198.675L187.722 228.974H148.864L212.758 46.004H257.354L321.509 228.974H282.39ZM210.15 162.321H260.222L235.186 87.5644L210.15 162.321Z" fill="#F6F8FB"/>
<path d="M372.094 29.2752V0H447.724V29.2752H372.094ZM444.856 228.974V117.362L366.618 228.974H339.234V46.004H375.224V157.877L453.462 46.004H480.845V228.974H444.856Z" fill="#F6F8FB"/>
<path d="M635.456 46.004V80.5069H586.167V228.974H550.177V80.5069H501.148V46.004H635.456Z" fill="#F6F8FB"/>
<path d="M642.304 166.242V133.83H740.102V166.242H642.304Z" fill="#F6F8FB"/>
<path d="M860.557 232.634C833.087 232.634 810.398 223.485 792.49 205.188C774.583 186.891 765.629 164.325 765.629 137.489C765.629 110.479 774.583 87.9129 792.49 69.7901C810.398 51.4931 833.087 42.3446 860.557 42.3446C877.074 42.3446 892.287 46.2653 906.196 54.1069C920.279 61.7743 931.232 72.2297 939.056 85.4733L908.022 103.509C903.501 95.3188 897.068 88.9584 888.723 84.4277C880.378 79.7228 870.989 77.3703 860.557 77.3703C842.823 77.3703 828.48 82.9465 817.527 94.099C806.747 105.251 801.357 119.715 801.357 137.489C801.357 155.089 806.747 169.465 817.527 180.618C828.48 191.77 842.823 197.347 860.557 197.347C870.989 197.347 880.378 195.081 888.723 190.551C897.242 185.846 903.675 179.485 908.022 171.469L939.056 189.505C931.232 202.749 920.366 213.291 906.457 221.133C892.548 228.8 877.248 232.634 860.557 232.634Z" fill="#F6F8FB"/>
<path d="M1081.15 46.004V80.5069H1031.86V228.974H995.868V80.5069H946.839V46.004H1081.15Z" fill="#F6F8FB"/>
<path d="M1205.35 228.974L1194.4 196.04H1121.64L1110.68 228.974H1071.83L1135.72 46.004H1180.32L1244.47 228.974H1205.35ZM1133.11 162.321H1183.18L1158.15 87.5644L1133.11 162.321Z" fill="#F6F8FB"/>
<path d="M1365.99 46.004H1401.72V228.974H1365.99V153.172H1298.19V228.974H1262.2V46.004H1298.19V118.669H1365.99V46.004Z" fill="#F6F8FB"/>
<path d="M1572.03 194.471H1591.59V264H1555.6V228.974H1435.63V46.004H1471.62V194.471H1536.04V46.004H1572.03V194.471Z" fill="#F6F8FB"/>
<path d="M1721.31 228.974V117.362L1643.08 228.974H1615.69V46.004H1651.68V157.877L1729.92 46.004H1757.3V228.974H1721.31Z" fill="#F6F8FB"/>
<path d="M1920 46.004V228.974H1884.01V165.457H1863.41L1821.42 228.974H1781L1825.59 161.537C1813.94 157.354 1804.47 150.21 1797.17 140.103C1789.86 129.996 1786.21 118.844 1786.21 106.646C1786.21 89.9168 1792.12 75.6277 1803.95 63.7782C1815.77 51.9287 1830.11 46.004 1846.98 46.004H1920ZM1846.98 133.83H1884.01V79.7228H1846.98C1840.2 79.7228 1834.37 82.3366 1829.5 87.5644C1824.64 92.7921 1822.2 99.1525 1822.2 106.646C1822.2 114.139 1824.64 120.586 1829.5 125.988C1834.37 131.216 1840.2 133.83 1846.98 133.83Z" fill="#F6F8FB"/>
</svg>
