<svg width="80" height="80" viewBox="0 0 80 80" fill="none" xmlns="http://www.w3.org/2000/svg">
<path d="M38.9641 77.8379H19.3143C19.0681 77.8376 18.8294 77.7533 18.6376 77.5989C15.9504 75.4272 14.0025 72.4757 13.0622 69.1511C12.122 65.8264 12.2355 62.2919 13.3873 59.0345C14.539 55.777 16.6723 52.9567 19.4934 50.9619C22.3145 48.9671 25.6847 47.896 29.1398 47.896C32.5948 47.896 35.965 48.9671 38.7861 50.9619C41.6072 52.9567 43.7405 55.777 44.8922 59.0345C46.044 62.2919 46.1575 65.8264 45.2173 69.1511C44.277 72.4757 42.3291 75.4272 39.6419 77.5989C39.4498 77.7535 39.2107 77.8378 38.9641 77.8379ZM19.7035 75.6757H38.576C40.8393 73.7488 42.4568 71.1738 43.2102 68.2984C43.9637 65.423 43.8166 62.3857 42.789 59.5965C41.7614 56.8073 39.9027 54.4006 37.4639 52.7013C35.0251 51.002 32.1236 50.092 29.1511 50.0941C25.2948 50.0955 21.5965 51.6265 18.8675 54.3512C16.1386 57.0759 14.6018 60.7718 14.5943 64.6281C14.5882 66.7308 15.0424 68.8094 15.925 70.7179C16.8076 72.6264 18.0973 74.3186 19.7035 75.6757Z" fill="#1395DF"/>
<path d="M35.2033 51.3112C35.0165 51.311 34.8329 51.2624 34.6704 51.1701C34.508 51.0778 34.3722 50.9449 34.2764 50.7845C34.1806 50.6241 34.1279 50.4417 34.1237 50.2549C34.1194 50.0681 34.1636 49.8834 34.252 49.7187C34.7041 48.8778 34.939 47.9373 34.9352 46.9825C34.9144 45.4593 34.2947 44.0054 33.2102 42.9356C32.1256 41.8658 30.6635 41.266 29.1401 41.266C27.6167 41.266 26.1545 41.8658 25.07 42.9356C23.9855 44.0054 23.3657 45.4593 23.3449 46.9825C23.3412 47.9373 23.576 48.8778 24.0282 49.7187C24.1637 49.9715 24.1932 50.2677 24.1103 50.5422C24.0273 50.8167 23.8388 51.047 23.586 51.1825C23.3333 51.318 23.0371 51.3475 22.7626 51.2646C22.488 51.1817 22.2577 50.9931 22.1222 50.7404C21.5001 49.5858 21.1768 48.294 21.1817 46.9825C21.2061 44.8882 22.0552 42.8879 23.5448 41.4155C25.0345 39.9432 27.0445 39.1174 29.139 39.1174C31.2335 39.1174 33.2435 39.9432 34.7331 41.4155C36.2228 42.8879 37.0719 44.8882 37.0963 46.9825C37.1012 48.294 36.7778 49.5858 36.1558 50.7404C36.0635 50.9127 35.9261 51.0569 35.7584 51.1574C35.5907 51.2579 35.3989 51.3111 35.2033 51.3112Z" fill="#1395DF"/>
<path d="M32.3247 28.7968C32.038 28.7968 31.763 28.6829 31.5603 28.4802C31.3575 28.2774 31.2436 28.0024 31.2436 27.7157V20.1644H27.0274V27.7157C27.0274 28.0024 26.9135 28.2774 26.7108 28.4802C26.508 28.6829 26.233 28.7968 25.9463 28.7968C25.6596 28.7968 25.3846 28.6829 25.1819 28.4802C24.9791 28.2774 24.8652 28.0024 24.8652 27.7157V19.0833C24.8652 18.7966 24.9791 18.5216 25.1819 18.3188C25.3846 18.1161 25.6596 18.0022 25.9463 18.0022H32.3247C32.6114 18.0022 32.8864 18.1161 33.0891 18.3188C33.2919 18.5216 33.4058 18.7966 33.4058 19.0833V27.7157C33.4058 28.0024 33.2919 28.2774 33.0891 28.4802C32.8864 28.6829 32.6114 28.7968 32.3247 28.7968Z" fill="#1395DF"/>
<path d="M25.9522 42.0001C25.6655 42.0001 25.3905 41.8862 25.1877 41.6834C24.985 41.4807 24.8711 41.2057 24.8711 40.919V34.2346C24.8711 33.9479 24.985 33.6729 25.1877 33.4702C25.3905 33.2675 25.6655 33.1536 25.9522 33.1536C26.2389 33.1536 26.5139 33.2675 26.7166 33.4702C26.9194 33.6729 27.0333 33.9479 27.0333 34.2346V40.919C27.0333 41.2057 26.9194 41.4807 26.7166 41.6834C26.5139 41.8862 26.2389 42.0001 25.9522 42.0001Z" fill="#1395DF"/>
<path d="M32.3242 41.9763C32.0375 41.9763 31.7625 41.8624 31.5598 41.6596C31.3571 41.4569 31.2432 41.1819 31.2432 40.8952V34.2346C31.2432 33.9479 31.3571 33.6729 31.5598 33.4702C31.7625 33.2675 32.0375 33.1536 32.3242 33.1536C32.611 33.1536 32.8859 33.2675 33.0887 33.4702C33.2914 33.6729 33.4053 33.9479 33.4053 34.2346V40.8963C33.405 41.1828 33.291 41.4575 33.0883 41.66C32.8856 41.8625 32.6108 41.9763 32.3242 41.9763Z" fill="#1395DF"/>
<path d="M34.2589 35.3136H24.02C22.8811 35.2956 21.7949 34.8306 20.9959 34.0188C20.1969 33.2071 19.749 32.1137 19.749 30.9747C19.749 29.8356 20.1969 28.7423 20.9959 27.9305C21.7949 27.1188 22.8811 26.6537 24.02 26.6357H34.2589C35.3978 26.6537 36.484 27.1188 37.283 27.9305C38.082 28.7423 38.5299 29.8356 38.5299 30.9747C38.5299 32.1137 38.082 33.2071 37.283 34.0188C36.484 34.8306 35.3978 35.2956 34.2589 35.3136ZM24.02 28.7979C23.4511 28.8106 22.9097 29.0455 22.5119 29.4523C22.114 29.8592 21.8912 30.4056 21.8912 30.9747C21.8912 31.5437 22.114 32.0902 22.5119 32.497C22.9097 32.9038 23.4511 33.1387 24.02 33.1514H34.2589C34.8278 33.1387 35.3692 32.9038 35.767 32.497C36.1649 32.0902 36.3877 31.5437 36.3877 30.9747C36.3877 30.4056 36.1649 29.8592 35.767 29.4523C35.3692 29.0455 34.8278 28.8106 34.2589 28.7979H24.02Z" fill="#1395DF"/>
<path d="M34.2409 20.1643H24.0388C21.9132 20.162 19.8753 19.3166 18.3722 17.8136C16.8692 16.3105 16.0238 14.2726 16.0215 12.147C16.0215 11.8603 16.1354 11.5853 16.3381 11.3826C16.5409 11.1798 16.8158 11.0659 17.1026 11.0659H41.1772C41.4639 11.0659 41.7389 11.1798 41.9416 11.3826C42.1443 11.5853 42.2582 11.8603 42.2582 12.147C42.256 14.2726 41.4105 16.3105 39.9075 17.8136C38.4045 19.3166 36.3666 20.162 34.2409 20.1643ZM18.2842 13.2281C18.538 14.5691 19.2516 15.7796 20.3021 16.651C21.3525 17.5225 22.6739 18.0003 24.0388 18.0021H34.2409C35.6065 18.0013 36.929 17.524 37.9803 16.6524C39.0316 15.7809 39.7459 14.5698 39.9999 13.2281H18.2842Z" fill="#1395DF"/>
<path d="M34.7564 13.2281H23.5229C23.2802 13.228 23.0446 13.1463 22.854 12.9961C22.6634 12.8459 22.5289 12.6359 22.4721 12.3999L20.324 3.49616C20.2857 3.33715 20.284 3.17152 20.319 3.01176C20.354 2.85199 20.4248 2.70225 20.5261 2.57382C20.6274 2.44538 20.7565 2.3416 20.9037 2.27029C21.0508 2.19897 21.2123 2.16198 21.3759 2.16211H36.9034C37.0669 2.16215 37.2282 2.19926 37.3753 2.27064C37.5223 2.34203 37.6513 2.44583 37.7524 2.57424C37.8536 2.70266 37.9243 2.85233 37.9592 3.01202C37.9942 3.1717 37.9925 3.33724 37.9542 3.49616L35.8072 12.3999C35.7504 12.6359 35.6159 12.8459 35.4253 12.9961C35.2347 13.1463 34.9991 13.228 34.7564 13.2281ZM24.378 11.0659H33.9088L35.5304 4.32427H22.7488L24.378 11.0659Z" fill="#1395DF"/>
<path d="M59.0375 51.3989C57.4453 51.3972 55.9188 50.7639 54.793 49.6381C53.6671 48.5122 53.0338 46.9857 53.0321 45.3935V32.4659C53.0321 31.783 52.7608 31.128 52.2779 30.645C51.795 30.1621 51.14 29.8908 50.457 29.8908C49.774 29.8908 49.119 30.1621 48.6361 30.645C48.1532 31.128 47.8819 31.783 47.8819 32.4659V33.5351C47.8784 36.7865 46.5854 39.9036 44.2865 42.2028C41.9875 44.5019 38.8705 45.7952 35.6192 45.7989C35.3324 45.7989 35.0575 45.685 34.8547 45.4823C34.652 45.2795 34.5381 45.0046 34.5381 44.7178C34.5381 44.4311 34.652 44.1561 34.8547 43.9534C35.0575 43.7507 35.3324 43.6368 35.6192 43.6368C38.297 43.6336 40.8643 42.5684 42.7579 40.6749C44.6514 38.7814 45.7166 36.2141 45.7197 33.5362V32.467C45.7197 31.2106 46.2188 30.0057 47.1072 29.1173C47.9956 28.2288 49.2006 27.7297 50.457 27.7297C51.7134 27.7297 52.9184 28.2288 53.8068 29.1173C54.6952 30.0057 55.1943 31.2106 55.1943 32.467V45.3935C55.1943 46.4128 55.5992 47.3903 56.32 48.1111C57.0407 48.8318 58.0182 49.2368 59.0375 49.2368C60.0568 49.2368 61.0344 48.8318 61.7551 48.1111C62.4759 47.3903 62.8808 46.4128 62.8808 45.3935V35.4541C62.8763 33.8912 63.182 32.3429 63.7801 30.899C64.3782 29.4551 65.2568 28.1441 66.3651 27.0422L67.1446 26.2627C67.3485 26.0658 67.6215 25.9568 67.905 25.9593C68.1884 25.9617 68.4596 26.0754 68.66 26.2759C68.8605 26.4763 68.9742 26.7475 68.9766 27.0309C68.9791 27.3144 68.8701 27.5875 68.6732 27.7914L67.8937 28.5708C66.987 29.4726 66.2681 30.5453 65.7788 31.7268C65.2894 32.9084 65.0393 34.1752 65.0429 35.4541V45.3935C65.0412 46.9857 64.408 48.5122 63.2821 49.6381C62.1562 50.7639 60.6297 51.3972 59.0375 51.3989Z" fill="#1395DF"/>
</svg>
