<svg width="80" height="86" viewBox="0 0 80 86" fill="none" xmlns="http://www.w3.org/2000/svg">
<path d="M75.1528 39.3925L68.8558 23.6694C68.462 22.6852 67.807 21.8463 66.972 21.2569C66.1371 20.6674 65.1589 20.3533 64.1588 20.3535H9.02215C8.09993 20.3535 7.21548 20.7458 6.56338 21.444C5.91127 22.1422 5.54492 23.0891 5.54492 24.0765V60.6365C5.54492 60.9739 5.6701 61.2974 5.89291 61.536C6.11573 61.7745 6.41793 61.9086 6.73304 61.9086H15.2083C15.5719 63.8257 16.5433 65.5493 17.958 66.7873C19.3727 68.0253 21.1436 68.7016 22.9707 68.7016C24.7978 68.7016 26.5687 68.0253 27.9834 66.7873C29.398 65.5493 30.3695 63.8257 30.733 61.9086H50.8518C51.2154 63.8257 52.1869 65.5493 53.6015 66.7873C55.0162 68.0253 56.7871 68.7016 58.6142 68.7016C60.4413 68.7016 62.2122 68.0253 63.6269 66.7873C65.0416 65.5493 66.013 63.8257 66.3766 61.9086H74.0598C74.3749 61.9086 74.6771 61.7745 74.8999 61.536C75.1227 61.2974 75.2479 60.9739 75.2479 60.6365V39.8589C75.2438 39.6985 75.2115 39.5402 75.1528 39.3925ZM66.6697 24.6702L72.0796 38.1628H55.4459V22.8977H64.1588C64.6934 22.8978 65.2162 23.0658 65.6625 23.3808C66.1088 23.6959 66.4589 24.1441 66.6697 24.6702ZM9.02215 22.8977H53.0697V38.1628H7.92116V24.0765C7.92116 23.7639 8.03716 23.464 8.24363 23.243C8.45011 23.0219 8.73015 22.8977 9.02215 22.8977ZM22.9707 66.1489C21.8741 66.1489 20.8021 65.8007 19.8903 65.1484C18.9785 64.4961 18.2678 63.569 17.8482 62.4842C17.4285 61.3995 17.3187 60.2059 17.5326 59.0543C17.7466 57.9027 18.2747 56.845 19.0501 56.0148C19.8255 55.1845 20.8134 54.6191 21.889 54.3901C22.9645 54.161 24.0793 54.2786 25.0925 54.7279C26.1056 55.1772 26.9715 55.9381 27.5808 56.9143C28.19 57.8906 28.5152 59.0383 28.5152 60.2124C28.5152 61.7869 27.9311 63.2968 26.8913 64.4101C25.8515 65.5234 24.4412 66.1489 22.9707 66.1489ZM58.6142 66.1489C57.5176 66.1489 56.4456 65.8007 55.5338 65.1484C54.622 64.4961 53.9114 63.569 53.4917 62.4842C53.0721 61.3995 52.9623 60.2059 53.1762 59.0543C53.3902 57.9027 53.9182 56.845 54.6936 56.0148C55.4691 55.1845 56.457 54.6191 57.5325 54.3901C58.6081 54.161 59.7229 54.2786 60.736 54.7279C61.7492 55.1772 62.6151 55.9381 63.2244 56.9143C63.8336 57.8906 64.1588 59.0383 64.1588 60.2124C64.1588 61.7869 63.5746 63.2968 62.5348 64.4101C61.495 65.5234 60.0847 66.1489 58.6142 66.1489ZM66.4954 59.3644C66.2993 57.2723 65.3843 55.3329 63.928 53.9223C62.4717 52.5118 60.578 51.7308 58.6142 51.7308C56.6505 51.7308 54.7567 52.5118 53.3004 53.9223C51.8441 55.3329 50.9292 57.2723 50.733 59.3644H30.8519C30.6557 57.2723 29.7407 55.3329 28.2845 53.9223C26.8282 52.5118 24.9344 51.7308 22.9707 51.7308C21.0069 51.7308 19.1132 52.5118 17.6569 53.9223C16.2006 55.3329 15.2856 57.2723 15.0895 59.3644H7.92116V40.707H72.8717V59.3644H66.4954Z" fill="#1395DF"/>
</svg>
