<svg width="80" height="80" viewBox="0 0 80 80" fill="none" xmlns="http://www.w3.org/2000/svg">
<path d="M69.5132 35.935C68.6522 35.935 67.3855 36.2818 66.2416 37.9327C66.1921 38.0045 66.1499 38.081 66.1172 38.1615C65.4938 39.6881 64.2159 40.6328 63.39 40.6328C62.7092 40.6328 61.928 39.8412 61.3221 38.5514V21.0212C61.3221 20.3604 60.7864 19.8255 60.1263 19.8255H42.7214C41.3048 19.2092 40.4343 18.3929 40.4343 17.6675C40.4343 16.9883 41.2259 16.2086 42.5165 15.602C42.6528 15.5741 42.7868 15.5223 42.9103 15.4449C44.3955 14.5178 45.2134 13.2838 45.2134 11.97C45.2134 8.97736 41.0505 6.71973 35.5308 6.71973C30.0134 6.71973 25.8521 8.97736 25.8521 11.97C25.8521 12.7855 26.163 13.951 27.5709 15.04C27.7024 15.2504 27.8977 15.4178 28.1329 15.5135C29.6746 16.1425 30.6313 17.0034 30.6313 17.76C30.6313 18.4408 29.8389 19.2204 28.5458 19.8255H10.9384C10.2783 19.8255 9.7426 20.3604 9.7426 21.0212V38.7961C9.72825 38.9858 9.76014 39.1795 9.83826 39.3597C10.8874 41.7712 12.4355 43.0993 14.1981 43.0993C15.9391 43.0993 17.5128 41.7457 18.5475 39.3725C18.5547 39.3629 18.5611 39.3533 18.5674 39.343C19.0195 38.6454 19.5265 38.246 19.9593 38.246C21.1248 38.246 22.818 41.0856 22.818 45.5355C22.818 49.9862 21.1248 52.8258 19.9593 52.8258C19.548 52.8258 19.0673 52.4623 18.628 51.8229C17.5805 49.4353 16.0404 48.1216 14.2889 48.1216C12.4857 48.1216 10.8595 49.5741 9.8279 52.1067C9.75774 52.2789 9.72984 52.4599 9.7426 52.6376V70.2084C9.7426 70.8693 10.2783 71.4042 10.9384 71.4042H28.8025C28.9667 71.4042 29.1286 71.3707 29.28 71.3045C31.6931 70.2547 33.0228 68.7065 33.0228 66.9463C33.0228 65.2356 31.7138 63.6842 29.4156 62.6479C29.3725 62.6096 29.3271 62.573 29.2776 62.5403C28.8902 62.2804 28.2405 61.7598 28.2405 61.1875C28.2405 60.022 31.0801 58.3295 35.5308 58.3295C39.9791 58.3295 42.8186 60.0228 42.8186 61.1875C42.8186 61.5797 42.4958 62.0293 41.921 62.4462C41.874 62.4598 41.8285 62.4765 41.7831 62.4964C39.3708 63.5447 38.0427 65.0929 38.0427 66.8539C38.0427 68.6834 39.4585 70.2682 42.0294 71.3149C42.1729 71.3731 42.3252 71.4034 42.4798 71.4034H60.1263C60.7864 71.4034 61.3221 70.8685 61.3221 70.2076V52.7253C61.9399 51.3087 62.7563 50.4382 63.4801 50.4382C64.0876 50.4382 65.2977 51.2944 66.0167 52.9023C66.0486 52.9884 66.0901 53.0713 66.1411 53.1486C67.0547 54.5333 68.2521 55.2962 69.5132 55.2962C72.5066 55.2962 74.7635 51.1341 74.7635 45.6152C74.7635 40.0963 72.5058 35.935 69.5132 35.935ZM69.5132 52.9047C69.1074 52.9047 68.6315 52.5476 68.197 51.921C67.1735 49.6354 65.2443 48.0474 63.4801 48.0474C61.6761 48.0474 60.0498 49.5007 59.0183 52.0342C58.9601 52.1777 58.9306 52.3307 58.9306 52.4846V69.0126H42.7214C41.3048 68.3948 40.4343 67.5777 40.4343 66.8547C40.4343 66.1874 41.1972 65.4237 42.4448 64.8234C42.6122 64.8019 42.778 64.7445 42.9286 64.6496C44.4003 63.7249 45.2094 62.4956 45.2094 61.1883C45.2094 58.1956 41.0481 55.9388 35.53 55.9388C30.0103 55.9388 25.8481 58.1956 25.8481 61.1883C25.8481 62.0109 26.1646 63.194 27.6139 64.2917C27.7439 64.4727 27.924 64.6154 28.1329 64.7015C29.6738 65.3296 30.6305 66.1898 30.6305 66.9471C30.6305 67.6263 29.8373 68.4068 28.545 69.0126H12.1334V52.7931C12.7504 51.3813 13.5659 50.5139 14.2882 50.5139C14.9841 50.5139 15.7853 51.3446 16.3967 52.6918C16.4286 52.7995 16.4756 52.9031 16.5378 52.9996C17.461 54.4297 18.6759 55.2181 19.9593 55.2181C22.9528 55.2181 25.2096 51.056 25.2096 45.5363C25.2096 40.0174 22.9528 35.8553 19.9593 35.8553C18.7604 35.8553 17.6228 36.5401 16.7307 37.7916C16.6072 37.908 16.5075 38.0507 16.4406 38.2142C15.8148 39.7535 14.9554 40.7093 14.1981 40.7093C13.5181 40.7093 12.7392 39.9201 12.1342 38.6335V22.2186H28.8025C28.9659 22.2186 29.1286 22.1851 29.2792 22.1198C31.6931 21.0723 33.0228 19.5241 33.0228 17.7615C33.0228 16.0723 31.7441 14.5369 29.4937 13.499C29.4371 13.4408 29.3733 13.3882 29.3039 13.342C28.6295 12.8939 28.2437 12.3949 28.2437 11.9708C28.2437 10.8053 31.0825 9.11208 35.5308 9.11208C39.9815 9.11208 42.8218 10.8053 42.8218 11.9708C42.8218 12.3813 42.4687 12.8533 41.8429 13.2861C41.823 13.2941 41.8022 13.3021 41.7823 13.3109C39.3708 14.3608 38.0427 15.9089 38.0427 17.6683C38.0427 19.4739 39.496 21.1002 42.0302 22.1293C42.1729 22.1875 42.326 22.217 42.4798 22.217H58.9306V38.8081C58.9306 38.9723 58.964 39.1349 59.0302 39.2856C60.0785 41.6963 61.6274 43.0236 63.39 43.0236C65.3096 43.0236 67.301 41.4579 68.2752 39.1995C68.5422 38.8352 69.007 38.3258 69.514 38.3258C70.6795 38.3258 72.3727 41.1653 72.3727 45.6152C72.3727 50.0651 70.6779 52.9047 69.5132 52.9047Z" fill="#1395DF"/>
</svg>
