<svg width="80" height="80" viewBox="0 0 80 80" fill="none" xmlns="http://www.w3.org/2000/svg">
<path d="M39.679 8.29297C22.2966 8.29297 8.15625 22.4341 8.15625 39.8158C8.15625 57.1974 22.2974 71.3385 39.679 71.3385C57.0607 71.3385 71.2018 57.1974 71.2018 39.8158C71.2018 22.4341 57.0615 8.29297 39.679 8.29297ZM64.2881 24.2374C50.5114 24.9354 41.1083 35.8979 39.0192 38.5667C37.1262 38.3817 31.7179 37.644 26.0731 35.011C27.7271 31.0614 35.0251 16.3875 52.8594 13.8378C57.5363 16.2215 61.4867 19.8281 64.2881 24.2374ZM39.679 10.6751C42.8965 10.6751 45.9901 11.2071 48.8868 12.1743C32.7319 16.1445 25.7777 29.652 23.9474 33.9295C20.4266 31.9793 16.9821 29.2248 14.4038 25.3403C19.4372 16.5868 28.8776 10.6751 39.679 10.6751ZM10.5384 39.8158C10.5384 35.5073 11.4857 31.4179 13.1714 27.7344C21.4938 39.0638 36.271 40.7519 39.1462 40.9743C39.8625 42.7124 41.6689 47.6077 42.0699 53.5908C37.2556 54.2372 21.6741 55.0916 10.6035 41.6722C10.5654 41.0568 10.5384 40.4391 10.5384 39.8158ZM39.043 68.9405C25.3251 68.6443 13.9131 58.8299 11.1696 45.8473C19.9446 54.6136 30.6071 56.2588 37.3699 56.2588C39.3439 56.2588 40.9837 56.1183 42.1493 55.9746C42.1445 60.1425 41.3537 64.6717 39.043 68.9405ZM55.7036 64.1373C51.6445 66.8204 46.8786 68.5117 41.7499 68.8746C47.8545 56.1564 42.3296 42.2733 41.1893 39.6816C42.6472 37.914 46.4419 33.7175 51.9018 30.5413C54.619 34.4155 62.6944 48.0031 55.7036 64.1373ZM59.2753 61.3653C64.0133 46.1625 56.8844 33.6206 54.0099 29.4146C57.3989 27.7574 61.3128 26.5862 65.626 26.5766C67.6628 30.5524 68.8205 35.0499 68.8205 39.8158C68.8205 48.3454 65.1361 56.0309 59.2753 61.3653Z" fill="#1395DF"/>
</svg>
