<svg width="80" height="80" viewBox="0 0 80 80" fill="none" xmlns="http://www.w3.org/2000/svg">
<path d="M32.2396 34.6274C37.5872 34.6274 42.1487 31.2505 43.9383 26.5216C45.7288 31.2505 50.2927 34.6274 55.6418 34.6274C62.5407 34.6274 68.1536 29.012 68.1536 22.1092C68.1536 15.2072 62.5407 9.5918 55.6418 9.5918C50.2919 9.5918 45.728 12.9687 43.9383 17.6968C42.1487 12.9687 37.5872 9.5918 32.2396 9.5918C25.3392 9.5918 19.7246 15.2072 19.7246 22.1092C19.7246 29.012 25.3392 34.6274 32.2396 34.6274ZM55.6426 11.9834C61.2229 11.9834 65.7629 16.5257 65.7629 22.1092C65.7629 27.6927 61.2229 32.2359 55.6426 32.2359C50.0567 32.2359 45.512 27.6927 45.512 22.1092C45.512 16.5257 50.0567 11.9834 55.6426 11.9834ZM32.2396 11.9834C37.8231 11.9834 42.3647 16.5257 42.3647 22.1092C42.3647 27.6927 37.8231 32.2359 32.2396 32.2359C26.6577 32.2359 22.1162 27.6927 22.1162 22.1092C22.1162 16.5257 26.6577 11.9834 32.2396 11.9834Z" fill="#1395DF"/>
<path d="M73.6726 46.1323H67.8308V39.7436C67.8308 39.0836 67.2951 38.5479 66.6351 38.5479H22.1728C21.5127 38.5479 20.977 39.0836 20.977 39.7436V49.7754L6.52565 43.4649C6.15735 43.3031 5.72926 43.3397 5.39285 43.5606C5.05564 43.7814 4.85156 44.1576 4.85156 44.561V64.1104C4.85156 64.5138 5.05484 64.8901 5.39205 65.1109C5.58976 65.2408 5.81775 65.3062 6.04734 65.3062C6.20997 65.3062 6.37259 65.2727 6.52565 65.2065L20.977 58.8992V68.9286C20.977 69.5895 21.5127 70.1244 22.1728 70.1244H66.6351C67.2951 70.1244 67.8308 69.5895 67.8308 68.9286V62.5328H73.6726C74.3327 62.5328 74.8684 61.9979 74.8684 61.337V47.3273C74.8684 46.6672 74.3327 46.1323 73.6726 46.1323ZM20.9348 56.3092L7.24312 62.2849V46.389L20.9276 52.3639C20.9444 52.3711 20.9611 52.3734 20.977 52.3806V56.2964C20.9627 56.3012 20.9483 56.3036 20.9348 56.3092ZM65.4393 67.7344H23.3686V40.9402H65.4393V47.3289V61.3386V67.7344ZM72.4769 60.142H67.8308V48.5238H72.4769V60.142Z" fill="#1395DF"/>
<path d="M32.2393 27.3233C35.1156 27.3233 37.4561 24.9836 37.4561 22.1089C37.4561 19.2335 35.1156 16.8945 32.2393 16.8945C29.3655 16.8945 27.0273 19.2335 27.0273 22.1089C27.0273 24.9844 29.3655 27.3233 32.2393 27.3233ZM32.2393 19.2861C33.797 19.2861 35.0646 20.552 35.0646 22.1089C35.0646 23.6658 33.797 24.9318 32.2393 24.9318C30.684 24.9318 29.4189 23.6658 29.4189 22.1089C29.4189 20.552 30.684 19.2861 32.2393 19.2861Z" fill="#1395DF"/>
<path d="M55.6353 27.3233C58.5131 27.3233 60.8545 24.9836 60.8545 22.1089C60.8545 19.2335 58.5131 16.8945 55.6353 16.8945C52.7606 16.8945 50.4209 19.2335 50.4209 22.1089C50.4209 24.9844 52.7598 27.3233 55.6353 27.3233ZM55.6353 19.2861C57.1946 19.2861 58.4629 20.552 58.4629 22.1089C58.4629 23.6658 57.1946 24.9318 55.6353 24.9318C54.0792 24.9318 52.8125 23.6658 52.8125 22.1089C52.8125 20.552 54.0792 19.2861 55.6353 19.2861Z" fill="#1395DF"/>
</svg>
