<svg width="80" height="80" viewBox="0 0 80 80" fill="none" xmlns="http://www.w3.org/2000/svg">
<path d="M74.5581 32.3624C74.3644 32.1002 74.0718 31.9296 73.7474 31.8881C73.3137 31.8331 66.3224 30.9841 59.2513 32.1376C58.0125 27.1098 56.2388 23.7154 56.1606 23.5671C55.8569 22.9923 55.153 22.7675 54.5718 23.0545C54.4132 23.1334 50.9311 24.8745 46.9635 27.7619C43.9613 22.9676 40.6259 19.4456 40.3732 19.1818C40.1476 18.9466 39.8359 18.8135 39.5098 18.8135C39.1838 18.8135 38.8721 18.9466 38.6465 19.1818C38.4017 19.4369 35.2783 22.734 32.3583 27.2828C28.3508 24.3539 24.8137 22.5874 24.6535 22.5076C24.3625 22.3633 24.0237 22.345 23.7168 22.4542C23.4106 22.565 23.1619 22.7962 23.0296 23.0936C22.957 23.2578 21.3411 26.924 20.1294 31.7829C13.1732 30.7091 6.39232 31.5326 5.9706 31.5868C5.96183 31.5876 5.95386 31.5916 5.94509 31.5932C5.93632 31.5948 5.92835 31.5932 5.91958 31.5948C5.8877 31.6003 5.8598 31.6123 5.8295 31.6195C5.78964 31.6298 5.74978 31.6378 5.71152 31.6522C5.67086 31.6673 5.6326 31.6872 5.59433 31.7056C5.56244 31.7215 5.52976 31.7351 5.49947 31.7534C5.4604 31.7773 5.42533 31.806 5.38946 31.8339C5.36315 31.8546 5.33604 31.873 5.31133 31.8953C5.27625 31.928 5.24596 31.9639 5.21567 32.0005C5.19813 32.0213 5.1774 32.0388 5.16066 32.0611C5.15827 32.0643 5.15668 32.0683 5.15429 32.0723C5.12399 32.1145 5.10008 32.16 5.07536 32.2054C5.06261 32.2293 5.04667 32.2508 5.0355 32.2756C5.0084 32.3353 4.98767 32.3983 4.97093 32.4621C4.96774 32.4741 4.96216 32.4852 4.95897 32.4972C4.9231 32.6494 4.91593 32.8105 4.94383 32.9747C4.96854 33.1206 5.12001 33.9847 5.42692 35.3104C6.52465 40.0449 9.61215 50.6611 16.0295 55.4131C20.5711 58.7812 25.7185 60.5892 30.1182 60.5892C32.096 60.5892 33.9223 60.2233 35.4753 59.47C36.7348 60.1276 38.0908 60.488 39.5114 60.488C40.9583 60.488 42.3374 60.1157 43.6161 59.4341C45.3205 60.4369 47.39 60.9256 49.6572 60.9256C54.0122 60.9256 59.0911 59.124 63.6909 55.7128C71.9003 49.6303 74.6641 33.9401 74.7773 33.2752C74.8315 32.9548 74.7526 32.6247 74.5581 32.3624ZM54.5615 25.7673C55.1514 27.0835 56.1319 29.5229 56.9004 32.6008C54.6468 33.1262 52.4633 33.893 50.558 34.9908C49.925 33.2115 49.1 31.4704 48.188 29.8314C50.7836 27.9277 53.2206 26.5039 54.5615 25.7673ZM24.7276 25.2539C26.0916 26.0057 28.5238 27.4319 31.1107 29.3363C30.1883 30.9443 29.3401 32.6598 28.6705 34.42C26.7883 33.4147 24.6646 32.71 22.4859 32.2253C23.2448 29.2199 24.172 26.6681 24.7276 25.2539ZM17.4517 53.4919C17.1033 53.2336 16.7685 52.9482 16.4408 52.65C16.3795 52.5942 16.3181 52.54 16.2575 52.4834C15.9466 52.1909 15.6445 51.8807 15.3519 51.5563C15.2953 51.4933 15.2403 51.4287 15.1845 51.365C14.8903 51.0294 14.6033 50.6826 14.3275 50.3199C14.3219 50.3127 14.3163 50.3063 14.3108 50.2991C14.0302 49.9284 13.7623 49.5418 13.5016 49.148C13.4522 49.0731 13.402 48.9989 13.3525 48.9232C13.1038 48.5405 12.8639 48.1483 12.6327 47.7497C12.5888 47.674 12.5466 47.5983 12.5035 47.5217C12.2755 47.1208 12.0539 46.7142 11.8435 46.302C11.8339 46.2837 11.8243 46.2662 11.8156 46.2486C11.5979 45.8221 11.3923 45.3909 11.1922 44.9588C11.1531 44.8751 11.114 44.7914 11.0766 44.7077C10.8869 44.2891 10.7035 43.869 10.5297 43.4505C10.497 43.3724 10.4659 43.2951 10.4348 43.2177C10.2658 42.804 10.1024 42.3918 9.94776 41.9829C9.9382 41.9582 9.92863 41.9335 9.91907 41.9087C9.75883 41.4831 9.60976 41.0629 9.46547 40.6476C9.43677 40.5655 9.40807 40.4834 9.38017 40.4021C9.24385 40.0019 9.11391 39.6081 8.99194 39.223C8.96962 39.1529 8.94889 39.0843 8.92737 39.015C8.81098 38.6435 8.70017 38.2792 8.59733 37.9268C8.58936 37.8989 8.57979 37.8686 8.57182 37.8407C8.4642 37.4716 8.36615 37.1177 8.27367 36.7757C8.25454 36.7055 8.23541 36.6354 8.21707 36.566C8.13018 36.2416 8.04966 35.9299 7.97553 35.6365C7.96118 35.5783 7.94762 35.5233 7.93328 35.4659C7.86551 35.1933 7.80254 34.9326 7.74673 34.6918C7.74036 34.6647 7.73318 34.6344 7.7268 34.6081C7.66702 34.3514 7.616 34.1194 7.56896 33.9058C7.56418 33.8819 7.5586 33.8588 7.55381 33.8356C11.1579 33.5399 21.5165 33.0895 27.9068 36.7414C27.4755 38.3126 27.2196 39.8967 27.2196 41.4496C27.2196 48.4887 29.5673 54.5202 33.1419 57.8142C28.9048 59.065 22.7809 57.4435 17.4517 53.4919ZM36.2278 57.1358C36.2174 57.1278 36.2063 57.123 36.1959 57.1159C32.3646 54.8168 29.6112 48.6713 29.6112 41.4496C29.6112 39.8823 29.9276 38.2584 30.4362 36.6401C30.4402 36.6298 30.4426 36.6186 30.4466 36.6083C32.4364 30.3073 37.4794 24.1116 39.5106 21.7918C40.806 23.2705 43.3283 26.3285 45.5031 29.9821C45.5421 30.0753 45.5892 30.1662 45.6529 30.2499C45.6561 30.2539 45.6601 30.2571 45.6633 30.2611C47.7089 33.7535 49.4085 37.7578 49.4085 41.4496C49.4085 50.6292 44.9681 58.0964 39.5098 58.0964C38.3579 58.0964 37.2562 57.7472 36.2278 57.1358ZM62.2655 53.7924C56.5991 57.996 50.0343 59.5433 45.8299 57.8565C49.4308 54.572 51.7992 48.5198 51.7992 41.4504C51.7992 40.1023 51.6047 38.732 51.2723 37.3656C57.6035 33.3653 68.4564 33.8325 72.1649 34.137C71.3446 37.926 68.4469 49.2126 62.2655 53.7924Z" fill="#1395DF"/>
</svg>
