<svg width="1920" height="262" viewBox="0 0 1920 262" fill="none" xmlns="http://www.w3.org/2000/svg">
<path d="M211.742 4.32547V220.599H169.394V80.3302L108.499 180.743H103.553L42.6576 80.6392V220.599H0V4.32547H43.8941L106.026 106.592L167.848 4.32547H211.742Z" fill="#F6F8FB"/>
<path d="M294.718 179.816H385.906V220.599H252.06V4.32547H384.36V45.1085H294.718V91.1439H376.632V131.309H294.718V179.816Z" fill="#F6F8FB"/>
<path d="M671.611 220.599H624.007L556.93 122.04V220.599H514.272V122.04L447.195 220.599H399.9L475.015 110.3L402.992 4.32547H450.286L514.272 100.722V4.32547H556.93V100.722L620.916 4.32547H668.52L596.187 110.3L671.611 220.599Z" fill="#F6F8FB"/>
<path d="M826.259 108.446C845.218 119.362 854.698 135.84 854.698 157.88C854.698 176.211 848.206 191.248 835.223 202.988C822.241 214.729 806.27 220.599 787.311 220.599H695.504V4.32547H780.819C799.366 4.32547 814.925 10.0928 827.496 21.6274C840.272 32.956 846.661 47.4772 846.661 65.191C846.661 83.1109 839.86 97.5291 826.259 108.446ZM780.819 44.1816H738.162V91.7618H780.819C787.414 91.7618 792.875 89.4961 797.203 84.9646C801.736 80.4332 804.003 74.7689 804.003 67.9717C804.003 61.1745 801.839 55.5102 797.512 50.9788C793.184 46.4473 787.62 44.1816 780.819 44.1816ZM787.311 180.743C794.523 180.743 800.5 178.374 805.239 173.637C809.979 168.693 812.349 162.514 812.349 155.099C812.349 147.89 809.979 141.917 805.239 137.179C800.5 132.236 794.523 129.764 787.311 129.764H738.162V180.743H787.311Z" fill="#F6F8FB"/>
<path d="M1064.73 192.483C1042.89 214.111 1016.3 224.925 984.979 224.925C953.656 224.925 927.072 214.111 905.228 192.483C883.59 170.65 872.771 143.976 872.771 112.462C872.771 80.9481 883.59 54.3774 905.228 32.75C927.072 10.9167 953.656 0 984.979 0C1016.3 0 1042.89 10.9167 1064.73 32.75C1086.57 54.3774 1097.5 80.9481 1097.5 112.462C1097.5 143.976 1086.57 170.65 1064.73 192.483ZM935.212 163.441C948.607 176.623 965.196 183.215 984.979 183.215C1004.76 183.215 1021.35 176.623 1034.75 163.441C1048.14 150.053 1054.84 133.06 1054.84 112.462C1054.84 91.8648 1048.14 74.8719 1034.75 61.4835C1021.35 48.0951 1004.76 41.4009 984.979 41.4009C965.196 41.4009 948.607 48.0951 935.212 61.4835C921.817 74.8719 915.119 91.8648 915.119 112.462C915.119 133.06 921.817 150.053 935.212 163.441Z" fill="#F6F8FB"/>
<path d="M1284.12 179.816H1307.3V262H1264.65V220.599H1145.02V262H1102.36V179.816H1123.38C1135.33 163.132 1141.31 138.724 1141.31 106.592V4.32547H1284.12V179.816ZM1169.13 179.816H1241.46V44.1816H1183.97V107.21C1183.97 138.518 1179.02 162.72 1169.13 179.816Z" fill="#F6F8FB"/>
<path d="M1458.79 4.32547H1501.14V220.599H1458.79V131H1378.42V220.599H1335.77V4.32547H1378.42V90.217H1458.79V4.32547Z" fill="#F6F8FB"/>
<path d="M1723.41 192.483C1701.56 214.111 1674.98 224.925 1643.66 224.925C1612.33 224.925 1585.75 214.111 1563.9 192.483C1542.27 170.65 1531.45 143.976 1531.45 112.462C1531.45 80.9481 1542.27 54.3774 1563.9 32.75C1585.75 10.9167 1612.33 0 1643.66 0C1674.98 0 1701.56 10.9167 1723.41 32.75C1745.25 54.3774 1756.17 80.9481 1756.17 112.462C1756.17 143.976 1745.25 170.65 1723.41 192.483ZM1593.89 163.441C1607.28 176.623 1623.87 183.215 1643.66 183.215C1663.44 183.215 1680.03 176.623 1693.42 163.441C1706.82 150.053 1713.51 133.06 1713.51 112.462C1713.51 91.8648 1706.82 74.8719 1693.42 61.4835C1680.03 48.0951 1663.44 41.4009 1643.66 41.4009C1623.87 41.4009 1607.28 48.0951 1593.89 61.4835C1580.49 74.8719 1573.8 91.8648 1573.8 112.462C1573.8 133.06 1580.49 150.053 1593.89 163.441Z" fill="#F6F8FB"/>
<path d="M1828.81 179.816H1920V220.599H1786.15V4.32547H1918.45V45.1085H1828.81V91.1439H1910.73V131.309H1828.81V179.816Z" fill="#F6F8FB"/>
</svg>
