<svg width="1920" height="191" viewBox="0 0 1920 191" fill="none" xmlns="http://www.w3.org/2000/svg">
<path d="M110.613 140.697H124.722V191H98.762V165.659H25.9603V191H0V140.697H12.792C20.0659 130.485 23.7029 115.546 23.7029 95.8782V33.2832H110.613V140.697ZM40.6335 140.697H84.6531V57.6782H49.6632V96.2564C49.6632 115.419 46.6533 130.233 40.6335 140.697Z" fill="white"/>
<path d="M250.824 148.451C237.531 161.688 221.353 168.307 202.29 168.307C183.227 168.307 167.049 161.688 153.756 148.451C140.587 135.087 134.003 118.76 134.003 99.4713C134.003 80.1822 140.587 63.9188 153.756 50.6812C167.049 37.3175 183.227 30.6356 202.29 30.6356C221.353 30.6356 237.531 37.3175 250.824 50.6812C264.118 63.9188 270.765 80.1822 270.765 99.4713C270.765 118.76 264.118 135.087 250.824 148.451ZM172.003 130.674C180.155 138.743 190.25 142.777 202.29 142.777C214.33 142.777 224.425 138.743 232.577 130.674C240.729 122.48 244.805 112.079 244.805 99.4713C244.805 86.864 240.729 76.463 232.577 68.2683C224.425 60.0736 214.33 55.9762 202.29 55.9762C190.25 55.9762 180.155 60.0736 172.003 68.2683C163.851 76.463 159.775 86.864 159.775 99.4713C159.775 112.079 163.851 122.48 172.003 130.674Z" fill="white"/>
<path d="M351.466 168.307C331.651 168.307 315.285 161.688 302.367 148.451C289.45 135.213 282.991 118.886 282.991 99.4713C282.991 79.93 289.45 63.6036 302.367 50.4921C315.285 37.2545 331.651 30.6356 351.466 30.6356C363.38 30.6356 374.354 33.4723 384.387 39.1455C394.545 44.6927 402.446 52.2571 408.09 61.8386L385.704 74.8871C382.443 68.9617 377.803 64.3601 371.783 61.0822C365.763 57.6782 358.991 55.9762 351.466 55.9762C338.674 55.9762 328.328 60.0106 320.427 68.0792C312.651 76.1479 308.763 86.6119 308.763 99.4713C308.763 112.205 312.651 122.606 320.427 130.674C328.328 138.743 338.674 142.777 351.466 142.777C358.991 142.777 365.763 141.138 371.783 137.86C377.928 134.456 382.568 129.855 385.704 124.055L408.09 137.104C402.446 146.685 394.608 154.313 384.575 159.986C374.542 165.533 363.506 168.307 351.466 168.307Z" fill="white"/>
<path d="M510.585 33.2832V58.2455H475.03V165.659H449.07V58.2455H413.704V33.2832H510.585Z" fill="white"/>
<path d="M597.879 33.2832H623.839L584.334 129.161C573.8 154.88 556.493 167.046 532.414 165.659V141.264C539.437 141.895 545.08 140.949 549.344 138.428C553.734 135.78 557.371 131.557 560.255 125.757L517.176 33.2832H543.136L571.918 97.202L597.879 33.2832Z" fill="white"/>
<path d="M736.26 33.2832V165.659H710.3V58.2455H663.835V165.659H637.874V33.2832H736.26Z" fill="white"/>
<path d="M835.647 33.2832H861.419V165.659H835.647V110.818H786.736V165.659H760.776V33.2832H786.736V85.8555H835.647V33.2832Z" fill="white"/>
<path d="M885.881 165.659V33.2832H911.842V76.7782H934.98C947.647 76.7782 958.307 81.0647 966.96 89.6376C975.614 98.2106 979.94 108.738 979.94 121.219C979.94 133.7 975.614 144.227 966.96 152.8C958.307 161.373 947.647 165.659 934.98 165.659H885.881ZM991.98 165.659V33.2832H1017.75V165.659H991.98ZM911.842 141.264H934.98C940.498 141.264 945.076 139.373 948.713 135.591C952.35 131.809 954.168 127.018 954.168 121.219C954.168 115.419 952.35 110.629 948.713 106.847C945.076 103.064 940.498 101.173 934.98 101.173H911.842V141.264Z" fill="white"/>
<path d="M1065.92 21.1802V0H1120.47V21.1802H1065.92ZM1118.41 165.659V84.9099L1061.97 165.659H1042.22V33.2832H1068.18V114.222L1124.61 33.2832H1144.37V165.659H1118.41Z" fill="white"/>
<path d="M1314.21 33.2832V165.659H1288.25V58.2455H1241.78V165.659H1215.82V33.2832H1314.21Z" fill="white"/>
<path d="M1387.82 33.2832C1400.49 33.2832 1411.15 37.5696 1419.8 46.1426C1428.46 54.7155 1432.78 65.2426 1432.78 77.7238C1432.78 90.2049 1428.46 100.732 1419.8 109.305C1411.15 117.878 1400.49 122.164 1387.82 122.164H1364.68V165.659H1338.72V33.2832H1387.82ZM1387.82 97.7693C1393.34 97.7693 1397.92 95.8782 1401.56 92.096C1405.19 88.1878 1407.01 83.397 1407.01 77.7238C1407.01 71.9244 1405.19 67.1337 1401.56 63.3515C1397.92 59.5693 1393.34 57.6782 1387.82 57.6782H1364.68V97.7693H1387.82Z" fill="white"/>
<path d="M1559.57 148.451C1546.27 161.688 1530.1 168.307 1511.03 168.307C1491.97 168.307 1475.79 161.688 1462.5 148.451C1449.33 135.087 1442.75 118.76 1442.75 99.4713C1442.75 80.1822 1449.33 63.9188 1462.5 50.6812C1475.79 37.3175 1491.97 30.6356 1511.03 30.6356C1530.1 30.6356 1546.27 37.3175 1559.57 50.6812C1572.86 63.9188 1579.51 80.1822 1579.51 99.4713C1579.51 118.76 1572.86 135.087 1559.57 148.451ZM1480.75 130.674C1488.9 138.743 1498.99 142.777 1511.03 142.777C1523.07 142.777 1533.17 138.743 1541.32 130.674C1549.47 122.48 1553.55 112.079 1553.55 99.4713C1553.55 86.864 1549.47 76.463 1541.32 68.2683C1533.17 60.0736 1523.07 55.9762 1511.03 55.9762C1498.99 55.9762 1488.9 60.0736 1480.75 68.2683C1472.59 76.463 1468.52 86.864 1468.52 99.4713C1468.52 112.079 1472.59 122.48 1480.75 130.674Z" fill="white"/>
<path d="M1700.65 165.659H1670.74L1623.71 103.632V165.659H1597.75V33.2832H1623.71V91.7178L1668.86 33.2832H1698.77L1650.05 97.5802L1700.65 165.659Z" fill="white"/>
<path d="M1801.45 165.659L1793.55 141.832H1741.06L1733.16 165.659H1705.13L1751.22 33.2832H1783.39L1829.67 165.659H1801.45ZM1749.34 117.437H1785.46L1767.4 63.3515L1749.34 117.437Z" fill="white"/>
<path d="M1920 33.2832V58.2455H1884.45V165.659H1858.49V58.2455H1823.12V33.2832H1920Z" fill="white"/>
</svg>
