<svg width="1920" height="184" viewBox="0 0 1920 184" fill="none" xmlns="http://www.w3.org/2000/svg">
<path d="M99.5471 159.588H70.6111L25.1142 99.8337V159.588H0V32.0634H25.1142V88.3564L68.7912 32.0634H97.7272L50.5925 94.004L99.5471 159.588Z" fill="#F6F8FB"/>
<path d="M197.058 159.588L189.415 136.634H138.64L130.997 159.588H103.881L148.467 32.0634H179.587L224.356 159.588H197.058ZM146.648 113.133H181.589L164.118 61.0297L146.648 113.133Z" fill="#F6F8FB"/>
<path d="M259.656 20.404V0H312.432V20.404H259.656ZM310.431 159.588V81.798L255.834 159.588H236.726V32.0634H261.84V110.036L316.436 32.0634H335.545V159.588H310.431Z" fill="#F6F8FB"/>
<path d="M443.436 32.0634V56.1109H409.041V159.588H383.926V56.1109H349.713V32.0634H443.436Z" fill="#F6F8FB"/>
<path d="M610.144 143.01C597.283 155.762 581.632 162.139 563.191 162.139C544.75 162.139 529.099 155.762 516.238 143.01C503.499 130.136 497.13 114.408 497.13 95.8257C497.13 77.2436 503.499 61.5762 516.238 48.8238C529.099 35.9498 544.75 29.5129 563.191 29.5129C581.632 29.5129 597.283 35.9498 610.144 48.8238C623.004 61.5762 629.434 77.2436 629.434 95.8257C629.434 114.408 623.004 130.136 610.144 143.01ZM533.891 125.885C541.777 133.658 551.544 137.545 563.191 137.545C574.838 137.545 584.605 133.658 592.491 125.885C600.377 117.991 604.32 107.971 604.32 95.8257C604.32 83.6805 600.377 73.6607 592.491 65.7663C584.605 57.8719 574.838 53.9248 563.191 53.9248C551.544 53.9248 541.777 57.8719 533.891 65.7663C526.005 73.6607 522.062 83.6805 522.062 95.8257C522.062 107.971 526.005 117.991 533.891 125.885Z" fill="#F6F8FB"/>
<path d="M695.858 80.3406C708.233 80.3406 718.364 84.0449 726.25 91.4535C734.136 98.7406 738.079 108.214 738.079 119.873C738.079 131.654 734.136 141.249 726.25 148.657C718.364 155.945 708.233 159.588 695.858 159.588H647.086V32.0634H727.16V56.1109H672.2V80.3406H695.858ZM695.858 136.087C700.833 136.087 704.958 134.69 708.233 131.897C711.509 128.982 713.147 124.974 713.147 119.873C713.147 114.772 711.509 110.825 708.233 108.032C704.958 105.238 700.833 103.842 695.858 103.842H672.2V136.087H695.858Z" fill="#F6F8FB"/>
<path d="M859.843 143.01C846.983 155.762 831.332 162.139 812.89 162.139C794.449 162.139 778.798 155.762 765.938 143.01C753.198 130.136 746.829 114.408 746.829 95.8257C746.829 77.2436 753.198 61.5762 765.938 48.8238C778.798 35.9498 794.449 29.5129 812.89 29.5129C831.332 29.5129 846.983 35.9498 859.843 48.8238C872.703 61.5762 879.134 77.2436 879.134 95.8257C879.134 114.408 872.703 130.136 859.843 143.01ZM783.59 125.885C791.476 133.658 801.243 137.545 812.89 137.545C824.537 137.545 834.304 133.658 842.19 125.885C850.076 117.991 854.019 107.971 854.019 95.8257C854.019 83.6805 850.076 73.6607 842.19 65.7663C834.304 57.8719 824.537 53.9248 812.89 53.9248C801.243 53.9248 791.476 57.8719 783.59 65.7663C775.704 73.6607 771.761 83.6805 771.761 95.8257C771.761 107.971 775.704 117.991 783.59 125.885Z" fill="#F6F8FB"/>
<path d="M944.284 32.0634C956.538 32.0634 966.85 36.1927 975.222 44.4515C983.593 52.7102 987.779 62.8515 987.779 74.8752C987.779 86.899 983.593 97.0403 975.222 105.299C966.85 113.558 956.538 117.687 944.284 117.687H921.899V159.588H896.785V32.0634H944.284ZM944.284 94.1861C949.622 94.1861 954.05 92.3644 957.569 88.7208C961.087 84.9558 962.846 80.3406 962.846 74.8752C962.846 69.2884 961.087 64.6733 957.569 61.0297C954.05 57.3861 949.622 55.5644 944.284 55.5644H921.899V94.1861H944.284Z" fill="#F6F8FB"/>
<path d="M1068.87 32.0634H1093.99L1055.77 124.428C1045.58 149.204 1028.83 160.924 1005.54 159.588V136.087C1012.33 136.694 1017.79 135.783 1021.92 133.354C1026.16 130.804 1029.68 126.735 1032.47 121.149L990.799 32.0634H1015.91L1043.76 93.6396L1068.87 32.0634Z" fill="#F6F8FB"/>
<path d="M1193.39 135.541H1207.04V184H1181.92V159.588H1111.49V184H1086.38V135.541H1098.75C1105.79 125.703 1109.31 111.311 1109.31 92.3644V32.0634H1193.39V135.541ZM1125.69 135.541H1168.27V55.5644H1134.42V92.7287C1134.42 111.189 1131.51 125.46 1125.69 135.541Z" fill="#F6F8FB"/>
<path d="M1329.03 143.01C1316.17 155.762 1300.52 162.139 1282.08 162.139C1263.63 162.139 1247.98 155.762 1235.12 143.01C1222.38 130.136 1216.01 114.408 1216.01 95.8257C1216.01 77.2436 1222.38 61.5762 1235.12 48.8238C1247.98 35.9498 1263.63 29.5129 1282.08 29.5129C1300.52 29.5129 1316.17 35.9498 1329.03 48.8238C1341.89 61.5762 1348.32 77.2436 1348.32 95.8257C1348.32 114.408 1341.89 130.136 1329.03 143.01ZM1252.78 125.885C1260.66 133.658 1270.43 137.545 1282.08 137.545C1293.72 137.545 1303.49 133.658 1311.38 125.885C1319.26 117.991 1323.21 107.971 1323.21 95.8257C1323.21 83.6805 1319.26 73.6607 1311.38 65.7663C1303.49 57.8719 1293.72 53.9248 1282.08 53.9248C1270.43 53.9248 1260.66 57.8719 1252.78 65.7663C1244.89 73.6607 1240.95 83.6805 1240.95 95.8257C1240.95 107.971 1244.89 117.991 1252.78 125.885Z" fill="#F6F8FB"/>
<path d="M1442.95 93.4574C1454.11 99.8944 1459.69 109.611 1459.69 122.606C1459.69 133.415 1455.87 142.281 1448.23 149.204C1440.59 156.127 1431.18 159.588 1420.02 159.588H1365.97V32.0634H1416.2C1427.12 32.0634 1436.28 35.464 1443.68 42.2653C1451.2 48.9452 1454.96 57.5076 1454.96 67.9525C1454.96 78.5188 1450.96 87.0205 1442.95 93.4574ZM1416.2 55.5644H1391.09V83.6198H1416.2C1420.08 83.6198 1423.3 82.2838 1425.84 79.6119C1428.51 76.9399 1429.85 73.6 1429.85 69.5921C1429.85 65.5842 1428.57 62.2442 1426.03 59.5723C1423.48 56.9003 1420.2 55.5644 1416.2 55.5644ZM1420.02 136.087C1424.27 136.087 1427.79 134.69 1430.58 131.897C1433.37 128.982 1434.76 125.339 1434.76 120.966C1434.76 116.716 1433.37 113.193 1430.58 110.4C1427.79 107.485 1424.27 106.028 1420.02 106.028H1391.09V136.087H1420.02Z" fill="#F6F8FB"/>
<path d="M1558.05 159.588L1550.41 136.634H1499.64L1491.99 159.588H1464.88L1509.46 32.0634H1540.58L1585.35 159.588H1558.05ZM1507.64 113.133H1542.58L1525.11 61.0297L1507.64 113.133Z" fill="#F6F8FB"/>
<path d="M1670.15 32.0634H1695.08V159.588H1670.15V106.756H1622.83V159.588H1597.72V32.0634H1622.83V82.7089H1670.15V32.0634Z" fill="#F6F8FB"/>
<path d="M1792.45 159.588V81.798L1737.86 159.588H1718.75V32.0634H1743.86V110.036L1798.46 32.0634H1817.57V159.588H1792.45Z" fill="#F6F8FB"/>
<path d="M1866.31 135.541H1920V159.588H1841.2V32.0634H1919.09V56.1109H1866.31V83.2554H1914.54V106.939H1866.31V135.541Z" fill="#F6F8FB"/>
</svg>
