<svg width="143" height="1040" viewBox="0 0 143 1040" fill="none" xmlns="http://www.w3.org/2000/svg">
<path d="M2.24006 -230.48L2.24006 -255.92L54.7201 -295.92L2.24006 -295.92L2.24007 -318L114.24 -318V-295.92L64.8001 -295.92L114.24 -257.52V-232.08L59.8401 -273.52L2.24006 -230.48Z" fill="white"/>
<path d="M2.24006 -144.75L22.4001 -151.47L22.4001 -196.11L2.24006 -202.83L2.24006 -226.67L114.24 -187.47V-160.11L2.24006 -120.75L2.24006 -144.75ZM43.0401 -189.07V-158.35L88.8001 -173.71L43.0401 -189.07Z" fill="white"/>
<path d="M2.24005 -22.355L2.24005 -47.795L54.7201 -87.795H2.24006L2.24006 -109.875H114.24V-87.795H64.8001L114.24 -49.395V-23.955L59.8401 -65.395L2.24005 -22.355Z" fill="white"/>
<path d="M4.77614e-05 81.6825C4.8498e-05 64.8292 5.60005 50.9092 16.8001 39.9225C28.0001 28.9359 41.8134 23.4425 58.2401 23.4425C74.7734 23.4425 88.5867 28.9359 99.6801 39.9225C110.88 50.9092 116.48 64.8292 116.48 81.6825C116.48 91.8158 114.08 101.149 109.28 109.682C104.587 118.323 98.1867 125.043 90.08 129.842L79.04 110.803C84.0534 108.029 87.9467 104.082 90.7201 98.9625C93.6001 93.8425 95.0401 88.0825 95.0401 81.6825C95.0401 70.8025 91.6267 62.0025 84.8001 55.2825C77.9734 48.6692 69.1201 45.3625 58.2401 45.3625C47.4667 45.3625 38.6667 48.6692 31.84 55.2825C25.0134 62.0025 21.6 70.8025 21.6 81.6825C21.6 88.0825 22.9867 93.8425 25.76 98.9625C28.64 104.189 32.5334 108.136 37.44 110.803L26.4 129.842C18.2934 125.043 11.84 118.376 7.04005 109.842C2.34671 101.309 4.73138e-05 91.9225 4.77614e-05 81.6825Z" fill="white"/>
<path d="M114.24 217.018H93.12V186.777H2.24004L2.24004 164.698H93.12V134.617H114.24V217.018Z" fill="white"/>
<path d="M2.24004 293.219L22.4 286.499L22.4 241.859L2.24004 235.139L2.24004 211.299L114.24 250.499L114.24 277.859L2.24004 317.219L2.24004 293.219ZM43.04 248.899V279.619L88.8 264.259L43.04 248.899Z" fill="white"/>
<path d="M114.24 394.049H93.12V363.809H2.24004L2.24004 341.729H93.12V311.649H114.24V394.049Z" fill="white"/>
<path d="M77.44 448.135C77.44 458.908 73.8134 467.975 66.56 475.335C59.3067 482.695 50.4 486.375 39.84 486.375C29.28 486.375 20.3734 482.695 13.12 475.335C5.8667 467.975 2.24003 458.908 2.24003 448.135L2.24003 406.375H114.24V428.455H77.44L77.44 448.135ZM22.88 448.135C22.88 452.828 24.48 456.722 27.68 459.815C30.88 462.908 34.9334 464.455 39.84 464.455C44.64 464.455 48.64 462.908 51.84 459.815C55.1467 456.722 56.8 452.828 56.8 448.135L56.8 428.455H22.88V448.135Z" fill="white"/>
<path d="M2.24002 628.27L2.24003 602.83L54.72 562.83H2.24003L2.24003 540.75H114.24V562.83H64.8L114.24 601.23L114.24 626.67L59.84 585.23L2.24002 628.27Z" fill="white"/>
<path d="M2.24002 714L22.4 707.28L22.4 662.64L2.24002 655.92L2.24002 632.08L114.24 671.28V698.64L2.24002 738L2.24002 714ZM43.04 669.68L43.04 700.4L88.8 685.04L43.04 669.68Z" fill="white"/>
<path d="M124.48 769.035H142.4V815.435H124.48V769.035ZM2.24002 813.675H70.56L2.24002 765.675L2.24002 748.875H114.24V770.955H45.76L114.24 818.955V835.755H2.24001L2.24002 813.675Z" fill="white"/>
<path d="M114.24 930.611H93.12L93.12 900.371H2.24001L2.24001 878.291H93.12V848.211H114.24V930.611Z" fill="white"/>
<path d="M23.36 965.017L23.36 1012.22H2.24001L2.24001 942.938H114.24L114.24 1011.42H93.12V965.017H69.28V1007.42H48.48L48.48 965.017H23.36Z" fill="white"/>
<path d="M114.24 1069.54C114.24 1080.31 110.613 1089.38 103.36 1096.74C96.1067 1104.1 87.2 1107.78 76.64 1107.78C66.08 1107.78 57.1733 1104.1 49.92 1096.74C42.6667 1089.38 39.04 1080.31 39.04 1069.54V1049.86H2.24001L2.24001 1027.78H114.24V1069.54ZM59.68 1069.54C59.68 1074.23 61.28 1078.13 64.48 1081.22C67.7867 1084.31 71.84 1085.86 76.64 1085.86C81.5467 1085.86 85.6 1084.31 88.8 1081.22C92 1078.13 93.6 1074.23 93.6 1069.54V1049.86H59.68L59.68 1069.54Z" fill="white"/>
<path d="M16.8 1215.61C5.6 1204.31 -7.08707e-07 1190.55 0 1174.33C7.08707e-07 1158.12 5.6 1144.36 16.8 1133.06C28.1067 1121.86 41.92 1116.26 58.24 1116.26C74.56 1116.26 88.32 1121.86 99.52 1133.06C110.827 1144.36 116.48 1158.12 116.48 1174.33C116.48 1190.55 110.827 1204.31 99.52 1215.61C88.32 1226.92 74.56 1232.57 58.24 1232.57C41.92 1232.57 28.1067 1226.92 16.8 1215.61ZM31.84 1148.57C25.0133 1155.51 21.6 1164.09 21.6 1174.33C21.6 1184.57 25.0133 1193.16 31.84 1200.09C38.7733 1207.03 47.5733 1210.49 58.24 1210.49C68.9067 1210.49 77.7067 1207.03 84.64 1200.09C91.5733 1193.16 95.04 1184.57 95.04 1174.33C95.04 1164.09 91.5733 1155.51 84.64 1148.57C77.7067 1141.64 68.9067 1138.18 58.24 1138.18C47.5733 1138.18 38.7733 1141.64 31.84 1148.57Z" fill="white"/>
<path d="M114.24 1357.69H2.23999L2.23999 1335.77H74.88L22.88 1304.25V1301.69L74.72 1270.17H2.24L2.24 1248.09H114.24V1270.81L61.28 1302.97L114.24 1334.97V1357.69Z" fill="white"/>
</svg>
