<svg width="143" height="1676" viewBox="0 0 143 1676" fill="none" xmlns="http://www.w3.org/2000/svg">
<path d="M2.24006 87.52L2.24006 62.08L54.7201 22.08L2.24006 22.08L2.24007 0L114.24 4.89568e-06V22.08L64.8001 22.08L114.24 60.48V85.92L59.8401 44.48L2.24006 87.52Z" fill="white"/>
<path d="M2.24006 173.25L22.4001 166.53L22.4001 121.89L2.24006 115.17L2.24006 91.33L114.24 130.53V157.89L2.24006 197.25L2.24006 173.25ZM43.0401 128.93V159.65L88.8001 144.29L43.0401 128.93Z" fill="white"/>
<path d="M2.24005 295.645L2.24005 270.205L54.7201 230.205H2.24006L2.24006 208.125H114.24V230.205H64.8001L114.24 268.605V294.045L59.8401 252.605L2.24005 295.645Z" fill="white"/>
<path d="M4.77614e-05 399.682C4.8498e-05 382.829 5.60005 368.909 16.8001 357.923C28.0001 346.936 41.8134 341.443 58.2401 341.443C74.7734 341.443 88.5867 346.936 99.6801 357.923C110.88 368.909 116.48 382.829 116.48 399.682C116.48 409.816 114.08 419.149 109.28 427.682C104.587 436.323 98.1867 443.043 90.08 447.842L79.04 428.803C84.0534 426.029 87.9467 422.082 90.7201 416.962C93.6001 411.842 95.0401 406.082 95.0401 399.682C95.0401 388.802 91.6267 380.003 84.8001 373.283C77.9734 366.669 69.1201 363.362 58.2401 363.362C47.4667 363.362 38.6667 366.669 31.84 373.283C25.0134 380.003 21.6 388.802 21.6 399.682C21.6 406.082 22.9867 411.842 25.76 416.962C28.64 422.189 32.5334 426.136 37.44 428.803L26.4 447.842C18.2934 443.043 11.84 436.376 7.04005 427.842C2.34671 419.309 4.73138e-05 409.922 4.77614e-05 399.682Z" fill="white"/>
<path d="M114.24 535.018H93.12V504.777H2.24004L2.24004 482.698H93.12V452.617H114.24V535.018Z" fill="white"/>
<path d="M2.24004 611.219L22.4 604.499L22.4 559.859L2.24004 553.139L2.24004 529.299L114.24 568.499L114.24 595.859L2.24004 635.219L2.24004 611.219ZM43.04 566.899V597.619L88.8 582.259L43.04 566.899Z" fill="white"/>
<path d="M114.24 712.049H93.12V681.809H2.24004L2.24004 659.729H93.12V629.649H114.24V712.049Z" fill="white"/>
<path d="M77.44 766.135C77.44 776.908 73.8134 785.975 66.56 793.335C59.3067 800.695 50.4 804.375 39.84 804.375C29.28 804.375 20.3734 800.695 13.12 793.335C5.8667 785.975 2.24003 776.908 2.24003 766.135L2.24003 724.375H114.24V746.455H77.44L77.44 766.135ZM22.88 766.135C22.88 770.828 24.48 774.722 27.68 777.815C30.88 780.908 34.9334 782.455 39.84 782.455C44.64 782.455 48.64 780.908 51.84 777.815C55.1467 774.722 56.8 770.828 56.8 766.135L56.8 746.455H22.88V766.135Z" fill="white"/>
<path d="M2.24002 946.27L2.24003 920.83L54.72 880.83H2.24003L2.24003 858.75H114.24V880.83H64.8L114.24 919.23L114.24 944.67L59.84 903.23L2.24002 946.27Z" fill="white"/>
<path d="M2.24002 1032L22.4 1025.28L22.4 980.64L2.24002 973.92L2.24002 950.08L114.24 989.28V1016.64L2.24002 1056L2.24002 1032ZM43.04 987.68L43.04 1018.4L88.8 1003.04L43.04 987.68Z" fill="white"/>
<path d="M124.48 1087.04H142.4V1133.44H124.48V1087.04ZM2.24002 1131.68H70.56L2.24002 1083.68L2.24002 1066.88H114.24V1088.95H45.76L114.24 1136.95V1153.76H2.24001L2.24002 1131.68Z" fill="white"/>
<path d="M114.24 1248.61H93.12L93.12 1218.37H2.24001L2.24001 1196.29H93.12V1166.21H114.24V1248.61Z" fill="white"/>
<path d="M23.36 1283.02L23.36 1330.22H2.24001L2.24001 1260.94H114.24L114.24 1329.42H93.12V1283.02H69.28V1325.42H48.48L48.48 1283.02H23.36Z" fill="white"/>
<path d="M114.24 1387.54C114.24 1398.31 110.613 1407.38 103.36 1414.74C96.1067 1422.1 87.2 1425.78 76.64 1425.78C66.08 1425.78 57.1733 1422.1 49.92 1414.74C42.6667 1407.38 39.04 1398.31 39.04 1387.54V1367.86H2.24001L2.24001 1345.78H114.24V1387.54ZM59.68 1387.54C59.68 1392.23 61.28 1396.13 64.48 1399.22C67.7867 1402.31 71.84 1403.86 76.64 1403.86C81.5467 1403.86 85.6 1402.31 88.8 1399.22C92 1396.13 93.6 1392.23 93.6 1387.54V1367.86H59.68L59.68 1387.54Z" fill="white"/>
<path d="M16.8 1533.61C5.6 1522.31 -7.08707e-07 1508.55 0 1492.33C7.08707e-07 1476.12 5.6 1462.36 16.8 1451.06C28.1067 1439.86 41.92 1434.26 58.24 1434.26C74.56 1434.26 88.32 1439.86 99.52 1451.06C110.827 1462.36 116.48 1476.12 116.48 1492.33C116.48 1508.55 110.827 1522.31 99.52 1533.61C88.32 1544.92 74.56 1550.57 58.24 1550.57C41.92 1550.57 28.1067 1544.92 16.8 1533.61ZM31.84 1466.57C25.0133 1473.51 21.6 1482.09 21.6 1492.33C21.6 1502.57 25.0133 1511.16 31.84 1518.09C38.7733 1525.03 47.5733 1528.49 58.24 1528.49C68.9067 1528.49 77.7067 1525.03 84.64 1518.09C91.5733 1511.16 95.04 1502.57 95.04 1492.33C95.04 1482.09 91.5733 1473.51 84.64 1466.57C77.7067 1459.64 68.9067 1456.18 58.24 1456.18C47.5733 1456.18 38.7733 1459.64 31.84 1466.57Z" fill="white"/>
<path d="M114.24 1675.69H2.23999L2.23999 1653.77H74.88L22.88 1622.25V1619.69L74.72 1588.17H2.24L2.24 1566.09H114.24V1588.81L61.28 1620.97L114.24 1652.97V1675.69Z" fill="white"/>
</svg>
