<?xml version="1.0" encoding="utf-8"?><svg xmlns="http://www.w3.org/2000/svg" xmlns:xlink="http://www.w3.org/1999/xlink"><symbol viewBox="0 0 22 24" id="basket" xmlns="http://www.w3.org/2000/svg"><g clip-path="url(#aclip0)"><path d="M10.363 18.443a2.046 2.046 0 00-2.045 2.042 2.046 2.046 0 004.09 0 2.046 2.046 0 00-2.045-2.042zm6.134 0a2.046 2.046 0 00-2.045 2.042 2.046 2.046 0 004.089 0 2.046 2.046 0 00-2.044-2.042zm3.978-8.199L7.413 6.891a.614.614 0 00-.75.73L8.67 16.4h-.786L5.482 5.895a.613.613 0 00-.474-.464l-4.27-.882A.614.614 0 00.489 5.75l3.885.802L6.797 17.15a.613.613 0 00.598.477h12.07a.615.615 0 00.607-.53l.858-6.175a.613.613 0 00-.455-.678zm-8.14 3.91a.613.613 0 01-1.227 0v-2.696a.613.613 0 011.227 0v2.696zm2.625 0a.613.613 0 01-1.227 0v-1.88a.613.613 0 011.227 0v1.88zm2.625 0a.613.613 0 01-1.227 0v-1.226a.613.613 0 011.227 0v1.226z"/></g><path fill-rule="evenodd" clip-rule="evenodd" d="M16.268 4.568a2.996 2.996 0 00-1.693-.523c-.627 0-1.21.193-1.693.523-.28-.843-.492-1.752-.492-2.383C12.39.98 13.37 0 14.575 0s2.185.98 2.185 2.185c0 .631-.212 1.54-.492 2.383zm-4.722 2.274l.024.006v-.011l-.024.005zm4.972 1.217c-1.333-.33-2.766-.681-4.129-1.013a2.185 2.185 0 114.129 1.013zm4.436 1.103c-.866-.217-2.155-.538-3.618-.9a2.995 2.995 0 00.243-1.425c.87.18 1.762.45 2.308.765.596.344.969.928 1.067 1.56zM9.869 6.439c-.36-.086-.706-.167-1.03-.243a2.19 2.19 0 01-.376-2.667 2.188 2.188 0 013.147-.7c.098.738.338 1.599.61 2.353a3.01 3.01 0 00-.449.774c-.628.113-1.305.278-1.902.483zm10.124.075a3.43 3.43 0 01-.217.114c-.696-.295-1.587-.526-2.397-.672a3.01 3.01 0 00-.449-.774c.262-.727.494-1.553.599-2.273.095-.067.189-.128.278-.18a2.188 2.188 0 012.986.8 2.188 2.188 0 01-.8 2.985z"/><defs><clipPath id="aclip0"><path transform="translate(0 3.064)" d="M0 0h20.936v20.936H0z"/></clipPath></defs></symbol><symbol viewBox="0 0 344.96 344.96" id="check" xmlns="http://www.w3.org/2000/svg"><g data-name="Слой 2"><path d="M321.85 86.24l-40-23.11-23.1-40H212.5L172.48 0l-40 23.11H86.24l-23.11 40-40 23.1v46.21L0 172.48l23.11 40v46.21l40 23.11 23.11 40h46.21l40 23.1 40-23.11h46.21l23.11-40 40-23.11V212.5l23.11-40-23.11-40V86.24zM156.91 243.07a16.79 16.79 0 01-23.34 0l-50.45-50.44a16.19 16.19 0 010-22.89l13.35-13.35a16.19 16.19 0 0122.89 0l25.87 25.87 80.34-80.35a16.19 16.19 0 0122.89 0l13.35 13.35a16.19 16.19 0 010 22.89z" data-name="Capa 1"/></g></symbol><symbol viewBox="0 0 30 17" id="chevron-down" xmlns="http://www.w3.org/2000/svg"><path d="M29.633.367a1.249 1.249 0 00-1.767 0L15 13.232 2.134.367A1.249 1.249 0 10.367 2.134l13.75 13.75a1.246 1.246 0 001.767 0l13.75-13.75a1.249 1.249 0 000-1.767z"/></symbol><symbol viewBox="0 0 24 24" id="fb" xmlns="http://www.w3.org/2000/svg"><path d="M13.397 20.997v-8.196h2.765l.411-3.209h-3.176V7.548c0-.926.258-1.56 1.587-1.56h1.684v-2.86A22.108 22.108 0 0014.201 3c-2.444 0-4.122 1.492-4.122 4.231v2.355H7.332v3.21h2.753v8.201h3.312z"/></symbol><symbol viewBox="0 0 20 20" id="instagram" xmlns="http://www.w3.org/2000/svg"><path d="M14.19 0H5.81A5.816 5.816 0 000 5.81v8.38A5.816 5.816 0 005.81 20h8.38A5.816 5.816 0 0020 14.19V5.81A5.816 5.816 0 0014.19 0zm4.248 14.19a4.252 4.252 0 01-4.248 4.248H5.81a4.252 4.252 0 01-4.247-4.248V5.81A4.252 4.252 0 015.81 1.563h8.38a4.252 4.252 0 014.248 4.247v8.38z"/><path d="M10 4.61A5.397 5.397 0 004.61 10 5.397 5.397 0 0010 15.39 5.397 5.397 0 0015.39 10 5.397 5.397 0 0010 4.61zm0 9.218A3.832 3.832 0 016.172 10 3.832 3.832 0 0110 6.172 3.832 3.832 0 0113.828 10 3.832 3.832 0 0110 13.828zm5.469-8.517a.781.781 0 100-1.562.781.781 0 000 1.562z"/></symbol><symbol viewBox="0 0 24 24" id="tel" xmlns="http://www.w3.org/2000/svg"><g clip-path="url(#fclip0)"><path d="M18.246 15.877c-.784-.774-1.763-.774-2.542 0-.594.59-1.189 1.179-1.773 1.778-.16.165-.294.2-.49.09-.384-.21-.793-.38-1.163-.61-1.723-1.083-3.166-2.477-4.445-4.045-.634-.779-1.198-1.613-1.593-2.552-.08-.19-.065-.314.09-.47.594-.574 1.174-1.163 1.758-1.752.814-.82.814-1.778-.005-2.602-.464-.47-.929-.93-1.393-1.399-.48-.479-.954-.963-1.439-1.438-.784-.764-1.763-.764-2.542.005-.6.59-1.173 1.194-1.783 1.773C.362 5.19.077 5.844.017 6.608c-.094 1.243.21 2.417.64 3.56.879 2.368 2.217 4.47 3.84 6.398 2.193 2.607 4.81 4.67 7.871 6.158 1.378.67 2.807 1.184 4.36 1.268 1.069.06 1.998-.21 2.742-1.043.51-.57 1.083-1.089 1.623-1.633.799-.81.804-1.788.01-2.587-.95-.954-1.903-1.903-2.857-2.852zm-.953-3.981l1.842-.315a8.236 8.236 0 00-2.302-4.445 8.192 8.192 0 00-4.694-2.342l-.26 1.853a6.356 6.356 0 013.636 1.813 6.355 6.355 0 011.778 3.436zm2.881-8.011A13.589 13.589 0 0012.383 0l-.26 1.853a11.782 11.782 0 016.732 3.356 11.773 11.773 0 013.301 6.367L24 11.262a13.688 13.688 0 00-3.825-7.377z"/></g><defs><clipPath id="fclip0"><path d="M0 0h24v24H0z"/></clipPath></defs></symbol><symbol viewBox="0 0 16 17" id="telegram" xmlns="http://www.w3.org/2000/svg"><g clip-path="url(#gclip0)"><path d="M6.054 10.473l-.255 3.59c.365 0 .523-.157.713-.346l1.712-1.636 3.547 2.598c.65.363 1.109.172 1.284-.598L15.384 3.17c.207-.962-.347-1.339-.981-1.103L.716 7.307c-.934.363-.92.884-.159 1.12l3.5 1.088 8.127-5.086c.383-.253.73-.113.444.14l-6.574 5.904z"/></g><defs><clipPath id="gclip0"><path transform="translate(0 .714)" d="M0 0h15.429v15.429H0z"/></clipPath></defs></symbol><symbol viewBox="0 0 22 22" id="viber" xmlns="http://www.w3.org/2000/svg"><g clip-path="url(#hclip0)"><path d="M20.96 12.547c.64-5.381-.306-8.778-2.014-10.315l.001-.001C16.192-.393 6.887-.78 3.59 2.349 2.11 3.88 1.588 6.127 1.531 8.909c-.057 2.784-.125 7.997 4.733 9.411h.005l-.005 2.16s-.033.875.526 1.051c.64.207.929-.2 2.917-2.574 3.325.288 5.879-.372 6.169-.469.671-.225 4.47-.727 5.085-5.94zm-10.925 4.89s-2.105 2.624-2.76 3.306c-.213.221-.448.2-.445-.239 0-.288.016-3.585.016-3.585-4.118-1.18-3.875-5.62-3.83-7.942.044-2.324.469-4.226 1.722-5.508C7.63.758 15.788 1.364 17.867 3.318c2.541 2.252 1.637 8.617 1.642 8.834-.522 4.351-3.601 4.627-4.167 4.816-.242.08-2.488.658-5.307.47z"/><path d="M11.198 3.98c-.344 0-.344.535 0 .54 2.667.02 4.864 1.88 4.888 5.289 0 .36.527.355.522-.005C16.577 6.13 14.18 4 11.197 3.98z"/><path d="M14.707 9.244c-.008.355.518.372.523.012.043-2.026-1.206-3.695-3.553-3.87-.344-.025-.38.515-.037.54 2.036.154 3.108 1.544 3.067 3.318zm-.563 2.303c-.441-.255-.89-.096-1.076.155l-.388.503c-.198.255-.566.221-.566.221-2.692-.712-3.411-3.528-3.411-3.528s-.033-.38.213-.585l.486-.402c.243-.193.396-.657.149-1.113-.66-1.194-1.104-1.606-1.33-1.922-.238-.297-.595-.364-.966-.163h-.008c-.773.452-1.618 1.297-1.348 2.168.462.917 1.31 3.843 4.014 6.054 1.27 1.046 3.28 2.117 4.134 2.364l.008.013c.841.28 1.66-.598 2.096-1.394v-.006c.194-.385.13-.75-.154-.988-.501-.489-1.258-1.03-1.853-1.377z"/><path d="M12.044 7.379c.858.05 1.274.498 1.319 1.418.016.36.538.335.522-.025-.057-1.201-.684-1.871-1.812-1.934-.344-.02-.376.52-.029.54z"/></g><defs><clipPath id="hclip0"><path transform="translate(.286 .143)" d="M0 0h21.429v21.429H0z"/></clipPath></defs></symbol><symbol viewBox="0 0 24 24" id="vk" xmlns="http://www.w3.org/2000/svg"><path d="M21.579 6.855c.14-.465 0-.806-.662-.806h-2.193c-.558 0-.813.295-.953.619 0 0-1.115 2.719-2.695 4.482-.51.513-.743.675-1.021.675-.139 0-.341-.162-.341-.627V6.855c0-.558-.161-.806-.626-.806H9.642c-.348 0-.558.258-.558.504 0 .528.79.65.871 2.138v3.228c0 .707-.127.836-.407.836-.743 0-2.551-2.73-3.624-5.853-.209-.607-.42-.852-.98-.852H2.752c-.627 0-.752.295-.752.619 0 .582.743 3.462 3.461 7.27 1.812 2.602 4.363 4.012 6.687 4.012 1.393 0 1.565-.313 1.565-.853v-1.966c0-.626.133-.752.574-.752.324 0 .882.164 2.183 1.417 1.486 1.486 1.732 2.153 2.567 2.153h2.192c.626 0 .939-.313.759-.931-.197-.615-.907-1.51-1.849-2.57-.512-.603-1.277-1.253-1.51-1.578-.325-.42-.231-.604 0-.976.001 0 2.672-3.761 2.95-5.04z"/></symbol><symbol viewBox="0 0 20 20" id="whatsapp" xmlns="http://www.w3.org/2000/svg"><g clip-path="url(#jclip0)"><path fill-rule="evenodd" clip-rule="evenodd" d="M16.537 3.435A9.099 9.099 0 0010.059.749C5.01.749.902 4.857.9 9.907a9.14 9.14 0 001.223 4.578l-1.3 4.746 4.855-1.273a9.148 9.148 0 004.377 1.114h.004c5.047 0 9.156-4.108 9.158-9.158a9.102 9.102 0 00-2.68-6.48zm-6.478 14.09h-.004a7.602 7.602 0 01-3.874-1.06l-.278-.165-2.88.755.768-2.809-.18-.288a7.593 7.593 0 01-1.165-4.05c.002-4.198 3.417-7.612 7.616-7.612a7.56 7.56 0 015.381 2.232 7.567 7.567 0 012.228 5.386c-.002 4.197-3.417 7.612-7.612 7.612zm4.175-5.7c-.229-.115-1.354-.668-1.564-.745-.21-.076-.362-.114-.514.115-.153.229-.592.744-.725.897-.134.152-.267.172-.496.057-.229-.114-.966-.356-1.84-1.136-.68-.607-1.14-1.356-1.273-1.585-.134-.23-.001-.341.1-.467.248-.308.496-.63.572-.783.077-.152.038-.286-.019-.4-.057-.115-.515-1.241-.705-1.7-.186-.446-.375-.386-.515-.393a9.14 9.14 0 00-.439-.008.84.84 0 00-.61.287c-.21.229-.801.782-.801 1.909 0 1.126.82 2.214.934 2.367.115.153 1.614 2.464 3.91 3.455.545.236.972.377 1.304.482.548.175 1.047.15 1.441.091.44-.066 1.354-.554 1.545-1.088.19-.535.19-.993.133-1.088-.057-.096-.21-.153-.438-.268z"/></g><defs><clipPath id="jclip0"><path transform="translate(.143 .143)" d="M0 0h19.714v19.714H0z"/></clipPath></defs></symbol></svg>