<svg width="1920" height="144" viewBox="0 0 1920 144" fill="none" xmlns="http://www.w3.org/2000/svg">
<path d="M52.5315 55.1868C65.8603 55.1868 76.7717 59.2088 85.2656 67.2527C93.7595 75.1648 98.0064 85.4506 98.0064 98.1099C98.0064 110.901 93.7595 121.319 85.2656 129.363C76.7717 137.275 65.8603 141.231 52.5315 141.231H0V2.76923H86.2457V28.8791H27.0498V55.1868H52.5315ZM52.5315 115.714C57.8891 115.714 62.3321 114.198 65.8603 111.165C69.3886 108 71.1527 103.648 71.1527 98.1099C71.1527 92.5714 69.3886 88.2857 65.8603 85.2527C62.3321 82.2198 57.8891 80.7033 52.5315 80.7033H27.0498V115.714H52.5315Z" fill="#F6F8FB"/>
<path d="M229.154 123.231C215.303 137.077 198.446 144 178.583 144C158.72 144 141.863 137.077 128.012 123.231C114.291 109.253 107.43 92.1758 107.43 72C107.43 51.8242 114.291 34.8132 128.012 20.967C141.863 6.98901 158.72 0 178.583 0C198.446 0 215.303 6.98901 229.154 20.967C243.006 34.8132 249.932 51.8242 249.932 72C249.932 92.1758 243.006 109.253 229.154 123.231ZM147.025 104.637C155.519 113.077 166.038 117.297 178.583 117.297C191.128 117.297 201.647 113.077 210.141 104.637C218.635 96.0659 222.882 85.1868 222.882 72C222.882 58.8132 218.635 47.9341 210.141 39.3626C201.647 30.7912 191.128 26.5055 178.583 26.5055C166.038 26.5055 155.519 30.7912 147.025 39.3626C138.531 47.9341 134.284 58.8132 134.284 72C134.284 85.1868 138.531 96.0659 147.025 104.637Z" fill="#F6F8FB"/>
<path d="M250.511 141.231V115.912C258.612 117.099 264.689 115.451 268.74 110.967C272.791 106.484 274.816 97.7143 274.816 84.6593V2.76923H368.118V141.231H341.265V28.8791H301.67V83.8681C301.67 95.8681 300.233 105.956 297.358 114.132C294.483 122.308 290.497 128.374 285.401 132.33C280.435 136.286 275.078 138.923 269.328 140.242C263.709 141.56 257.436 141.89 250.511 141.231Z" fill="#F6F8FB"/>
<path d="M420.607 115.121H478.431V141.231H393.557V2.76923H477.451V28.8791H420.607V58.3517H472.55V84.0659H420.607V115.121Z" fill="#F6F8FB"/>
<path d="M524.547 115.121H582.371V141.231H497.498V2.76923H581.391V28.8791H524.547V58.3517H576.491V84.0659H524.547V115.121Z" fill="#F6F8FB"/>
<path d="M675.923 2.76923H699.444V141.231H672.395V31.6484L646.521 38.967L639.857 15.6264L675.923 2.76923Z" fill="#F6F8FB"/>
<path d="M775.246 144C758.128 144 744.668 137.473 734.868 124.418C725.198 111.231 720.363 93.7582 720.363 72C720.363 50.2418 725.198 32.8352 734.868 19.7802C744.668 6.59341 758.128 0 775.246 0C792.495 0 805.955 6.59341 815.625 19.7802C825.295 32.8352 830.13 50.2418 830.13 72C830.13 93.7582 825.295 111.231 815.625 124.418C805.955 137.473 792.495 144 775.246 144ZM754.469 105.824C759.173 113.473 766.099 117.297 775.246 117.297C784.394 117.297 791.319 113.407 796.024 105.626C800.859 97.8461 803.276 86.6374 803.276 72C803.276 57.2308 800.859 45.956 796.024 38.1758C791.319 30.3956 784.394 26.5055 775.246 26.5055C766.099 26.5055 759.173 30.3956 754.469 38.1758C749.765 45.956 747.413 57.2308 747.413 72C747.413 86.7692 749.765 98.044 754.469 105.824Z" fill="#F6F8FB"/>
<path d="M898.711 144C881.593 144 868.133 137.473 858.333 124.418C848.663 111.231 843.828 93.7582 843.828 72C843.828 50.2418 848.663 32.8352 858.333 19.7802C868.133 6.59341 881.593 0 898.711 0C915.961 0 929.42 6.59341 939.09 19.7802C948.76 32.8352 953.595 50.2418 953.595 72C953.595 93.7582 948.76 111.231 939.09 124.418C929.42 137.473 915.961 144 898.711 144ZM877.934 105.824C882.638 113.473 889.564 117.297 898.711 117.297C907.859 117.297 914.785 113.407 919.489 105.626C924.324 97.8461 926.741 86.6374 926.741 72C926.741 57.2308 924.324 45.956 919.489 38.1758C914.785 30.3956 907.859 26.5055 898.711 26.5055C889.564 26.5055 882.638 30.3956 877.934 38.1758C873.23 45.956 870.878 57.2308 870.878 72C870.878 86.7692 873.23 98.044 877.934 105.824Z" fill="#F6F8FB"/>
<path d="M1137.63 123.231C1123.78 137.077 1106.92 144 1087.06 144C1067.19 144 1050.34 137.077 1036.49 123.231C1022.76 109.253 1015.9 92.1758 1015.9 72C1015.9 51.8242 1022.76 34.8132 1036.49 20.967C1050.34 6.98901 1067.19 0 1087.06 0C1106.92 0 1123.78 6.98901 1137.63 20.967C1151.48 34.8132 1158.41 51.8242 1158.41 72C1158.41 92.1758 1151.48 109.253 1137.63 123.231ZM1055.5 104.637C1063.99 113.077 1074.51 117.297 1087.06 117.297C1099.6 117.297 1110.12 113.077 1118.61 104.637C1127.11 96.0659 1131.36 85.1868 1131.36 72C1131.36 58.8132 1127.11 47.9341 1118.61 39.3626C1110.12 30.7912 1099.6 26.5055 1087.06 26.5055C1074.51 26.5055 1063.99 30.7912 1055.5 39.3626C1047.01 47.9341 1042.76 58.8132 1042.76 72C1042.76 85.1868 1047.01 96.0659 1055.5 104.637Z" fill="#F6F8FB"/>
<path d="M1260.32 2.76923V28.8791H1223.28V141.231H1196.23V28.8791H1159.38V2.76923H1260.32Z" fill="#F6F8FB"/>
<path d="M1345.08 69.6264C1358.15 76.6154 1364.68 87.5604 1364.68 102.462C1364.68 114.857 1360.04 124.879 1350.77 132.527C1341.49 140.176 1329.53 144 1314.9 144C1289.41 144 1272.36 133.121 1263.74 111.363L1287.06 98.1099C1291.24 111.56 1300.52 118.286 1314.9 118.286C1322.34 118.286 1328.03 116.703 1331.95 113.538C1335.87 110.374 1337.83 106.088 1337.83 100.681C1337.83 95.2747 1335.87 90.989 1331.95 87.8242C1328.16 84.6593 1322.67 83.0769 1315.48 83.0769H1298.43V58.7473H1311.37C1318.16 58.7473 1323.46 57.2967 1327.24 54.3956C1331.03 51.3626 1332.93 47.2747 1332.93 42.1319C1332.93 36.989 1331.3 32.967 1328.03 30.0659C1324.76 27.033 1319.93 25.5165 1313.52 25.5165C1301.76 25.5165 1293.53 31.3187 1288.83 42.9231L1265.89 29.4725C1275.17 9.82418 1291.05 0 1313.52 0C1327.11 0 1338.22 3.69231 1346.85 11.0769C1355.47 18.4615 1359.78 28.2198 1359.78 40.3516C1359.78 52.7473 1354.88 62.5055 1345.08 69.6264Z" fill="#F6F8FB"/>
<path d="M1382.24 141.231V2.76923H1409.29V48.2637H1433.39C1446.59 48.2637 1457.7 52.7473 1466.72 61.7143C1475.73 70.6813 1480.24 81.6923 1480.24 94.7473C1480.24 107.802 1475.73 118.813 1466.72 127.78C1457.7 136.747 1446.59 141.231 1433.39 141.231H1382.24ZM1492.79 141.231V2.76923H1519.64V141.231H1492.79ZM1409.29 115.714H1433.39C1439.14 115.714 1443.91 113.736 1447.7 109.78C1451.49 105.824 1453.39 100.813 1453.39 94.7473C1453.39 88.6813 1451.49 83.6703 1447.7 79.7143C1443.91 75.7582 1439.14 73.7802 1433.39 73.7802H1409.29V115.714Z" fill="#F6F8FB"/>
<path d="M1628.05 69.4286C1640.07 76.4176 1646.08 86.967 1646.08 101.077C1646.08 112.813 1641.96 122.44 1633.73 129.956C1625.5 137.473 1615.37 141.231 1603.35 141.231H1545.13V2.76923H1599.23C1610.99 2.76923 1620.86 6.46154 1628.83 13.8462C1636.93 21.0989 1640.98 30.3956 1640.98 41.7363C1640.98 53.2088 1636.67 62.4396 1628.05 69.4286ZM1599.23 28.2857H1572.18V58.7473H1599.23C1603.41 58.7473 1606.88 57.2967 1609.62 54.3956C1612.5 51.4945 1613.93 47.8681 1613.93 43.5165C1613.93 39.1648 1612.56 35.5385 1609.82 32.6374C1607.07 29.7363 1603.54 28.2857 1599.23 28.2857ZM1603.35 115.714C1607.92 115.714 1611.71 114.198 1614.72 111.165C1617.72 108 1619.23 104.044 1619.23 99.2967C1619.23 94.6813 1617.72 90.8571 1614.72 87.8242C1611.71 84.6593 1607.92 83.0769 1603.35 83.0769H1572.18V115.714H1603.35Z" fill="#F6F8FB"/>
<path d="M1779.26 123.231C1765.41 137.077 1748.56 144 1728.69 144C1708.83 144 1691.97 137.077 1678.12 123.231C1664.4 109.253 1657.54 92.1758 1657.54 72C1657.54 51.8242 1664.4 34.8132 1678.12 20.967C1691.97 6.98901 1708.83 0 1728.69 0C1748.56 0 1765.41 6.98901 1779.26 20.967C1793.12 34.8132 1800.04 51.8242 1800.04 72C1800.04 92.1758 1793.12 109.253 1779.26 123.231ZM1697.13 104.637C1705.63 113.077 1716.15 117.297 1728.69 117.297C1741.24 117.297 1751.76 113.077 1760.25 104.637C1768.74 96.0659 1772.99 85.1868 1772.99 72C1772.99 58.8132 1768.74 47.9341 1760.25 39.3626C1751.76 30.7912 1741.24 26.5055 1728.69 26.5055C1716.15 26.5055 1705.63 30.7912 1697.13 39.3626C1688.64 47.9341 1684.39 58.8132 1684.39 72C1684.39 85.1868 1688.64 96.0659 1697.13 104.637Z" fill="#F6F8FB"/>
<path d="M1901.97 69.4286C1913.99 76.4176 1920 86.967 1920 101.077C1920 112.813 1915.88 122.44 1907.65 129.956C1899.42 137.473 1889.29 141.231 1877.27 141.231H1819.05V2.76923H1873.15C1884.91 2.76923 1894.78 6.46154 1902.75 13.8462C1910.85 21.0989 1914.9 30.3956 1914.9 41.7363C1914.9 53.2088 1910.59 62.4396 1901.97 69.4286ZM1873.15 28.2857H1846.1V58.7473H1873.15C1877.33 58.7473 1880.8 57.2967 1883.54 54.3956C1886.42 51.4945 1887.85 47.8681 1887.85 43.5165C1887.85 39.1648 1886.48 35.5385 1883.74 32.6374C1880.99 29.7363 1877.47 28.2857 1873.15 28.2857ZM1877.27 115.714C1881.84 115.714 1885.63 114.198 1888.64 111.165C1891.64 108 1893.15 104.044 1893.15 99.2967C1893.15 94.6813 1891.64 90.8571 1888.64 87.8242C1885.63 84.6593 1881.84 83.0769 1877.27 83.0769H1846.1V115.714H1877.27Z" fill="#F6F8FB"/>
</svg>
