<svg width="16" height="16" viewBox="0 0 16 16" fill="none" xmlns="http://www.w3.org/2000/svg">
<path d="M15.9582 6.0239C15.8528 5.69992 15.5655 5.47055 15.2268 5.43991L10.6081 5.02059L8.78275 0.747079C8.64798 0.433109 8.34134 0.230469 8.00002 0.230469C7.65871 0.230469 7.35194 0.433109 7.21803 0.747079L5.39268 5.02059L0.773216 5.43991C0.434587 5.47116 0.147839 5.70053 0.0418805 6.0239C-0.0634679 6.34788 0.0338237 6.70323 0.289932 6.92785L3.78132 9.9893L2.75189 14.5233C2.67657 14.8567 2.80596 15.2014 3.08258 15.4014C3.23126 15.5094 3.40595 15.5634 3.58125 15.5634C3.73188 15.5634 3.88264 15.5233 4.01729 15.4428L8.00002 13.0614L11.982 15.4428C12.2741 15.6173 12.6415 15.6013 12.9175 15.4014C13.1941 15.2014 13.3235 14.8567 13.2482 14.5233L12.2187 9.9893L15.7101 6.92785C15.9661 6.70323 16.0635 6.34861 15.9582 6.0239Z" fill="#F6BC00"/>
</svg>
