<svg width="24" height="24" viewBox="0 0 24 24" fill="none" xmlns="http://www.w3.org/2000/svg">
<g clip-path="url(#clip0)">
<path d="M18.2461 15.877C17.462 15.1029 16.4832 15.1029 15.7041 15.877C15.1098 16.4663 14.5155 17.0556 13.9312 17.6549C13.7713 17.8197 13.6365 17.8547 13.4417 17.7448C13.0572 17.535 12.6477 17.3652 12.2781 17.1355C10.5551 16.0518 9.11178 14.6584 7.83327 13.0902C7.19901 12.3111 6.63467 11.4771 6.24013 10.5382C6.16023 10.3484 6.17521 10.2236 6.33003 10.0688C6.92433 9.49443 7.50366 8.90511 8.08798 8.3158C8.90203 7.49676 8.90203 6.53788 8.08298 5.71384C7.61853 5.24438 7.15407 4.78492 6.68961 4.31547C6.21017 3.83603 5.73572 3.35159 5.25129 2.87715C4.4672 2.11304 3.48834 2.11304 2.70925 2.88214C2.10995 3.47145 1.53562 4.07575 0.926332 4.65507C0.361991 5.18945 0.0773229 5.84369 0.0173928 6.60779C-0.0774965 7.85134 0.227148 9.02497 0.656647 10.1686C1.53562 12.5359 2.87406 14.6384 4.49717 16.5662C6.68961 19.1731 9.30656 21.2357 12.368 22.724C13.7464 23.3932 15.1747 23.9076 16.7279 23.9925C17.7966 24.0524 18.7256 23.7828 19.4697 22.9487C19.9791 22.3794 20.5534 21.86 21.0928 21.3156C21.8919 20.5066 21.8969 19.5277 21.1028 18.7287C20.1539 17.7748 19.2 16.8259 18.2461 15.877Z" fill="white"/>
<path d="M17.2926 11.8957L19.1354 11.581C18.8458 9.888 18.0467 8.35479 16.8331 7.13621C15.5496 5.85271 13.9265 5.04365 12.1386 4.79395L11.8789 6.64678C13.2623 6.84156 14.5208 7.46583 15.5147 8.45967C16.4536 9.39857 17.0679 10.5872 17.2926 11.8957Z" fill="white"/>
<path d="M20.1737 3.88547C18.0461 1.75795 15.3543 0.414516 12.3827 0L12.123 1.85284C14.6901 2.21242 17.0173 3.37606 18.8552 5.20892C20.5982 6.95189 21.7418 9.15432 22.1564 11.5765L23.9992 11.2619C23.5148 8.45514 22.1913 5.90811 20.1737 3.88547Z" fill="white"/>
</g>
<defs>
<clipPath id="clip0">
<rect width="24" height="24" fill="white"/>
</clipPath>
</defs>
</svg>
