<svg width="30" height="31" viewBox="0 0 30 31" fill="none" xmlns="http://www.w3.org/2000/svg">
<g clip-path="url(#clip0)">
<path d="M28.9436 18.2529C29.8386 10.7191 28.5136 5.96288 26.1236 3.81163L26.1249 3.81038C22.2674 0.136627 9.23985 -0.407123 4.62486 3.97538C2.55236 6.11913 1.82236 9.26538 1.74236 13.1604C1.66236 17.0566 1.56736 24.3554 8.36861 26.3354H8.37485L8.36861 29.3591C8.36861 29.3591 8.32235 30.5841 9.10485 30.8304C9.99986 31.1204 10.4049 30.5516 13.1886 27.2266C17.8436 27.6304 21.4186 26.7054 21.8249 26.5704C22.7649 26.2554 28.0836 25.5516 28.9436 18.2529ZM13.6474 25.0991C13.6474 25.0991 10.7011 28.7729 9.78485 29.7266C9.48485 30.0366 9.1561 30.0079 9.1611 29.3929C9.1611 28.9891 9.18361 24.3729 9.18361 24.3729C3.41736 22.7204 3.75735 16.5054 3.81986 13.2541C3.88236 10.0016 4.47736 7.33788 6.23236 5.54413C10.2811 1.74788 21.7024 2.59663 24.6124 5.33163C28.1699 8.48538 26.9036 17.3954 26.9111 17.6991C26.1799 23.7916 21.8699 24.1779 21.0774 24.4416C20.7386 24.5541 17.5949 25.3629 13.6474 25.0991Z" fill="white"/>
<path d="M15.277 6.25781C14.7957 6.25781 14.7957 7.00781 15.277 7.01406C19.0107 7.04281 22.0857 9.64531 22.1194 14.4191C22.1194 14.9228 22.8569 14.9166 22.8507 14.4128H22.8494C22.8094 9.26906 19.4519 6.28656 15.277 6.25781Z" fill="white"/>
<path d="M20.1892 13.628C20.1779 14.1255 20.9142 14.1493 20.9204 13.6455C20.9817 10.8093 19.2329 8.47301 15.9467 8.22676C15.4654 8.19176 15.4154 8.94801 15.8954 8.98301C18.7454 9.19926 20.2467 11.1443 20.1892 13.628Z" fill="white"/>
<path d="M19.4018 16.8539C18.7843 16.4964 18.1555 16.7189 17.8955 17.0701L17.3518 17.7739C17.0755 18.1314 16.5593 18.0839 16.5593 18.0839C12.7918 17.0876 11.7843 13.1451 11.7843 13.1451C11.7843 13.1451 11.738 12.6114 12.083 12.3251L12.763 11.7626C13.103 11.4926 13.318 10.8426 12.9718 10.2039C12.0468 8.53261 11.4255 7.95636 11.1093 7.51386C10.7768 7.09761 10.2768 7.00386 9.75676 7.28511H9.74551C8.66426 7.91761 7.48051 9.10136 7.85926 10.3201C8.50551 11.6051 9.69301 15.7014 13.478 18.7964C15.2568 20.2601 18.0718 21.7601 19.2668 22.1064L19.278 22.1239C20.4555 22.5164 21.6005 21.2864 22.2118 20.1726V20.1639C22.483 19.6251 22.393 19.1151 21.9968 18.7814C21.2943 18.0964 20.2343 17.3401 19.4018 16.8539Z" fill="white"/>
<path d="M16.4607 11.0168C17.6619 11.0868 18.2444 11.7143 18.3069 13.0031C18.3294 13.5068 19.0607 13.4718 19.0382 12.9681C18.9582 11.2856 18.0807 10.3481 16.5007 10.2606C16.0195 10.2318 15.9744 10.9881 16.4607 11.0168Z" fill="white"/>
</g>
<defs>
<clipPath id="clip0">
<rect width="30" height="30" fill="white" transform="translate(0 0.886719)"/>
</clipPath>
</defs>
</svg>
