<svg width="22" height="22" viewBox="0 0 22 22" fill="none" xmlns="http://www.w3.org/2000/svg">
<g clip-path="url(#clip0)">
<path d="M20.9607 12.5471C21.6 7.16587 20.6536 3.76855 18.9464 2.23194L18.9473 2.23105C16.1919 -0.393062 6.88659 -0.781455 3.59016 2.3489C2.1098 3.88015 1.58837 6.12747 1.53123 8.90962C1.47409 11.6927 1.40623 16.906 6.26427 18.3203H6.26873L6.26427 20.4802C6.26427 20.4802 6.23123 21.3552 6.79016 21.531C7.42944 21.7382 7.71873 21.3319 9.70712 18.9569C13.0321 19.2453 15.5857 18.5846 15.8759 18.4882C16.5473 18.2632 20.3464 17.7605 20.9607 12.5471ZM10.0348 17.4373C10.0348 17.4373 7.93034 20.0614 7.27587 20.7427C7.06159 20.9641 6.82677 20.9435 6.83034 20.5043C6.83034 20.2159 6.84641 16.9185 6.84641 16.9185C2.72766 15.7382 2.97052 11.2989 3.01516 8.97658C3.0598 6.65337 3.4848 4.75069 4.73837 3.46944C7.63034 0.757831 15.7884 1.36408 17.8669 3.31765C20.408 5.57033 19.5036 11.9346 19.5089 12.1516C18.9866 16.5034 15.908 16.7793 15.3419 16.9677C15.1 17.048 12.8544 17.6257 10.0348 17.4373Z" fill="white"/>
<path d="M11.1982 3.97949C10.8545 3.97949 10.8545 4.51521 11.1982 4.51967C13.8652 4.54021 16.0616 6.39913 16.0857 9.80896C16.0857 10.1688 16.6125 10.1643 16.6081 9.80449H16.6072C16.5786 6.13038 14.1804 4.00003 11.1982 3.97949Z" fill="white"/>
<path d="M14.7073 9.24364C14.6992 9.599 15.2251 9.61596 15.2296 9.25614C15.2733 7.23025 14.0242 5.5615 11.6769 5.38561C11.3331 5.36061 11.2974 5.90079 11.6403 5.92579C13.676 6.08025 14.7483 7.46954 14.7073 9.24364Z" fill="white"/>
<path d="M14.1438 11.5475C13.7028 11.2922 13.2537 11.4511 13.068 11.702L12.6796 12.2047C12.4822 12.46 12.1135 12.4261 12.1135 12.4261C9.42241 11.7145 8.70277 8.89843 8.70277 8.89843C8.70277 8.89843 8.66973 8.51718 8.91616 8.31272L9.40188 7.91093C9.64473 7.71808 9.7983 7.25379 9.55098 6.79754C8.89027 5.60379 8.44652 5.19218 8.22062 4.87611C7.98312 4.57879 7.62598 4.51183 7.25455 4.71272H7.24652C6.47419 5.1645 5.62866 6.01004 5.89919 6.88058C6.3608 7.79843 7.20902 10.7243 9.91259 12.935C11.1831 13.9806 13.1938 15.052 14.0474 15.2993L14.0555 15.3118C14.8965 15.5922 15.7144 14.7136 16.151 13.9181V13.9118C16.3447 13.527 16.2805 13.1627 15.9974 12.9243C15.4956 12.435 14.7385 11.8949 14.1438 11.5475Z" fill="white"/>
<path d="M12.0442 7.37864C12.9022 7.42864 13.3183 7.87686 13.3629 8.79739C13.379 9.15722 13.9013 9.13222 13.8853 8.77239C13.8281 7.57061 13.2013 6.90096 12.0728 6.83846C11.729 6.81793 11.6969 7.35811 12.0442 7.37864Z" fill="white"/>
</g>
<defs>
<clipPath id="clip0">
<rect width="21.4286" height="21.4286" fill="white" transform="translate(0.286133 0.142578)"/>
</clipPath>
</defs>
</svg>
