<svg width="15" height="15" viewBox="0 0 15 15" fill="none" xmlns="http://www.w3.org/2000/svg">
<g clip-path="url(#clip0)">
<path d="M14.3396 10.4225C14.3014 10.3585 14.0649 9.8447 12.927 8.78862C11.7358 7.68276 11.8959 7.86233 13.3306 5.95019C14.2045 4.78565 14.5538 4.07449 14.4445 3.77047C14.3405 3.48067 13.6978 3.55712 13.6978 3.55712L11.5607 3.56956C11.5607 3.56956 11.4025 3.54823 11.2843 3.61846C11.1696 3.68779 11.0958 3.84781 11.0958 3.84781C11.0958 3.84781 10.7571 4.74921 10.3055 5.51549C9.35345 7.1325 8.97209 7.21784 8.81652 7.11738C8.45472 6.88359 8.54539 6.17687 8.54539 5.6755C8.54539 4.10827 8.78274 3.45489 8.08225 3.28599C7.84934 3.22998 7.67866 3.19265 7.08395 3.18642C6.32123 3.17842 5.67496 3.18909 5.3096 3.36777C5.06603 3.48689 4.87846 3.75269 4.99313 3.7678C5.13447 3.78647 5.4545 3.85403 5.62429 4.08516C5.84386 4.38296 5.83586 5.05323 5.83586 5.05323C5.83586 5.05323 5.96209 6.89781 5.54162 7.12716C5.25271 7.28451 4.85712 6.96359 4.00817 5.49593C3.57347 4.74476 3.24456 3.91359 3.24456 3.91359C3.24456 3.91359 3.18144 3.75891 3.06855 3.67624C2.93165 3.57579 2.73963 3.54378 2.73963 3.54378L0.707484 3.55623C0.707484 3.55623 0.402573 3.56512 0.290565 3.69757C0.191002 3.8158 0.282564 4.05938 0.282564 4.05938C0.282564 4.05938 1.87379 7.78143 3.67481 9.65802C5.32738 11.3781 7.20307 11.2652 7.20307 11.2652H8.05291C8.05291 11.2652 8.30982 11.2368 8.44049 11.0955C8.56139 10.9657 8.55695 10.7221 8.55695 10.7221C8.55695 10.7221 8.54006 9.58157 9.06987 9.41355C9.59169 9.24821 10.262 10.5159 10.9722 11.0039C11.5092 11.3728 11.9172 11.2919 11.9172 11.2919L13.8169 11.2652C13.8169 11.2652 14.8107 11.2039 14.3396 10.4225Z" fill="white"/>
</g>
<defs>
<clipPath id="clip0">
<rect width="14.2222" height="14.2222" fill="white" transform="translate(0.244141 0.130859)"/>
</clipPath>
</defs>
</svg>
