<svg width="30" height="31" viewBox="0 0 30 31" fill="none" xmlns="http://www.w3.org/2000/svg">
<path fill-rule="evenodd" clip-rule="evenodd" d="M24.9484 5.89683C22.3172 3.26251 18.8179 1.81112 15.0899 1.80957C7.40803 1.80957 1.15612 8.0613 1.15303 15.7452C1.152 18.2015 1.79367 20.5993 3.01333 22.7128L1.03613 29.9346L8.42427 27.9965C10.46 29.107 12.7519 29.6922 15.0842 29.6929H15.0901C22.771 29.6929 29.0236 23.4406 29.0266 15.7564C29.0281 12.0323 27.5798 8.53097 24.9484 5.89683ZM15.0899 27.3392H15.0851C13.0066 27.3384 10.9681 26.7798 9.18936 25.7246L8.76656 25.4734L4.38233 26.6236L5.55255 22.349L5.27703 21.9108C4.11746 20.0664 3.50514 17.9347 3.50617 15.7461C3.50857 9.35941 8.70511 4.16339 15.0945 4.16339C18.1885 4.16442 21.097 5.37086 23.284 7.5604C25.4709 9.74994 26.6746 12.6603 26.6736 15.7555C26.6709 22.1427 21.4747 27.3392 15.0899 27.3392ZM21.4438 18.6636C21.0956 18.4892 19.3835 17.647 19.0642 17.5307C18.7452 17.4144 18.5128 17.3566 18.2809 17.7051C18.0486 18.0535 17.3814 18.838 17.1781 19.0703C16.9749 19.3027 16.772 19.3319 16.4237 19.1575C16.0754 18.9833 14.9534 18.6154 13.6232 17.429C12.5881 16.5057 11.8893 15.3653 11.686 15.0168C11.4831 14.668 11.6843 14.4977 11.8388 14.3062C12.2158 13.8381 12.5932 13.3473 12.7093 13.115C12.8255 12.8826 12.7673 12.6792 12.6801 12.5049C12.5932 12.3307 11.8968 10.6167 11.6067 9.9192C11.3238 9.24045 11.037 9.33211 10.8231 9.32147C10.6202 9.31134 10.3879 9.30928 10.1556 9.30928C9.92356 9.30928 9.54625 9.39631 9.22696 9.74513C8.90784 10.0938 8.00833 10.9361 8.00833 12.6502C8.00833 14.3642 9.25614 16.02 9.43021 16.2525C9.60427 16.4849 11.8858 20.0022 15.379 21.5105C16.2098 21.8696 16.8583 22.0836 17.3642 22.2441C18.1985 22.5092 18.9574 22.4718 19.5575 22.3822C20.2267 22.2821 21.6177 21.5396 21.9081 20.7263C22.1982 19.9128 22.1982 19.2157 22.111 19.0703C22.0241 18.9251 21.7919 18.838 21.4438 18.6636Z" fill="white"/>
</svg>
