<svg width="20" height="20" viewBox="0 0 20 20" fill="none" xmlns="http://www.w3.org/2000/svg">
<g clip-path="url(#clip0)">
<path fill-rule="evenodd" clip-rule="evenodd" d="M16.537 3.43493C14.8079 1.70381 12.5084 0.750039 10.0586 0.749023C5.01049 0.749023 0.902094 4.85731 0.900063 9.90673C0.899386 11.5209 1.32106 13.0965 2.12254 14.4854L0.823242 19.2312L5.6783 17.9576C7.01607 18.6873 8.52214 19.0719 10.0548 19.0723H10.0587C15.1062 19.0723 19.215 14.9637 19.217 9.91406C19.218 7.46685 18.2662 5.16594 16.537 3.43493ZM10.0586 17.5256H10.0554C8.68955 17.5251 7.34998 17.158 6.18108 16.4646L5.90324 16.2996L3.02217 17.0554L3.79117 14.2464L3.61012 13.9584C2.84811 12.7464 2.44573 11.3456 2.44641 9.90729C2.44799 5.71035 5.86285 2.29582 10.0616 2.29582C12.0948 2.2965 14.0061 3.0893 15.4432 4.52814C16.8804 5.96698 17.6714 7.87949 17.6707 9.9135C17.6689 14.1108 14.2543 17.5256 10.0586 17.5256ZM14.234 11.8245C14.0052 11.7099 12.8801 11.1565 12.6702 11.08C12.4607 11.0037 12.3079 10.9656 12.1555 11.1946C12.0029 11.4236 11.5644 11.9392 11.4308 12.0918C11.2973 12.2445 11.1639 12.2637 10.9351 12.1491C10.7062 12.0346 9.96888 11.7928 9.09475 11.0132C8.41453 10.4065 7.95529 9.65709 7.82173 9.42809C7.68839 9.19887 7.8206 9.08697 7.92213 8.96108C8.16985 8.65345 8.41791 8.33094 8.49417 8.17832C8.57054 8.02558 8.5323 7.8919 8.47499 7.7774C8.41791 7.6629 7.96026 6.53654 7.76962 6.07821C7.58371 5.63217 7.39521 5.69241 7.25466 5.68542C7.12132 5.67876 6.96869 5.67741 6.81607 5.67741C6.66355 5.67741 6.4156 5.7346 6.20578 5.96382C5.99608 6.19293 5.40497 6.74647 5.40497 7.87284C5.40497 8.9992 6.22496 10.0873 6.33935 10.2401C6.45373 10.3928 7.95304 12.7042 10.2485 13.6953C10.7945 13.9313 11.2207 14.072 11.5531 14.1775C12.1014 14.3516 12.6001 14.327 12.9945 14.2681C13.4342 14.2024 14.3482 13.7145 14.5391 13.18C14.7298 12.6454 14.7298 12.1873 14.6724 12.0918C14.6154 11.9963 14.4627 11.9392 14.234 11.8245Z" fill="white"/>
</g>
<defs>
<clipPath id="clip0">
<rect width="19.7143" height="19.7143" fill="white" transform="translate(0.142578 0.142578)"/>
</clipPath>
</defs>
</svg>
